<mxfile host="app.diagrams.net" agent="Mozilla/5.0 (Macintosh; Intel Mac OS X 10_15_7) AppleWebKit/537.36 (KHTML, like Gecko) Chrome/131.0.0.0 Safari/537.36" version="25.0.3">
  <diagram name="Page-1" id="kr2xOPOI3GjvuV5hb4eG">
    <mxGraphModel dx="2954" dy="1145" grid="1" gridSize="10" guides="1" tooltips="1" connect="1" arrows="1" fold="1" page="1" pageScale="1" pageWidth="827" pageHeight="1169" math="0" shadow="0">
      <root>
        <mxCell id="0" />
        <mxCell id="1" parent="0" />
        <mxCell id="Nmos6C9Gwye4AmpU9b0R-5" value="Services hosted on &lt;b&gt;DigitalOcean&lt;/b&gt;" style="rounded=1;whiteSpace=wrap;html=1;fillColor=#F2F2F2;dashed=1;dashPattern=8 8;fontFamily=Verdana;fontStyle=0;align=center;labelPosition=center;verticalLabelPosition=top;verticalAlign=bottom;fontColor=#808080;" parent="1" vertex="1">
          <mxGeometry x="170" y="130" width="520" height="490" as="geometry" />
        </mxCell>
        <mxCell id="Nmos6C9Gwye4AmpU9b0R-1" value="" style="shape=image;verticalLabelPosition=bottom;labelBackgroundColor=none;verticalAlign=top;aspect=fixed;imageAspect=0;image=data:image/png,iVBORw0KGgoAAAANSUhEUgAAAgAAAAIACAYAAAD0eNT6AAAABHNCSVQICAgIfAhkiAAAAAlwSFlzAAAOxAAADsQBlSsOGwAAABl0RVh0U29mdHdhcmUAd3d3Lmlua3NjYXBlLm9yZ5vuPBoAACAASURBVHic7N13eBRV98Dx7256IRBCEnrvPYA0KRZAEXtDxdeu+EMFe6+or10BFV5FEXvBDhaa9CpFeoeEmgTSe7Ll98eAIjWZubMzu3s+z7OPCpkzB9ndOXPn3nMdCCGCWSug8+F/tgaaAIlALBBz+J/Ct3KAIqAQyAS2AFuBzcDyw78mhGEOqxMQQvhUTeAS4JzDr7rWpiOqyAtsAP4AZhx+VViakRBCCNsKQ7vofweUol1E5BUYr4PA28AZCCGEEIdFAHcAu7H+QiUv81+rgKuQkV0hhAhaYcADQAbWX5Tk5fvXamAIQgghgko/YD3WX4TkZf1rKtAYIYQQAa0aMBnwYP2FR172eRUCo5DHAkIIEZDaInf98jr162e0FSBCCCECxC1ACdZfYORl/1cq0AUhhBB+7xGsv6jIy79eBcB5CCGE8EsO4A2sv5jIyz9fZcA1CCGE8Dtjsf4iIi//frnRegYIIYTwE89i/cVDXoHxKgMGIoQQwvaGY/1FQ16B9coFOiCCkqwNFcI/dAMWAeFWJyICznagK5BvdSLCt6QAEML+aqD1eW9iRnCnw0G7hkn0bNmADg2TaZpckzrx1YiKCCMmIsyMUwYdT3kp7qIs8HpP+7N5JeWUlLvYnV3IrkMF/LU7iyU7MtibU2Rmil8Aw8w8gbAfKQCEsL+vgatVB21RJ4GhfTpwafc2JMbFqA4vjuGpKMVdWLki4EQ2p+fy/cpd/LA6lZyiMsXZAXArMMmMwMKepAAQwt6GANNUBmzXIIlRF/ZmUKfmOOQbwKc85cW4C7MNxSgpd/HV8h1MmLuRbLWFQDbQGm2LYREE5OMvhH1FobX4baoiWLWoCB6+tA/D+nUmxCkffat4SgtwF+cZjpNXUs4b09fy5fLtegcVTuQjtO6SIgiEWJ2AEOKkngQuUxGoY6PafHHf1fRr2xin3PZbyhEagdddAW6XoTiRYSGc3bouneonsGBbOqUVbhXpdQZmAHtVBBP2Jt8EQthTPFrv9jijgS7q1po3bx5MeKjU+7bh9VCRlwkeY0XAEftzi7n5o7nsyFQykX8G0i44KDitTkAIcUJ3o+Dif32/Toy7bYhc/O3G4SQkprqycHVrRPP18HPpUF/Jhn+DgO4qAgl7k28FIewnBvgKiDYS5JLubXj1hvNkyN+mHCFh4CrHq2gUIDIslPPa1Wf2pn3kFJcbDZeE9h4UAUxGAISwn6FAgpEAXZvV5c2bBsvF3+acMTWUxouPieDDm/oTF2m4X9RFQAMFKQkbkxEAIeznLaCx3oPjY6L4/N6rqB4TqS4jYQqHwwnuCrwGJwQerXpUOE0Sq/HL2t1GwjiATGChmqyEHckIgBD20gjoayTAk1edRd2ahqcPCB9xRqn/uxrUrj4XdWpkNMwNKnIR9iUFgBD2MhQDn8szmtfjip7tFKYjzOYICcMRqn6Lh8eGdCYmItRIiDZAR0XpCBuSAkAIexlg5OAHL+kj3f38kDNCfSvmpGpR/KdXS6NhzlWRi7AnKQCEsI9w4Ey9B3dpWpeeLWXelj9yhhla8HFSt/RpRVSYoale56jKRdiPFABC2EcPDCz9u66vjNb6LacDR2iE8rA1YyIY2K6+kRD9AEPPEYR9SQEghH101XtgVHgYF3QxPNwrLOQIU18AAFya0tjI4XGAvLEClBQAQthHa70H9mzZgBjja7+FhZwmTAQE6NUs2ehjACkAApQUAELYRyu9B/ZuJc/+/V5ImClhw0KcdGlUy0gI3e9LYW9SAAhhHy30HtihUbLKPIQFHM4QcJjzlWxwjwAZAQhQUgAIYR+6b9Oa1TbUOVjYhdOc5qxNahlqNiRvrgAlBYAQ9hAG6JoFFhriJDFO/Tpy4XsOpzlfyfXiDb0/pK1kgJICQAh7iNV9YGS4NP8JGOb8RcaEG1rJV01VHsJepAAQwh5036JFhZszeUz4nsOkOQDRxloCy/BSgJICQAh70P1ZdMjtfwDxmhLV4LbQcp0IUPIXK4QQQgQhKQCEEEKIICQFgBBCCBGEpAAQQgghgpAUAEIIIUQQkgJACCGECEJSAAghhBBBSAoAIYQQIghJASCEEEIEISkAhBBCiCAkBYAQQggRhKQAEEIIIYKQFABCCCFEEJICQAghhAhCUgAIIYQQQUgKACGEECIISQEghBBCBKFQqxMQQgh/UlRaztYDWWw/kIXX6yU2KoImSfG0rpeIw2F1dkJUnhQAQghRCYs27+azeX8xY812XG7Pcb9fKy6aQZ2ac88FPalbM86CDIWoGikAhBDiFPKKS3n885lMW7HllD93KL+YLxas5bulG7l9QFfuv7gPIU4ZEhD2JQWAEEKcxNq0dIZP+In9OQWVPqaswsU7vy1j875DvH3bhURHhJmYoRD6ySRAIYQ4gakrNnPVa19V6eJ/tFlrdzDi/al4vYoTE0IRKQCEEOIoXi9MmL6ckR/8QmmFy1CsOet38sGsFYoyE0ItKQCEEOKwkvIK7po4lZe/n49H0a37qz8uYGdGtpJYQqgkBYAQQgAHcgq46vWv+GXlqSf7VVW5y81TX85WGlMIFaQAEEIEvfkbUxny4qesS8swJf7CTWlMXbHZlNhC6CUFgBAiaLk9Xt6aupgbx31HVkGxqed65qs/TD+HEFUhBYAQIihlFRRz47hvGTNtsbLn/ac73zNf/WH6eYSoLCkAhBBBZ9Hm3QwaPZkFm9J8et6pKzYrn2MghF7SCEgIETTKXW7e/HkR78/8E7fHmgX6j302k86N61AvQdoFC2vJCIAQIihs2nuQS17+nAnTl1t28QettfCI96dS4XJbloMQIAWAECLAudwexkxbzIX//ZSNezKtTgeAv1IP8MoPC6xOQwQ5eQQghAhYW/cf4oHJv7M2Ld3qVI4zcdYKWtZN4OozO1idighSUgAIIQJOWYWL8b8vZ/zvyyi38VD7k1/OplW9RDo1rm11KiIIySMAIURAmbthFwOfm8yYaYtNvfjXS4g3HKOswsVt439gz6E8BRkJUTVSAAghAkJGbiH3ffQrN477jrSDuaadJzI8jA/uvpmVbzxDUnXjM/kz84q4fuwUaRIkfE4KACGEX3N5PEycuYKzn/6Q75duNPVcjZNqseilx7l1QF+Sa8Tx3ogblMRNzczl1vE/UFRWoSSeEJUhBYAQwm/tz87nqte+4oVv55p+8RzUuR0r3niaLs0a/f1rl/bowm0D+ymJv3rnAW75YCYl5ca2IBaisqQAEEL4pUP5xVz71jes2rnf1PM4HA4ev/JCfn36PhKqxR73+2NuvZYWdZOVnOvPnRnc9vF8SirsO3FRBA4pAIQQfunJL2eRmmnes36ApOpxTHtyFC9efzkhzhN/XcZERvDlA8MJCwlRcs5lOzO5fuIf5BaXKYknxMlIASCE8Dub9h7kt1VbTT3H+V06sHbsaC7o2vG0P9u1WWNevuFKZedesyeL/3wwh0OFpcpiCnEsKQCEEH5n2orNpsUODw3ljZuH8utT95Jco/Kz/O+/5DxuGdBXWR6bDuRy1YRZ7MjMVxZTiKNJASCE8Dsb9x40JW6rerVZ8soT3H/JeTgcjiofP+HO/9C3bUtl+ezJLuSqCbNYtD1DWUwhjpACQAjhd1TPlA9xOnnw0vNZ/daz/5rlX1XhoaF8/+jdNEmupSy3/NJybp08j48WbcFr3R5GIgBJASCE8Ds1Y6OUxWrTpBELJ43jtTtvJCo83HC8WnGxTH1iFHHR6nJ0uT28OG01d32+kPzScmVxRXCTAkAI4Xe6NK1rOEZoSAiP3nwdq758n54d20FiMkRFK8gO2jWsx1cP3kl4qNrtVmZs2Mslb89g/b5spXFFcJICQAjhdy7r0YbI8DDdx3dp3YIlH7/LS/fcTuSRu36HA2olQczxa/31GNylA18+MJzQELVfs3uyC7n6f7MYP2cjLrdHaWwRXKQAEEL4lci4WrTtPoDHb72+ysfWqBbLO4+OYvln/6Nb21bH/4DDAQmJEJ8AVZ8DeJzLe3Xls/vuOGkPAb3KXR7enLGWy8fPZNMBc3shiMAlBYAQwg84iKqRTHKb3iS16kFEbDyP33o9l59TuWV3DoeDGy4cxObvP+Guqy89/QW5WhwkJGkFgUFD+3Rn8shbcSqIdayN+3O47N0ZjJm5jlLpHiiqSE3rKiGEUdWB+/QcWC0qgtsGdFWcTtXlFZeyYvs+1u3OIPVgLpFhocRFRxiK6XA4ialVj1rNUqiW3JjQ8H8m1jkdDq4c0B+X282y9Ztwe048HN6pZTO+efUZRl13JbFVmZgXFg5RUVBaAieJXVkdGzegQa2aTPtzDaon8nu8XpbvOsiPq1OpVS2Slsk1jqtbcovL+XTJNr2nyALeMZimsCH1JakQQo+GQJqeA+vWjGPJS3coTuf0Ssor+HP7PhZuSmPhpjQ27T2I55h1ailN63DfhWfSv13jKsV2hoYRW6sBsclNCA2PPO3Ppx3I4JNp01n41zoO5uQRFhpCh+ZNueLcfpzfu7uuNf1/83oh6yAUF+mPcdikWQsYPuFjU5/dd26YwJNDutC5YcLfv7brUAED3/hFb8gtQGsVuQl7kQJACHuwfQHg9nhZm5bOos1pLNy0m5U79lHuOv2ws8MBtw3oxhNXnHXaEfXwmOrEJjYkJqE+DsXPzQ3Lz4PcHDB4D//bqnVc/ep4CkvN7fV/duu63HV2Ozo3TJACQJyQ2jUqQoiAsT+ngHWp6axJS2dtajp/paZTUFL1i5bXCxNnriAmIpz7Lup93O87nE6i4+sSm9SQiNh4FambI646REZqowEV+rceHtylA/NefJQLXxjDgZw8hQn+25zN+5mzeT99WtRmSMeGpp1H+C8ZARDCHiwbAfB64UBuAZv3HmRtWjpr0zJYk3qAQ/nFumOeSKjTybQn/kOb+okAhEdXJ6ZWfWIS6uEM1b+kz+e8XsjPhTxjs+/TDmZxwei32LjH3O2MFZARgAAlIwBCBImsgmJ2ZeawMyOH1MwcdmXksOvwP0sr1LbWPRGXx8OkOX/x3sN3ElOrPmGRatbb+5zDAdXjtaZB2YegXF9nvkaJCSx86TEuf/ld5q43b3MjIU5GRgCEsAfdIwDJNWJ5b/glZBUWcyi/mMy8QrIKSjiYX8TB/CKyCopJzy2kyAYtZBPja5A5+wer01DH69UmB+Zk6V4pUOF28+BHXzNu2izFySkjIwABSgoAIXzDCbQBugGdgcZAbSDp8O+HohUBAe/gHz9Sq0Z1q9NQy+2BvGwoLETvJMGvFy7ntnc+Mn1yoA4VwJ7D/+4FMoEMYAewCliJViQIPyMFgBDmcQIDgSuAS/jnYh/UMmb9QFLNGlanYY6KCsjL0b1kcPPeAwx7631W7dA1GGSlVOAn4GtgibWpiMqSAkAI9WKB4cAIoKnFudhKbHQUufOnKW+NazvlZdpjgbKq382Xu1w89fkPvP7j78f1VfATq4FxwGeA+ZNLhG7SCVAIdULRLvzfA5cDNl7TZo0BPbpy/QUDrU7DfCGhEFsNQsOgvFSbK1DZQ51OBnZuR//2rVi4cRs5hcYbEPlYHeBS4Gq0RwfyeMCmpAAQQo12wC/A7WgjAOIExjx4Dy0a1rc6Dd8JD4eYalBRDq6q3Qw3TqrFbQP7UVZRwfJtu/D632hALeBaoBMwB/C7SibQSQEghHEjgO8Ikkl8el1xbj+euK3qO/j5PacTYmLA49UeDVRBWGgIg1Lac0HXjqxN3cO+rByTkjRVG+BGtEcDuyzORRxFCgAh9AtFe9b5LNJT45T6denIt689R3hYsP5vcmgbCzlDobTqDZbq1qzBLQP60igxgaVbdlKkY26BxWLQRgMy0FYNCBuQAkAIfUKBr9DubMRJxEZH8ejN1zHxqYeIigi3Oh3rRUSAw6ntMFhFDoeDlKaNuOO8/jgdTlbtTKOiEnsx2EgIcBFQCiyyOBeBrAIQQo8Q4Au0SU7iGMkJ8ZzbvQsDe3Tj8nP7ERcTbXVK9pObo7UTNuBATh6jv/6JSbMWUl7F+QU2cB8wxuokgp0UAEJU3WvAg1YnYRfRkRH07tSeAT26MqBHV7q0bmFs+91g4PXCwQxdIwHH2n0wizd+ms4HM+dTXGZ9t8dK8gJXoc2dERaRT6kQVTMU+JIg/uzEREXSpXVLzumewoAeXenRvg1hocH6bN8AtxvS92n/VCA9J49xv8xi4ox5HMovVBLTZPlAd2SZoGV8/SUWBjRBWx4SjayT9idutA9sPlor0N2Avubn/qsusAEI0DZ2x4sMD6dTy2Z0a9vq71ebpo0Cv5GPrxQXwaFMpSFLysv5fN5S3vllNmtS95z+AGstA85E+34RPmZ2AdAWOAfoD3RA64rmR/t+ilMoAbYCa9HW+P6Bzs1s/MiPaC19A1JSzRo0b1CP9s2a/H2xb9+8idzdmy1jv66OgZWxYnsqk2Yt4MsFy8gtUru9s0IyH8AiZhQA7YAbgOuAIOr4IYBNaO0/P0MbIQgkA4EZVidhVGK8dpFv0bAeLRrWp0XD+jRvUI/mDepRPTbG6vSCU1kpZBww9RSb9h6g7d1PmHoOA/LQbg6zrU4k2Kgq7R3AxcCjQE9FMYX/aQO8CDwPTAf+Cyy0NCN1nrM6gZMJDQmhZaP6JMbXILlmPEk140mMr0FSzRrUTqhJYnwNEuNrUDcxgdjoKKvTFceKiITISCgtNe0UIU5bT1mpDjwA2LZCCVQqCoBLgBeA9gpiicDgBAYffs1DKwyXWpqRMecAvVQFa5Jci2H9e9GtWWPaNKhDaEgI+7Nz6fvYS7ri1U1MYMO3k1WlJ6wQHWtqAWBEk3p1mPW/NwAoLC5h7bYdLF6zgS9+m0Weun0K7gFeBgpUBRSnZ6QAaAK8DQxRlIsITP3Rmn5MQisEsqxNR5fbVQRpVjuJt269hiHdOuE8ZplcqEyqC24xsZCbDR77zasNCw2hab06f/93xxZNuf6Cgbw6ajgf/vgrT47/kMJiw8sZq6GtsPnAaCBReXq/dW5Hmw0tF39RGU7gNrQ5AoMtzqWq4tF2NjPk1gF9WTPmOS46o/NxF38hcDgg0r8ez8RGRzHquitY+/WH9GjfRkXIm1UEEZVX1QKgGvA58D7gX+9WYQeJaDvmjcV/VoMMAiKNBBh54QA+uPtmYiIjFKUkAlKEf36lNqlXh9nvvUmfzh2MhuqJ9h0hfKQqBUBtYAHa7H4h9HIAI9GW1PnDtPMBRg6+tEcXxtx6rapcRCCL8N8CMSYqkp/HvEjdxAQjYZxo822Ej1S2AGiO9hy3k4m5iOByATALMPSN4QN99R4YFx3FO3cMk7a4onLCwrRHAX4qPq4aYx+6x2gY3Z83UXWVKQAaAXPR1mkKoVJPYCYQZ3UiJxEBNNN78N0XnEu9BGl2KSrJ4YAQ/266dOWA/nRt09JIiLaqchGnd7p3WyLaeu56PshFBKcUtMcBgwG7bXLeAgMrZa4/S9nKQdspr3Axe/lK5q9aS0ZWDtViomjTpBEX9z/T6DBwQFmzdQe/LlxK2oEMPF4vjeokc37v7ie/SAbAapDrBg9g5aateg9XMptQVM6pvtzCgZ+BVj7KRQSvs9GWCQ6zOpFj1NV7YNPkRNrUr3P6H/RDU2bO5cG3JrA7/fge9iNffZvbLx/CKyOHB3XToc2pu7n75bHMXr7quN978t0P6ZvSkXcfG0WH5scMrIaE+ChD81zUrxcPvDle7+HJaCPT9lsPGYBOVW6+gnT1E75zHXCH1Ukco5reAxsn11KZh20887+PuPqR50548QeocLkY/81P9L7pbjKzje1376/mr1pLzxtGnPDif8SC1WvpfdPdTF/y579/w4/nABzRsHaykXkvDiBWYTriFE5WAFwMjPJlIkKgbQjS0eokjqL7i6hOfHWVedjC5J9/Z/T7n1TqZ9dt38kVDz6N24aNbcyUuj+dyx54slId8gqLS7j64WfZmrb3n18MgAIgIjyMWjUMvf+lAPCREz0CiAP+h0k7BYaEhJJUvzGJdRoSFy/PCn3NC5S4wFXF72WPx01JXjbZ+3eRm7Ebr9drRnpRwES0trt2uHLonpOQU2jbndd0yS8q5qEx/6vSMQv/Wsen02Zw08Xnm5SV/Tz29kSy8yrfzTa/qJgH35rAz2NeNDEr3/J6vRQY23nQnj2RA9CJCoDRgNKHl7HV4+k35Bp6nHsxbbv1ITLKH5Z/By4vsKcQiir0HV+cn83OlXNZN+d71s/9gYoyw21Aj9Yd7VFA1a425tDdl3xvVmBtbDZl5lwO5eZV+bgJ3/4UNAXAodw8psycW+Xjpi1Ywp6MTBokJ6lPygKZ2bmUlpcbCSH7AfjIsQVAO+BuVcHjE2tz1fBHGXTVbURERasKKwxyAPWiYVcBVOi4z46Oq0n7sy+n/dmXU5yfzcKvxjH/izcpLylUleJ/ga8Aqx8i676Kb96bTnZhETUDZIvdUz3PPpU/N2whr7AoKLYanrviL12PPLxeL7OXrQqYQmnJ2g1GDs8HdN6aiKo6dg7A44CSaajnXzOcCb9v4qIbRsrF34ZCnFA/1vhznui4mgy641ke+mYjbfpcqCQ3tP77hjuKKLBF74HlLhffL1mpMhdL7c04qOs4r9fLvsxDirOxJyN/zj0ZJ55U6Y8+/22WkcN1f+ZE1R1dADRH243JkPDIKB4Z+zV3jZ5ATLXAmwgVSCJDoKahLvf/qJ5Un5te/4kh97yCQ81a5lFYPxkoG0jXe/Dbv8zC5bbDVAbjSsr0t2gotuk2t6oZ+XOWlBkaMreNbbv3MnX+YiMhNqnKRZze0d/UIzF49x8dG8fzH02nz+CrjGUlfCYxEsIU9R5xOBz0v/4hrh39GU7jHc0SgJuMZ2XYcr0Hrk3dy7hpM1XmIoStjXhpDGXlhkbwdX/eRNUd+eoPBwztWBIWHsET43+gbdc+xrMSPuNwQC3F/Vo6D7yGKx9/T0UP/BtU5GOQoSv4k5//wLwNMqopAt+z701m1jLDj71mqMhFVM6RAuACwFDnklsfe52OPc82npHwuRphEK64AVm3C2/mzKtHGg1zBta3Bv3dyMEl5eVc9MJY5m/Q3RpVCFvzer288MGnPPfex0ZD7QC2KUhJVNKRAuBKI0G69hvMkGF3KUhHWMIB8SbsRDrknldIamz4+m3ovanAdsDQQ82CklLOeepVHv/sO8oqXIrSEsJ6ezIyOe+uh3lq/CQV4T5VEURU3pECQPete2hYOMOfHqcoHWGV6mHqOz+FhIVzyQNjjIaxw/7gHxoN4PZ4eOnbX2h8x0M8/cUPbN2fblYzJSFMVV7hYtFf67nx6Zdoccn1zFy6QkVYD/CRikCi8kKB1hjY9OTsS66nTkPdO6YKmwhxQnQoFCm+QW3RfSCNO/Uhdc1CvSF6oXUIVNptqIq+BJ7HwOfkiPScPJ7/ZirPfzOVuOgoOjSqj8vtpjhAZoGLwLP7QCbdhg0nJiqSguIS1m/fRYVL+UjWt8Bu1UHFqYUCvY0EuOgGOyzXFirEhKkvAAD6DL3HSAEQAXQFdAdQoAR4CXhbZdD84hIWbZJHnsLeSsvLjWzvWxlu4BkzTyBOzIk2AqBL41YdadK6k8J0hJWiw8yJ27bvRUTGGuoJofs9qtBEZIKSEGb4ENhsdRLByFAB0LVfYLSuFJpIRf0AjhUaHknTlP5GQrRSlYsBZcDtaFspCCHUOAA8anUSwcoJNNV7cOuUngpTEVZzONQ1BTpW406GnjQ1V5WHQfOACVYnIUSA8AC3ATlWJxKsnEANvQc3aGb1Em2hmlkFQFJjQ6P4duopfS/WzkcQIlA8B/xqdRLBzImBfus1atVWmIqwA6fqtYCHxdUyNIG+mqo8FKhA65q5x+pEhPBjX6OtrBEWMlQAREVbvVeLUM2sAiAi2tA13E4FAMBe4Fy055dCiKr5AfgPMp/Gck4MbADkDFHcP1ZYzqTrv9H3ih3faNvQmhTtsjoRX3AaqAydanaHtL0QA+9xp/F9M/zFZ8A1aCNpwmLB8ckUwhybgZ7AUqsTMVtivO6pQiQZONaf1Kqhf6pKUs14hZnYkgd4DO3OX7pe2YQUAEIYkwn0B15Ba2gSkDq11NftM6lmDeomJijOxp70/j8yeqwf2AGcBbxscR7iGFIACGFcOdpa5rOANdamYo6rBpyla3vnqwacFTSPALq0bkGLhvWrfFy9pFr0SelgQkaWKwVeBToBCyzORZxAcHwyhfCNhUAX4FYCbG5A51bNuXJA1Zo5xURF8tgtw0zKyH4cDgfPj7ilyseN/r9bCAmsIqkU+ABoCTwCFFmbjjiZgHrXCWEDHmASWvOiy4DpBMiEp/89fn+l73CdTgeTn3uUekm1TM7KXoYOOps7Lr+w0j8/7IIB3HxxwHRUXYP2nL8BWtdMWSprc1IACGEOD/AjcD6QBAwD3gdW4acFQc3q1Vjw4Tj6pnQ85c/VqBbL968/X+URg0Ax4fH7ePTm6065csLhcDDquiuY/Nyjuh6t2EAZsBH4GBiB1lG2M9pz/kMW5iWqINTqBCrL5apg1fzf+WvRLDL3p1FWUmx1Sn4pOjaO5AZN6dZ/MB166HuuK6osF/ji8Au0ZY2JaIVBPFAI1AamWZJdFSQnxDPvgzFMmTWPST/+yoLVaykuLcPpdNCqUUMuP6cv911/FQnV46xO1TJOp5OX7rmd6wafy1uffctvi5aRnpUNaJMiz+vVnVHXXUHXNi0tzrTS0oArDv97BZCONvlV+Dm/KABWL5zBhOfu5kDadqtTCRg/fPg6zdt3454X3qNp2xSr0wk2brQv0fSjfq2hRblUmcPh4OqBZ3H1wLMAyC8qJjoyglDpC/IvHZo3ZdKzDwNQUlaG1wvRkREWZ6VLKbDS6iSEerZ/BDBjygc8e/sQufibYPv6FTx8bV9WL5xhdSrC/E+QcgAAIABJREFUj8XFRMvF/zSiIiL89eIvApitC4ANKxYw/ukReNwBu7zacmUlxbwyaijpe3ZanYoQQggfsm0B4PV6mfjifbjdLqtTCXhFBXl88sYTVqchhBDCh2xbAOzYsIodG1ZZnUbQWDz9Owrysq1OI5h59B7olS1VAog5f5kG3yO635vC3mxbAKxbPtfqFIKK2+1i4wrZ5t5CpXoPLHf55apCcULmrMopqzD0HtH93hT2ZtsCICcz/fQ/JJTKythndQrBTH8BUCGPyQKGSctyy12G5lGVqMpD2IttC4CIqGirUwg6kdExVqcQzHQXAGXlsrmaODUZARAnYtsCoF4Tv2mSETDqN21tdQrBzIXODoElZeVUuGQUICCYNKEjr9jQTbyMAAQo2xYAXfsPJixc1s36Sq3a9WnRvpvVaQQ7XXdaXq+X7LwC1bkIK5hUAGQVFBo5XAqAAGXbAqBa9ZpcMGyE1WkEjav/73EcgbUjmT/K0Xvgodw8lXkIq5hWABjakE/3+1LYm62/8a8f9RxNWneyOo2Ad8ZZQzh/6B1WpyFgv94DM7PlOzogmFQAZOblGzn8gKo8hL3YugCIjI7luQ9/o3VKL6tTCVi9B13Ow2O/krt/e9D9RZt2IENlHsIqJjU+S80wtEGf7sJU2Jvtv/XjE2vz8hfzGPHceBo0b2t1OgHB4XDQqlMPHh33DY++PYXIKJn9bxO6C4DUA7JsNiCY1PZ8V6ahAkBGAAKUX+wGGBISyuBr72TwtXeSlbGPzH1plJXKdsB6RMVUo3aDplSvmWh1KuJ4uu+0du2T72i/5/WCx5yme7syDho5XN5cAcovCoCjJSTXIyG5ntVpCGEG3Z2YNu3arTIPYQWT7v6zC4vIyDU0B2CvqlyEvdj+EYAQQWSz3gPXb9+F26S7R+EjJj3/X5u6x8jheYA8XwpQUgAIYR8b0bkbTElZGTv2yFwtv2ZSM6d1aYZu4Ddg1g5FwnJSAAhhH/kYGG5dtXmrwlSEzxlr13tSf+0yNAKwUVUewn6kABDCXjbpPXDxmg0q8xC+5jJnT4eFG7cZOVzeVAFMCgAh7EX3F+7iNetV5iF8zYRNnQ7mF7DNWI8IKQACmBQAQtjLCr0Hrtm6g4IiWR7rlzxuU+YALNy4Da/+7oJeYKXCdITNSAEghL3M13ugy+3mjz9Xq8xF+EpZmSlhZ/xlaFRoA5CtKBVhQ1IACGEvewHdi/p/X7xcYSrCZ8pNKgBWGxrBX6gqD2FPUgAIYT8L9B7426JlKvMQvlKqayfoU9q89wA7jXUAXKwqF2FPUgAIYT+L9B6YdiCDlZtkOaBf8XqhXH0B8N0Sw4/vdReiwj9IASCE/fxh5OBvZsxRlYfwhbJSU1rtTFn0p5HDUw+/RACTAkAI+9kC6L6NnzJrnpGZ38LXSoqUh9yyL501xloA/6wqF2FfUgAIYU+6v4B37TvAIukJ4D9KSpSH/HSu4cf3UgAEAb/ZDdDlqmDV/N/5a9EsMvenUVYi6531iI6NI7lBU7r1H0yHHmfhcDisTkmc2FTgQb0HT/x+Gn06d1CYjjBFeZny9f8ut4fJf+ieRgLaBkDy/D8I+EUBsHrhDCY8dzcH0rZbnUrA+OHD12nevhv3vPAeTdumWJ2OON5iIAtI0HPwlJnzGPvQPdSoFqs2K6FWsfobmd9WrWVfVo6REL8D5vQlFrZi+0cAM6Z8wLO3D5GLvwm2r1/Bw9f2ZfXCGVanIo7nQhsF0KWkrIzJU39XmI5QzwtFhcqjTvjN8CTQ71XkIezP1gXAhhULGP/0CDxut9WpBKyykmJeGTWU9D07rU5FHO8TIweP/eI7XPLZsa+SEnCrHf5fv3sfv682NP8jF3n+HzRsWwB4vV4mvngfbsUfEHG8ooI8PnnjCavTEMebC+zSe3Dq/nS+m627s7AwW6H6u/83fvzd6AqQrwD1TQmELdm2ANixYRU7NqyyOo2gsXj6dxTkSdtvm/ECHxsJ8MrkL2VJoB25XFCq9vl/2sEsvphvuBPkZAWpCD9h2wJg3fK5VqcQVNxuFxtXSOtvG/oYA21iVm/exo9z/evv1ev1smPvfuavWsuarTsoMWmjnGNl5xWwctNW/tywmYM5ueaerDBf6wCo0ItTplFubEXBJkB6SQcR264CyMlMtzqFoJOVsY8GVichjpUKzAYG6A3wzITJXNL/TJxO29b7AOQXFfPK5C+Y9ONvpGf9MxoVFhrKRf16ce+wK+mb0lHpOStcLr6a/gfvfP0Dy9dv/tfvdWrZjJHXXsHNF5+vdrmsxwOFBeriATszDjJ5tuFC70MVuQj/YdtvhIioaKtTCDqR0TFWpyBO7C0jB6/bvpMvfp+tKhdTrN68jXZX3sR/P/z8Xxd/0C7S3/+xgH63juKs2+/llwVLDU9uzCssYsKUn2h12Q3c8NRLx138AdZs3cGtz73KuXc+QF6hwm59RYVaEaDQU5//QIWx/yf5wAeK0hF+wrYjAPWatLQ6haBTv2lrq1MQJ/Yb2t7s7fQGeOztiVx2dl9ioiLVZaXItt17OWf4/eQWnH5S3LyVa5i3cg3JCfFcc945DOp5Br06tiU+rtppj03dn87iNRv4ce5Cps5bTGl55Za6z/lzNeeNeIgFk8YRFmrwK9PjgTy1jxeWbNnBlwsMj9x/gNYASAQRBwaeL07dqraKPVpBXjY3nlmPCpP2yRb/Vqt2fSbNTeVAiZM8E1qAZO3dzitX6C7qtgMtFKbjj27B4BDtM8Nv5NnhN6nJRqE+t9zDor/0L11zOh20btyQJvXqkBhfg6T4GsRERZGVl0dWXj4Hc3JZt20XBw5lGcrz2eE38czwGw3FIC8X8gw16fkXr9dLz4dfYPk23YtFQOs50QzYrSYr4S9sOwJQrXpNLhg2gp8+MjT6KSrp6v97HIfNnxEHuc+BF4HaegO8Ovkrhg0eQIuG9dVlZdC8lWsMXfwBPB4vG3emsXFnmqKsTmzsl9/x0I3XEB0ZoS+A2w35au/+P5g53+jFH2AKcvEPSrb+xr9+1HM0ad3J6jQC3hlnDeH8oXdYnYY4tTIMzgUoKStj+Itv2mpZ4A9z/KflfE5+AfNW/qU/QH6u0pn/B3LyePjjKUbDeIBXFKQj/JCtC4DI6Fie+/A3Wqf0sjqVgNV70OU8PPYrufv3D+8A+40EmPPnaib99JuidIxbt82/OlCu267zbruiXPnM/5ETPye3yHAvga+BNQrSEX7I9t/68Ym1efmLeYx4bjwNmre1Op2A4HA4aNWpB4+O+4ZH355CZJTM/vcTxcBoo0Huf+Nddu07oCAd48oqKqxOoUrKKjlx8DhZh5Te/X8+bynfLl5hNEwF8LSCdISfsu0cgKOFhIQy+No7GXztnWRl7CNzXxplirtoBYuomGrUbtCU6jUTrU5F6DMJeAADkyLzi4r5z1P/Zd4HYwmxeOSnXmItS89fVfWTdXxuCvK0bX8VSc08xF3vfaoi1IdoE2xFkPKLAuBoCcn1SEiuZ3UaQlilAngKrWe7bov+Ws8LEz81PqvdoD4pHfhm5lxLc6iKMzt1qNoBLhfkqpv453J7uP6tieQVlxgNVQI8ryAl4cds/whACHGcbwDDs+dGT/yY6Uv+VJCOftcNHmDL3gQncvYZKbRsVJUVFF7IygSvuuXSj3wyhUWbtqkI9RIG55MI/ycFgBD+xwuMQBsN0M3j8TLs8RdI3W9d2+2E6nG8cNetlp2/ssLDQhnz4N1VOyg3FxTuYzBl0Z+89fMMFaG2AK+qCCT8mxQAQvin9cAYo0Gy8vK57IGnKDA+m1y3UddewfArLrLs/KcTGhLC5y8+SccWTSt/UGmJ0jX/q3fu5pa3J6lawnkX2rJSEeSkABDCfz2HggYuf23ZzjWPjcatuD99ZTkcDiY8fh//e+J+4mLstQdIy0b1mf/hWK4c0L/yB7kqIOugshz2ZuVw0YtjKSxVcs3+HG1zKSGkABDCjxUBVRyXPrFfFy7jnlfGqQili8PhYPgVF7Fz2pc8ctO1xEZHWZYLQJsmjfjk+cfY8O1kenWswhYMHg8cytS6/imQV1zChc+PYV+WkvbBWWgrSIQApAAQwt9NRdEubhOm/MQT71q7IVxC9TheHnkHe377htfuvZNm9ev67NwhTieDenXjm1eeYf2USfxnyCBCQ0IqH8DrhUMZoLdXwDGKy8q58PkxrEndoyQecAeQoSqY8H8OtOUguqbhfreumPAI/5jBKypnXyHkm9Cb5cD2tbw1rLPew9cBajeCDywxwCpAyRaa/737Nh67ZZiKUEps2JHKlFlz+WbGXDbtUt/vv23TRtxw4XnccOEg6tRK0B8o66C21a8C5S4Xl730Dr+uXKskHlr/CPvPthQ+5QAyAV1dYT5ZtJ/4RN17kwgb2l0IRSYUALv+WsCE4VV4jvpvi4EzFaYTiHoAC1HU2+PlkXfwyE3Xqgil1LrtO5m1bCVL1m5kxcYtpO5Pr9LEuPCwUNo3a0JK6xb069KJc85I0dfc51g5WVCQbzwOUFJezlWvjueXFcou/juAFEBtL2Lh90KBQnQWAOl7dkoBEGDcJu0Tk7V3h5HD5Yvr9JahtQk23CoY4NFx71NcWspzd96sIpwyHZo3pUPzptx3eICiuLSMrWl72Jt5kIysHA7l5uF2eygsKaF6bAyR4eHUqBZL/eREGiQn0aRebcJCFfc/y81WdvEvLC3jkv+O44+1m5TEQ9vq9z/IZ0icQCiQDjTRc3DqlrW06dJbbUbCUuVq5i4d58D2dUYOt26hun95EegJXKAi2Oj3PyGvsIg37x+B06abRUVHRtC5VXM6t2ru+5N7vUov/ofyC7noxbEs3WKoWD7Wg8ASlQFF4HCiNYXQZe2yueoyEZZzecBj0gjAjpVzjByu+z0aZDzAMEBJqziAsV98x5UPPUuJwoY2AcELZB9SdvHftj+DXo+8oPri/wkwVmVAEVgMFQCr5v9OWYlsyhMoil3mxM3au50D2wztOCoFQOXlApeicMj3hzkLOPv2+zhwKEtVSP/m8cDBdGUT/uZt2ELvR19k+4FMJfEOWwEMVxlQBB4noHumSXFhPoumf6swHWElswqAP6dONtrBTNlsqCCxEbgR7T5ViWXrN9H1uuEs/MvQoxz/V1EBGfu1Tn8KjJk6kwFPv8ahfDXFxGEZwOVAqcqgIvA4gGpANjpnDzds0Y53pq7BYdNnhKLytudBheJmcKWFebx0aRNKCnS3Rd0DNFSYUjC5H3hDZcCw0FBeu/dORl57OQ6HQ2Vo+ysp1pb6KeiYmF9cwp0TPuHLBcsUJPYvhcA5gLW7PAm/EAKUo00aqso2V3/Lyz5IYp0GNGvXRWliwreKKiDHhMe80//3NNtX/GEkxA/AT4rSCTZLgCigj6qAHo+H3xcvZ/HaDQzo0ZVq0fZq3WsKrxdyc7Slfgp68f+5bRfnPfcG8zdsVZDcv1Sg3fnPVx1YBKYjba7qA2fpDbJx1WLOungY0bFxSpISvneoFMoUrwDYu3kl3/33DrzG7pheQdv4RugzG20EJUVl0J179/PZrzNp2agBrRo3UBnaXioq4GAGlBQZD+V28+KUadw49gPVQ/6gTQC9Ea1gFqJSjozhNQe2HvXfVdauW19e+HgmoWHhShITvlPugZ15Ch8YAyUFOYy7qbuK9f+1AZlpakwo8D1gypZ7Vw88i3EPjyQ5Id6M8NbwerUZ/nk5Su76l23dyW3vfMT63fsUJHdC9yIz/kUVHRkByAYGYuBZ68H9u0nfs5NeAy8NvmeDfi6jBEoV3v1XlJXw4b1DjM78B/gSkFmmxnnQCoCOQCvVwTfsTGXSz79SLTqalNYtbNszoNJKS7Se/sXG7/qzCgp5aPI3jHjvUzJy1SwZPIYXbYMfw1tDi+Bz9E4XbrTlQ7qlbV3Hvl1b6XHuRTirsomGsEyJGzIU3l+XFOQw6b4LSV2zUEW4u9AmAQrj3MB3QGugCtvbVU5JWTm/LlzKj3MW0rJRA5rWq6P6FOZzVWhr+3NzDE/0q3C7Gf/bH1zx8rvM37jV6CqYk/GifUbeNiO4CHxH36qHoT0GaGw0aIsOZ/DI2K9Irq+rwaDwES+QWgClipb/7duyms+fuIZDe5T0oZmDNptZqBUCfIj2vNg0Z3Zuz3/vvp1+XfxgD6eKCsjPVbKu3+P18t3iFTzx+fds22/qxntutN39Jpl5EhHYjr5N96DNIh1iNGh25n5mfTeZiMgomrXvitMpowF2dLAYChRs/FNeUsiMic8y5cXbKMo5aDyg5nZgl6pg4m9e4Ge0uRXdzDrJnvRMJv/8O6s2baNRndo0qJ1k1qn0qyjXWvlmH9L+3Ugot5sv5y/jujffY/xvc8guMP744BTKgBuAT808iQh8xz6sj0DberWFqhMk1W3EJTffy1kXDyMuvpaqsMKg/Apt618jctLTWDH1IxZNeZfiPKVd4mYA56kMKE7oIeBltIZgpurdqR0P3jCUi/ufSYiVcwS8Xu0Zf2GBtq7foLziEibNWsCYqTPZfdAnnRKzgMuABb44mQhsJ5qtNwiYrvpEoaFhtOl6Jh17nEXDFu1IqteY2OoBNGtYp9DQMOJqJhIeEemzc5a4tG1/C7IPUlZcuY6xXq+XorxDZO/fxf6ta9ixcg57N60wusTvRMrQJqspXyQtTuhytDtJnyzor5dUi1suuYBbL72ARnWSfXFKTUW5NsRfVAhu4zNeF2/ezgcz5/P1wuUUlxkbPaiCbWgjtMr2ehDB7WTT9b8ChvoykWAXFVON5HqNaXdGPzr1PodOvc5V3ldh7dI5zP/9e1YumE5O+m7cBoc9TTIaeMbqJILMGWjNlnw2c8/pdNA3pSNDB53NFef2J6lmDfUnKS+H0mJtNn+58ff6ht37+Hrhcr5e+Cdb9/t8g8r5aMWabMgglDlZAVATWI20YLVMZHQsAy6/iaEjnqBGLWN3SptWLWLSKw+zebXtdwVdAvRHm4sifKsO8AUGGoLpFeJ00ielA+f37s7gM3vQqWUzfYE8Hm14v7REG943eKdf7nKxYONWflu5jl9XrmXT3gOG4unkBd4EHkM+F0KxUy3Y74lWdYb5KBdxAtGxcdz5zDucfcn1uo7/9v1X+OTNJ8wYqlctG61b3W6rEwliIWijL0/gg3kBJ1M7oSa9O7Wjb5eO9OrYjo4tmhIVEfHvH/J4tGH9sjIoP/xyGVvOklVQyIrtqSzevJ2Fm7axbOtOikot3QY5G7gJmGplEiJwna5jz3Dgf75IRJzaf+57nqv/74kqHfP+C/cy9ZNxJmWkVDlal7oZViciAK0p2GeALabuhzidNK9Xh45NGtKqXm2aJNakSWICDWrVJKl6NeKioyoVx+P1klVQyMG8AnZlHGJXxkFSMw+xYc9+1qXtZV9Wjsl/kipZClwDpFmdiAhclWnZ9wzwrMl5iEq4a/QEzr+mclt8T/1sPO+PvtvkjJTwAP9BG34W9lEbeBftubOthYWEkBAXS3R4OJHhYUSF/9OOPL+kBLfbQ35JCVkFRWY15FGpHHgReAkZ8hcmq2zP3jHAKDMTEacXEhLKMxOnkdJn0El/ptgFO1NTeerSNrjKLR2+rAwvMBJ4x+pExEldjfb3k2h1IkFgJXAz2lJsIUxX2Q49vwOlwAATcxGn4fV6WDb7Z844ewg1ErSJgW6vdtHPKdda+maXwTevjmTfltUWZ3taLrROZu9ZnYg4pQ3AB0A80NXiXAJVBfA6MAywZKahCE5V3bXnNrS7gYjT/aAwT0LdxjwweSmRNZJwHTOiWZyXxejBdfC4FfX3NUcO2vNNeebvP0LQijah3mzk5kpYoKozfT8AegPbTchFVFLW/lTGj7qQkhN0Mtu4YKrdL/4r0FrQysVfCCEspGepzyq0L/CPULuFvKiCvZtW8M0Ltx43qSl17WKLMjqtI5ObegM7Lc5FCCGCnt61vnnALUB3tDs6YYE1M79mxvv/bpqXf3C/Rdmc0jygC/AkMrNZCCFswWizjxVoDYOuR5ssJHxs9qQXWPnLx3//d1Gust34VFgIDEbrLifvDyGEsBEV3b7cwOdoG7hchta1Su7yfOjbl4azc9U8ADwKNjoxqBjt/XAW0BdtBYkQQoggkQTchbbBSC7aXAF5mfiKrp7gffjbLd56rbpYcf504Eu0PcqrIQJRCDZ4nwfoa1YV/h6EUKaqywD1CAE6Ax2AVkBLtKYisUB1H5zf7uKAWioC1WrQAq/XQ9beHXpD7EPbjvdkcoBCtAv+FmAzsBbYiPZFJgKX7mWATqeD9554gG9mzuWP5atw239fikqLi47i4jM60ygpgRenTNMbRpYBCkv4ogAQp5aAtgteC6sTQWv0ssrqJIQt6S4AQpxOXCtmA3AwJ5cf5izklwVLmL18FUUlpSpz9Ik68dW5oGtHLjqjM+eltCcyPIzZazcy4OnX9YaUAkBYItTqBARZwIVoRUBNi3MRwlSJ8TW44/ILuePyCyktL2feyjX8sXwV81auYeWmrbisn8NynGpRkfRp04J+7VoxsHNbujRthMMh907C/0kBYA9b0TZdmQGEn+ZnhQgIkeHhnNfrDM7rdQYAhcUlLFu/iRUbt7By01ZWbtzCrv3pPt3AJzw0lLYN6tK1WSO6Nm/MGc2b0LlJQ0JDLNsdWQjTSAFgH/PQtl/+yOpEhLBCbHQU53bvwrndu/z9a8WlZWxJ3c2WtD1sTdvLnoxM9mUeYnd6BpnZueTkF1Rp1CAqPJz42GjqxNegfq14GtZKoGFiTVrVq03renVokpwoF3sRNKQAsJfJaHMBHrc4DyGOFaX3wIjwMN0njY6MIKV1C1Jan3yKTEFRMTkFhbjcbgqLS6hw/TNVISoigsiIcCLDw4mPiyUqNxvK1M87iAjT/2fEwP9bIYyQAsB+nkQrAq6yOhEhjlJb74HxceauDK0WE021mGhTz3E6NYydP1lVHkJUhYx12Y8XbT39EqsTEeIoPfQeaHYBYAcGC4AmaEujhfApKQDsqRStq2Ka1YkIcdiFeg+sl6ikzYWtJVWvRnio7gFVJ3CBwnSEqBQpAOwrA+1LN9/qRETQawhcoffgzq2aK0zFno6sHjDgXqQvi/AxKQDsbT1wNTobsOggeziIExkD6J7ldqoJfIEkpWlDI4d3Bu5QlIoQlSIFgP1NB0b66Fw5PjqP8B/3oD2O0sXhcHBmp/YK07GvPm0MFzqvo3XjFMInpADwDxPQ7sLMVADsN/kcwr/cg8H3Xfd2ramfHBzz2y7unmK0h0As2u6ZPdVkJMSpSQHgPx5E22rZLEuAwNmlRRjRCPgGGIfB74grzu2nJCF/UCsuln7tWhkOA8wHngJiDCclxClIAeA/3MB1wGqT4n9tUlzhH+oAQ4Gv0FpTG+5DEREexrALBhoN41duObevijBhwGhgJzAWGIhssy1MILNO/U9dYBlQX2HMA0BzoFhhTGFfoWhbc58J9EF77txW9Uluu2wIE596UHVYYzIOmNIJ8Ai3x0OrEY+zIz1TeWi0LbhXAguBRcAmZNROGCAFgH/qgjZMqGqI8Ga0NsQiMNUHeqE9W+6J9v6JNPOETqeDDd9OpnVjQzPj1TO5AAB455fZ3DPxc1PPcVgOsPSo1zIgzxcnFoFBCgD/dQnwPcYf43wNXGM8HWETkWgX+J78c9FXOVpUKXcPvYy3H/HV4pUq8EEBUO5ykXLfs2zc4/M5tR60UYGlaHN6liKjBOIUpADwbyPRZmnr/XucBVyE1nlQ+KdGQG+0Vr09gRQs3lK6bmICm77/hDiL+/OfkA8KAIAFG7fS/4lXfLqV8UnkoY0MHD1SIMt9BSAFQCAYDrxD1TZ28gLvAaOAcjOSEqaIRnte35N/Lvp1LM3oGA6Hg5/eeoGL+vW2OpUT81EBAHDPxM9555fZPjlXFXjR5hIcKQaWABvQ5hiIICMFQGDogDYScE4lfnYJ2hIj230zieM045/n9r2ATth8B8+nbr+B0f93s9VpnFxmOpSW+ORU5S4X5zz1Gos2bfPJ+QwoAP7kn8cGS4FDlmYkfEIKgMDSGq1ne3e0/u1xaHsJ7EH7UP+GecsIhTGxQDf+PVkvydKMquiifr358c3ncTptvLo46yAUFfrsdAdy8uj+4Gj2ZvndqPs2/j1KsA7ftSQXPiIFgBDWqMu/l+GdgcXP7o04v3d3vn9jNFEREVancmo5WVDg2/21UjMPcc5Tr7Irw69vqouAv9CWIa4E5iG7lfo9KQCEMF8c2qhML/6ZrJdgaUYKXdy/N9+88iwR4br3C/KdwgLI9v2FeFfGIc592u+LgGPt4t+PDf5CNhTzK1IACKFeU/65sz8TbWa+jcfF9XE4HDx84zW8ePdthNh52P9oLhfs32PJqbMKChn25vtMX73ekvP7QAWwFq1J0UpgAVqRIGxKCgAhjKnBP8/sj9zd17A0Ix/5ePRj3HDhIKvTqLr9e7RCwAJuj4db3/mIj/9YZMn5LbCbf48SrAbKLM1I/E0KACGqJiju7iujRcP6TBv7Ei0b+bzPkDF5uZBnzaS86avXM/S1CeQV+2Ylgg250PaaONLOeCXaMkRhASkAhDi5I8/uj1zwewM1Lc3IZhKqx/Hd66Pp37WT1alUnscN+/aAj5v0vD9jHne99ykutzTmO8YB/plceKQwCNoKyZekABBCE4K2jPLInX0foA3yGTmt8LBQ3n/yQW686DyrU6k8H64GcLk93DfpSzs2BbKrE40SbERrYiQUki83EayS+HeTnW5oa/GFTncPvYxX7x1u/6WAoN39H9hr+lyA1MxD3DDmAxZs3GrqeYJAOv/uS7AC2b3UMCkARDBwonXRO5N/LvrNLM0oQLVp0ohPX3icrm1aWp3K6ZWVaq2BTfLxH4sY+cEX5Afv834zudBWHByR/vFMAAAgAElEQVSZYLgQSLUyIX8kBYAIVK2AgWjtkfsT5M/uQ0JCadSyPa1TetGqcw9ade5JVvpenr1tCBXlaidlh4WG8szwG3n05uvsvzywMB+ys5SGPJRfyPAJH/P9kpVK4wIk1G/G8PF/UJCVzu71S9m9fhlp65eSvW+n8nP5oZ3AH8AcYAbSzvi0pAAQgaQFMBS4Gm1/hKBVPSGJ1p170qpzD1p37kWLjmcQGRVz3M8tnvE9r4waisetfi+Y7u1bM/ahe+jZoa3y2Erl50Ku8VUBHq+XT+cs5tFPvyU9J09BYv9WLaE2I95fQEL94wevCrMzSDtSEKxbwt5NKygvKVKegx9xoRUD3wA/ANnWpmNPUgAIfxcFXAP8H1o73aATGhpG49ad/rngp/SidoOmlT7+96/fZ/zT/2fK1rUOh4NrzjuHl0feQcPaNt7aoLDg8EiAvv8H8zds5f5JX7FyR6rStI6IqlaDOyfMoU6Lyq228LhdHNi+jt3rlpC2fhl7Nizj4O6gnYdQDkwD3kUbHZDJhIdJASD8VSPgLuAWAqitbmXUTKxDq849aZ3Sk1ade9KifTfCI6MMxZz22Tu8//wo0/avj4qI4P7rr+KRm66lWky0KecwrLwcDmWCq/LdbLcfyOTRT6bwnQnD/UdEVYvntnG/06Ctsfq2KPeQ9thgw3LS1i1hz4bllBUXKMrSb2xCKwQmo+1vENSkABD+pgHwIDAc8IPp5saEhIRSt0lL2nXtQ5uuvWnerisNW7Qz5VzTv5nIu0//H16PeevU42Kiueni83nwhqE0SLbjiIAXioq0RkGnWCGwakcaY6bO5MsFS01d16/q4n8iHo+bg6mb2bt5Jfs2ryJ1zSL2bV1t6t+/jRwCXgfeJohXE0gBIPxFMvAUcBsBfOGvVbs+rVN60bpzT1p26kHz9l0JC/fdH3fmlA955+k7TZkTcLSw0FCGDjqb+6+/ipTWLUw9ly5eL5QWQ3Gx9k+3B4/Xy8/LV/PGj9NZuGmb6SnExidx+9vTKz3sr0JJQQ5p65ayZ8My0tYvY/f6pZQWqp/PYCPpwMvAeIJwIyMpAITdhaIN9T8HVLc4F6XCIyJp1q4rrTr1oHVKT1qn9CIhuZ7VabH8j6m8et+1lJX45saoR/s2DD3vbK4acBb1kxN9cs6qWLV5K1//NpuvZ84lLT3TJ+dMbNiSW8f8Ss16lZ/LYQavx0Nm2mZ2r19K2rql7F6/lIxdGwNxlGATMBKYZXUiviQFgLCzvmjP6wJiRn9S3Ua07tKbVp2606pzT5q1TSE0LNzqtE5o69rljB5+MXlZvrngATidDnp3bM/Q887mkrPOtOwRgcfjYc3WHXw3ez5fz5jD9j37fHr+Rh17c/PrPxFd3Z5TW0qL8rURgnXaqoPd65dSnB8wk+y/Be4D9lqdiC9IASDsKBJ4Ae2DaPOF5CcWERVN83ZdteH8FG04v2ZiHavTqpL0PTt5ccTlpG5Za8n5G9etTd+UjvRN6UCflA60adLIlPOUV7hYsXELC/9ax4JVa1m0Zj05+dZMjusy+HqueOw9wiKMTer0Ja/Xy6HdW7VRgsPLEDN2rMfjMfcxkoly0UYdv7A6EbNJASDsphPwGdDe6kSqok7DZrRO6UXLTt1p3bkXTdp0IiQk1Oq0DCsrKWbcE7czf9qXVqdCfFw1WjasT/OG9WjeQHs1q1+X5ISaxERGEh0ZcdwKA6/XS25BIUUlpRSXlrEnI5Mde/ezfc8+tu/ex/Y9+9i2ey+l5eUW/ak0IaFhDBn5Gn2GjrQ0D1XKSwrZs/FP0tYt+btZUVHOQavTqqqvgREEcA8BKQCEndwBjMPmk/wio2Np0aEbbVJ6a131OvWgeoIdZ7Sr89PkMUx+7VFcFdZeKCsjLiaakJAQSsvKKSmz/9bzcbXqcN0LX9I0pZ/VqZgqa+/2vx8bpK1bwoHta/G4zd2LQYE9wBXAn1YnYgYpAIQdhAJvoE3CsZ2aiXVo260Pbbr0pnn7rrTs2N22z+7NlLZ1Pa8/cL1ljwQCUc+Bl3Hbs+8RUq0WJS4ocYE7SNrUVJQWs2/LKvZuXsneTavYtXo+OelpVqd1ImVoIwGTrE5ENSkAhNWSge/QNuqxXHRsHC07dj9qOL8n1WrYczKWFcpKipn06sP89sUE05oGBYPI6FjueOItBl5163G/V+bm72Kg1K29gkXOgdR/PTbYv2U17io0ZjLZOOB+IGD+RqQAEFZqhLZph2Vbx9Vu0JQ2Xc+kebsutO3ah2ZtU3DYfQMbG9iwYgHvPnUne3ZssjoVv9Ot/wX837PvklSvcpMaPd7DhYALStxQXAGuIKm93K4KDmxfS+qahezdtIrUNQvJ3r/LypR+Qms9XmplEqpIASCs0g6YDvhs4XtoaBgtOnanY8+zadOlN6079yQmroavTh9wystKmfK/l/j2/Vf8Ym6A1eITa3PHE2Poc8HVhmOVe/4ZJShxQamHoOlwn5uxh7R1S9i1egHbV/xBZqrPi9A/gEsBv++jLAWAsEI3tIu/6Vv0RkbH0uPci+k7+Co69T6XyOhYs08ZdPanbuPj1x9j8YzvrU7FlsIjo7jkxnu5cvgjRMfGmXIOD9oIwZFRgiIXmNih2FbyDx1g4/yfWDNrCrtWz/fV8sMVwCDA+DaSFpICQPhae2AuJm/g0zqlF0OGjaD3oMsNb5QjKmfDigVMevkhtq5dbnUqtuBwOjnrouv4//buOz6u6kz8/2eKRqPeLMmyuizJKrYsWa6yXAADNgETICQEEuC3hASSTbIbSrK72YQQkg0hCyxJvkAgDUioIWCMbZoB2zRXuffeZTWrjdrM/P4YMMa4SPecO/V5v15+Jdg+z30SRnOfe+45z/n6v99D+og8v1//k1mCngHodkPvQPhPEnQ0H2Hl/D/zwYuP0nZkn9mX+xC4EOg0+0JmkQJA+FMJsAQYbkZwi9VK/eyruermOxhZOc6MS4hBWPnuAp75/T1sbfgw0KkEhNVmY/oXruHLt/wHucUVgU7nBC++IqD741cG3f3QH6azBB6Pm01L5rH4z7/kwBbzTmrE9zrgC4TomgApAIS/jAA+ALQ/ClksFqZcdCXXfven5JeGVP+gsNbw3hv84/HfsPb9NyNix4DDGcOMy67lqpvvILsgYOtah6T/41mC7o9nCnrc4TVL4PV62bzsFV579Kcc3r7WrMu8jK9XQMjtDpACQPiDE9+0/yTdgbMLR3HLTx6ieuqFukMLTQ7t2c4bL/yJRc/+gc7jIf3K9LTSMrO56Ms3cenX/pXElGGBTkdJuM4SeD0eVi96ivkP3WFWR8L7gDvNCGwmKQCEPzwFXKczoCPaydd/cA+XXf+9sGi5Gwl6ujv54PV/svjlp1j34WLTjxw2U0xcAlMuvILzr/g6VZPOC+utowOfzBK4P11TEKqzBN3Hm5n3wA9YvfBJM8LfADxhRmCzSAEgzHYncK/OgEXl1dz2myfJK6nUGVb4UUvjIZYueI7li+ezccUS3MHfEpa4hCTGTZvN5FlzmXTB5UTHxJ57UBjyAn1u3yyB6+OioC/Earn1i1/gH7+6le7jzTrD9gIz8S0ODAlSAAgzTcG36E/bI/ol132bm//z/ohsxRuuOo+3snrpIlYve4MNy9/l6IGANno5wWqzUVRezegJM6idMZvRE2dgt0cFOq2gNODxbT3sHoCuEHltcPzYQZ780dXs26D1fr0HqAaO6wxqFikAhFkSgTVAkY5gUY5obv3p707bOlWEl6bD+1m//F12bFjF7i1r2bW5ga72NtOvOywrl6LyaorKqykdO5GK2nriEpJMv2446nVDez+09/q2Iwargb5eXrrvX1k+7486w/4N+JrOgGaRAkCY5Uk0/RDEJSTx34/Oo3L8NB3hRAhqPLiHQ3t3cGT/Lo7s20Xjwb20Nh2hvbXpxK+zrSlwRDtJTBlGYsowkodlkpSWQVZuEcNzixieN5KcolFy5oNJetzQ1gvH+3xtjYPRO0/+moW//w+du1W+hq8QCGpSAAgzXA68pCNQ8rBMfvb4AooqanSEE2Gup7uTgf5PD4+JjoklyhHUp0tHDLfXVwS09ATnK4Ll8/7Ii/9zi65Ogm1AOXBERzCz2AKdgAg7ccB8QHnuNHlYJr/62zuyt18Mmj3KgcMZc+KX7BAJHlYLxNghxQl2q+81QTDNCGSPGsew/FI2vvOSjpkAJ77eJ0HdH1sKAKHbPcAlqkHiEpL4+Z9fI790jIaUhBDBwsKnhYDNElzNh4aPHE1KVj6blszTEW4M8B6wS0cwM0gBIHQqB/6K4ufK4Yzhnr+8TknVBD1ZCSGCzieFQHL0p0ceB4MRpdU4nLFsX/6mjnCTgUfxndcUdKQAEDr9Ad8xv4ZZLBb+/d4/UztjjqaUhBDBzGqB+CiItfu2EQbDa4GCqqkcP3aQg1tXq4ZKAw7jOz0w6MgiQKHLBOAjFD9TX/rWj7jhtl/qyUgIEVI8Xmh0QWtvoDPxbRF89Nvns3f9B6qhDgHFgEs9K71kBkDo8hdgpEqA8nFTue2+J8K6raoQ4swsH88GOGzQGeDmkFabnVGTL2bVq3+lv1fp3p2Ab1fA+3oy00cKAKHDVOAXKgHiEpP5+Z9fJz4pRVNKQohQ5bRBvN3XXTCQrwSccYmkjChg/eIXVEONA34P9J/rL/qT7JEROvybaoBv/vhBMrLzdeSijcftpqXxEO2tTfS4uujp7qK7sz3QaQkRNqxWK7EJScTEJeCMiSM5LYOktAwAnHYoSIQDnb7zBgJl7Kwvs2nJPNa89neVMMPwNQf6g56s9JA1AEJVPrADhWJyzKSZ/OKJt7BYAvdx9Ho87NrcwLqP3mZrw0cc3LWVg3u20d8XBC8jhYggcYnJ5BSOIre4gsrx9YyefD59ifl0BbAI6Gw5yn1frsDVoXSc9UZ8WwODYJmjjxQAQtWvgTuMDrZHOXho3hpyR5ZrTGlwvB4Paz9czOKXnmTl26/ScbzF7zkIIc5teN5Ixl7wJUZf/HUyCysCksOHLz7Ci/d+WzXMRcAbGtLRQgoAocKBb4Wr4Sbql13/Pb754wf1ZTQIHcdbmP/Eb3n9+T/SdOSAX68thFCTUz6e+q98l+qLvorVj50ePR43D1xXzdFdG1XCvAhcpSklZVIACBWXAYZbZjlj4njsrR0kD8vUmNKZHW85xouP/4aFTz+Cq6vDL9cUQpgjdUQh593wQ8Zf+v9h89MxzRve+SdP/FDp/t0DZOHbFRBwsgtAqPgZYLhR/xU33c6kWXM1pnN6Xo+HRc88yi++cyVrP3iLgf4+068phDCXq6ONzcvms/Hdl3wtfIebv4g4Pb+MLe8toL3pkNEQdnxrptboy8o4KQCEUfHA44Ch0jvKEc2dDz6NMzZeb1an2L9zMz/75mW89uxj9PX2mHotIYT/dbY2surVv9J6eC/FE87HHmXe6Y8WiwVnfJLqtsA44AlNKSmRjivCqNlArNHB0y75iulT/4tfeoIfXDmR7etXmHodIURgeb1eVs7/C/93/XgObWsw9VpjzruS5MxclRAzUVg3pZMUAMKoi1QGX3b9d3Xl8Tlu9wC//a9v8sCdN9Lj6jLtOkKI4NK0fzu/u6mOVa/+1bRrWG12plx1q0oIGzBLUzpKpAAQRhn+AOcWV1A8ulZnLif09/Xy6+9fw+vPP25KfCFEcBvo6+G5n/8Lbzx2l2nXqP3C9VitSm/QlR6gdJECQBgxCig0Ovi8y6/TmMqnujvb+a/rL+D91180Jb4QIjR4vV7eePxu5j9kuEXJWSUOG0FhzXSVEFIAiJB1gcrgGZd+VVceJ/T19nDPrV9k8+qgO29DCBEgS/72v6bNBFRfdI3K8BygTFMqhkkBIIyYZnRgbnEFGdkFGlPx9ey//47rWf/RO1rjCiFC3xuP382yZx/SHrds6iWqIep15KFCCgBhhOEPbs3UC3XmAcCTD/437y1SPq1LCBGm5j94GztXva01ZlJ6NplFlSohDD9I6SIFgBiqAnzTV4ZUT9W7+HXVkkX847Ffa40phAgvHo+bp3/yNTpbjmqNWzpJ6VV+wAsAaQUshurrGGxiYbXZ+PvyJuISkrQk0nLsMN+7rJrjLce0xDstiwVnQirR8UnYohzYHE7zriVEqPN6cQ8MMNgD77xeL+6+Xtz9vfR2tjLQ021qeiUTL+QbDy3SdvLoxiUv89c7rlAJkQMc1JKMAf47SUGEC8PT/wWlY7Td/AH++MvbTLn5xySnk1FSQ3JeKYmZ+Vj91GdciHDg8bjp7ezE6/UMeexAbzcdR/Zy/NBOWvdsZKBPb/fO7cvfYPWCJ6j9wg1a4hVUTcViseD1Gj7hdxrwjJZkDJACQAyV4WmryvH6ZrzWfvAWS17V+3OTml9Gbu0sknOKtcYVIpJYrTai4+Lo7eoc8o3RHh1LSn45Kfnl5E+cQ/Pu9RzesIye483a8nv1tz+kYvpcYhJSlGPFJQ8jo6Cco7s3GQ1RTwALADkLQAzFMOBeDL46uuJffkBeidKiGcC36v/n35pLe2uTciyA2JQMyufcQP7Ei3EmpmqJKUQks1itWK1W3P39SjFiU4eTMWo89uhYOhv34/W4lXPr6+miv8dFWd0c5VgAh7ev4+CWVUaHRwOPaEnEAFkEKIaiHoV1IxXj9ex6WbbwOfbv3KwlVmbZBGq/ejspuaVa4gkhfGxRDuwO9YN5LBYrmeWTGH35rcSnG15//BkfvfQHlRP9PqOweqrK8DFAspZEDJACQAyF4Tt4Vt5IUjNGKCfg9Xp5/pFfKccBCyPrL6fsouuw2h0a4gkhTuVwxmCx6rnNOOKSKJt9I6kF6rOIA329LPn7AxqygoKxSg82VmCKlkQMXlyIwTL8Sa+o1fP0v2rJQvZsW68YxcKoWdeQM+48LTkJIc7AYsERHaMvnNVG0fSrSCsaoxzrwxcfoafzuHKc1BGFJGUozUwEbDugFABisOKAcUYHV4xXmiY74a0X1U/5Kqz7AsMrJmnIRghxLjaHA6tN33pzi8VC4dQvkphVpBSnz9XFuree15JTYbXSPVwKABH0JgOG98NVTlA6OAOAro7jLH97vlKMtIIK8sYrHWUghBgie7T6WoCTWaxWRk6/CkdsglKc1Quf0pJPwdg6leETgIA0GJECQAyW4Tn8pLQMRuSXKCfw3qLn6etxGR5vd8Yy6sJrkf5XQviXPSpK9fjcz8d0xpI/5TKlGLsbltJ2ZJ9yLoozANH4igC/kwJADJbhAqCytl5L5601772pNL5w8iVExcQr5yGEGCoLdof+xbbJOSUk544yPN7r9bJt+RvKeQwvGq3aVyAgBwNJASAGw47vFYAhFbXq7/+9Xi8blr9reHx0fDJZlQFbbCtExLM6zOmomV09U2n8zlXvKOdgsVopqFJ6DSAFgAhaNYDhR2cd+//3bt9AW5Pxgzyyq6djsUnfKyECxWqxYTXhZzA2dTiJWYWGx+9cuVhLHgVjlR50phKA+7EUAGIwDL/gcsbGU1RRo5zA7k0NxgdbLGSU1irnIIRQY7WZMwuQNnKs4bHtTYfpbG1UzkFxHUASvqZAfiUFgBgMw4/wZTVTsGnYAnRg9zbDYxOHFxAdr+8QIiGEMTaTZuFSckcprTM6tnercg455eOxq50W6vfXAFIAiHOx4JueMqRSw/t/gEN7jBcAcriPEMHBYjfnlmNzOIlNzTI8vnHPFuUc7I5o8ionqoTwez8AKQDEuYwCMowO1tX//9gh41t14odla8lBCKHGajFvHU5s6nDDY9uO7teSg2JbYJkBEEHH8IfSbo+idKyejnvdXR2Gx8Ykp2vJQQihyGLRsiX4dJyJaYbH9ip8v5yssFrpHp4NqLU3HCIpAMS5GJ6WGlk5DmdMnJYkXAo/oFGachBCaGBSAWBXOHOgt1tPAZBfVafa8MivswBSAIhzMX4A0Hh9r7R6u7sMj7VFyWl/QgQPcwoAa5TxdsO6CgBnXCJZJVUqIaQAEEFjBApTUroWAAJ4PG7jgy3yMRciWJjViFvl1YLX49GWR36V0veeXxcCyjejOBvDH0aLxULZOKXOWEIIEXIU1wEoLboeKikAxNkYLgByRpaTlCqL74QQkaWoRunkUwvgtycnKQDE2Rg/AEjj+38hhAgVCWnDSc1WWszvty9PKQDEmSQBo40O1nEAkBBChCLFtsB+WwgoBYA4k6mA4f0sMgMghIhUhWoHA41D4fC1oZACQJyJ4So0LTObjOx8nbkIIUTIUJwBsAN6OqidgxQA4kwMf4IrJygtghFCiJA2LK+U+BSlxfx+mUKVAkCcTjQw3ujgSk39/4UQIhRZLBYK1LYD+uVLVAoAcToTAcPnWuo6AEgIIUKV4jqAyUCUplTOSAoAcTqG7+DxSSnkF1fqzEUIIUKO4jqAOKBaUypnJAWAOB3Dn9zycVOxWOVjJYSIbCNKq4mOTVAJYfo6APmmFqeyAlOMDpb9/0IIAVabnbzRSov5TX+XKgWAONUYINnoYNn/L4QQPgVq6wCmYd7ZSYAUAOLzDN/BoxzRFI+u1ZmLEEKELMV1AMPwHQ5kGikAxKkMTzuNGjuJKIfxM7mFECKc5I+ejC3KoRLC1ClVKQDEqQzPWVXI9L8QQpwQ5Ywlu7RGJYSp6wCkABAnKwJyjA6WBYBCCPFZig2BZAZA+I3hT6rVZqOsxvDmASGECEuFagVAIQoPZeciBYA4meFqs2BUFXEJSTpzEUKIkFdQNRWLRWkxv2lTq1IAiJMZLlVl+58QQnxeXPIw0vPLVEKYtg5ACgDxCaUtJ/L+XwghTk9xO6BpT1dSAIhPKDWdkAJACCFOr7Ba6ftRqTnb2UgBID5heJopK7+Y1IwROnMRQoiwoTgDYAXqNKXyucBCgMI0U0WtHP8rhBBnkpJVQHJmrkoIU75kpQAQoHj0ZOV4KQCEEOJsCsYGXz8AuxlBRciZDEQZHVwhBYAIII97gJ7jTfT3dOPu78Xd14vH3Y/V7sAeHYMtyoEjNhFnQgqobccSwrDCsVNpeP1po8MnAE6gR19GUgAIH8PVZVJaBiPyS3TmIsQZeT1u2o/spe3AdtqP7MXV2khPewter+ecY622KGJTMohJzSApq4iU3BJiU4f7IWshoLBG6SE+Gl8RsFRPNj5SAAhQ3P+v2ORCiLPyuPtp3rWBo1tW0nZgO+7+PsNxOpsO0tl0kGPb1gDgiEskrXA0meUTSMoqwOTTV0WQsvnhX3tmYSUxCSm4OlqNhqhHCgChWRS+VwCGyPY/YRZX2zEOrHmHxm2rGeh1mXKNvq52Dm94n8Mb3icmeRjDKyYzoqoeu8NpyvVEcLL5YTWcxWqlYOxUNi+bbzTENOB/NKYkBYCgBt8iQEOkA6DQrav5CPtXvUXjtlV4Peee2tfF1dbE7vfns2/lGwwvn0TehFk4YhP9dn0ROP6YAQAoqKpTKQDqABvg1pWPFADC8B3cGRtPYflYnbmICDbQ62LPhws5tG7ZoN7pm8Xd18vBtUs4unk5BZPnMGLsNCwW2TAVzvwxAwDK/QCSgNHAWj3ZSAEgFN7/l9VMwWaTj5BQd3TzCnYue5l+V2egUzlhoK+HHUv+ydEtKyk5/8skZCjt4xZBzAI4rNBnct2ZUz4eu8PJQJ/hxfzT0FgASFkb2SwodJiS/f9Clbuvl82LnmDLG38Lqpv/yToa97PmuQfY89Ei8HoDnY4wSawfnmXsjmjyKieqhND6pSsFQGQrAzKMDpYOgEJF57EDrHrmPhq3rQ50Kufk9XjY+9EiNrz6RwZ6uwOdjjBBrOFOKEMTTAcDSQEQ2Qx/mOz2KEaNnaQzFxFB2g5sp+Efv8XV1hToVIakedcG1jz/f/Qa38olglSMn95mFoxV2jk1AijUlIoUABHO8CP8yNG1RMfE6sxFRIimnetY//KjuPt6A52KId0tR1n93IN0NR8OdCpCI4cVovxwR8yvqsNqtamE0DYLIAVAZDNcAMj0vzDi6OblbFzwZzzugUCnoqSv6zhrX/wd3S1HAp2K0ChG6b48OM64RLJKqlRCSAEglGWjMJVU6ecGQPYoh+GxitW20KR590a2vvVM2Cyk63d1se7lR+jtaAt0KkKTGD+tA1A8GEjb05cUAJHLcBVpsVj8fgBQyjBjPdvt0bFY7X76qRZn1H54N5sW/tWvjX38obejjXUvPyILA8OEP3YCABRWK31/jkJh8fbJpACIXIYLgNziChKS03Tmck4VE4ylm5w9UnMmYqj6XZ1sXPAXPAPGevgHu+6WI2x+7SkgPGY2IpnTBlY/dAVU3AlgAbRMwUoXl8gVUu//L7jiehb+/WG8Q5w+ziyfYFJGYlC8Xra8/hR9XcdNvYzD4aC4uJi8vDwSEhJwOp24XC6amprYvXs3+/btG/JnZyha9mziwJp3yamZado1hH/E2KDL5CUqCWnDScsppvnADqMh6oF/quYhBUBkSsbXUtKQQBwAVFo1kZlzr+Ptl58a9JjknBKGjRxjYlbiXPavXkzL3i2mxJ4wYQJXXXUV5513HuPGjcNuP/PXWWdnJ8uWLePNN9/k2Wef5cCBA9rz2fX+KyRlj5SOgSEuNsr8AgB8rwEUCgAtCwHlFUBkmorCv/tAHQD07bsfHnTvgZjkdCrm3IAc7xo4Pe3Nvu55GjkcDr7xjW+wceNGli9fzg9/+EMmTpx41ps/QHx8PLNnz+Y3v/kNe/fuZdGiRZx33nlac/O63Wxf/FxAzzEQ6vy1DkCxH0ANEK+agxQAkcnwHP6wrFwysvN15jJozpg4fvnkYmZf8y2stjOt7LeQXlLDuK/8O1Exyj8fQsGOd1/EM9CvLd6VV17J9u3beeyxx6ioqDAcx2q1cvHFF7N48WLefvttpVin6mjcz+H172uLJ/wvxh4S6wDsKBzjfnIQEeDpJUEAACAASURBVHkMFwCBPv7X4YzhO3c/zOU3fp8lrz7D9nUrObh/Nz0DXuLTs8korSE+PSegOQpo3rOJ5t0btcRKSUnhj3/8I1dccYWWeCebOXMmDQ0N3HXXXfzqV7/Co2GXwu4PFpBeWkOU0/Ap2yKALPgWA3ab/BpgWG4J8amZdLYcNRqiHnhTJQcpACKPEzC8Mi4Q7/9PJ6eojGu/excAKxtW886yZYFNSHzGXk1T/2PGjGHevHkUFBRoiXc6UVFR/OIXv6C+vp6vfOUrdHR0KMUb6O3mYMMSCibP0ZSh8LdYu/kFgMVioXBsPevf/ofREMqrseUVQOSZAEQbHezv/f8i9LTu20rH0X3Kcerq6nj33XdNvfmfbM6cObz99tukp6crxzq4dglu40e+igDz27kA1UoPVJMBpSYnUgBEHsNz+AlJqeQXV+rMRYShfSvfUI5RXV3NggULSElJ0ZDR4NXW1rJw4UISEhKU4gz0uji4TmalQlWMHb+sHy5U6wgYh28xoGFSAEQew5+4snF1WKzykRFn5mo7RpvxrU0AZGVlsWDBApKSkjRlNTS1tbU8++yzWBU/60c2fog0BwpNNgs4/fBVN6K0muhYpWJTaVGWfJtHFitQZ3RwpUz/i3M4unmF0nir1coTTzxBVlaWpoyMmTNnDnfeeadSDNfxJo4f3qMlH+F//ngNYLXZyRuttJhf6UtZCoDIUgUYfqwK9A4AEey8HN26SinCd77zHWbNmqUpHzU///nPGTNGrZGUakEkAifWT0eIFKqtA6hH4WWFFACRxfAd3OGMYWTlOJ25iDDT0XiAnvZmw+MzMjK4++67NWakxm638+CDDyrFaNq5DnkNEJpi/XSIqGI/gGFAmdHBUgBEFsPTRaVVE4lyGN48ICJA24HtSuNvu+02kpOTNWWjx/nnn8/MmTMNj+93ddLVfERfQsJv7FaI8sMdMm/0ZGwKx52j8L0uBUBkCakDgERoUVn8l5iYyC233KIxG31+9KMfKY1XLYxE4PijLXBUdAzZo5RmVw1PIUgBEDlGAiOMDpYFgOKsvF6OH9ppePjVV19NYmKixoT0ufDCC8nNNX7Aj+quCBE4flsHoLYdUGYAxDkZ/5DYbJTVTNGZiwgzPZ2tuPt6DY+/9tprNWajl9Vq5ZprrjE8vrtFXgGEKn8dDFRYo1QAFAKG+p9LARA5DE8TFZaNJTY+OJ/ORHBwtTYaHhsbG8vUqcHRYvpMVHYmuI434/W4NWYj/MVhBZsf7pIFY+tVe6wY+gGSAiByyPt/YZpuhQJg0qRJREcH9wLT+vr6cx45fCZej5ue9hbNGQl/8cdugNjEVDLyDS/mB4MPeFIARIYMoNTo4GA5AEgEr96ONsNjKyuDv710bGwshYWFhsf3dLRqzEb4k//6AShtB5QCQJyRUrMIOQBInIu73/j7/5KSEo2ZmKe01HANLQcDhTC/HQw0VulBazQw5D20UgBEBsOlZVZ+ManpgW3LKoLfgMINLi0tTWMm5klNTTU8VqVAEoHltIHVHwcDVSt39R1ym3cpACKD4U+WtP8Vg+Hp7zM8Nj4+XmMm5lHZpqiyQ0IElgWI8cM6gJSsApIzjW83xcCDnhQA4S8eqDY6WN7/i8FQWcE8MDCgMRPz9Pf3Gx4rp2iGtpgo/7RzLvBzPwD5VIa/KYDht1gyAyAGwxplfBV/Z2enxkzM09HRYXiszeHUmInwt1i7H94BAIVq6wAmAEP6oEkBEP4Ml5TJwzIZURDcC7Q62pppObyPvm7jX85CnV3hnIhDhw5pzMQ8KnnaFAokEXgxdoVV1ENQWKP0wBWNrwgYND+tbxQBFHb7/7s723npz/fzzry/c3jvp21Wo+OTSS+tIa/2AqJiQuO9criwO2IMj926davGTMyzbds2w2Pt0cb//xGBZ8W3GNBlcj+nzMJKYhNT6TbeN2IasHSwf1kKgPAWBUw2OjgY3/9vbfiQX37nKlqOHf7cn/V2tnFg9dsc2fAB5bOvJ7WgIgAZRiZn8jDDY9esWaMxE3McPnyYw4c//5kbrJgk4///iOAQYze/ALBYreRX1bF52XyjIYb01CavAMJbLRBrdPDoCdM1pqJu1+YGfnzDhae9+Z9soK+HDa88TsvezX7KTMQmZxgeu379epqamjRmo99bb71leKzN4cQRJ620Q53/DgZSevCqAwa9Z0EKgPBmeA4/Ji6BgrIqnbkoGRjo59f/9lV6XF2D+vter4ctr/9NGrD4SWyK8QLA6/WyYMECjdno9+qrrxoeG5ucrjETESh+OxhIrSNgEjBmsH9ZCoDwZrgAKKuZgs0WPG+Ilsx/moO7h/auuN/VycG1g34dJhTYnbE4E4w3ynnyySc1ZqNXR0cH8+bNMzw+PsPQQW0iyNgsvsOBzJZdVkuU2pqRQX/vSwEQviwYPCEKgu/9//uvvWho3LGdazVnIs4kOafY8NjFixezZcsWjdno85e//IXu7m7D45NzgnsnjRg8f8wC2B3R5FZOVAkhBYCgHDC88ijY9v/v27HJ0Lju5qOAf5p4RDqVG53H4+Hee+/VmI0efX193HfffQoRLFIAhBH/rQNQ2oE16C9vKQDCl+FPkD3KQWmVUgWqXXursUViHne/tGH1k+TcElR2Sz/11FOsXRtcMzYPPfQQ+/fvNzw+Lm04jtgEjRmJQPLXOgDFg4FGAEWD+YtSAIQvw4/wxaNriY4xvHnAHF7jT/Hy/O8f0fHJJGUP6nvntAYGBvj2t7+Nx+PRmJVx+/fv52c/+5lSjIzScZqyEcEgyur7Zbb8qjqsVqUDCAb1/S8FQPgyXAAE2/S/CB2ZZUNqRPY577//Pvfcc4+mbIxzu93ceOONim2KLWSMqtWWkwgO/jgYyBmXSFaJ0i6sQc0ASwEQnnKBfKODy8cN+VRJIQBIL6nGald7UXr33XezcOFCTRkZc8cdd7B48WKlGMk5I3EmGt8ZIYKT39YBqG0HlAIgghl+/2+xWIJuB4AIHXaHk+HlautH3G43V199NR999JGmrIbm/vvv54EHHlCOkz02uBppCT1iQmMdwCjgnM05pAAIT4ZLx7ySShKS03TmIiJM3vhZWNTeX9LV1cWsWbN44403NGU1OPfeey+33367cpzY1OEMKxp0PxYRQpw2X08AsynOAAxqG7gUAOEp7A4AEqEjOiGFjFHqi986OzuZO3cujz/+uIaszs7lcnHTTTfxox/9CK/CgtNP5E+8CCz+OUJW+J8/ZgES0oaTptBbg0E8CEoBEH5SgEqjg2X6X+hQMGm28loAgJ6eHm6++WauvfZaGhsbNWT2eStXrmTy5Mn86U9/0hIvPiOH9JJqLbFEcPLXa4DCaqUHsnMOlgIg/ExF4d+rzAAIHZyJaeSNn6Ut3tNPP01ZWRkPPfQQLpdLS8yDBw9y6623MnnyZNatW6clJhYLJTO/hMUiX63hzH/nAih9H9cAZz0XXT6l4cfwJyZ9RB4Z2YY3DwjxGbm1FxCj8SCc1tZWvv/971NUVMTdd9/N7t27hxzD6/Xy3nvvcfPNNzNy5EgeeeQR3G59Z7xmVUwicXiBtngiOMXYweqHNzwFah0B7ZzjOPjgOe1F6CLv/0VQsNrsjJr1Vda++Du8Gpv7HDlyhJ/+9Kfcdddd1NTUcMEFFzBp0iTKysrIz88nPv7Th56mpiZ27drFpk2bWLp0KW+++Sb79u3TlsvJnImpFNXPNSW2CC4WfIsBuwfMvc6w3BLiUzPpbDlqNEQ98OaZ/lAKgPASA4w3Olje/wvdkkYUUTBpDrs/MH6c7pl4vV5Wr17N6tWrP/P7FouF+Ph4Ojo6tF/zTCxWG+Wzr8ceHWQdNIVpYu3mFwAWi4XCsfWsf/sfRkOcdSGgvAIILxOAaKODpQOgMEPe+Fmk5JX57Xper9evN3+AorpLZeo/wvirIVBBtdKD2STgjJlKARBeDN/B45NSyCuu0JmLED4WC5WX3Eh8enagMzFF1ugp5Iw7L9BpCD+LsaFy9tWgKZ4MGIdvMeBpSQEQXgwXABW19Vis8nEQ5rA5nIyZ+82wa42bVlhJycyrA52GCACrBZx++MocUVpNtNqJkme8L8g3fviwAVOMDpb3/8Jsjrgkqr54K9HxyYFORYuU3FIq5twohXME88d2QKvNTv4Yw1/tcJaF4fLJDR9VQKLRwfL+X/hDTHI61Vd/j9iUzECnomTYyCpGz71ZS7MjEbpi/LUOYKzSAW31nOFlhewCCB+G7+AOZwwJKWksX/wKe7au49ih/XS2t9LVcRyvx0N0bBxx8UkkJKeSX1JJQflY8osrcThjdOYvIoQzIZXqL32PDa/8gfYjewOdzpBlj51G8fQrpdWvMDwD0N3ewqFtDRzesY6mfdtxdbTR03kc90Af9qhoouMSiUlMIT2vhKziKjKLDDd3BRgGlAGbT/0DKQDCh+GVIn09Lm65aGirtK02G9mFo6isrWds3QVUTT6PxJRhRlMQESYqJo6xV32XXcvmcXDtUkC9/77ZrPYoimdcRVblWXuriAhit4DDCn3naHPR3nSIPWvfY/vyt9izdhmNezZrOXNiCOqRAiCs+bWLj8ftZv+OTezfsYlFz/4Bi8VCbnEFoydMp6J2KqMnziAtMzxXfQs9rDY7xTOuJCl7JNveeoaBXj0tfs0Ql5ZFxZwbiU0N7VcXQr8YO/T1ffrPXo+Ho7s3sWvNu+xpeI9da5bQ3nQocAn6TAMeO/U3pQAID8VAViAT8Hq97Nu+kX3bN7Lg7w8DkJqeRcX4esrH1VFRW8/IynFYZNpUnCK9eCxJIwrZtewVjm5ZSTDNBljtUeTWXkDe+FlYbfJ1KT7PaXOzbdcW9qzzPeHvXPU2XW1NgU7rVKd9QJRPdHgIyh6+LccOs2zh8yxb+DwAKenDqRw/jYrx9YyZOIP8ktGygloA4IhNpOyi6xheMZEd775IV/PhAGdkIb24iqJpl+NMCK+ti0JNX4+LbeuWs2HFEjauXMaWNR/Q090Z6LTOpRDIAQ6c/JtSAISHkFjC33rsyGcKgpi4BEaNnUR5rW+GoHL8NKIchhsZijCQnFPC+OvupHn3JvYuf42Oo+b07T8ji4W0ggryJ80mISPXv9cWQamnu5MtDR+yadUyNq96n02rltHX2xPotIyoB545+TekAAgPQTkDcC6urg4a3n+Thvd9Z1VEx8QyauxkRk+YRuWEaYwaO5noGOmtHnkspBVWklZYSduB7RzZvJymHetw9/eadsXohGQyR41neMUkrScYitBzvLmRjauWsXHFUjauXMruLWvxaDwxMoCkAAhDmUBJoJPQodfVzboPF7Puw8UA2O1RFI8ZT+X4afT3951jtAhHyTklJOeU4J55Nc271tOydzOt+7fR19WuGNlCXNpwknNLGVY0muTsYtnWF8EO7dnO7//7FjauXMr+nZ9bLB8uPjdTLJ/40HcV8EKgkwhmU2/5FXaHM9BpCI26W47SfnQvrtZGulsbcbU10u/qxt3fg/ukYtEeHYMtKhpHXCIxyenEpmYSm5JJ0ogiHGrtVYVBPR3teDz6n6hb925mxzvPaY8bRjxAGtD2yW/IDEDoC8npfyFUxKZmnmVLnhd3Xx82WU8ixMmswFTg1ZN/Q4S2kFgAKIT/WOTmL8TpfeaBUQqA0BYPjA10EkIIIUKCFABhpA55jSOEEGJwJgAnFkRJARDa5P2/EEKIwYrGVwQAUgCEOnn/L4QQYihOPDjK9HHocgATdQcdmTOC2XUTqSkrITczA6vVQperhy179rFy01aWrVnPkeYW3ZcVQoiIU5aTxdSyYmqLC8hPT8Nht9PT38+Ow418tG0Xi1avp62rW/dlpwH/A1IAhLJxgLY2eRdOHs9/3fQ1ZtSefk3h5Uw98d+37tnPsob1LFm9lqVr1rP7YKD7tgshRHCzWa2Myc9hemUp0ytHUV9eQmZy4lnH9PT18/clH/KTp1/iYHOrrlTqABvglkZAoesO4NeqQdKSEnn0x7dx1QXTDcc4cPQY765ay9I161i6Zh2bd+/z91nXZyWNgIQIHpHSCMgRZWf8yAKmV5ZSX15KfUUJSbExhmK1d7v40RMv8Ohr7+DR891aAzTIDEDoUl4AmJ0xjMWPPkBpfo5SnJzMdK67ZBbXXTILgGOtbbzXsOFEUdCwdQduj0c1XSGECFpxMU4mj6lg+rixTB9XxaTRZcS0NoOGNuaJsTH8v1u+ztTyEm74v8d1fJ/WIwVAyLLASXPyBuRmZrD4D/dTnJutKaVPpack88Xz6vnieb4apaOrm/fWbmDpmnUsWbWOFZu20NvXr/26QgjhLymJCdRXj2H6uCrqa8YwvmIUdpvts38pKRmaGrVd87oZk7FZLXz9wccYcCsVAVOA30kBEJrK8fV0NiTaEcVLD9xjys3/dBLiYpldN5HZdb41iwNuN2u37eTNj1axbM16ljWsp60j6M/TFkJEsMy0FCZUlFFfM4ZZk2qpGVWM1XqOjXSxsWCzgcbTBK+ZNondR5v4z6f+oRJmCsgiwFCl9PT/wxu/yriywB0gaLfZqC0vpba8lB/e+FUG3G7WbNnO0jW+hYXL1qyn+bjqaW9CCGFcUXYW08ZVMX3cWKbVjKEkz8irUgvExUP7ca25/fCqS3jxw1Ws3LHHaIhCYLgsAgxNfwFuMDIwLSmRvQueJS4meBfFeb1eNu3ae2KXwZLVaznY2GQ4niwCFCJ4BOMiQIvFQkVR/omb/fRxY8nOGKYnsR4XNB7RE+ski9dt5oKf3KcS4gqZAQhN440OvOmLlwT1zR98P4yVIwuoHFnArVdfDkDy9Es53tkV4MyEEOHoyvOn8cJ9PzMneHQMWCygeWfU+VXljM7LZsO+g0ZDjJdOgKHHBhQbHfylWTM0piKEEOKsLEBUlCmhv1Rn+FkQoFwKgNCTi6+f85DFREczrrxUczpCCCHOym5OATCtQun7vFQKgNCTYnRgSV42tnOtWhVCCKHXqdsDNSnPHaEyPF3uBqHn7L0jzyIlMUFnHkIIIQbDas56+9T4OJXhyVIARBBpviOEEAHgNacA6O1X+06XAiD0GD4a6lhrm848/CrKbnzDildjEw4hRHBS2Vqo8v0yKCa1Qj/W3qEyvFsKgNBj+EiovYeP0q7/aEm/UNm66O7v0ZiJEEKFF3MOCvP09xoea/rWaPeAKWHX7z2gMrxFCoDQsx8wVE4OuN0sXb1Oczr+Ees0/gPa2yVdBYUIGiadFNrXbfxpON7gKX2DpjhVfybvbNiqMnyfFAChpxcwXPb9beGbGlPxn/SUJMNjXa36DuMQQhjn9XhNOyq8p73Z8Nj0lGSNmZzC44EB/QVA38AAzy1brhJipxQAoWm10YEvvPmuUlvdQCnKMb7dpf3IXo2ZCCGM8njNW4/Tdcz4dHhRdpbGTE7R4zIl7HPLVnC4VemMgVVSAIQmw2Vf/8AAP/jf3+vMxS9GKhQAbfu3acxECGGUWQtyezta6O00vshZ5QHjnFz611119vSqngYIsFwKgND0usrg5954hxfefFdXLn4xemSh4bGu4010NO7XmI0QwgjPgDmL4Zp3bzQ81ma1UlGYrzGbk3g80K3/DJMf/OkZ9je1qIRoBBqkAAhNq4HDKgGu/+//4aMNmzWlY77JVRVK449s/FBTJkIIY7y4TSgAvF4vzTsbDI8fU1JEQlysxoxO0tmhfdHjb15axGOvKz/ALQI8UgCEJi/wtEoAV28vF95yOwuWfaQpJXMNT0tVek93ZNNy+rplN4AQgeIecOP16t8P37p3Ez3txp+Gp1RVaszmJB4PdCi9o/8Mr9fLT/7+T+786/M6wv0NpBFQKPuzaoCO7m7m/tt/cseDj9DZbc5CFZ0urptoeKzH3c+eDxdpzEYIMRTu/j7tMb1uNwfXvK0U4+IpEzRlc4rjbaBpzcPOI41c8vMH+flzr+jYRbEPeBN8R8uK0NQI1AEjVYJ4vV7eX7uRv76yiO6eHkrycsybDlPkiLLz5KtvGB7feewAqXllRCeYuOVHCPF5Xi99JiyGO7x+Ka17jb/KjItx8uiPf6C/E2BvD7So77ZatXMPP3vmZb718BNsOaD01vdkdwPvg++kYhG6ZgJq5e8prFYLU6oquWx6HXNn1FFu1uIYA/oHBsi68CqajxufyncmplH71duxR5vc+EMIccJAbw99mrfDdTbuY8uivyq9Vrjqgum8cN/PNGaF76n/yCFD3f/cHg/vbd7BvOVrmLeige2HjurNDZqBAqATpAAIB68Al5oVvCQvh7kz6rhseh31NWMCfpzwbff/P+5/Su0dWEpeGWMuuxmLSUd0CiE+5fV66elo1/r+v7ezjc0L/ki/q1MpzsLf3ctshVeLn+P1QuNh6B18W+IOVw+vrdnAvOUNLFi1juYOtf9N5/Bd4Hef/IMUAKFvFNAAmNzMGtKSErmkfjJzZ9Rx8ZQJAXlVsH3fAUZdcb3ye7D0kmrKL/q6FAFCmKyvx8VAr77zOPq629n62hNKnf8AinOz2frPJ7DqeqjxeKDpKPSc+3/rgeZWXlnRwMsfreGdDVvo7Tdne+Qp1gPjgBMXkwIgPNwB/NqfF4x2RDGztpq5M6Zy2Ywp5GZm+O3al37/P3h1qfq2vtT8Msrn3IjdYXrtJERE8nrcuDrb0XX+T3frUba/9Xf6NJzv8dCd3+W711ypIStgYMB38+8780LH1Tv38sqKBuataGDNrn2mtUQ+gwFgMrDq5N+UAiA82PA1Bzo/EBe3WCzUjCrmshl1zJ0xlZpRxVgs5n20Vm/ZzvjrvqXlB8iZlEbF7BtIyMzTkJkQ4hNevPR2duDRshLey7Fta9i3fCEeDSfr5WZmsO3lJ3E6HOqpdXVCa/Pnjvzt7R/gnQ1bmLe8gVdWNKg27lH1Y+AXp/6mFADhYxiwEgj4qr3czAwunT6Fy2dOZWZtNdGOKO3XuPrOu7R1M7RYrGSNqaNg0myiYuK1xBQi0vW5uhnoM35E7ye6W46yb/lCOo7qO9PjDz++jZuvVFw61dcHbS2f6fXf3NHJglXreGXFWhatXk+HKyiOIn8R+BKnmYeRAiC8VADv4isGgkJCbCwX101g7ow6LqmfTFpSopa4uw8eZsyX/4UujT9gtigHwyunkFU5mbg0Ew8HESLMDfT20tdjfNuf1+ul/fAuGresoG2/0pG3n1NbXspHTz5sbEGz1+u74Xe2g8t3499xuJGXl6/hleUNLNu8HbdHf7MjBe8DFwGn7UcsBUD4GY/vdUBKoBM5lc1qpb5mzIkthiV5OUrx/vfJ57j9gYc1ZfdZcWnDSc4dRVJWATHJGTgTUrBFRcuiQSHOwd3fR+8Q+t97Bvp9YzpacB0/RsfRvbQf2km/S38PfbvNxvInH6amrGTwgz656bu6obsLj9vNh1t3Mm95A/OWr2Gzvv35uq0ELgTOeEqSFADhqRJfr2e1O6zJygvzT2wxnFJVMeTVuANuN9Nv+j4frDN+EIgQInL8101f457v3HTuv+h2f3rT73HR7erh9YYNvLJiLfNXrKVRoReJn7wJXAl0nO0vSQEQvrKBZ4GpgU5kMNJTkrl02hQumzGFiyZPIC5mcCvz9x1pZNxXb1ZqDiSECH/Tx1Xx1qP3Yz/TLF5/v++G7+qC3l4Otx5n/ooG5i1v4K11m3GdZYV/kPktcDtwzoSlAAhvUfjaPt4OaO51aR6nw8EFk8Yxd8ZULp02hRHpaWf9+w89/SLfv++3fspOCBFqrFYL6579E5UjCz77B709n970+wdYv/fAian9FTv2+Hurnqom4DvAc4MdIAVAZKgFHgZMOvXCPBaLhfEVo7h85lQum15HVUnRZ/78Ty8v5F9/9X+4htB5SwgReQpGDOeFe39KbWHuxzf9bvr7+1myceuJrXq7j6r37w8AD77T/W4Djg1loBQAkcMCfBn4KVAe4FwMKxgx/MS6gQ/WbeQnDysfiiiEiBDxzmie+vdv4urr4+XlDSxavZ62Lv2HFPmJF99arx8Dq40EkAIg8liAi4FbgDmAhk4YQggh/KQZ3/qu3wObVAJJARDZUoArgLn4tosE5znAQggR2Y7iO/jtZXzbvLWsSJQCQHzCCdQDlwFX4dtFIIQQIjB2AfOB5/E19NHeYUgKAHEmlcDV+I4aHod8VoQQwkxu4EM+fdLfYvYF5UtdDEYBvnaSl338n7JuQAgh1HUBb+O76b8ENPrz4lIAiKGKw3fq4NX4CoLkwKYjhBAhZS/wGr7p/dfQ9D7fCCkAhAobMAXfa4IvAqMCm44QQgSlTfie8ucD73Gak/kCQQoAoVMlvmLgMnyFgYHjtoQQIuT1AMvw3fD/ARwIbDqnJwWAMEs6vj4Dl378n/GBTUcIIUzVDCzGd9N/CQj6A0qkABD+EAPM4tPZgazApiOEEFp8slXvFeBdoD+w6QyNFADC32zAZHzNh+YCZWZfMDmnhOKZX8FyplPAhBB+09931hNqjcXs7mDb60/T7+rUHvsUbnx78ud9/Gub2Rc0kxQAItBKgMvxzQxMxVcgaFV+yU3Ep+foDiuEMGCgrxOvCWvgjmz4gCPrP9AeF+jEt1p/HrAA36l7YSFkjogVYWs78JuPf6UBX8BXDMxG07oBZ+LZjxMWQviRxQImHLPrTEzVGe4Avqn9l/Ht0w/L40alABDBpBl44uNfdnyvCq7Gd15BrtGgFotsRhAi7Kn/nAflVj0zSQEggtUAvm00y4B/A44DCQHNSAgRrl7EdwZKRJFHIxEKvERANS6ECBjtB+2EAikAhBBCiAgkBYAQQggRgaQAEEIIISKQFABCCCFEBJICQAghhIhAUgAIIYQQEUgKABEqDG8D9HojcoePEJFF7ec8IrcZSwEgQkWX0YE9x8OmdbcQIc+McwAAetpbVIYb/n4JZVIAiFBh5Anp5AAAAYVJREFU+Kf70PqleN1unbkIIYwy4RyA/u4OmnesVwnRrCuXUCKnAYpQ8RK+UwOFEEK3W4FHAp2Ev8kMgAgVDYFOQAgRttYEOoFAkAJAhIolgU5ACBGWOoHVgU4iEKQAEKFiCdAY6CSEEGFnPtAf6CQCQQoAESoGgOcCnYQQIuw8GegEAkUWAYpQUgJsBmyBTkQIERY2AaOJ0D4A8kUqQkkLkAPUBjoRIURY+CawJdBJBIrMAIhQkwFsANIDnYgQIqQtAuYEOolAkjUAItQ0At8gQqfshBBaNAL/EugkAk1eAYhQtBXfosDzA52IECLk9ACX4FtPFNGkABChaim+V1gzA5yHECJ0dANfBN4JcB5BQQoAEcreAQ4DFyOfZSHE2R0EvoA0FTtB1gCIUPcHYBIR2slLCHFOXnx7/ccCHwU4l6AiBYAIBw3ABOA65MwAIYSPG5iH7wHheiL0xL+zkW2AIhzV4FvkMxUoB9KAhIBmJIQwWytwCN824bfxtfg9GNCMgtz/DzHIxeP0j2QMAAAAAElFTkSuQmCC;fontFamily=Verdana;align=center;" parent="1" vertex="1">
          <mxGeometry x="720" y="335" width="92" height="92" as="geometry" />
        </mxCell>
        <mxCell id="Nmos6C9Gwye4AmpU9b0R-20" style="edgeStyle=orthogonalEdgeStyle;rounded=0;orthogonalLoop=1;jettySize=auto;html=1;exitX=1;exitY=0.5;exitDx=0;exitDy=0;entryX=1;entryY=0.5;entryDx=0;entryDy=0;strokeWidth=3;curved=1;strokeColor=#A1A1A1;opacity=50;" parent="1" source="Nmos6C9Gwye4AmpU9b0R-2" target="Nmos6C9Gwye4AmpU9b0R-4" edge="1">
          <mxGeometry relative="1" as="geometry">
            <Array as="points">
              <mxPoint x="520" y="381" />
              <mxPoint x="520" y="224" />
            </Array>
          </mxGeometry>
        </mxCell>
        <mxCell id="Nmos6C9Gwye4AmpU9b0R-21" style="edgeStyle=orthogonalEdgeStyle;rounded=0;orthogonalLoop=1;jettySize=auto;html=1;exitX=1;exitY=0.5;exitDx=0;exitDy=0;entryX=1;entryY=0.5;entryDx=0;entryDy=0;strokeWidth=3;curved=1;strokeColor=#A1A1A1;opacity=50;" parent="1" source="Nmos6C9Gwye4AmpU9b0R-2" target="Nmos6C9Gwye4AmpU9b0R-15" edge="1">
          <mxGeometry relative="1" as="geometry">
            <Array as="points">
              <mxPoint x="520" y="381" />
              <mxPoint x="520" y="533" />
            </Array>
          </mxGeometry>
        </mxCell>
        <mxCell id="Nmos6C9Gwye4AmpU9b0R-2" value="Database Server" style="shape=image;verticalLabelPosition=bottom;labelBackgroundColor=none;verticalAlign=top;aspect=fixed;imageAspect=0;image=data:image/png,iVBORw0KGgoAAAANSUhEUgAAAgAAAAIACAYAAAD0eNT6AAAACXBIWXMAAA7DAAAOwwHHb6hkAAAAGXRFWHRTb2Z0d2FyZQB3d3cuaW5rc2NhcGUub3Jnm+48GgAAIABJREFUeJzs3XeUZOl93vfve0Olzj15djbMRu4uNiGSAEECCwIgJVIidSQSkGnJFC3CYFAmaYmyD6Rj0D60TVGkJBKW5WM5CNTSlggsKCMtEbhIswEbsHl2Z3dy5+6Kt254X/9RPbMzsz073dNVdau6ns85c6anumvqNzXd933uGw0ikrsHHl2eChMzY0I3gXUTvmXcGqY8mHIe484x4Rk37pyZBhcaw7hz+AYmHXgYpnAYMNOdv9FNYzBveCFHARi7TBkNDPEGz3FgVgEwbmX9sTUD1kHVGDLnqINJjHGr1pm6MdSw1BxUPccahlrmm7pLTC0J3cpPv312rRvvm4hcvTdeIERkWz71qAsPxkt7XcBBg9vvnLfXGLfHYXaB22Vgl3NuFs/swrEL2AX4edfdZymwjGEJ65bALGFYBrOEc4tgFo2x8w5z1qScPl3YNf+xt5sk76JFdhIFAJEt+A/fqe7yveg6MNd6ztyA4RoL+w3sx3EQ2Lv+S7pv3sCchdMY5gycwXLKee61wLnjflo8/qPvnlrOu0iRYaEAIHKBz39zbTYJk5ux7maHOYwx14G9Dsx1wPVcvvtcBkMDeA3cazjvOLgT4F4xnnk5TMKjCggir1MAkJHz+W+uzSZ+ehu4WzDuZue8mzHuZuAmYDbv+qSnloGjnV/uKMYcNdYcDbPgBYUDGTUKALJjfe7PVmcIkxudMXc6jztw3AnmDnA35l2bDCDDCs49C94zDp51xj0TkL3y4+/Y90repYn0ggKADL0HnnGFcmvxLdZ59xrcvTjuAvcWMLvzrk12ArcI5nvAU86YJz1jn2iVd3/vp+80b1wxITJEFABkqPzH765M+3H2VoO513ruHoO71zhzu4Mw79pkdBhIHO5ZZ8yTBvOEy+wTthh896fum1nNuzaRzVIAkIH1la+4oDa2fJtx7m3OmPeA+0Hg+wAv79pENmLgDIaHrTPf8Dzz2Hht7dH3v/9wlHddIhtRAJCB8cdHlq71nX2vM+ZdwDuB+4BizmWJbEcEfNfAEefcdwLn/dmf+/5dJ/MuSgQUACRHn3tk7kZn/R+84O7+jrxrEum1C3sJfGsf/vPv2v24McblXZeMHgUA6QvnnPnMYytv8Zz7gHPuhwz8ILAn77pEBsA88LDDfN035qEff8fs9/IuSEaDAoD0zGe+PbcPE/yQMfwIuB8Drs27JpEhMG8MX3O4Lxvjf/4n3j57PO+CZGdSAJCueeCbJ8pFv3S/MeZDwI+gLn2RbnjWwJcw9outpP2Vn373ta28C5KdQQFAtuUz357b5xn/w3j8uHP8KDCRd00iO1irFtnvVdv2RT90//wX3nfgkbwLkuGlACBb8gnnvLcdWX6Xw/04xv15MPfkXZPIqIkzx9lqQj22USkw3y365t/u+uCB//Wnjcnyrk2GhwKAXNEnnPPe9tjKu521fwX4y8DBvGsSEai3LadWE1qJJfSxlaL/Ytn3/m8X2d/+2E8cbOZdnww2BQDZ0AMPOL9848oPrDf6Pw3sz7smEXkjByzVU06vJdj1xYS+Ma5S9I4VQ+/f+TP7/vuPvd0oDMgbKADIeZ9wznvrI4vvBX4WzF9CJ+OJDI126ji1mlCNLh4FCD1jKyX/2ZLHH/zCB/f/vjHG5lSiDBgFAOFz31q8PfPcz3jG/KzrHIkrIkNquZlycjXF2jfuLVQIvLQSmieKvv2tj33o0B/lUJ4MEAWAEfWZb8/tM37wV3HuZ4G35l2PiHRPnDqOr8TU25e/2S8EJhoLzJcrpcI/+Pn797zQx/JkQCgAjJBPOOfd++jS/T78gnP8RaCQd00i0jsL63MD3JtsNGwMjBe918YK5lO3+Af+x/e/36T9q1DypAAwAv7kyPz+zHl/3Rj+prr4RUZLlFpeW+qsFLiSQmDSSuh9J3DeP/jFP7f/230oT3KkALCDPfjIwvucM79s4C84CPOuR0TyYS2cXI1Zbm5umwADjBXNqbGC+R8+9sFr/kVvq5O8KADsMA884wrF+vJf9HB/3xnelXc9IjI4lhoZJ1fjNx0SuFQx9JrjBf4w8KK/97EP3rTWu+qk3xQAdojPfHtunzH+f4HhV4Br8q5HRAZTI7a8uhSTZFs7gTjwjB0vet+aCLyP/9wH9z/do/KkjxQAhtyD356/BeP9187ws2hSn4hsQpw6Xl1q00y2FgLg/KTBF8ICv/LLP3LNl3pQnvSJAsCQ+twjy2+x1v4aho8CQd71iMhwsQ5eXY6ptq7++IDJkneqUjJ/+xfuP/j/drE06RMFgCHzJ0fm77XG+0fO8ZfR/5+IbNOJlZilxjbOEDIwFnpzY8Xg1/6rD+77P7pXmfSaGpAh8ZlH5u8zznwSzI/lXYuI7Cxnqylnq8m2/56xojdfCrO/80sfuu7TXShLekwBYMD9x2+t3OD79h+C+3nAz7seEdmZ5mudTYO6YbzonSwV+blf/JFrvtyVv1B6QgFgQP2nx8/sSbPw7+P4O0Ax73pEZOfrZgjAGCYL3nNTBe9ntGpgMCkADJgHvnmiXPRLv26M+TWgnHc9IjJazlRT5rowHHCO7xk3WfK+PN5q//TP/dTh1a79xbJtCgAD5MEjCz/h4J+DOZx3LSIyuk6tJSzUunskQCHw0smC96mPf3j/rxhjtr7+ULpOAWAAfOaRhduM43fA/GjetYiIsL5EcHUbSwQvpxJ6q5NF/vovfOiaz3b9L5ctUQDI0YOPnq5gi//U4f42WssvIgPEOXhpoU0zvvIhQltmDFNl7zuTxfaP/tz7NSyQFwWAnHzuO/Pvtcb718BtedciIrKR1MKLcxHxFrcN3qxi6MWTBf9XP/7h/b/bkxeQN6UA0GcPPLo8VbL2nwK/DHh51yMi8maaseWlhRi3lROEtmii6L1U8rwPffzHDrzasxeRN1AD1EeffWT5x0rWPgv8LfTei8gQqBQ8Dkz2doSy1ra3rLazo7//xTN/v6cvJBdRD0AffOpRF+7PFn/DGPPfoIZfRIbQK0ttqq0ezAe4xHTZf6S458D7PvZ20+z5i404BYAe68zwN58G7su7FhGRq5Vkjufn2mS29yv4SqHXGC/zk9pJsLd0N9pDn3lk6W8YZx5Djb+IDLnQNxycCvvyWlFix1bq7ov/8gtn/6AvLzii1APQA1/5igtq40u/jeNX8q5FRKSbXlpo02j3fijgnKmS/+yM773zr314f6NvLzoiFAC67MFHq7udjf8IeF/etYiIdFszcbw4H0Ef9/Irh151V9n7gb/xIwee7d+r7nwaAuiiPzkyf6/L4kdR4y8iO1QlNMyU+3swaSuxk/NN++Snvnjyr/T1hXc4BYAuefA7iz+Z4X0Tw/V51yIi0ksHpgIw/e1AjlMbLDX593/wxTP/bV9feAdTAOiCzz6y+J87wx+h0/tEZAQUfI+Zcv+bj9Q6s1BP/8nvfeHMv+37i+9ACgDb9OCRxb+F439He/mLyAjZO5HPJc8BK430r/3e5898JpcCdhAFgG148Mjib3aO79X7KCKjpRx6jBfzu/StNNO/8K++cPpLuRWwA6jhukrrjf8/zLsOEZG87BrLt+NzsZH9yO9+4fRXcy1iiCkAXIXPPrL0d9X4i8iomyr7eDkvJl9tZD/8zz9/+ov5VjGcFAC26MFHFn8J53477zpERPLmGZgs9XdJ4EbWmtkHf+/zp/4w7zqGjQLAFjx4ZOE/c47fy7sOEZFBMQgBAGClaX/mD7505rfyrmOYKABs0oOPLrzVYf412j1RROS8idLgNCOL9fRX/+CLZz+adx3DYnD+5wbYnxyZ32+t+Qxa5y8icpHQNxSDwbgvsg5WWun/+amHTr8171qGgQLAFXzqURem+A8YOJR3LSIig6hSGJymJMmcX23Yr/2bh5+fyLuWQTc4/2sD6mC29NsG99686xARGVSlAekBOKeVuvFGbfKredcx6BQA3sSDRxY/4Ay/lHcdIiKDrBgOXlOy2sre+i8+f+bX865jkA1WbBsgDzy6PFWy9ingurxrEREZZM14/YjgARN6Jpssm8O/9OFrTuRdyyAavNg2IIrO/i5q/EVErijwXd4lbCixzo8zvpx3HYNKAWADnzky/0PG8dfyrkNEZBj4fT4aeCtqkb31U188o6HcDSgAXMI5Zwze/5R3HSIiwyLv7YCvZDXKfuuBB9xg7Fg0QBQALvG5I4sfBd6Rdx0iIsPCDfh0snbqKmcnz2gX10soAFzgP730UtEZ/ru86xARGSbWDuYcgAs12vZv/suvzI/nXccgUQC4QLYy+1fBHM67DhGRYZLavCu4siRzgWun/yzvOgaJAsAFHO4X865BRGTYWDf4PQAA9dj+rHNusMcr+kgBYN3nvjP/XuDtedchIjJs4mw4AkCcutK/+uLZj+ddx6BQAFhnjfnlvGsQERlGUTIcAQCgnblfy7uGQaEAADz46OkKmB/Puw4RkWHUSoZgEsC6Zju7/ve/cHZv3nUMAgUAgKzwYaCSdxkiIsOoFQ9PD4B1kNnsH+RdxyBQAACc4SfyrkFEZBilmSPOhqcHACDO+Km8axgEIx8APuGcB/y5vOsQERlGa63havwBotTd6DrX/pE28m/A276zcBOwL+86RESG0VqU5l3ClqXWeb//0On7864jbyMfAJzv3513DSIiw8g6qLeHrwcAIE3Nj+VdQ95GPgDgrAKAiMhVWGtlDMEuwBuylnflXUPeRj4AOMxdedcgIjKMFurD1/1/TmbdyG/7PvIBwMC1edcgIjJsmomlGQ9n9z9A5txU3jXkbeQDADDy3wQiIlu1UBveu3+A1FLMu4a8KQAoAIiIbEmcOlaHcPnfhazDz7uGvCkAKACIiGzJ6bUENyQnAF6OdYz8qYAjHwAydQOJiGxaM7astrK8y9g2w3AHmG4Y+QAwbFtYiojk6dRakncJXeGbke8AUACIU6VAEZHNWGxkNIZ0459LeWr/FQCSTAFARORK4sxyejXOu4yucQoACgA7Jc2KiPSMg+PLydDu+rcRs4P+LVdr5APASmO417KKiPTafCMZ2j3/L6ed7qx/z9VQAGgO/2xWEZFeabQtZ9Z23nWy3t55/6atCvIuIG/LjZ0xo1VEpNvi1HFsqc2QL/nf0FJNAWDkewDqkaWVqCtIRORC1sGx5TY7sac88AzVpoZ/Rz4AOODkys6Z2Soism0Oji/HtOIdeOsP4Bw7MNds2cgHAIATywoAIiLnnFiLd8Ruf5ezrMnfgAIAAKdWYtKdtL5FROQqnV5NWKrv3MbfM3B8qZ13GQNBAQDILJxY0mRAERltZ6sJ8/WdfXfsG7Mj5zVcDQWAdc+eaeVdgohIbuaqCWerO7vxB3bUbobbpQCwbqGWsLjDk6+IyEZOrSWcGYHGv+AbTmnS93kKABd47kyUdwkiIn3jgBMrCQu1nd/4A6xp6d9FFAAucGyxTS3S4JCI7HzWwrHFmKURmREf+oajC5r8dyEFgAtY63j8tUbeZYiI9FSSOY4uRlSjnTvb/1IrjZRMp79eRAHgEq8utpmvakWAiOxMjbblhbmI5k7d5GcDYWB4ZU5DvJdSALiEAx55tcno/GiIyKhYamS8tBiP3DK4MyuJdv7bgALABhZqCUfnlRZFZGfInOO15ZgTKzE78mSfN+EbOLmssf+NKABcxndeaWhCoIgMvWZseXGuPZJHnwee4ZlT2uPlchQALiPNHA+/VENjASIyrBbrKS8txLTTEbyQGZivxkQ67fWyFADexFw14TntECgiQybOLEcX2pxcTXAj1uV/jgccX9KmP28myLuAQXfk1SYzYwH7p8K8SxERuaKlRsap1ZhRPt+s4MNjrzXzLmPgqQfgCpxzfO2FGo22upFEZHDFqePoQpsTK6Pd+Ic+PHOqpTX/m6AAsAmtxPLQ82s6MlhEBo5zjvlayvNzEfURv1HxDJxcSnTDtkkKAJu0XM/4xlFNChSRwVGLMp6fa3N6LRnpu34ADNRaljNrGvffLM0B2IJjCzG+V+c9N49j8i5GREZWO3WcWUtYbY3e0r7LSRLHS3OatL0VCgBbdHQuouAb3nl4LO9SRGTEWAtztYT5ejpq+/m8KZs5njmlSX9bpQBwFZ493aIUGu4+VMm7FBEZBc6x1LScrSYkmtx2EePgqZNq/K+GAsBVenx9iYlCgIj00nIz4+xaSpxpYttGvntcJ7heLQWAbXj8tSbN2PH9h8fQpAAR6aa1VsaZaqqd7DZiwKZOd/7bpACwTc+faZGklh+8ZRxjlAJEZBscrLUtc9WEZqyGfyMGiGLLc6c14W+7FAC64OWFNnHq+OHbJgh8hQAR2RoHrDQz5qsJ0Sju279JnoHVRsorCzrdrxu0D0CXnFiJ+ZOn1qi3tSxHRDbHOlhsZDx3ps3x5ViN/5sIfcPp1ViNfxepB6CLVpopDz6xxvu+b4IDOjtARC4jtY7lRsZCPdWs/k0oBIZnTja1w1+XKQB0WTu1fOmZKvddX+Gua8p5lyMiA6SZOJbqCSvNTDv3bVJg4NFXGlhtfNB1CgA9YJ3jsVcbrDVS3nXTOKHmBYiMLOccay3LQiPVHewWeMbQiFJeOBvlXcqOpQDQQ0cX2pytpvzwbePsmdCQgMgoaaeOpUbKciPTQWJbVPANRxcilmtp3qXsaAoAPVZvZ/x/T1e5+1CZe6+taL8AkR3MOViLMhYbKfVId/tXwzfw2GsNHefbBwoAfWCd44kTTeZrKe+5eZyxohZfiOwkzdiy3MxYaWZkutu/KqFnmKsmHF/SLP9+UQDoo9OrMf/x8RXuua7CXQfL6g0QGWJJ5lhpZiw3Ui3f26bAwNMnm9r1sM8UAPostZ0JgieWY95z0zhTFT/vkkRkk9IM1qKU5WamCX1dUPANZ1YTTizrrj8PCgA5ma8mfPbJFe67bow7D5a0jbDIgEozx2orY7WVUVej3xXGGHCWx19tkOotzY0CQI4yC4++2uCluYh33DDOoVmtFBAZBHHmqEWWtVZKLbKog797Cr7h2EKbhVqSdykjTwFgAKy1Mr783BrXzhZ45+FxJkqaJCjSb83EUm1lVCOrg3h6IPQMq82MJ+Z0iM+gUAAYICeWY06vLnPnwQp3HyrrYCGRHrIOalFGNeo0+tqStzc805n79MTxBomOShkoCgADJrPw1MkmL89H3HawzL6JkImyRyXwtGpAZJuixFKLLNW2pdHWdry9ZIzBN47nz0TUI7X8g0gBYEA14s4EmalywC37ijhjKBcMk0Wf8ZJHJdQwgciVpNZRb1tqUUYtssS6y+89AwUPjs61WG6o4R9kCgADbq2V8uirKXsnQ27YXeR0lMBa53Ss8aLPRNFjouQReOoeEEkzRz221NuWejsjStTg95Mm+A0XBYAhMV9NmK8m7JsMuXa2QJw6ltOU5Ubn86XAY6zgMVY0VIoepUA9BLLztVNHI86oR53f29qQp/9Mp+E/sRhzZi3OuxrZAgWAITNXTZirJuwa9zm8p0TqDDhHlFqi1LLU7HydbwxjRY9KwTBe8CkXDb72GpAhZh204oxGYmm2O3f6qbr0c2OA0Gf9jl+H9gwjBYAhtVTPWKo3mKn43LS3hIWLJjRlzq3Pbgbo/HCWwk4PwVjBZ6zgUfSNJhbKYHIQpZZGbGkmllbb0kqc1uMPAGM6M/tfmW+z0lDDP8wUAIbcSjPj0VcbjBU9bt5bIvANl7spihJLlMASnYk5ngflwKMcGsqhT7lgKIUemk4g/eSco5VAlGQ0E0e03uhrhv5gCTxD5hxHz0bUNKt/R1AA2CEabcuTJ5r4nuGmvUWmK8EVZzxb21lt0IiB9VCAgZLfCQLl0KNc8CiFhoL2JJAuSK0jShyt2NJK1n+ldM7RlYFU8A21KON7cy1Stfs7igLADpNZx4tnIwCu21Vg/1RIatn83ZSDKHVEaWfv83N8z1AJDYX1HoNCYCgFHoVAwUDeKM4c7cTSTh2txBKl0E4sqW7rh4IxhsBznF1NOLGsiX07lQLADnZ8Keb4Usx40eeGvUVKgXfVF+DMOmptB5cchmKMoehDMfAohobiejAohkZLE3e41EKcWqLU0U4dcWJpZ44odVg19EMp9A3txPLKfES9rdv9nU4BYATU2xnfO9FZHnBousC+mRDrutPr6pwjSiFKM4gu/pznvR4IQr9zcSkEpvO7r4Aw6DLriDNHknUa+jjt/DnOLO2kM9FUhl9nNr9hbi3hxFIbnYIwOhQARszJ1ZiTqzFjBY/De0pUSh5xj9ZOW+toxZ3x3o14pnPhORcICr5HGBhCz1AIIFBI6A3XGYuPLaSpI7GWxDqSFJLMEmeQpE4N/A5X8A2N2HJsvk0z1t3+KFIAGFGN2PK9U51egZnxgGtnChQC09ezua3rbOTy+uYtG1+EAs+sh4ELP770z5x/jBHb78A5R2YhsQ67/ntmO4+l678n2Xojn6G18yMs9A1Z5ji+1GaxriV8o04BQFipp6zUUwxwaLbA3qkCBgZmwlZq3ZZq8TxDsL5W2TMGz+t87HsennH4xsN44JvOhknnP28MxjjMBb0Ohs7fceGfff+CF3OdCZKXstbhNsghme0MvTjArn9gLTjc+eWbme38vZnr3IVntvM1ls77YG3n77cOUtf5s8jl+B7gDHPVhNPL6uKX1ykAyHmOzpHEJ5bj18PAZIjxzFDdNVrreH3e8oV1n7v0qbtTdjbfdILwUj3l1YV2J2yKXEIBQDZ0YRjAwLUzBXZPhHjrXYgiMlgC34B1LDczXluMydQ1JFegACBX5l4PAx5wYDpkz2SBMDQkOnxFJDcFv/MzOFeNObuaqHtftkQBQLbEAqdWE06tdo77HC96HJopMjnmdzYcGpB5AyI7kVlfOdNsW04stVlraThLrp4CgGxLvW15/mwLgMCHa2eLzI4FeJ4h0VCByLaFviGzjpVGyomldl9X6sjOpgAgXZNmnaNBjy20ARgrehycLjJV9sCYgVlVIDLIfM/gG0e9bTm1HOsuX3pGAUB6ptG2vDTXOv/nPeMBe6cKjBU9rHO6kxGhs3+FoXNmwtm1lMVakndJMiIUAKRvFuopC+ubjxhgquKzd6LAZNnHeGjIQEbCuZM16+2M+WrKUi1B3/mSBwUAyYUDVpsZq83XewgmSj77p0ImSj6Bb0is0ymxMtQ6G1B1xvBrLcvZtZhapC59GQwKADIwalF20cXR9wy7J0J2VXxKRQ9/fUMiZQIZSKZzd+8stBLLSiNlrpoM1SZaMloUAGRgZdYxtxYzt/b6Y8XAsGcyZLrsUw59jA9xRneONhTZJGMMoedwztCKLWuthIVaRpRoYosMDwUAGSrt1HFyOebkBY/5nmHvhM9UJWSs6BH45vxBOCLb1ZmV3wmk9dix1kiYr6baXleGngKADL3MOs6spZxZu/h0s1LBMFsOmKwElIve+aOFNdlQNuIZQ+B1DleKUkctyliqJ9Qj3dXLzqQAIDtWFDtOxwmn1y5eVlUKDbPjAeMFn0rRI/Q9jOfIbGeyluxcgddp6C2ONHU0Y0s9ylhupESJ/u9ltCgAyMiJEsfplQR443rrUsFjphwwXvYph4bA9zrHqdI5kjdTt+9A843B9ztTQjILaWaJEkc1ylhpJLTVyIucpwAgcoEotpyJY1jb+PPFwGOq4jNR9CgVPAqBR+ABxmCAzK2HBLUz3WUgMIb1URyc68zxiFNLK7bUIks1StXAi2yBAoDIFrRTy3zVMv8mX2OA8ZLHWMmnEngUCh4FzxD4Bs8zGNP5Grf+y1rHqI08GNOZWOcZzr8Z1rlOgMocSeZoJ5ZmbGm0LY0o00l3Il2mACDSZQ6oRZ270s0q+IZSwaPoGwqhIfQNhcDH99e7tT2D53U+BvA8wDkMBmc6r2ku6Xgw6zPXnTOvP0bnREe3wVCG55kNey48r/O8c88//4E796/tDI+4znH0naGSzJE5R5pBnFnSzBKnjjh1tJLOnbuI5EsBQGQAxJkj1qEvItJHXt4FiIiISP8pAIiIiIwgBQAREZERpDkAOWlbRyN1GBzlwKPkmSs/SUREpEsUAPrIAacaKa/UU9YuPDTEwFTgcdNEyMGKj6KAiIj0mgJAnyTO8dhSm4WNloY5WEssjy+3eaXucdd0gemCRmdERKR31Mr0gQMeWYw3bvwvsRpbHp6PeHIlJh613WFERKRv1APQBy/XEpbam1/j7YDjjZSzrZRbJwtcPxagKQIiMgjGbZO70hfYbZcBw6I3w1PhbTRMJe/SZIsUAHosc46Xa+mVv3ADsYXvrcYcqyfcPlngQMXvcnUiIpsz5Wp8pPkg98ffxncX39Bkxueh4g/wh6WfoOqN51ShbJUCQI8tx3bbXfmN1PHocpvZhsftkwVmixq5EZH+uTY7w2/U/iW77cqGn/ddxoeih7kvfpbfnPhFTvgH+lyhXA21JD1WS7q35/ly2/KNhYgji21WY+2lLiK9N+Vqb9r4X2iPXeYf1f4Vk7beh8pkuxQAeixz3R+8n4sy/mw9CKwpCIhID32k+eCmGv9z9thlfqb1uR5WJN2iANBj5V69w64TBL6+EHFkqc2KgoCIdNm4bXJ//O0tP+8D7W9Sca0eVCTdpADQY7tLF5yl2gsO5loZD89HfGM+Yi7KNjzSVURkq+5KX3jDhL/NCMi4O3mxBxVJNykA9FjJ99jbp019lmPLkcU2X52PONlIUZ+AiGzHXru0jecudrES6QUFAGj3+gXumC7gm/4t5K8llu+uxDx0usWL1YQoU5eAiGyd20b35Xae2ycjP0ahAIBZ7fUrTIQe980U+v5mR9bxQjXhoTMtHl9qsxJvvStPREbXvLfr6p/rz3axkp7o+bV/0CkA4Nb68SoHKj7v3ltiLOh/KrbAqVbGw/NtvjYX8WojJXHqFRCRN/d0eCuZ2foGZCk+Twe39aCiLjL05dqOIMqjAAAgAElEQVQ/yBQA6N83wUzB4337ytw5XSDI6Z2vJpanV2K+dCri0eU2C21NGhSRjTVMhYeKP7Dl5325+B6aptyDirqp972/g04BwLiT/Xw5z8CN4wHv31fmUCW/jRgzHGeaGd9eaPOVuYgXqwnNVNMGReRif1j6CRa8zXfnz3u7eKDy53tYUZdYdyrvEvKmAOB4Ko+XLfmG+2YLvGt3kYkw38ky9dTyQjXhT89GfGsh4kQzJdFJhCICVL1xfnPiFzcVAua9XfzmxMepmiE4D8DwZN4l5G3kzwJw8FSeze/eks+eYokTzYznqwntHGfsO2CxbVlsx/jGsLfscU0pYG/Zxx/4Cb0i0isn/AP8+tSv8zPNz/GB9jcJuHhCcYrPQ6V38+/LPz4cjT/gcrr5GyQjf1n/yd996SYvy47mXQdA5uBYPeGlWko6QHfgvjHsLnkcLPnsrwTkMI9RRAZExbW4O3mRPet7BCx4u3gqvHUIxvwvZnGH//jv3v5q3nXkSZdy58xf+p0Xz4Dbl3cp57Rt5wjhV+sJg7aEP/Bgd9FnX8lnXymgqBOKRbZkPIi4a/YYu4trYGAxmuKp5cM00lLepY2SM//h79x2DcYM2BW2v0Z+CABjHL/9/Ocw/HzepZxT9Ax3TIXcNB7wSj3lWD0lG5Ble6mFs62Ms60MiJkIvfUw4DFb8BUpRS5jqtDgozd+lfsPPIFvLp5wmzmPh87cy6dffh/VZCynCkfKZ0e98QcFAAAcPGgYnABwTtE33D4Vcng84Ggt4XgjG5ggcE4tsdQSy9FaZ2LjvrLPvqLP7pLX190PRQbZtWML/ON7/h27S9UNP+8by4cOPs59sy/zySc/yonGnj5XOFqMNZ/Nu4ZBoFUAQMDYF4Fm3nVcTsk3vGW6wAcOlLh1MiQc0P+1KHO8Vk85stTmC6c7pxS+Vk9ppIMVWkT6aarQeNPG/0J7Smv8xj2fZjJs9KGykdWYqBX+NO8iBoFGcIFnv/DP0tt/7JfuAvOWvGt5M4Ex7C763DAWUvQNtcSRDliPwDkOaKSOuSjjWD3leD1lJbEktjOpsKhlBTIifu6WL3HXzKub/vqxoE05iHls6ZbeFTXCnOOBP/yHt/xR3nUMAg0BrPMMv2cdH8m7js0IvM5mQjeMB5xuduYIrMaDvYlPZDsbD51pdpYPlfxOmNlV9Nhd9KjktTWiSA+NBxH3H3hiy8/7wIEn+L9evp+mJgZ2ncP8Xt41DApdddf9P3/79m8Cj+Rdx1Z4wKFKwHv3lnjPnhIHKwHekNxYR5njZDPlyZWYh85GfOlMxHeXY443Uu1IKDvGXbPH3jDhbzMCL+PuLfQayOYYeOyP/95tR/KuY1CoB+AC1vEpz/COvOu4GrNFj9ligSgLea2RcryRDtUxwFFmOdm0nFyfiVH0DVOhx0zBYyr0mC74WnIoQ2dv6eq3m99bHvmt6rsucU53/xdQALjAF083vB/aVx7q7uiSb7htMuTWiYDF2PJaI+Vsy+IGdK7A5bQzx3yWMR+9vuNYyTdMFTymQ4+pQiccFIaly0NGktvGutjh+okdfM3U8vUzkW4jLqAAcIEE8wvPVVPeNlvIu5RtM8awp+izp+jTSh3HmymvNdJctxrerihzRK2MudZ6KDAw7humiz5TocdUaJgIFQpkcMy3pnN5rrzRs9WEBH4J+N/yrmVQKACsC371sfdiefvpVsrhOGC2MLy9AJcqB+u9ApMhK+2Mk82MU62UoR9qd1BPHfU05cIjHUMPJgKPidBjPPSYWA8GJQUD6bOnV24gc96W5wGk1ufplRt6U9QIWoktZ1oZGN4a/r3Hvj/57bd9O++aBoECwDpjvV8GBw6eXY35wT2lHbernQFmiz6zRZ87p0PmW5YTrZT5aPiGCN5MYmE5tixfsjJCwUD6rZGWeOjMvXzo4ONbet6XT9+nFQDdsn5Nf31MxfwKoADAjmvirtInHq2EVW8BQ+XcQ/fMFLhubDTyUZRZTjUzTreygV9O2AuVwLCn5HN4LGBiUHdZkqE1GTb4rXf8G/aU1jb19fPRNL/+yM9TTSpX/mK5otcaKU+txK8/4Ggmk3YPn3j7wG7+1i+62gGFuvnwhY0/wDNr8cgsRyv5HjdNhLx3b4kP7C/zfVMhkyPUEDbTzg6GX5uLeKGa7KjeEMlfNRnjk09+lIVo6opfOx9N88knPqLGv0uaqevc/V/IUPGr5v58KhosmhEJeD/w8V8D7rvwMetgLXFcOxaMVDdJ6Bl2FX1uGA84VAko+QYLQ7WkcDuW2pbYwb6SfjSke6rJGF8/exflIOaG8Xm8S86hSa3Pl06/jd955qdYaGvyXzc44NGl9oZbkRto2G/9Lw/2v6rBMkpt28Y+4byw9t3TwIbHAd85XeDG8dEYCngzsXXMtzJORxkLUYbd4Xng7bNFDlQUAqT7KkHE3TOvsmd9nf9Ca5qnVm7QmH+XvVxLeHYt2fBzBs7G//N9B2G0TwQc+QBQ/NXv3mKte/Fyn/cMfP/uEruKo9MlfiWpcyxGlrmos05/J/YOjAWG+/eV9RMiMoSWY8u35iPebBDXt9lN0T97xyt9K2oAjfytrcvc3W92kbcOHluO+KG9JUq+QgB0DiXaX/bZX+7cIVeTThhYiCzL7WxHbGDSSB2riWV6By0HFRkFrczx6GL7TRt/AOsFdwMKACPNcPeVvqSdwZHFmPfsLaFD7N5oMvSYDD1umYDUwUqcsRhZFtoZa4kd2i3N1hQARIZK5hyPLrVpb2KM0jruAf6491UNrpEPANaZu8wmhoHWEssTyzFv3VVQr/CbCAzndyC8nZAocyxGGYvroaA1RMMFyWgsAhHZERzw3ZV480uZPXdXTwsaAiMfAIznrt3sHerpVkqwAvdMFzQ2vEkl33BoLODQ+p4Krcyx1M5YaluW25b6AC+11M2/yJBw8PRafP648c0wzhzqYUVDYeQDAI4rL869wPFGSmAMd06HvapoRyv7hkOVgEPry5zbGSzHGSuxZbVtWUsyNli1k4uZglYBiAyD56oJr9XTLT7Ljvx6SwUAthYAAF6pJ4Qe3DqpELBdRR8OlH0OrE8odM5RT2EtzlhNLGuxZS129Htq4WToMRGom0dk0L1QTTha23i535sxmC1f+3caBYCrCADQ+aYDhYBuM8YwEcJEGHCufy7DUY0dq7E9/6ue9XByoYHbNcwjMvBerCa8WN164w/gYKbL5QydkQ8AnqF4tZvavFBNiK3jzmlNDOwlH8NMwTBzwaB84hxrsWU1dtQTSy3tzCfoxpSC2yZC9mrfB5HB5eDZtZiXt9zt/zrfmOLVRYedY+QDQOh1xqGv1rF6Smwd984U0aFy/RMaw+6iz+7iBQ+6ziTD6rlAkFhqaScgbGZeQeAZ7pgMuV47P4oMLAc8uRJzonn1jT90rv1Rd0oaWiN/pQuMob3NvuRTzYzUtXnrbBENG+fIQDkwlAOffRcec+GgmTlq68GglnY+bmeAc4wFHnvKPteO+ToaWGSApRYeW24zH23jrm1dYPSzPvIBIPQM3RhMnmtlfGM+4h27ilSUAgaL6Rz5W7k0GIjI0Igyy5HFuLO5WBeM0IGnlzXyb0HJ695bUE0sfzYfsbidMQUREbnIUjvj63PtrjX+ACXdqCkATBW6+00QW8e3F9pXtSxFREQu9loj5duLm9vedysmg5Fv/jQEMNmDfiAHPLeWUEsdd02HGmsSEdmixDqeXok51epNj+qUtvpUAJgMe9c4n2ykLLUz3jpTZFbLykRENmU1tjy+3KbRw21B1QOgIQAqvkexh/PCWqnjmwsRL1STYT0UT0SkP1xnafU35qOeNv4l31DW0a4KABjYV+ptR4ijs2PVdxYjomxwD78REclLK3V8azHie6sxvb5K7iv72ukTBQAA9pf7szRsIbL86dmIozX1BoiIAOA6E/2+Otdisd2fG6R9vez2HSIjPwcAYHfRwzfQj6PqM9eZIDjXyrhntsC4xqFEZEQ1U8uTK3HfGn6AwMDusq67oB4AAHxjej4McKnl2PL1uc5ywS6vbhERGWgWeKmW8tWz7b42/gD7KwG++v8B9QCcd3g84HRre3tLb1XmHM+tJRxvpNw5VeiMS4mI7GALUcYzazG1JJ87n8NjavbO0TuxbrboMV3wWI37P0mvkTqOLLXZV/J5y3RIRcMCIrLDNFLHc9WYM838dkqdKnSu89KhAHCBG8ZDnlhu5/b6c1HG4lnLTZMBN02EOlhIRIZeauFoLeHlev7DnTeNh/kWMGAUAC5wTcXnxapHsxuHyl+lDMeL1YRX6yk3TQTcOB7qmGERGTrWwYlmyotrCVHeLT9QCTwOVDTMeiEFgAt4wO2TAY8tx3mXQmw78wNerafcMhlyXcXHaEthERlwDjjbzHi2muR6M3WpOyZDzXq/hALAJQ6WA44VUpZzmAuwkVbmeGol5ljd4/apkH0lJVgRGUAO5toZz+U4we9yZgoeBzTJ+g0UAC5l4I7pAg8vRAzSbj21xHJksc1k6HHTRMA1ZfUIiEj+HDDfynixluQyifqK1q/pWvn3RgoAG5gpeFxXCTje6O+ywM2oJpbvLse8EHjcPBFw3Vig72sR6btzXf3P1xLqyQA2/OuurwTMaub/hhQALuPOqQKLbTtQY1gXaqaWp1ZijtZSbp4IODTma3MLEem5DMfJRsbRWkKzhwf2dEMlMNwxrZn/l6MAcBmBB/fNhHxzoT1IIwFvcC4IvFA1XFsJODweUNIpVyLSZe0MTjQTXqmntPuxb/o2GeDemSKBhkovSwHgTcwWfQ6PB7xSH7yhgEu1M8fRWsIrtYR9FZ+bxkNm1O0lIttUTSyv1lNONjKygb4dutiNEyG7iroGvhkFgCu4farAWmJZ6vN+1VfLAmeaGWeaGbuKHofHOysHtJeAiGyWBeZaGcfqKUvt/Hbuu1qzBY/vm1LX/5UoAFyBZ+BtsyW+Ph8RZcMRAs5ZaluW2m2KPlxTDrhuLGQiVBIQkY01UsfxRsqJZsIQtvsAlH3D23cXteZ/ExQANqHowzt3F/jGfNSXI4O7rZ3BK/WUV+opUwWP68cCDlV8fI2NiYw86zp3+681UhbibKCWP2+Vbwxv31WkqC7PTVEA2KSp0OPe2QKPL8XD/PPBWmx5Ko55fs1wTcXnUCXQ4RgiI2glzjjV7PyKB2Cr3u0ywH0zBV3PtkABYAsOlgPSGXhyNR7qlAydrYaP1VOO1VPKvuGaSmdPgTGdQCSyY0WZ5WQz43gjpTHgS/i2xMBdUwXt9b9FCgBbdN1YQOocz6wmeZfSNa31FQRH6wmzBZ9DZZ8DFZ+CutFEhl47c5xpZZxqpiwnduhvXjZy+2TI9eNqzrZK79hVuHE8JLHwYnXnhAAAHCy3M5bbGU+vGWYKHgfLPgfLPkXtLSAyNGLrmI8yTjczFtpZ7sfw9tJtkyE3T2jG/9VQALhKt012vuF2XAhY55w7HwaeWYWZos++UicQVAKNsYkMmihzzEUZc62M+WiYVuxfvVsnQ26dVON/tRQAtuG2yZCCZ3hmdbgnBl6J4/WegeeqCdOhx76Sz76yz1Tg6ZANkTw4WEssZ6NOg7+6Q7v3N2TgjqkCN6nbf1v07m3T4fGAgmd4YqW9o7vZznOwGltWY8sL1YSib9hT8tlf9NlT9rTtpkgPZc6xHFvmWxmnWxnRMK5L3iYD3DNT4NqKmq/t0jvYBddUfAJT5PHlNjtpYu1mtDPHyUbKyUaKj2FXyWNPyWNPMdCmQyLb5aCWWhbaGQuRZSmyQ7Udb7cFHrxttsjekmb7d4MCQJfsK/u8Z2+JR5baA39CVq9kdCYezUcZkFD0DLMljz1Fn70ln7ImEopcUTvrDLkttDPmotG8y99Iyfd45+4CU6HmIHWLAkAXTYYe791b4rGlmMVh3Uezi9rWnT+XAGA89NhT9NhV8JkpeZS0zFCEKHMsxxlLbcdilFEf0CPI87Sr6PO2XQXt8NdlCgBdVvAM37+nyPNrCUdrO3OFwNWqJ5Z6YjlG53TFom+YLXZ6CGYLHhOaUCgjIMocK+1Ot/5ynFFL3ehM3rsK148FvGW6oAPNekABoAcMcPtUyERgeHo1Hrl5AZvVzi7uISj6ptM7UDRMF3ymQqPzCmSoZQ7W4oyV2LKSWFbaVl36mxR4hrtnClxT1nh/rygA9NChsYBdRZ/HV9osD8lxwnlqZ47TrZTTLYAEA4yHhqmCz3ToMVvwmCx46iSQgdVMLcuxZS22rCaO1Xhnb8LTK9MFj7fOFrU1eY8pAPRYOTC8e0+Jl6oJL1YT9fRtgQNqiaOWpJxcfyzwDFOhx2RomCp4TIYeE6Gnoz+lryxQSzoNfTWxVGPHWpKpt2+7DBweC7hjuqCf6T5QAOgDQ2fHqpmCzxMrMVGm3oCrlVrHUjtjqf36Y56B8cBjqmCYDP31UGA0YUi6op1BLc3WG3rLWuKop1Z39l1WDgz3zhTZXVTT3y8KAH20p+Rx//4SL1YTXq6pN6BbrKNzcU4AXl99EXqGSmCYCD0mAsNE0AkGFV+TDeWNEttZc19bn6za6X2yRGrpe8vA9ZWAO6ZDbSTWZwoAfeabzgTBfWWfJ5djLfnpocQ61mLHWnzxexwaw1hoGAsMY4F3/veKb3To0Q7Xto5G4mimlkbmaKSWRtp5LHFq6PutEnjcM1PQXX9OFAByMlvw+KF9RV6sprxST9Sd2EeJc6zGjtUYLuwxgE44qJwLBIGh7EPZ73xcCgyh7lAGWmIdrczRSh2tzNLKoJmuN/SZI9UP2kDwgJsmAm6ZCvHVHZcbBYAc+cZw+1TIdWMBz6zGzEXaPChviXOsJY61ZOOemcDrhIJK4FH2Oj0GZd+j4HXGMAt+Z+6BLmnd5eisEoltp3GPXef39vqfm+uNvRr4wben5HPnVEFbhQ8ABYABMBYY3rm7yFyU8b3VhKaGBQZWah01C7Xk8mHNGEPBg5JnKK0PKxS8zpyEgmco+J2ehoLnEXpQ8M3IzXi2QJw5EguxtSTOEWedc+xj+/rHUdZp5Nu2c0S1DK+xwHD7ZIEDFa3rHxQKAANkX8ln936Pl6spL9cSLSkaUs452lnnjnVtk5tBBgYCzyPwOh+Hxqx/bM4/FnidIQiz/nnoPIZxncfX/2xweOYymyitf+1GEufAvfFzmXNY53AYUutwF3ztuTvu2HV2s0tcp5s9dZA6R2ohteuPO9Y/13lcRkPgwc0TITeNh9rNb8AoAAwYH8OtkyE3jAe8XNP8gFGROkgze+mUBJGh5Rm4thJw61Socz8GlALAgCp4nfkBN4wHvFRNON7M1AUqIgPPAPsrPndMhlSCURvcGi4KAAOu7Hf2wz48bnluLdFEQREZTAb2FX1u1wS/oaEAMCQmQo937i5STSwv11JOtdQjICL5M8Dess+tEyHTBd3xDxMFgCEzGXrcN1vgttRytJZyvJFqR0ER6btzXf3fNxEyHqrhH0YKAEOqEnjcPVPg5omAo7WUk42MTFFARHrMx3BozOfmiZCKTusbagoAQ+5cELht0nGimXKsnuq8cRHpuqIP11ZCbhwPtGX2DqEAsEMUfcPNEyE3ToTMNTNeriesxFpsLSLbMxl63DAecGjM17a9O4wCwA7jAQcqPgcqPktty7F6Z+WA9hIQkc3ygH1ln8PjAbuK2rlvp1IA2MF2FT12FYu0MzjVSjneSKglSgIisrGxwHDdWMC1lRC1+zufAsAIKPpw43jAjeMBa7HltUbKyWZGpmWEIiPPM527/evHAvYUfNTLPzoUAEbMVMHj7kKB75tynGpmnGymrGqugMjImSn4XFPp/Cpoq96RpAAwogqe4fB4wOHxgFbmONXs7CnQ0AlEIjtWyfc4VPG5bixgTEv4Rp4CgFBeX0Fw83jIcpxxspVxppkRa+agyNAr+oYDZZ9rKgGzoacufjlPAUBeZ2C26DNb9LlryrESW063Mk63MtraW0BkaBQ8w96Sz8GKz56ir2N4ZUMKALIhY8z5MHDnNKy0M+aiTiBo6jB3kYFT8g37Sj77yj57S1qxL1emACBXZHi9Z+D2yZDVxDIXZcy1MtZSi3YgFsmBganQY3+p0+BPq3tftkgBQLbGwHTBY7rgcdtkSDtzLEQZZ9sZC60MzSEU6R3fGGYLHnvLPgfLPiVtySvboAAg21L0DYfGAg6NBWQ4liLLQmRZaKfadEhkuwxMBB57ij57Sh67Sp6245WuUQCQrvHpTDzaW/KBkLZ1LEeWhXbGfJTR0kRCkSsq+p0htz1Fn30l3eVL7ygASM8UPXP+XAKAemJZaFuW4oyVyBJpmaEIJd8wW/DZVTTsLvmMB17eJcmIUACQvhkPPcZDj8Pr33btzLHc7vQQLMeWmiYUyggo+YaZYqdbf7bgMxEYTd6TXCgASG6K/sU9BO3MdXoH2o7VOGMtcTqvQIaab2Cq4DNT8JgJPWaKnrr0ZWAoAMjAKPqGg+WAg2WAEAfUE8danLGaWJZjSzW26iSQgVUJPGYLHlMFj+nQMF3QJjwyuBQAZGAZYCI0TIQBh9YfS6yjmliqiWMttlQTSy2xaGsi6ScPmAg7Df1k6DFZMEyFHoFRay/DQwFAhkroGXYVfXYVX3/MOqinlrXYUU2y9VDgaGuSoXRB0YeJwF9v6D2mQsN44OnOXoaeAoAMPc/QuTiHAP75xxPraKaOWmKppY5a2gkGzUyTDeWNQq+z5n5ifbJqp/fJo6SWXnYoBQDZsULPMFUwTBUuXlaVOEcjcTRSRyO1539vZk6HHu1wRc8wFhoqgceYbxgLPMaCzmOhuu9lxCgAyMgJjWG6YJguwIU9BtAJB81zgSB1tDJoZZ2Po9SRaFXCQAs9Q9k3lAND2fco+1AJOg19xTeEupsXOU8BQOQCoTFMhZ0JXRtJrCPKoJlaWrbTY9DKLHEGrcwRZ525B4oJ3WXorBIprDfwBa/TyBfXf6/4HiUfNfAiW6AAILIFoWc6Y8Whf9mvcc4RW4isI1ofVohtJzzE1hFnnZ6G2FoSC3HmRm4VgwcU/M57WfA8QmMo+J1z7Ave6x+X/E4jX/Q6R1SLSPcoAIh0mTGGot+5Y50KN/ec1DlS60gtpK4TEDofv/5YajtDEG7989B5DGc6j6//2WGw7jKbKK1/7UZCY8C88XO+MXjGYHAEnsFc8LXB+h13wXR2swuNIfAMgYHAGAIPAm/9ccP65zqPi0i+FABEBkBgDIFvLp2SICLSM8rhIiIiI0gBQEREZAQpAIiIiIwgzQHISdt2NqIxOMqBdhsTEZH+UgDoIwecaqS8Uk9ZSy5Y+GVgKvC4aSLkYMXX0eAiItJzCgB9kjjHY0ttFqINVnw7WEssjy+3eaXucdd0gemCRmdERKR31Mr0gQMeWYw3bvwvsRpbHp6PeHIlJtZpdiIi0iPqAeiDl2sJS+1s01/vgOONlLOtlFsnC1w/FujoUREZCONBxF2zx9hdXAMDi9EUTy0fppGW8i5NtkgBoMcy53i5ll7Vc2ML31uNOVZPuH2ywIGKdokRkXxMFRp89Mavcv+BJ/DNxb2ZmfN46My9fPrl91FNxnKqULZKAaDHlmO77a78Rup4dLnNbMPj9skCs0WN3IhI/1w7tsA/vuffsbtU3fDzvrF86ODj3Df7Mp988qOcaOzpc4VyNdSS9Fgt6d4xL8ttyzcWIo4stlmNR+34GBHJw1Sh8aaN/4X2lNb4jXs+zWTY6ENlsl0KAD2Wue4P3s9FGX+2HgTWFAREpIc+euNXN9X4n7OntMZHbvxaDyuSblEA6LFyr95h1wkCX1+IOLLUZkVBQES6bDyIuP/AE1t+3gcOPEEliHpQkXSTAkCP7S559HRnHwdzrYyH5yO+MR8xF2WdZQQiItt01+yxN0z424zAy7h75tXuFyRdpQDQYyXfY2+fNvVZji1HFtt8dT7iZCNFfQIish17S6tX/9zy1T9X+kMBANq9foE7pgv4pn8L+WuJ5bsrMQ+dbvFiNSHK1CUgIlvnttF9OQRXnVbeBeRNAQDT85g6EXrcN1Po+5sdWccL1YSHzrR4fKnNSrz5zYhEROZb07k8t09GvotCAQC31o9XOVDxeffeEmNB/7f0s8CpVsbD822+NhfxaiMlcUOQz0UkV0+v3EDmtt5MpNbn6ZUbul9QNxn6cu0fZAoA9O+bYKbg8b59Ze6cLhDk9M5XE8vTKzFfOhXx6HKbhbYmDYrIxhppiYfO3Lvl53359H00B35r4N73/g46BQDjTvbz5TwDN44HvH9fmUOV/DZizHCcaWZ8e6HNV+YiXqwmNFNNGxSRi3365fexEE1t+uvno2n+/bEf7mFFXWLdqbxLyJsCgOOpPF625Bvumy3wrt1FJsJ8T/qpp5YXqgl/ejbiWwsRJ5opiU4iFBGgmozxySc/uqkQMB9N88knPkI1qfShsm0yPJl3CXkb+bMAHDyVZ/O7t+Szp1jiRDPj+WpCO8cZ+w5YbFsW2zG+Mewte1xTCthb9vF1GqHIyDrR2MOvPfJf8pEbv8oHDjxB4F08oTi1Pg+duY8/fOWHh6PxB1xON3+DZOQv6z/5uy/d5GXZ0bzrAMgcHKsnvFRLSQfoDtw3ht0lj4Mln/2VgBzmMYrIgKgEEXfPvMqe9XX+C61pnlq5YQjG/C9mcYf/+O/e/mredeRJl3LnzF/6nRfP8P+3d+dRkl7lnee/975LLJmRkWulSiotpZJqpbSwtUEstuTBzTRgBE237J7uY+Nu5mBjkMRmzJy2pruhG49RCWj3jDleOHPaNoMsiSMYMzYIg5CwWkhCEki1qEollWrLPTMiY3uXe+ePN6tUKtWSWRkRb0TG8zmnTmXFonxOKPO9v/eu2PG0SzmhYZIjhF9YDOm0JfyuhtGMw3jWYTzrkpETioVYkX5TZWe0l1EzC4aeUCQAACAASURBVCim9RBPe1uoqO64c14jjt1765ZLUKrDrrDt1fNDAChluXPPt1H8VtqlnJDRiu1Fj039Ls8vRhxcjIg7ZNleZOB4LeZ4LQYCCp5eCgOaYd+RSCnEWRRtmVuq3+LG4BEc+8ou9Fg5PJB5E1/PvpuS7k+pwp5yf683/iABAAAL31J0TgA4IeMothU9Nva77C+HHKrEHRMETiiHhnJo2F9OJjaO5xzGMw6jWd3W3Q+F6GSXxsf4bPmPGTVzZ3zesTHvqD/E9cGzfL7w27zkrG9zhb1FGXV/2jV0AlkFALj0/T1QTbuOs8k6itcM+ty0PsvmAQ+vQ/+v1WPLi4sRj840+LujySmFLy5GVKLOCi1CtFPRls/Z+J9qzMzy++X/xoBZbENlPatSKPvfT7uITiAjuMCzf7cr2vbO39kJ6jVp13IurlKMZhyu6PPIOIpyaIk6rEfgBAtUIstEPebgYsShxYi50BCaZFJhRpYViB7xG9V72BntW/br+2yNrG3whN/Rl6OuZS3f+Ppnrr477To6gQwBLNGKrxjLLWnXsRyuTjYTuqLf5Wg1mSMwH3T2Jj51k2w8dKyajH1mnSTMjGQ0oxlNPq2tEYVooX5T5cbgkRW/76bGj/nL/K9SVbkWVNXbLOoradfQKeQ27BTv27XnUeANaddxIWYbhoOViOO1iA5aQbhsWScJAhIIxFrypuCnfHzxTy/ovX/U/yEe8a9tckW9TcHj99y29fVp19EppAfgFMbyJ1p1ZwAYzmiGMz712OPFSsShStRVxwDXY8PhquHw0kyMjKMoepohX1P0NIO+I0sORddZZ2ZW8d7pJlYiAEJr5e7/FBIATvH3Ryv6beO5rr77zDqKLQMemwsu04HhxUrE8ZrBduhcgbNpxJbJOGay/vJyqayjKPqaQU9T9JNw4GvpxBKdy66ik3U17xWvVo0MDx6ry23EKSQAnCJEfWh3KeJ1w37apayaUoqxjMNYxqEWWQ5VI16sRKluNbxa9dhSr8VM1JZCgYJ+RzGYcSh6mqKnKHgSCkTnmNQjF/5eZ7iJlYhnSyEh/A7w52nX0inkSrnE/eTjb1VGPYiCG8ayDPvd2wtwNhaYa8QcrsYcqUWs1cP/PA0FV1PwNP2eprAUDLISDESb9dkqfz7/e6/a+Od8Ihw+OPQFmQTYJHOB4aGpenIRtPZN4Z2vW/nMzDVIegCWKKM/AhYsPDsf8Jax7JqLRwoYzjgMZxx2DHpM1gwv1SIm6903RHAuoYHZwDB72soICQai3SoqzwOZN/GO+kMret/3MjdI498sS9d0Tl7i1O8CEgBYc03cBbrjsbxX0lMoTm7Gfe2Qz2V9vZGP6rHhSDXmaC3u+OWErZB3FWNZh419LoVO3WVJdK0Bs8gXSl9gzMwu6/WTeoTfK36KkpItgZvhxUrE03PByw9YquGAGeOO13fs5m/tIlc7wF9Uv3Jq4w/wzEJAda32kZ8m62g2FTzeui7LTRfl2Fr0GOihhrAaJTsY/nCizt5SuKZ6Q0T6Srqfzxd+myl9/jH9ST3C5wsflsa/SaqRTe7+T6XIOyV1YzoVdRaZEQnoN334U8D1pz5mLCyElkv73J7qJvG0YiTjcEW/y4a8S9ZRGOiqJYWrMdMwBBbGs/KrIZqnpAv8KPNGsrbBFfERNK/8fYpw+G72LXyp/zeZWsXEQfEyCzw20zjjVuQKKuYfv/qt9lfVWXqpbTuzO6z2yj89CpzxOOAdgz5X9vfGUMC5BMYyWYs5Wo+ZqsddudnQSrx+OMP6vIQA0Xx5W+OacB9jS3sETOkRnvY2y5h/kx0ohzy7EJ7xOQXHgy9efzH09omAPR8AMp/86dXG2LNu1K0V/MJolpFM73SJn09kLdN1w0Q9Wae/FnsH+lzFjeM5+Q0RogvNBoZ/nKxzrkFcx8Sb6rve8HzbiupAPX9ra2N7zbku8sbC47N13rYuS9aREADJoUQX5RwuyiV3yKUwCQNTdcNsI2YtxIFKZJkPDYNrcDmoEGtZLbY8Nt04Z+MPYLR7DSABoKcprjnfSxoxPDodcMO6LHKI3asNeJoBT3N1ASILc0HMdN0w1YhZCA3dmggWJAAI0VVia3lspkFjGWOUxnIt8M3WV9W5ej4AGKt2qmUMAy2EhidnA1474kuv8Dm4ipM7EG7Dox5bpusx00uhoNZFwwVhbywCEWJNsMBP54LlL2XWdmdLC+oCPR8AlLaXLvcO9Wgtwp2Dawd9GRtepqyj2NDnsmFpT4VabJlpxMw0DLMNw2IHL7WUm38huoSFny0EJ48bXw5l1YYWVtQVej4AYCmu5OWHKhGuUuwY9FpV0ZqWcxQb8i4blnZdaMQwG8TMBYb5hmEhjDnDqp1UDPmyCkCIbrC7FPLiYrTCd5nBlhTTRSQAsLIAAPD8YoinYfOAhIDVyjiwPuewfmlCobWWxQgWgpj50LAQGBYCS7unFg54moIr3TxCdLq9pZD95TMv9zsXhVrxtX+tkQBwAQEAkh86kBDQbEopCh4UPJcT/XMxllJgmQ/MyT+LcQsnFyrYJsM8QnS8faWQfaWVN/4AFoaaXE7X6fkAoBWZC93UZm8pJDCWHYMyMbCVHBRDvmLolEH50FoWAsN8YFkMDeUomU/QjCkFWwoe62TfByE6l4VnFwIOrLjb/2WOUpkLiw5rR88HAE8n49AX6uBiRGAs1w1lkEPl2sdTitGMw2jmlAdtMsmwdCIQhIZylASE5cwrcLVi+4DH5bLzoxAdywJPzQW8VL3wxh+Sa3+9OSV1rZ6/0rlK0VhlX/KRakxkG7x2OIMMG6dIQc5V5FyH8VOPubBQjS3lpWBQjpKvGzFgLX2uZizncGmfI0cDC9HBIgOPzzaYrK/irm2Jq+R3vecDgKcVzRhMnqjFPDxZ5w0jGfKSAjqLSo78zZ8eDIQQXaMeGx6dDpLNxZqghw48Paue/wiyunkfQSk0/GiyzvRqxhSEEEK8wkwj5sGJRtMaf4Cs3KhJACj6zf0hCIzlkanGBS1LEUII8UovViIemV7e9r4rMeD2fPMnQwADLegHssDuhZByZNk56MlYkxBCrFBoLD+bCzhSa02PalG2+pQAMOC1rnE+XImYacS8dijDsCwrE0KIZZkPDE/MNqi0cFtQ6QGQIQDyjibTwnlhtcjy46k6e0thtx6KJ4QQ7WGTpdUPT9Zb2vhnHUVOjnaVAICC8WxrO0IsyY5V/2O6Tj3u3MNvhBAiLbXI8o/TdX4+H9Dqq+R4zpGdPpEAAMBFufYsDZuqG75/vM7+svQGCCEEADaZ6PeDiRrTjfbcII23stu3i/T8HACA0YzGUdCOo+pjm0wQnKjFXDvs0y/jUEKIHlWNDE/NBW1r+AFcBaM5ue6C9AAA4CjV8mGA080GhgcnkuWCTV7dIoQQHc0Az5UjfnC80dbGH+CivIsj/f+A9ACctLHf5WhtdXtLr1RsLbsXQg5VInYU/WRcSggh1rCpeswzCwHlMJ07n4190uydIJ/EkuGMZtDXzAftn6RXiSyPzjQYzzq8ZtAjL8MCQog1phJZdpcCjlXT2ym16CfXeZGQAHCKK/o9npxtpPb9J+ox08cNmwZcNhU8OVhICNH1IgP7yyEHFtMf7tzU76VbQIeRAHCKS/IO+0qaajMOlb9AMZZ9pZAXFiM2FVyu7PfkmGEhRNcxFl6qRuxbCKmn3fIDeVezPi/DrKeSAHAKDWwbcHl8Nki7FAKTzA94YTHi6gGPy/IOSrYUFkJ0OAscr8Y8WwpTvZk63fYBT2a9n0YCwGkuzrkc9CNmU5gLcCa12PL0XMDBRc22osd4VhKsEKIDWZhoxOxOcYLf2Qz5mvUyyfpVJACcTsH2QZ+Hpup00m495dDw6HSDAU+zqeBySU56BIQQ6bPAZC1mXzlMZRL1eS1d02Xl36tJADiDIV9zWd7lUKW9ywKXoxQafjobsNfVXFVwuazPlZ9rIUTbnejq31MOWQw7sOFfcnneZVhm/p+RBICz2FH0mW6YjhrDOlU1Mjw9F7C/HHFVwWVDnyObWwghWi7GcrgSs78cUm3hgT3NkHcV2wdl5v/ZSAA4C1fD9UMeP55qdNJIwKucCAJ7S4pL8y4b+12ycsqVEKLJGjG8VA15fjGi0Y5901dJAdcNZXBlqPSsJACcw3DGYWO/y/OLnTcUcLpGbNlfDnm+HDKed9jU7zEk3V5CiFUqhYYXFiMOV2Lijr4deqUrCx4jGbkGnosEgPPYVvRZCA0zbd6v+kIZ4Fg15lg1ZiSj2difrByQvQSEEMtlgIlazMHFiJlGejv3XahhX7O1KF3/5yMB4Dy0gtcNZ3lwsk497o4QcMJMwzDTaJBx4JKcy2V9HgVPkoAQ4swqkeVQJeKlakgXtvsA5BzF60czsuZ/GSQALEPGgTeO+jw8WW/LkcHN1ojh+cWI5xcjir7m8j6XDXkHR8bGhOh5xiZ3+y9WIqaCuKOWP6+UoxSvH8mQkS7PZZEAsExFT3PdsM8TM0E3/36wEBieDgL2LCguyTtsyLtyOIYQPWguiDlSTf4EHbBV72op4PohX65nKyABYAUuzrlEQ/DUfNDVKRmSrYYPLkYcXIzIOYpL8smeAn1yApEQa1Y9NhyuxhyqRFQ6fAnfiijYWfRlr/8VkgCwQpf1uUTW8sx8mHYpTVNbWkGwfzFk2HfYkHNYn3fwpRtNiK7XiC3HajFHqhGzoen6m5cz2TbgcXm/NGcrJZ/YBbiy3yM0sK+0dkIAABZmGzGzjZifLSiGfM3FOYeLcw4Z2VtAiK4RGMtkPeZoNWaqEad+DG8rbRnwuKogM/4vhASAC7RlIPmBW3MhYIm19mQYeGYehjIO49kkEORdGWMTotPUY8tEPWaiFjNZ76YV+xdu84DH5gFp/C+UBIBV2DLg4WvFM/PdPTHwfCwv9wzsLoUMeprxrMN4zqHoajlkQ4g0WFgIDcfrSYM/v0a7989Iwfaizybp9l8V+fRWaWO/i68VT8411nQ320kW5gPDfGDYWwrJOIqxrMNFGYexnJZtN4VoodhaZgPDZC3maC2m3o3rkldJAdcO+Vyal+ZrteQTbIJL8g6uyvDEbIO1NLF2ORqx5XAl4nAlwkExktWMZTVjGVc2HRJitSyUI8NUI2aqbpipm67ajrfZXA2vG86wLiuz/ZtBAkCTjOccbliX5SczjY4/IatVYpKJR5P1GAjJaMVwVjOWcViXdcjJREIhzqsRJ0NuU42YiXpv3uWfSdbRvHHUp+jJHKRmkQDQRAOe5q3rsjw+EzDdrftoNlHD2JPnEgD0e5qxjGbEdxjKarKyzFAI6rFlNoiZaVim6zGLHXoEeZpGMg6vG/Flh78mkwDQZL5W/MJYhj0LIfvLa3OFwIVaDA2LoeEgyemKGUcxnEl6CIZ9TUEmFIoeUI8tc42kW382iClHtncm712Ay/tcXjPoy4FmLSABoAUUsK3oUXAVP5sPem5ewHI14lf2EGQclfQOZBSDvkPRU3JegehqsYWFIGYuMMyFhrmGkS79ZXK14pohn0tyMt7fKhIAWmhDn8tIxuGJuQazXXKccJoaseVoLeJoDSBEAf2eoug7DHqaYV8z4GvpJBAdqxoZZgPDQmCYDy3zwdrehKdVBn3Na4czsjV5i0kAaLGcq3jzWJbnSiH7SqH09K2ABcqhpRxGHF56zNWKoqcZ8BRFXzPgaQqelqM/RVsZoBwmDX0pNJQCy0IYS2/fainY2OeyfdCX3+k2kADQBopkx6oh3+HJuYB6LL0BFyoylplGzEzj5ce0gn5XU/QVA56zFAqUTBgSTdGIoRzFSw29YSG0LEZG7uybLOcqrhvKMJqRpr9dJAC00VhWc+NFWfaVQg6UpTegWYwluTiHAC+vvvC0Iu8qCp6m4CoKbhIM8o5MNhSvFppkzX15abJq0vtkqEtL31oKLs+7bB/0ZCOxNpMA0GaOSiYIjuccnpoNZMlPC4XGshBYFoJXfsaeUvR5ij5X0efqk3/nHSWHHq1xDWOphJZqZKjElkpkqETJY6GVhr7d8q7m2iFf7vpTIgEgJcO+5m3jGfaVIp5fDKU7sY1Ca5kPLPMBnNpjAEk4yJ8IBK4i50DOSb7OugpP7lA6WmgstdhSiyy12FCLoRotNfSxJZJftI6ggU0Fl6uLHo50x6VGAkCKHKXYVvS4rM/lmfmAibpsHpS20FoWQstCeOaeGVcnoSDvanI66THIORpfJ2OYvpPMPZBLWnNZklUigUka98AmfzeW/l1dauylge98Y1mHHUVftgrvABIAOkCfq3jjaIaJeszP50OqMizQsSJjKRsoh2cPa0opfA1ZrcguDSv4OpmT4GuF7yQ9Db7WeBp8R/XcjGcDBLElNBAYQ2gtQZycYx+Yl7+ux0kj3zDJEdWie/W5im0DPuvzsq6/U0gA6CDjWYfRizQHShEHyqEsKepS1loacXLHurDMzSBdBa7WuDr52lNq6Wt18jFXJ0MQaul5SB5D2eTxpX8rLFqdZROlpdeeSWgt2Fc/F1uLsRaLIjIWe8prT9xxBzbZzS60STd7ZCGylshAZJYetyw9lzwueoOr4aqCx6Z+T3bz6zASADqMg2LzgMcV/S4HyjI/oFdEFqLYnD4lQYiupRVcmnfZXPTk3I8OJQGgQ/k6mR9wRb/Lc6WQQ9VYukCFEB1PARflHbYPeOTdXhvc6i4SADpczkn2w97Yb9i9EMpEQSFEZ1IwnnHYJhP8uoYEgC5R8DRvHM1QCg0HyhFHatIjIIRInwLW5Rw2FzwGfbnj7yYSALrMgKe5fthnS2TYX444VIlkR0EhRNud6OrfWvDo96Th70YSALpU3tVcM+RzVcFlfznicCUmligghGgxB8WGPoerCh55Oa2vq0kA6HIngsCWActL1YiDi5GcNy6EaLqMA5fmPa7sd2XL7DVCAsAakXEUVxU8rix4TFRjDiyGzAWy2FoIsToDnuaKfpcNfY5s27vGSABYYzSwPu+wPu8w0zAcXExWDsheAkKI5dLAeM5hY7/LSEZ27lurJACsYSMZzUgmQyOGI7WIQ5WQcihJQAhxZn2u4rI+l0vzHtLur30SAHpAxoEr+12u7HdZCAwvViIOV2NiWUYoRM/TKrnbv7zPZcx3kF7+3iEBoMcUfc01vs/WouVINeZwNWJe5goI0XOGfIdL8skfX7bq7UkSAHqUrxUb+1029rvUYsuRarKnQEVOIBJizco6mg15h8v6XPpkCV/PkwAgyC2tILiq32M2iDlcizlWjQlk5qAQXS/jKNbnHC7Juwx7Wrr4xUkSAMTLFAxnHIYzDjuLlrnAcLQWc7QW05C9BYToGr5WrMs6XJx3GMs4cgyvOCMJAOKMlFInw8COQZhrxEzUk0BQlcPcheg4WUcxnnUYzzmsy8qKfXF+EgDEeSle7hnYNuAxHxom6jETtZiFyCA7EAuRAgVFT3NRNmnwB6V7X6yQBACxMgoGfc2gr9ky4NGILVP1mOONmKlajMwhFKJ1HKUY9jXrcg4X5xyysiWvWAUJAGJVMo5iQ5/Lhj6XGMtM3TBVN0w1Itl0SIjVUlBwNWMZh7GsZiSrZTte0TQSAETTOCQTj9ZlHcCjYSyzdcNUI2ayHlOTiYRCnFfGSYbcxjIO41m5yxetIwFAtExGq5PnEgAshoaphmEmiJmrG+qyzFAIso5i2HcYyShGsw79rk67JNEjJACItun3NP2eZuPSj10jtsw2kh6C2cBQlgmFogdkHcVQJunWH/YdCq6SyXsiFRIARGoyzit7CBqxTXoHGpb5IGYhtHJegehqjoKi7zDka4Y8zVBGS5e+6BgSAETHyDiKi3MuF+cAPCywGFoWgpj50DAbGEqBkU4C0bHyrmbY1xR9zaCnGPRlEx7RuSQAiI6lgIKnKHguG5YeC42lFBpKoWUhMJRCQzk0yNZEop00UPCShn7A0wz4iqKncZW09qJ7SAAQXcXTipGMw0jm5ceMhcXIsBBYSmG8FAosDZlkKJog40DBdZYaek3RU/S7Wu7sRdeTACC6nlYkF2cPwDn5eGgs1chSDg3lyFKOkmBQjWWyoXg1Tydr7gtLk1WT3idNVlp6sUZJABBrlqcVRV9R9F+5rCq0lkpoqUSWSmRO/l2NrRx6tMZltKLPU+RdTZ+j6HM1fW7ymCfd96LHSAAQPcdTikFfMejDqT0GkISD6olAEFlqMdTi5Ot6ZAllVUJH87Qi5yhyriLnaHIO5N2koc87Ck/u5oU4SQKAEKfwlKLoJRO6ziQ0lnoM1chQM0mPQS02BDHUYksQJ3MPJCY0lyJZJeIvNfC+Thr5zNLfeUeTdZAGXogVkAAgxAp4WiVjxZ5z1tdYawkM1I2lvjSsEJgkPATGEsRJT0NgDKGBILY9t4pBA76TfJa+1nhK4TvJOfa+fvnrrJM08hmdHFEthGgeCQBCNJlSioyT3LEWveW9J7KWyFgiA5FNAkLy9cuPRSYZgrBLz0PyGFYljy/926Iw9iybKC299kw8pUC9+jlHKbRSKCyuVqhTXusu3XH7KtnNzlMKVytcBa5SuBpcvfS4Yum55HEhRLokAAjRAVylcB11+pQEIYRoGcnhQgghRA+SACCEEEL0IAkAQgghRA+SOQApaZhkIxqFJefKbmNCCCHaSwJAG1ngSCXi+cWIhfCUhV8Kiq5mU8Hj4rwjR4MLIYRoOQkAbRJay+MzDabqZ1jxbWEhNDwx2+D5Rc3OQZ9BX0ZnhBBCtI60Mm1ggZ9MB2du/E8zHxgemqzz1FxAIKfZCSGEaBHpAWiDA+WQmUa87Ndb4FAl4ngtYvOAz+V9rhw9KoToCP2mys5oL6NmFlBM6yGe9rZQUfm0SxMrJAGgxWJrOVCOLui9gYGfzwccXAzZNuCzPi+7xAgh0lG0ZW6pfosbg0dw7CtvaGLl8EDmTXw9+25Kuj+lCsVKSQBosdnArLorvxJZHpttMFzRbBvwGc7IyI0Qon0ujY/x2fIfM2rmzvi8Y2PeUX+I64Nn+Xzht3nJWd/mCsWFkJakxcph8455mW0YHp6q8+h0g/mg146PEUKkoWjL52z8TzVmZvn98n9jwCy2oTKxWhIAWiy2zR+8n6jH/GgpCCxIEBBCtNAt1W8tq/E/YczM8i9r325hRaJZJAC0WK5Vn7BNgsCDU3UenWkwJ0FACNFk/abKjcEjK37fTY0fk7e1FlQkmkkCQIuNZjUt3dnHwkQt5qHJOg9P1pmox8kyAiGEWKWd0d5XTfhbDpeYa8J9LahINJMEgBbLOpp1bdrUZzYwPDrd4AeTdQ5XIqRPQAixGuvMzCreO93ESkQrSACARqu/wfZBH0e1byF/OTT8dC7ggaM19pVC6rF0CQghVs6uovtyNe9tk54fo5AAgJpv9XcoeJrrh/y2f9h1Y9lbCnngWI0nZhrMBSvvyhNC9K5JPXLh73WGm1hJS7T82t/pJABgF9rxXdbnHd68Lkuf2/5UbIAjtZiHJhv8cKLOC5WI0EqvgBDi3H7mbSZWK9+ALMLhZ+6WFlTURIq2XPs7mQQA2vdDMORrfnE8x45BHzelT74UGn42F/DdI3Uem20w1ZBJg0KIM6uoPA9k3rTi930vcwNVlWtBRc3U+t7fTicBQNnD7fx2WsGV/S6/NJ5jQz69jRhjLMeqMY9MNfiHiTr7SiHVSKYNCiFe6evZdzOll9+dP6lH+Eb+n7WwoiYx9kjaJaRNAoDl6TS+bdZRXD/s809GMxS8dCfLLEaGvaWQ7x+v849TdV6qRoRyEqEQAijpfj5f+O1lhYBJPcLnCx+mpLrgPADFU2mXkLaePwvAwtNpNr/rsg5jmSwvVWP2lEIaKc7Yt8B0wzDdCHCUYl1Oc0nWZV3Owen4Cb1CiFZ5yVnPp4uf5l9Wv81NjR/j8soJxREOD2TfzP+Te1d3NP6ATenmr5P0/GX9vV9+bpOO4/1p1wEQWzi4GPJcOSLqoDtwRylGs5qLsw4X5V1SmMcohOgQeVvjmnAfY0t7BEzpEZ72NnfBmP8rGezGb9627YW060iTXMqtVe+7a98xsONpl3JCwyRHCL+wGNJpS/hdDaMZh/Gsw3jWJSMnFAuxIv1unZ3DBxnNLICC6XqRp2c3UomyaZfWS47de+uWS1Cqw66w7dXzQwAoZblzz7dR/FbapZyQ0YrtRY9N/S7PL0YcXIyIO2TZXmTgeC3meC0GAgqeXgoDmmHfkUgpxFkU/Qq/duUPuHH9kzjqlRNuY6t54Nh1/PWBX6QU9qVUYU+5v9cbf5AAAICFbyk6JwCckHEU24oeG/td9pdDDlXijgkCJ5RDQzk07C8nExvHcw7jGYfRrG7r7odCdLJL+6b43679K0azpTM+7yjDOy5+guuHD/C5p36Nlypjba6wtyij7k+7hk4gqwAAl76/B6pp13E2WUfxmkGfm9Zn2Tzg4XXo/7V6bHlxMeLRmQZ/dzQ5pfDFxYhK1FmhRYh2KvqVczb+pxrLLvDZa/+aAa/Shsp6VqVQ9r+fdhGdQEZwgWf/ble07Z2/sxPUa9Ku5VxcpRjNOFzR55FxFOXQEnVYj8AJFqhElol6zMHFiEOLEXOhITTJpMKMLCsQPeI3r/4uO4deWPbr+9wGOTfg8ZmrW1dUD7OWb3z9M1ffnXYdnUCGAJZoxVeM5Za061gOVyebCV3R73K0mswRmA86exOfukk2HjpWTZYPZZ0kzIxkNKMZTT6trRGFaKF+t86N659c8ftuWv8k//3AjVRlYmDTWdRX0q6hU8hVd8nffGzbj4GfpF3HSmhgQ97lreuy3DCW5eK8i+6SG+t6bDlcjXhqLuCB43W+e6zOT2cDDlUi2ZFQrBk7hw++asLfcrg65poV9BqI5VHw+Ddv3/Jo2nV0CukBOIWy9o+tUl9Lu44LMZzRDGd86rHHi5WIQ5Wo1ZWLhAAADRtJREFUq44BrseGw1XD4aWZGBlHUfQ0Q76m6GkGfUeWHIqusy574dvNr8v1/Fb1TWdgV9o1dBIJAKfQJfPXcdH598CVaddyobKOYsuAx+aCy3RgeLEScbxmsB06V+BsGrFlMo6ZrL+841jWURR9zaCnKfpJOPC7pctD9CS7inWx3fUb2xUOuAuxjP2fQgLAKe6+Y0fwvrv2/j7Wfj3tWlZLKcVYxmEs41CLLIeqES9WolS3Gl6temyp12ImakuhQEG/oxjMOBQ9TdFTFDwJBaJzTNYGU3mveDWl7KfvvmNHkHYdnUSulKezVr3vrr0/Am5Iu5Rms8BcI+ZwNeZILWKtDrV7GgqupuBp+j1NYSkYZCUYiDbrc+v8xVu/uOJ5AJFx+M2HbpdJgM2i1CP3fmzzm2Xzn1eSHoDTKWX54rOfQOsfs8YCkgKGMw7DGYcdgx6TNcNLtYjJevcNEZxLaGA2MMyetjJCgoFot0qU5YFj1/GOi59Y0fu+d/R6afybx2LtJ6TxfzW58p3F++7c86edtD1wK9Vjw5FqzNFa3PHLCVsh7yrGsg4b+1wKnbrLkuhaA16FP3zDnzGWXVjW6yfrg3z6J79FKcy3uLLeoBT/1z23bv1w2nV0IrnanYWTiW8FDqRdRztkHc2mgsdb12W56aIcW4seAz3UEFajZAfDH07U2VsK11RviEhfKezjc0/9GlP14nlfO1kf5HNP3iKNf7NYDoYNPpV2GZ1KegDO4eYv7X2LMvaH9GhQqkSWY7WIiXrMXMP0zKzkK/pddg76aZch1pgBr8otV/6Am9Y/iavjVzwXGYcHjl3P159/uzT+zWOstTfed/u2H6ZdSKeSAHAeN+/ac5eCj6VdR9oCY5msxRytx0zVY8waTwOvH86wPi8bD4jmy7t1rhl6gbGldf5TtUGenrtCxvybzGLvvO+2bR9Pu45OJpMAz2Msv/jJ6Wr/dcDb064lTb5WbOhz2dDnElnLdN0wUU/W6XfThkPLtbsUsD6Xk4gsmq4aZXlkamvaZax1D7sL5jNpF9Hp5PK2DO+562fjrvV+Alyadi2dqBQmYWCqbphtxGtmqOCt67IM+j05+iNENztkI/cN933yqsm0C+l0EgCW6f1ffO56q+OHABmgO4fIwlwQM103TDViFkLTtVuaXTPkc3mfdJIJ0UVqyvK2e27f+ljahXQDCQArcPOde29Ryv4lPTop8ELUY8t0PWZ6KRTUumi4YFvR56qCBAAhuoSxilvuu3WrbPe7TBIAVuj9u/Z80MKfIp/dBanFlplGzEzDMNswLHbwdoTXDvlcJj0AQnQDi7IfvvfWbX+SdiHdRBqxC/C+XXtuRU6VaopGDLNBzFxgmG8YFsKYqEM6CX5xPEfBk18RIbrAp++9besfpl1Et5Gr2wW6edee/6Tgs2nXsdZYa1mMYCGImQ8NC4FhIbC0e2rhgKd5+7qs/IYI0eGstf/hvtu3/UHadXQjubytgoSA9oixlALLfGBO/lmMWzi5UME/Gc2yLiNTPYTocP/x3tu2/vu0i+hWEgBW6f137f6ItepLyMTAtgqtZSEwzAeWxdBQjpL5BM2YUrBlwGPzgLf6/5AQolUs1n7y3tu3fTHtQrqZBIAmuHnXnn+l4C8AaTXSZJNJhqUTgSA0lKMkICxnXoGrFdsHPC7vl4l/QnSwyFo+dN/tW/8i7UK6nQSAJrn5rt3vUlZ9HehLuxZxGgvV2FJeCgblKPm6EQPW0udqxnIOl/Y5cjSwEJ1t0aD+xTdv2/KdtAtZC+Rq10Tvv2vPNdbwTRQb065FCCHWmJfAvPfe27Y/kXYha4WMWzfRPbdufdr69g3A99OuRQgh1g77oI3c10vj31wSAJrsvo9sm5ldOPYrCr6Qdi1CCNH91FdH85Vflr39m0+GAFro5rv2/htl7X8FCmnXIoQQ3cRCSVn74Xtv3/ZXadeyVkkAaLH37tp9hbbqL1G8Oe1ahBCiS/zEsfGv3337jv1pF7KWyRBAi33ztm0vzJaOvR3s/w507sb3QgiRPqssX3YW4rdI49960gPQRjff9ez/pKz+M+DStGsRQogO8wKGD9778a3/kHYhvUJ6ANrovlu3fzfML25dmiAovQFCCAEW1FejgGuk8W8v6QFIyft27bkBxZ9i2Zp2LUIIkZIDGvtv/+a2bT9Iu5BeJD0AKbn3tq0PO6bvtcAfAmHa9QghRBsFoP7zwELmNdL4p0d6ADrAzV/cvVkptQvF/5x2LUII0UrW8oAm/tg9t+94Ju1aep0EgA7y/jt3v9sqdRdwZdq1CCFEc6n9Vtnfv+/WrXenXYlISADoML9xx8Fsudj4uIXPIAcLCSG636Ky6nNVV+/6zkevbqRdjHiZBIAO9e4/2jvqO/YTFm4FMmnXI4QQKxSC+gsnjP7g7k/tOJ52MeLVJAB0uA986ZnLYuN+FuxvAU7a9QghxHkYBffEjvOZb3706gNpFyPOTgJAl/jVO3fvdJT6HPDutGsRQogzsArux8aflQl+3UECQJd5/117rrGWTwC/jvQICCHSZ5RVf2s1/+HeW7f8JO1ixPJJAOhS7/3yc5t0bD4F9oOAm3Y9QoieYxTcY9B/cN9tm3enXYxYOQkAXe79u/ZdabGfRtl/gyWbdj1CiDVOUVfwNe3wh3f/7taDaZcjLpwEgDXiA19+biwy8QeV5SPAhrTrEUKsNWpCYb8Wunz5/t/dejTtasTqSQBYYz5wxzN+NOj8qkLdjrW/kHY9QojupuBJsP9nYSH7f3/tjo31tOsRzSMBYA27+c7db1dKfQT4VcBLux4hRNcIgPtR+iv33rr5wbSLEa0hAaAHvOeun417xrvFKvXvwO5Iux4hRMd6zir+LCb82v237pxIuxjRWhIAesx7v7T7ddroD4H910Au7XqEEKlrKLgf9FfvufXqB1DKpl2QaA8JAD3q3X+0d9R17a8ry78C3ph2PUKIdrP/Qyn+u3H56/s+sm0m7WpE+0kAELzvj5693Lr6FmXVvwV7Vdr1CCFa5iUFf2WM/fP7Pr5tX9rFiHRJABAvs1bd/OV9Nyhj/xfg/cBo2iUJIVZtCvgb4C/vvXXLj6WLX5wgAUCc0Qe+YZ3o2L436dh+wCr+OXBx2jUJIZZtGviOsvbukb7K//fV//X1YdoFic4jAUCc1x13WP3U0L43a2PfZeGfA5vSrkkI8SqHQf2tsubbM6Xj3/nBHb8UpV2Q6GwSAMTKWKveu2vfG7Sy7wL+GXA98nMkRBqsgieMtf+v0vrb935s82PSvS9WQi7cYlWSLYjNO7W177LwT4FC2jUJsYbVwD6srPq2dZ177v3o1YfTLkh0LwkAoml+446D2fli8Esa+w7gl4HXpF2TEF3OKvg5yn7PGPX3xVLmB7Idr2gWCQCiZW7+P/avw4verqz6ZbC/Alyedk1CdD41obAPgv2eddy/lbt80SoSAETb3Lxr3zat4puw6m1W8VYsF6VdkxAd4JiFH4F6UMc8cM8ntuxJuyDRGyQAiNS85yt7LnZiblBW/bK15i1KqW3Iz6RY+44peAjs97Dm4Xtu2/6sTN4TaZCLregY7/nKnou9kLeg7S9Yq94IvBY5r0B0tyrwhMU+ilKPKGseuve27cfSLkoIkAAgOtgv3vEP7sjAui1Gu6/Txr4OxQ02WXao065NiLN4HnhYWR43jnq8rvRPvvPRqxtpFyXEmUgAEF3lnV9+biBn7HUWc52C68Beh1U7AD/t2kRPCYCfW3hSYZ/UVj8ZhPbJ+z+9tZx2YUIslwQA0fU+9CePeZPVgR2a+DqLuk4prsGyA1iXdm1iLVATYJ8BnlbWPmmsfnKsv/ysbK8rup0EALFmvXfXwUF0fZOyeoe2djtW7bDKbgc2Ij/74jQK5iw8C+oZZe2zKP2MDsOf3/2pHcfTrk2IVpCLoOg5H/gvB4qhH21xlNlkUVcBVwNXLf0ZS7c60WKTWPaj7H5Q+xV2v1V6v1N39939e5sW0i5OiHaSACDEKT7wXw4U40xjk7L6KqPZqK29FKsvR9nLLVwGFNOuUZzTPHBIWXUIZV60qEPK8oJVZn/N8fZ/56NXl9IuUIhOIQFAiBV455efG8ja8DKsukIZfRnY9Si1AWvXobgExTiWdchKhWYzwISCCWs5imYCwxGlOGrRh5QNX6i6/kvSwAuxfBIAhGiyD3zDOo2JveNuZC4Cd73CjKMYwTJiLaNoO4xlBPQI2GFghN5bxRAAM8kfO4tiBqtmFMwY7DRWzSilJ5VRR60OjzuXbJu8+1+oOO2ihVhLJAAI0QHe84U9BeW6g1qbfmttwVFqwGIGraWglO3HUlBKDVgYVNZqlBoEsKhBMApUUYG2MAA4gK+g7/TvY5OeibMNYyyo5E779PdUSBrsSEHZggG7ANoq7PxSHXNgrYJ5a20JRRkog1pU6PnY2pJSqqwcVXacYP7u39mx2KSPTghxgf5/K70FWxt4/GAAAAAASUVORK5CYII=;fontFamily=Verdana;fontStyle=0" parent="1" vertex="1">
          <mxGeometry x="392" y="340" width="82" height="82" as="geometry" />
        </mxCell>
        <mxCell id="Nmos6C9Gwye4AmpU9b0R-13" style="edgeStyle=orthogonalEdgeStyle;rounded=0;orthogonalLoop=1;jettySize=auto;html=1;exitX=1;exitY=0.5;exitDx=0;exitDy=0;entryX=0.5;entryY=0;entryDx=0;entryDy=0;strokeWidth=3;endArrow=block;endFill=1;" parent="1" source="Nmos6C9Gwye4AmpU9b0R-3" target="Nmos6C9Gwye4AmpU9b0R-11" edge="1">
          <mxGeometry relative="1" as="geometry" />
        </mxCell>
        <mxCell id="Nmos6C9Gwye4AmpU9b0R-3" value="Publications &#xa;(e.g. New York Times)" style="shape=image;verticalLabelPosition=bottom;labelBackgroundColor=none;verticalAlign=top;aspect=fixed;imageAspect=0;image=data:image/png,iVBORw0KGgoAAAANSUhEUgAAAgAAAAIACAYAAAD0eNT6AAAABHNCSVQICAgIfAhkiAAAAAlwSFlzAAAOxAAADsQBlSsOGwAAABl0RVh0U29mdHdhcmUAd3d3Lmlua3NjYXBlLm9yZ5vuPBoAACAASURBVHic7N13eBXVogXwdU56r6RQQu+9995r6F0RUeyCYkG9inIVwYIUlSJNFKUI0jtIUbr03qSnECAkpLf3Rx5XRBJyZu85+5wz6/d99/ve08yehSSZdWb27G2CMXkDaAagPoDy//+/QgC8APgrzEVE8uQAiAFwDMBCAD8AyLDSuU0AugEYDKAhgFAAzlY6N9m3HABxAG4CiEbu9+8RALsAnJF5IpPMwWxcAIC+AAYCaAT+MBIZzVkAvZH7C1VPYQAWIfdDBpFMFwCsBjAXuaVAiBEKQGkAo5HbxN0VZyEitRIBNIWEX555CAWwG0BJncYnum8vgC8B/ILcuwYWc+QCEAJgPIAnATgpzkJEtuMigMoAUnUYeyOAtjqMS5SXwwDeArDJ0gPN8rPYhGcBnAYwFLz4E9E/lQIwXIdxW4MXf7K+Gsgtnt8DCLTkQEcrAH4AlgCYidxn/kREjzJQhzEH6DAmUUE9CeAogAYFPcCRCkApAPuRO8mHiCg/tSD/919tyeMRWaoIgG0AhhXkix1lJnwNAOuQO/uWiOhxXLbsPPJBkYjiKbIGrFMlouS9xARZwxFp5QbgO+TeEZ+Y3xc6QgGoBGAzgCDVQYjIPjg7uyC8WMQYmOTNgy4WURynTuj9hiFRgZiQ+4aAE4DP8/oie38EUAzAevDiT0QWqFytBsxmub/+qlSrJXU8IgkmAOiX17+05wLgCmApcksAEVGBdYmUP1Wosw5jEgkyAZiH3Dkv/2LPBWACgLqqQxCRfYkoXhL9Bg2VPm6DRs3QuFkr6eMSCXIH8BNyl7r/B3stAM0AjFAdgojsi7e3D6bOXABXVzddxv9s0kwULVZcl7GJBJRH7ofmf7DHAuAC4Fs49iqGRCRZqdLl8POvG1G+YmXdzhEUXAgLl29CvYZNdDsHkUbPA6j+4D+wx4voSwC+Vh2CiGyb2WxGUHAIylesjM7deqFbj35wcrbei0+/bV6HFUsX4vDBfYi7eROZmdbaiJAoT78B+N9zKnsrAK4AzgGIkDGYk5MTatVpgFbtOqF23YYIDQtHUHAhODu7yBieiIgcyLDBPfDHjq3SxgsvWhq1G7VD1botUCi0GHz9g5GTk424mGu4dukM9u1cgyP7tiI9Teq2FU0B/A7YXwF4CrnbIApr1bYTXh89BmXKVpAxHBERObDz506ja5sGyMnRtPHePxSOKIM+Q99G7UbtH/u19xLu4Jd5n2Pbup+RnZ0lfG4AKwFEAvZXAH4H0FhkAA9PT4yfOB3tO0VKikRERI5uzDsjsWiB+OfP9j2Gof+z78HJybLHURdOH8KkD5/B3Ts3RSNkAygB4Ko9FYDSyL39rzlzQGAQZi9YjkqVq8lLRUREDi0rMxONapXB3fg7mscwmUwYOmI8WnTUvmdUXMw1fP7uE4i6dkHzGP/vTQBf2NNbAD0hcPF3dnbBlOnzefEnIiKLHDywR+jiDwC9hrwhdPEHgODQohj18ffw8vEXGgdAX8C+XgNsKXLwqNFjULcBX80hIiLL/LZlg9DxtRu1R9f+L0vJEhIegRfeniw6TG0A/vZSAJyRO3NRk2IRJTB46HMS4xARkVEc/nOf5mOdnV0wYPh/YJK48VS1ui1Rq2E7kSHMAJraSwEoBcBb68EvvPomXFxcJcYhIiIjyMnJwdnTJzQf37xDf4SEy18dss/Qt2AyCV3C69lLASiv9UBnZxe0ad9FZhYiIjKI69eu4N69RM3HN2jRTWKavxUpXg6lK9QUGaKcvRSAUloPrF2vAXz9hCdMEBGRAUXduKb5WB+/IJStXEdimn+q1UjoMUAZeykAfloPLFW6nMwcRERkIPcSEzQfG16sFMxmJ4lp/ql8ZaENcUPtpQD4aD0wJDRcZg4iIjKQxATtBcA/MERikn8LKCR0ffO2lwLgrvVAX1/NNw+IiMjgUlO1r8Pv6aXv9UewYNhNASAiIlJA+9r/Et/8eyTBjeucWACIiIgMiAWAiIjIgFgAiIiIDIgFgIiIyIBYAIiIiAyIBYCIiMiAWACIiIgMiAWAiIjIgFgAiIiIDIgFgIiIyIBYAIiIiAyIBYCIiMiAWACIiIgMiAWAiIjIgFgAiIiIDIgFgIiIyIBYAIiIiAyIBYCIiMiAWACIiIgMiAWAiIjIgFgAiIiIDIgFgIiIyIBYAIiIiAyIBYCIiMiAWACIiIgMiAWAiIjIgFgAiIiIDIgFgIiIyIBYAIiIiAyIBYCIiMiAWACIiIgMiAWAiIjIgFgAiIiIDMhZ5/HdAJQFEAbA+///56lhnMpaAxw8sAcurq5aDyciIgu4urrCw9MLPr5+8PPzR/GSpeHt7aM6Fj2C7AJQCkBrAK0A1AdQHIrvMqxZuRRrVi5VGYGIyNBCQsNRqUp11G/UFA0aNUfFylVVRyLIKQC+AAYCeBJAQwnjERGRA4mNiUJsTBS2bVkPAChZuiy69xqA7r0HIDSssOJ0xiXy6TwIwIcA/gIwDbz4ExFRAfx14Ry++mws2jSujrdHPodLF8+rjmRIWgqAGbmf9s8AGAMgUGoiIiIyhIyMdKxYthBd2jTAJ2PeRtK9e6ojGYqlBaAcgD0AvkfuHQAiIiIhmZkZ+GHudHRpWx97d+1UHccwLCkAAwEcAFBXpyxERGRgUdev4elBkfhm0gRkZ2erjuPwCloA3gawAADf5SAiIt1kZWVh6sRxeGX4YKSmpqiO49AeVwDMyJ3gN94KWYiIiAAAWzauwfAhvTkvQEePKwCfA3jeGkGIiIgetG/373jxmf5IT09THcUh5VcARgN43VpBiIiIHrZ31068PfI55OTkqI7icPIqAC0BfGzNIERERI+ybvWvmDtzquoYDudRBSAMwM8AnKychYiI6JEmThiLw3/uUx3DoTyqAEwGEGrtIERERHnJzMzA6FEvcD6ARA8XgLYA+qoIQkRElJ9LF89j3qxvVcdwGA9uBmQCMFH2CcxmM0qWKoOQkFCEFy4CT08tuwETEZE9SEtLQ2xsDKKjruOvixelf2KfPvVz9On/JAICuRitqAcLQCSAKrIGrlu/Ifr1fwLtOnRCoUIhsoYlIiI7ce9eIn7bsgm/LluM9WtXSZnJn5yUhO9nf4uRb74vIaGxPfgI4B0ZA5YuUw7zflyClWu2YNATT/HiT0RkUN7ePuga2RNzvl+ItRt3oEHDJlLGXTBvJpKTkqSMZWT3C0BlAPVEB2vVph3WbtyB9h06iw5FREQOpEbN2li2cgNGvfWe8FiJiQnYuG6FhFTGdr8ADBEdaODgp/DDT8vg6+srOhQRETkgk8mEN956D+MmfCU81vJffpaQyNjuF4BeIoM0atwM4z+fDLPZ0t2FiYjIaIYOew7PDH9RaIx9e37H3fg7khIZkxlAcQCltA7g6+uLGbN/gIuLi7xURETk0MaMHY/KVappPj47Oxv7du+UmMh4zABaiAzw4iuvIzi4kJw0RERkCM7Oznh/jNiK83tYAISYAVTXerCvnx+GP/+yxDhERGQUzVu2QZ269TUff/bUCYlpjMcMoLzWg9u07QgPDy7sQ0RE2nTp2kPzsRcvnJOYxHjMAEprPbht+44SoxARkdG066j9tfFbcbFIundPYhpjMQMI0Hpw+fKVJEYhIiKjKVGiFNzc3DUfn5BwV2IaYzED8NZ6cGhomMQoRERkNCaTCSGh2jegTUpKlJjGWMwAPLQeHBAYKDEKEREZUaDAxj4pyckSkxiLGbm7AGpiMmk+lIiICACEFpGTscGQUXHpPiIiIgNyfvyXqJOenoaU5BTVMYiIDMvVzZWvezsomysAu3ftxPy5s/D7zm2Ii7upOg4RkeH5+PiiTr366NNvECK79+a+Lw7CZv4WU1KS8cKzQ9CzW3ss/3UJL/5ERDYiMTEBv23ZhBeHP4WuHVsi6sZ11ZFIApsoABnp6RjUrweW/7pEdRQiIsrHwT/3o2unVoiNjVEdhQTZRAH4fMLH2L2LmzoQEdmD69eu4tWXnlUdgwQpLwBxcTfx3YxvVMcgIiILbP9tM3b9sUN1DBKgvABsWLcGqamc6U9EZG9W/PqL6ggkQHkBOHb0kOoIRESkwfFjR1RHIAHKC8Dt27dURyAiIg1u3oxVHYEEKC8A2dnZqiMQEZEG/P1t35QXACIiIrI+FgAiIiIDYgEgIiIyIBYAIiIiA2IBICIiMiCb2w3QEl6eLnB1cVIdg4jIbmVn5+BuYprqGKSAXReA77+MRK+OFVXHICKyW1du3EXxRlNUxyAF+AiAiIjIgFgAiIiIDIgFgIiIyIBYAIiIiAyIBYCIiMiAWACIiIgMiAWAiIjIgFgAiIiIDIgFgIiIyIBYAIiIiAyIBYCIiMiAWACIiIgMiAWAiIjIgFgAiIiIDIgFgIiIyIBYAIiIiAzIWXUAW5GUnIH128/j0IloxN1ORliIN+rXKII2TUrBxdk+etLJczexdN1pnL4Qh/iEVISH+KBpvWKIbFse/r7uup8/PiEVKzadwc59VxEVm4j0jCzdz/kwZyczQoK9ULdaYfTsUAGFQ310P2dKaibWbD2Hrbv+wtWoBLi7OaN8qSB0b1cBdaqF637+/Fy5cRfrt13AsTOxyMzMRoXSwWjVqASqVghRmisxKR0btl/AkVMxuB2fgtBgLzSsVRTNGxSHq4uT0mwFkZKaiWNnYnHh8m1cvBKPqzfu4vbdVGRmZiMxKQ3enq7w9XGDr7cbioX7okyJQJQpEYBKZQrB2U5+n5DjM3wByMzMxhff7cb4b//A3cS0f/37ImE+GPdmKzzZq5qCdAVz83YyXv5gHZasOYmcnH/+u9mLDiHAzx1jX2+Bl4fU1S3D1Hn7MearbbhzN1W3c1hi/tKjeHPcZox4uh7+O6qlbiVu0eoTGPXxJlyPTvzXv/vk69/RvllpzBzfGRGF/XQ5f15i4pLw+n83YtHqE8jKyvnXv2/VqASmfNgBlcsVsmqurKwcfD5zV54/b0XDffHpW60wuEdVq+Z6nOzsHPx+4Co27byIbXsuYd/hG5oKrqeHC+pUDUej2sXQsWUZNK5dDE5OJh0SEz2eoQtAalomegxfjPXbL+T5NdejEzFk1ArsPXwdX4/tCJON/axeuXEXLfv/gItX7uT5NXfupuKVMetx9HQsZozrLPXPkJMDPPfuGnz380F5g0qSmpaJCdN24cDRKKye0x/ubnK/3f87ZSc+mLgt36/ZsOMC6nadjc0LBlvtU/fpC3FoPfBH3Ij5dym5b+uuS2jQYw4WTu2Jzq3KWiVXSmomuj+7CBt3Xszza65FJeCJ15Zj35HrmPJhB6vkys+Fy3cwf9lRzF96FJeuxQuPl5ySgR37rmDHvisYP+0PBPp7oGvrchjSuxqa1y8Os9nGfsGQQzP0vagX3lub78X/Qd/+cAATpv+hcyLLZGRmo/uzi/O9+D/ou58PYtKcvVIzTJy1xyYv/g/a8sdfeGXMeqlj/rL2FMZ8ta1AXxt7Kwldhy185Cde2RLupaHDkz/le/G/715SOvq/sgwnz93UPReQWxTzu/g/aOq8/fjyuz06J8rb5et3MWTUCpRr+Q3GTt4h5eL/KLfjU/D90iNoNeAHlG72NSbP2Yek5AxdzkX0MMMWgB37rmDeL0csOuaDL7fhwNEonRJZbvaiQzh0ItqiY8ZM3Iabt5OlnD/2VhI+mrRdylh6m73oEP48JufvLjUtE6//d+O/Hrfk5/L1u/hs+i4p58/P2Mk7cPn63QJ//b2kdIz4aIOOiXLt2HcFPyw7atExH0zcVqAiI1NScgZGfbwJ5Vt+g/lLjyI724K/ZEGXrsVj5NgNKN54Mj6ctB1xkn5OifJi2ALwzfz9Fh+TkZmNJ15bjpTUTB0SWe67nw9ZfExiUjoWrToh5fw/rziBxKR0KWPpLScntwTIsG7beVyNSrD4uDmLD+t6QUlJzcTsRYctPm7z739h/5EbOiT627fzD1h8THJKBuYusaykizh8Mhp1us7CxFl7kJZu/Qms9926k4KPJu1AiSZT8NGkHTbz+4Ycj2ELwJY//tJ03OkLcRg9YYvkNJaLT0jFoRPaPtFu33tZSgZZ41jLb7vl5N22R9s40Tfv4fBJy+7YWGLTzouIT9A2CXPBimOS0/wtOzsHG3YU7FHbwzYV8JGBqOkL/kSD7nNw+kKcVc5XEEnJGfhw0nZUajMNy9afVh2HHJAhC0BScgZu3UnRfPzUefs0FwhZom/es+gW9IOu3rD80+ujWPv2rKjr0er/3Ho+Qlqx6Yz2YzeelZjkn85duq25mFy5UfDHGVqNn/YHXnhvrdJP/fm5dC0evZ5fgm7PLEJMXJLqOORADFkAUtPEbqnl5ABDRq3A7XjtJUKUyC8rWbcUbfUXZl68vVzljOOpfZyDx/UpAFlZOVi1WftF/NK1eBw9HSMx0d8OHNX+eEHvNQE+nLQd70zYqus5ZFm1+Syqtpsu9PdM9CBDFgAZrkcnWmXyVF6cBF4XytZ668DOVSgdLGWcksX8NR970MJJmwW1++A14cmdet0FsHSi6oOKhvtKTPJPc5ccxkeTdug2vh5u3k5G5LOL8MXM3aqjkANgARDw46/HsHj1SSXnFnlfOCsrW2IS+9G9XXkp49Sqon11vyMnY3RZIXH5RvFnxCKPEPIj8tijVpUwiUn+dvB4FF78zzpdxtZbTg7w5rjNFr/FRPQwFgBBz7+3Btc0zAgX5eSk/a/Omq822YrwEG8M61dTylgiF6X0jCxd3rtftfmc8BgHj0dpershPzk5EJr4WLuq/KWUk5Iz0PuFX4QfBao28qMNiL3FOQGkHQuAoDt3UzHsrVWaJ+RpZRZYzi/LYAXAycmE2Z91hZeni5TxCof6IDzEW/PxstYjuO/E2Zs4+9ct4XFyciD9+fK5S7eEFkCqLXC3JS8Tpv+Bv67qs7CPNd1NTMPcxbwLQNqxAEiwcedFzLTyangi64cb6Q6Aj5crlk3vi44tykgdV+QxwMHjcucByLx1v2Kj3McAImXHz8cNpYsHSkyTO3dn4ix1KwzKtn77edURyI6xAEgy6uONOPfXbaudj3MA8hfg547hA2vh5OYX0K1tOenji9yaln0HQOZF+7fdlzS/svcoIn/WWlXCpe+9MXbKDodaavesFX/nkOMx9GZAMiUlZ2DIqBXYueQpq+zuZe9zAKaP64zSEQHSx3VyMiE02AtlSwbpuo2zyDyAI6dikJGZLSXfjZhE7Bd4ze5hGZnZ2LjjIvp2qSRlPJECIPv5/72kdPy84rjUMYMCPNCkTgSqVwpFiaJ+8PZ0hb+vO+4mpiH2VhJOnY/DweNROHIqxqGKBzkGFgCJdh+8hs9m7MI7LzbW/Vz2Pgegfo3CqFFJnxne1iDybDo1LROnz8dJ2R1w5eaz0uefrNh0RkoByJ0AqH1tAdkFYPGak1KWrnZ1ccKg7lXxdN8aaFynWIHuUmRl5WD/0RtYtOoEFq85KW0RrdLF5ZdoMg4+ApBszETrbBjEOQBqFQ33RWiwl+bj/5S0IJDsZ/YAsGbrOSmvKp4XWAEQkD8BcMFy8eWOm9cvjmMbn8Ocz7uiSd2CXfyB3J/XBjWL4KsP2uHq7hFYO28AmtcvLpyndaOSwmOQcbEASJaRmY0ho1bo/oqRyBwAFgA5albWfgdDxoqA95LSNe9LkJ+7iWnYue+K8DgiJcfX203qp9vMzGzsPXxdaIwne1XDpgWDUa5kkNA4ZrMJHVuUwbZFT2LXsqFoWi9C0zieHi54doCcV1vJmFgAdHDy3E28/+U2Xc/hZNb+V5eV7fiTAK1B9UTAddvO61Y0ZbxZIDYBMEyo5D7s2JlYoWfwTetFYNaErtLnlTSsVRTbFw3Bz1N7IiTIsjtKn77VCoVDfaTmIWNhAdDJxFl7dPl0dh/vAKgn8irg4ZMxyMwUK2IrNum3JvyKjeJzC2xpAuA+ge2OzWYTpn/SSbdJpSYT0L9rZRzd8By6tinYGyujX2iMV4fW0yUPGQcLgE6ys3Mw9I2VSLinfRGU/IjMAcjKYgGQQeQilZySgTMXtS/ek5GZjbW/ia/+l5crN+7iyCnt6xXk5IjtASC7AIis1tmyYQlUKltIYppHCw32wspZ/TDn86557oFQrmQQVs7qh0/fbqV7HnJ8fAtAR5euxWPkRxsx5/Ou0scWeQvAqJsByVa8iB+CAz0Rp3ETnoPHo1C5nLYLy469l3Hnrrz39R9lxcazmt/UuHBZcAKg5AJw6472jZJaNSohL0gBDO1TA0/2rI4d+y7j8MkYxN1ORkiQF+rVKIwGNYtKXxuBjIt3AHQ2d8lhLF13Svq4IusAGGEhIGsRmwio/ROyXhv3PGilwLLAIhMAfbxcUUbyCoC347WXEZFln7VycjKhZcMSeG1YfXzyZkuMeLoeGtbixZ/kYgGwghfeW4uYOLmbdnAOgG0QeVVN5CK5eot+t//vO3g8CpeuaVszX3QFQJkTAAHA1dVJ87H8eSFHxQJgBTdvJ2P4O6uljukkshQwf6FJI7Ii4KET0ZouLodORFttM5s1W7WtNW9LEwABINDfXfOx+wUmEBLZMhYAK1m56SzmLjksbTzeAbANIhere0npmnbxs8btf5Fz2doKgAAQ4Ouh+djlG89IWUGQyNawAFjRqx9uwPlLcjbvMJtNmp8HZmfnWH37YkdVslgAAv21X1y0zANYsVG/1/8etm235ZsDXbxyB7fjUzSfU48CUKlssOZjY+KS8IHO63oQqcACYEX3ktLx1Bsrpb2Gx7sA6plMYhMBLb1Vfvm62Ot5lsrIzMb67RcsOkbk9r+3lyvKlpA7ARAA6tUoInT8pDl7Mear7cgQXLuByJawAFjZHweuYtKcvVLG4quAtkFkHoClSwKv2HjG6ndvLN1v4OAJ7QWgZmW5KwDeV7yIH8IKic3mHzt5B0o0noKPp+6UPqmXSAUWAAXe+3wrjp7W/oz0Pr4KaBtEblkfPG7ZREBrPv+/b9228xZtDiQ0AVDyBkAP6tmhgvAYN2IS8f6X2xDRcDL6vrQUm3//S0IyIjVYABRIS8/CkNdXCu+4xtUAbUOtytovWgn30nDh8p0CfW18QqqUTXosdTcxDTv2Fuy8trYC4IOe7FVN2ljpGVlYsuYk2g7+EfUiZ2P+0qO6bwBGJBsLgIWCAjykfJI4fDIaH361XWgMPgKwDWVKBMLfV/trZgVdD2D1lnPKnkEX9M7DpWvxuHXHtiYA3le/RhHNKy/mZ/+RGxgyagWK1J+EER9twPEzsdLPQaQHFgANpo/rLLQX/H0Tpu/CDoFPdJwEaBtMJqBGpVDNxxd0HoDIynyuLk5C29iu3FSwzYFEtjn28nQR3mr3cca+3kK3sW/Hp2DK3H2o2n4G6nSdhZk/HeTrg2TTWAA0KBToiRmfdhYe5/6GQVp/SXAOgO0QnQfwOGnpWVi/TduiPADQokFxDIisrPn4Kzfu4vDJx+c8cFRsAqDIY62C6NmhAhrVLqrrOYDceRDPvbsGobW/5FwBslncDEijyLbl8WSvapi/9KjQOBev3MGbn2zC9HGWFwp7vgOwdN1p7Dssb4U1L08XFAnzRb3qheHp4SJt3IIS2Rr44PEo5OQg33Udtu76S+jTZGS78mhYqyg+mrRD8xgrNp157CuPIssb63n7/0FTPuyARj3nCs/BKYiU1EwsWXMSS9acRLUKoXimf00M7lEVAX7aHxkRycICIGDKhx2wfc9lXL5+V2icGT8dRNc25dC5VVmLjhNZDlj1HICPp+7UZVwPd2f061IZY0e1QLE8tlTVg8irgHfupuKvq3dQKiIgz6+x9FW8B5lMQLc25VA03BclivprXt9/xcaz+HBk83y/RmgCoI5vAPzjPFXDMeGd1nht7EarnO++o6dj8OqH6/HWp5vRq2NFPDugJprXL27VDEQP4iMAAX4+bvjhq+5S3lt++s1ViL1l2bvFIud11LcAUlIzMe+XI6jeYQa2/GG9267lSgbBx8tV8/H5vTqXkwOs3qp985/aVcP/t79851ZlNI9z+GT+exBcuhaveWtkwHp3AABgxND66NWxotXO96DUtEwsWH4MLfrNR6U20zBl7j7cTUxTkoWMjQVAUNN6ERgxtJ7wOLG3kvDcO2ssOsaeHwHo7c7dVEQ+u6hAz61lMJtNqKHT1sD7jlzH9ehEzWNHti3/yP9bi/x2IRR5/9/TwwXlS2lfrtdSJhPw05Qe6Na2nNXO+SinzsdhxEcbUKzBJIyesEVoCWUiS7EASPDp261RtUKI8DjLN57BguXHCvz1TmaBSYDZjj8JMCk5A0+NWmm1sqPX1sAit/+Bf170WzQsIfTK4srNeWcRKQDWmAD4MFcXJyz+prfFj970kJiUjgnTdqFkk6kYP+0Pq8xPIGIBkMDN1QnffxkJVxfte47f99L763DlRsHmFPAOwOMdORWDTb9ftMq5ROYB/HksKs/X7FZs0v76X4mi/v8opy7OZnRoXlrzeNv3XMadu4/eHMjWtgAuCDdXJ6z4rh8+GNFMlyWILZVwLw3vTNiKau2t+wiLjIkFQJKalcPw/qtNhce5m5iGp99cVaB3rrkSYMGsEnh/3hIiF7Hb8SmPLH7nL93GyXM3NY/bo/2/b/lHttP+GCB3c6BHv45oDxMAH8XJyYSPXmuO9d8PRERhP2U5HnTm4i20HfwjXhu7EWnpvBtA+mABkGj0C43RoKbYrmMAsOWPvzB13r7Hfp3QSoAGuQMAAOcvFWypXVEVSgfDW/JEwOWit/8fcbHv2KKM0N2qR21HfPn6Xdy0kwmAeWnbtBTO/PYiZozrjCrlxR/picrJyd2FsEH3OQW+K0hkCRYAiZydzVgwuYfQReC+t8dvwYmz+X/yE1oIyABzAO6z1vNUs9mEagJzQR61ip7I5j+B/h5oXLvYv/65n48bmjfQ/vrZJxO/hgAAIABJREFUozYHEp8AqO8KgAXl7uaM4QNr4diG57BzyVPo07kSnJ3V/po8fDIa9SPnYP8ReetmEAEsANKVigjAhNGthcdJTcvEk6+vyHftd84BKBhr3tYV+ST78EU07nYydh+8pnm8rq3L5Xnx6tZG++z3hHtp2Lbn8j/+mUgBqFEpVPlF9lGa1C2Gxd/0wuU/XsWYkc0QFOChLEv0zXto0X++0NLhRA+zvZ86B/DC4Dro1FL7+9b3HTwehU++znvBHM4BKJi2TUta7VwiKwIeeOgiunLzWaG/p8h2eV/ke7SvkO/Kg4/z8JsJ9jgBsKAKh/rgw5HNcWXXCMz+rCvqVi+sJEdySga6Pr2QdwJIGhYAHZhMwHfju0j5xPDJ179j7+Hrj/x33A3w8QqH+qB7O/HdGwtKZDJb3O1kXItK+N//L3L7383VCW2alMrz3xcJ80GNStrfWlix6cw/JqqKbAJk6wXgPk8PFzzdtwb2rRiGP1c/g+EDa0l53GeJhHtp6Dps4T++T4i0YgHQSeFQH8z8tIvwOJmZ2Rg04lfce8Q68NwMKH8mE/DV++3g5Wm9vQEqlS0ktBfB/fUAUlIzhTaQadu01GNXJhRZFOh6dCIOncjNejUqQWwCoMI3ALSqVSUcM8Z1xrU9I/H12I6oVkH7bpCWiolLQq/nlyjbGpocBwuAjnp2qID+XbXvwHbfhct38O7nW//1zwXWAYKjzwE0mYDxb7dG3y6VrHpeJycTqgrMIL+/IuCGHReQnJKheZyCXNzze0RQEPfXJxC5/e/h7owKpa23AqBsfj5ueOnJOjiyfjiOb3web7/QCMGBnrqfd9+RGxj39e+6n4ccGwuAzqZ90knKpjRff78f6x7aDpYrAT5auZJBWD1nAN56vpGS88uYCCiy+p/ZbEKX1o9f3a5GpTCULOav+Tz3M4oUgOoVbXMCoBaVyxXC+Ldb48quEfhxUne0alRC18WFPvl6p9AaEUTcDVBn/r7umPN5N7R74scCLe6Tl5wc4NnRq3F0/XMI9M+dW2DPbwH06lhR6qxqJ7MJYYW80ax+cTStG2H1ZWUfJLIi4IGjN5CVlYM1Apv/NKhZBGGFvAv0tV1al8XUefs1nefIqRj8dTXeoScAauHh7oxB3atiUPeq+OtqPOb9cgSzFx0S2s/hUTIys/HuZ79h+Xd9pY5LxsECYAVtmpTEi0/UwTfzDwiNcz06Ea+MWY8Fk3sAsO+3AP7zShOhSWi2TOSiFhOXhF/WnRR6pm7Js/1ubcprLgBA7iqLQisAOmABeFDJYv746LXmeP+Vplix6QymztuP7XsvP/7AAlqx6Qz+PBbl8P8dSR+Oce/NDnz2Thspi538tOI4Fq0+AYBvAdiqyuVC4O6mvVuPnZz3q58FYckOd80bFBfaHGjGTwcRffOe5uNFXpu0J87OZvTqWBHbFj2JTT8OlnrBFilwZGwsAFbi6eGCBZN7wEXC887n312La1EJfAvARrk4m4V2hxR5rlu2RKBFk+pcnM3o2EL7mhUiWd3dnFGpbCHNx9urNk1KYt+KYfj83TZwcxXfQGzR6hNIfMRbQkSPwwJgRbWrhmP0i42Fx4lPSMXTb60SWshF9RwAR1ersprHGz07Wr7mgejbAFpVrxgqpRDbI7PZhDeGN8SuZUMRGuwlNFZqWibWb3v0Bk1E+THmT59C77/aTMrtv007L2LXn9qXic1iAdCVqmeyWt7tF90cSCs+t859BLJzyVMoHOojNM767RckJSIjYQGwMhdnM36c1B0e7uLzL1PTMjUfyzsA+lLxbDskyAv1a1i+G6WvtxtaCGwOpBULQK6yJQPxy7TeQndD9hx69GqhRPlhAVCgQulgjHurldIMLAD6qlohRMrzXUt0a1tO86uh3QRWBdSKBeBvDWsVxTP9a2o+/vSFOKvtekmOgwVAkRFD66N9s9LKzs9JgPpydXFC5XLW3VNeZGnf7u3KC80psZRRJwDmZ9SzDTUfm52dgyvX70pMQ0bAAqCIyQTM/qwrAvy0v4Ilgq8B6s+an3C9PF3Qpon2XQ+LhPmgZmXr5a1WIcSwEwDzUrp4gNDW1bfiUySmISPgT6BCRcJ8MHlMeyXnVr0QkBGIrAhoqfbNSgutPQAAkRasHyBKxe3/69GJWLD8GCZM24WvZu/F6i3nkJKqfR6NHooX1V4ARPaOIGPiSoCKPdGzGlZtOYcla05a9bycA6A/a04EFLn9/78x2pXHmK+2S0jzeNYsAJeuxWPUx5uwfOOZf33f+3i54pWn6uHdl5pYddfIvCTe0/4+v4uz9d/kIPvGOwA24Nv/dizw2u2yOPJmQLbCWre5nZxM6NRS+2I+91WvGCq0OZAlrFUAtu25jJqdvsOy9acfWXoTk9Ix7pvf0aT3PKEVDWVITErHqfPaF1by9cl/+2eih7EA2IDgQE/M+7KbVSdh8Q6A/qw10a1p3QhpW9B2baP/YwA3V+tMkDx57iYin1mE+ITUx37t4ZPRaNbne1yNStA9V15WbDyDtHTtM/mLhonvOkrGwgJgI9o3K41n+tey2vk4B8A6rPFJN7KdvFf4ulmhAFSz0gqAL3+wHgn30gr89ecu3UaLfvNx8codHVM9WnpGFj6avEPz8UEBHv/bJZSooFgAbMhX77dD2RKBVjkX7wBYhzXmAci8aDerX1z3N1NqW+G/ydHTMfht9yWLj7t45Q7qdptt9ZX1Ppi4Decv3dZ8fMNaRSWmIaNgAbAhXp4umPdlpFX2succAOvQ+w5A1QohKBURIG080c2BCsIad0XWb9N+Ab8dn4LOQ3/GW59utsrM+nm/HMGEabuExmhSJ0JSGjISFgAb06h2UbwxXPuCIAXFOwDWUb1iKJx1vN3dXeLt//tkvFGQH2sUANHb+NnZOfh8xm5Ubjsdv244Db2Wzfh8xm4Me2uV8DiqNnQi+8YCYIPGvt4C1SuG6noOzgGwDg93Z4u257WUHhfrTi3L6LaMce4KifpPjDRJmlF76Vo8ej63BDU7zcTi1SeRmSnnztnl63fR/dnFeOvTzcJlvFqFUF2/x8hxsQDYIFcXJ/w0pYfwwi754UqA1qPXM+8iYT66zDHw9nJFiwYlpI8L5D6ysMbOgzIfiwDAkVMx6PfyUhSpPwkjx27A7oPXNJWBMxdv4bWxG1GpzTSs2HRGSrbhA603eZgcCxcCslGVyhbC2Ndb4K1PN+syPu8AWE+tKmH4fukR6eNGttVv/f7IduWxYYf8iXDWev+/XbNSeOtT+ePG3krC5Dn7MHnOPvh4uaJZ/eKoW60wypcOQrmSgQjw84C/rzvc3ZwRn5CKW3eScenaXezcfwU79l7G3sPXpT5OCArwwFO9q8sbkAyFBcCGjXq2AdZsPYftey9LH1v1HICanb7TbeyQIC/UrhqOgZFVMKBbFatMqsyPXhc9ma///WvstuXw0vtrpT/7tsYbAEDu3ItWjUpg665Lup0jMSkda7aew5qt53Q7x+O89Vwjm1jB0JE5OWm/Y2U22/bqjHwEYMPMZhPmftENvt5u0sd25LcAYm8lYd2283jiteWo03WWkve6H1Szcpj0EuLn44YWDYpLHfNBhUP1ebxgzSWAZ37aRZefHVtRKiIAI56urzqGwwsK1j5nxS/Qtne8ZAGwcSWL+WPi+22lj6v6DoC1HD4ZjYY95uKvq/HKMnh6uKBcySCpY3ZsUUb3Z+myJxi6ujihSnnrbZFcungAls3oA08Px/uEbDIB0z7ppNtkTfpbpSrVNU8qLVm2muQ0crEA2IFh/WqiV8eKUsc0SgEAcu8I9H3pF6V/ZtmffPW8/f/3OeS+WlalfIjVL1itG5fE+u8HwsfLsdbJH/l0fbRrWkp1DEMICQ1HvYZNLD7OLyAYlWo01iGRPCwAdmLaJ50QGuwlbTyjTQI8cDQKS9edUnZ+mbfTXZzN6NC8tLTx8lKtgtzNgVRsAQwATetFYM3cAQ5TAprXL47xo1urjmEor735gcVzAXo+MQourrb9CIoFwE4UCvTEjE87SxtPz1cMbdXCVSeUnVvmxa9lwxLw99V3ud77urWVdxdAVQEAckvArmVDpT+KsbZyJYOwdHofq7xKSX+rUbse3nh3bIG/vlHrnmjRaaCOieRgAbAjkW3LY0gvOa/8FAqSs3ucPfnzWJSyc9eqHAazWc5EQGvc/v/fuSTOA7DWGwB5qVI+BAdWPyP9cZq1lCsZhK0/P4GgAG76o8LQZ1/GuC++gadX3ndinZyc0aXfixj+xpfSFqPSkyELgMiMbGcntf/JJn/YHsWL+AmPU7NymPAYql+vs9St+BRl5/b2cpWy0ZPJZJ0te+9rWjdCyuZALs5mVCmvfka0j5crlnzbGxNGt4aHu/3cBatVJRzbFj2JImE+qqMYWs++g7Fp52G8NPJtVK5aAz4+vnB1c88pHFEG7boPxbgZm9D36dE2//rffYYsAH4+7ppvgYcV8pacxjJ+Pm74cVIPoYtvyWL+UpYODQmSNyfBGgoFqr3r0VzCa3u1qoSjWLj19n13djajc6uywuPUr1nEZh47mUzAW883wtH1z6GtHUyk692pInYuGYLwELW/eyhXUHAIXnn9XSxdsx37T1zFrJVnY8d/txWDX/gI4cX0n5sjkyELgMkE1Kmm7XZknWqFJaexXJO6xfDqU/U0H//ykLpSVpCrV0P9fwtL1KteROn5n+wp/krQcwqWfX2mf03hMZ7uW0NCErnKlAjExh8GYcHkHihqxVJVUN5erpgxrjMWf9PbIV9lJPUMWQAAYGBkVU3HDepeRXISbca91UrTzPLypYLw0pN1pWTo16WytOfa1jAgsrLS8zeuU0zo1a2yJQLxhIQSYanm9YujZcMSmo8vXypI88+bNQyMrILz21/GtE86SXm8JkNk2/I4sm44hg+spdtyz0SGLQDD+tWweEZwh+alhX4RyuTu5ozl3/W1aNOToAAP/Dqzr7R3sSuWCbabdcgb1ymGbm2sN3kuLzPHd9H06MTN1Qlzv+im7Db6rAldEKzhEYq7mzPmfRlp8wvWuLk64flBtXFu+8uYNaGLsjcWGtUuik0/Drb4Z5tIC8MWAFcXJyyb0afAr1OVigjA/K+665zKMsXCffH7L0+hdeOSj/3ayuUKYeeSp1CxjNxtQ6d82EHp610FUSTMBwun9rSJT1LFi/hh7bwBFq3p4OHujIVf90LjOsV0TJa/UhEBWDN3gEXzKDw9XLD4m15oUFPtoxdLuDibMaxfTRxY9QyOb3webz7XEIVD9Z145+bqhN6dKmL74iH4Y+lQtGny+J9nIhkMWwCA3Ivi7l+HomqF/Jcnbd24JHb/OlT5JLJHCQ/xxqYfB2Pp9D5o3bjkP94PdnIyoXbVcEz7pBMOrR0u/eIPAF6eLvht4ZPo07mS9LFlaFynGPb8+rRNPeOtXTUc+1YOK9DkujrVwvHH0qHobsVX//JSr3ph7Fs5rECLENWrXhi7lg216hsLslUuVwifvdMGV3aNwP6Vz2DC6NZo36y0lM13vDxd0K1tOUz7pBOu730NS77tjWb1IiSkJio425iWq1CF0sE4tGY4Fq46jsVrTuLg8WjEJ6SiUKAnGtYqisE9qqJjizKqY+bLZAJ6dqiAnh0qIDUtE1dvJAAAwkK8rbL6mY+XKxZ/0wu/P1UPc5ccxs59V3AtOgEpqZm6n/thbq5OCCvkjXo1imBQ9yro1ka/LXNFRBT2w+o5/bHvyA3MX3oEv++/iis37iIjMxtFw3zRoGYR9O9WGe2alrap/CWK+mPd9wOx59B1/LDs6P9yZ2Zlo1i4LxrULIoB3SqjTZNSNpVbhJOTCXWqhaNOtXC89XwjZGRm4+S5mzhz4RbOXLyFU+fjcPl6PO4lZSAxKQ3xCalITsmAp4cLPNxdEODnjhJF/RFR2BfVKoaiTtXCqFYxhIv5kHKGLwBA7g/4oO5VMai77U5UKih3N2eULSn+vrkWTeoWQ5O66m5T26N61QujXnX7epsCABrULGJXt/ZlcnE2o3rFUFSvGKo6CpEQQz8CICIiMioWACIiIgNiASAiIjIgFgAiIiIDYgEgIiIyIBYAIiIiA2IBICIiMiAWACIiIgNiASAiIjIgFgAiIiIDYgEgIiIyIBYAIiIiA+JmQERERAUUdzMGP82fhW1bNuDKpYtIS08PCQ4tiio1m6JV1ydQJOLx23zbChYAIiKiAljy8/cY99FopCQnP/iPTVFXLyDq6gVsWf0DOvR6Fn2ffhtms+1v98xHAERERI8xd+ZUvP/2qw9f/P8hOzsLa5dMx8zPX0dOTo4V02nDAkBERJSPQ3/uxefjPijw1+/a+it+W7tAx0Ry2PUjgC+/24NFq0+qjkFEZLeSUzJUR7B5X302FtnZ2RYds2z+l2jatg9cXN10SiXOrgvA7oPXVEcgIiIHFhsThf17/rD4uIT4Wzhx+A/UqNdKh1Ry8BEAERFRHk4cO6z5ef5fZ49ITiMXCwAREVEebt+K03xswh3tx1oDCwAREVEesrKyNB+bna39WGtgASAiIjIgFgAiIiIDYgEgIiIyIOUFwN/fX3UEIiLSICAgUHUEEqC8AJQqbT8bJxAR0d9Kl+Hvb3umvAC079AZJpNJdQwiIrJQ+45dVEcgAcoLQOky5dC5a3fVMYiIyAKlSpdFl649VMcgAcoLAAB8Mn4iChcpqjoGEREVgJubO6Z88x1cXFxURyEBNlEAQkJCsXjpas4HICKycX7+/vh+wRLUrlNPdRQSZBMFAMh9FLBx6x948+3/ICy8sOo4RET0AF9fXzwxZBi2/f4nmrdorToOSWBTuwF6eXnj9TffxWtvvIPz587g+rVrSExMUB2LiMiw3D08EB5eGOXLV4SLq6vqOCSRTRWA+0wmE8qWq4Cy5SqojkJEROSQbOYRABEREVkPCwAREZEBsQAQEREZEAsAERGRAbEAEBERGRALABERkQGxABARERkQCwAREZEBsQAQEREZEAsAERGRAbEAEBERGRALABERkQGxABARERkQCwAREZEBsQAQEREZEAsAERGRAbEAEBERGRALABERkQGxABARERkQCwAREZEBsQAQEREZEAsAERGRAbEAEBERGZCz6gB5uXjxPGKio5CRkaE6CtkZZ2dnhIaGoVTpsjCZTKrj/E9WVhbOnzuLmzdjkJ2drToOUYGYzWYEB4egTNlycHa22UsGaWBTf5vJyUn4bvrX+GH+HFy/dlV1HLJzYWHh6D9oCF58eSR8fHyV5YiLu4nJEydg6S8Lcef2bWU5iET4BwSgR8++GDlqNEJCQlXHIQls5hHAxYvn0b51E4wf9xEv/iRFdHQUJn05Hq2b18epkyeUZNi75w+0aFwbs2Z+y4s/2bX4O3cwd/YMNG9cC7/v3KY6DklgEwXg5s1Y9O3ZGefPnVEdhRzQ1SuX0at7e1y+/JdVz3vi+FEM7Nsdt27FWfW8RHqKv3MHg/v3xKGDB1RHIUE2UQDeG/06P/WTru7cvo233xhhtfNlZ2djxEvPIjk5yWrnJLKWtLRUvPzCMM7RsnPKC8DFC+eweuWvqmOQAWz/bTMOH/rTKufasG41Tpw4ZpVzEalw8cI5rFm9XHUMEqC8AGxYvwY5OTmqY5BBrF+32qHOQ6TShrX8PrdnygvA+XNnVUcgA7lw3jrfb5zPQkZw3ko/T6QP5QXg7t141RHIQKw1Ez8tNdUq5yFSKSUlRXUEEqC8ABA5otDwcNURiHQXHl5YdQQSwAJApIPGTZqrjkCkuyZN+X1uz1gAiHTQq88AeHh4qo5BpBs3N3f07jtQdQwSwAJApIPQ0DC89sZo1TGIdPPqyDdQpGgx1TFIAAsAkU5efnUUBgwaojoGkXQ9e/fHyFEsuPaOBYBIJyaTCRMnT8Mn4yfCPyBAdRwiYb5+fvjovxPw9bTZMJt5+bB3NrUboKUqFIpAkKe6Xd5IjYTUJByLse66/iKefuZ59O47EJs2rMHePbsQEx2FVL4mSHbCzc0NoWHhqFe/Idp36AJfPz/VkUgSuy4ArzbqgY7l6qmOQVa2+8pJDFz0ieoYFvH19UWvPgPQq88A1VGIiADwEQAREZEhsQAQEREZEAsAERGRAbEAEBERGRALABERkQGxABARERkQCwAREZEBsQAQEREZEAsAERGRAbEAEBERGRALABERkQGxABARERkQCwAREZEBsQAQEREZEAsAERGRAbEAEBERGZCz6gBERrBn9+9Ysugn7Nu7G3FxscjJyVEdiajAgoNDUKduffTpNxCNmzRXHYckYQEg0lFiYgJGvDwc69asVB2FSLO78fG4cP4sFv38A9q174Qp38yCn7+/6lgkiI8AiHRy714ienRtx4s/OZSNG9YisktrJCQkqI5CglgAiHTy9hsjcOL4UdUxiKQ7c/oU3njtRdUxSBALAJEOThw/il+XLlIdg0g3q1Ysw6GDB1THIAEsAEQ6+HXpYk70I4f367LFqiOQABYAIh3wkxEZwaE/96uOQAJYAIh0cOfOLdURiHR3+xa/z+0ZCwCRDvz9A1VHINJdQCC/z+2ZGUCmlgOdnbmEAFFeqlavoToCke6qVuP3uT0zA4jVcmChkFDJUYgcR2T33qojEOmue88+qiOQADOAfVoOrFW7ruQoRI6jVu266NCpq+oYRLpp3aY96jdorDoGCTAD+EnLgT169pUchcixTJw0DaVKlVEdg0i6iOIlMOnrmapjkCAzgKWw8C5A7Tr10KlLpD6JiBxEQGAgVqzdws1TyKHUa9AIK9duRXBwIdVRSJAZQDaAPgCiCnJAWFg4Zs7+ESaTSddgRI4gOLgQflm+DnPnL0LHzt0QFBSsOhKRxQKDgtC+Q2fMmvsTlq/ahNDQMNWRSIL7U/mvAKgPYCGARnl9cd36DTHju/kIL1zEGtmIHEaHTl3/NycgPT0NKckpihMRFYyHpwdcXd1UxyAdPPgu31UATQB0AzAQQB03N/fCYWHh7jVq1UaPXv3Qrn0nfvInEuTq6sZfqESk3MMv8+cAWPH//8Ola7c+hMk0xuqpiIiISFdcCZCIiMiAWACIiIgMiAWAiIjIgFgAiIiIDIgFgIiIyIBYAIiIiAyIBYCIiMiAWACIiIgMiAWAiIjIgFgAiIiIDIgFgIiIyIBYAIiIiAyIBYCIiMiAWACIiIgM6OHtgIlIB+npadi5Yxv2792NqKgbSElJVh2JqEA8PDwRFhaOOvUaoFnzlnBzc1cdiSRhASDS2bJfFuLjse8j6sZ11VGIhISFhWP0ex+i34AnVEchCfgIgEhHY8e8i5eef5oXf3II0dFRGPnKc/jPO6NURyEJWACIdDJ39gxM+2aS6hhE0s3+bhpmTpuqOgYJYgEg0sHtW7fw6cdjVMcg0s1n4/+L2NgY1TFIwMMFwBnAUACbANwOL+Q1pkKZwujfuysW/jQfmZmZ1k9IZIeWLvkZiYkJqmMQ6SYp6R6WLFqgOgYJeLAAlAdwBMAcAG0ABADA3fh4bN+2Ba+9+jzatKiPixfOKYhJZF927vhNdQQi3e3czu9ze3a/AJQDsAtApfy++MzpU+jcoQUuXjyvezAie3aDk/7IAK5fv6Y6AgkwA3AC8AuAwIIcEH/nDoYPHYSsrCxdgxHZMzc3N9URiHTH73P7ZgYwEEBVSw46ceIYVvy6RJ9ERA6gRMnSqiMQ6a5kKX6f2zMzgP5aDly+jAWAKC/t2ndSHYFId/w+t29mALW1HHj0yCHJUYgcR+eu3VG2XAXVMYh0UyyiOCJ79FYdgwSYAQRrOTAu7qbkKESOw9nZGV9O+haurnxGSo7HxcUFk6bO4Pe3nbs/CdBinARIlL+69Rpg9vc/w8fHV3UUImm8vLwxc/aPaNS4meooJIgrARLpqE3bDtiyfS969x0Id3cP1XGINHNzc0ePnn2xefsedOjUVXUckoC7ARLprFhEcUz9dhYmfDEZx44exs3YWOTk5KiORVRghUJCULVaDXh5eauOQhKxABBZiaenF+o3aKw6BhERAD4CICIiMiQWACIiIgNiASAiIjIgFgAiIiIDYgEgIiIyIBYAIiIiA2IBICIiMiAWACIiIgNiASAiIjIgFgAiIiIDYgEgIiIyIBYAIiIiA2IBICIiMiAWACIiIgNiASAiIjIgZ9UBiIwiIz0dp06dQExMNFJTUlTHISoQN3d3hIaGoWKlynB1dVMdhyRiASDSWXR0FL764lMsX7YYCQkJquMQaeLt7YPIHr0w6s33EF64iOo4JAEfARDp6Ped29CyaR3MnzeLF3+ya/fuJWLBD/PQokltbNu6WXUckoAFgEgnx48dwZBBfRB/547qKETSJCQk4Kkn+uLPA/tURyFBLABEOsjKysLLLzyN5OQk1VGIpEtLS8VLzw1FRnq66igkgAWASAfr167CmdOnVMcg0s3ly39h1apfVccgASwARDpYv2616ghEutvA73O7xgJApIOLF86pjkCkuwvn+X1uz1gAiHSQlpamOgKR7lJTU1VHIAEsAEQ6CAsLVx2BSHeFuR6AXWMBINJBk2YtVEcg0h2/z+0bCwCRDnr1GQAvL2/VMYh04+7ugb79BqmOQQJYAIh0UKhQCN54+z3VMYh089oboxEWXlh1DBLAAkCkk+dfHIEnn3pGdQwi6foPfBKvjHhDdQwSxAJApKMJX0zBF199g6CgYNVRiIQFBAbi088m4asp02EymVTHIUHcDZBIZ4OeGIoevfpiy6YN2L9vN2JjY5Cdna06FlGBmM1mFCoUgjp1G6B12/bw9vZRHYkkYQEgsgJPTy90jeyJrpE9VUchIgukC6zpYTY7SUwiHx8BEBER5SE2NlrzsR6etv0mEAsAERFRHmKjozQf684CQEREZJ8O7Nul+Vhff9ue/MsCQERE9AinThzDtauXNR9fuFggM+hRAAAR/UlEQVQZiWnkYwEgIiJ6hGWLfxQ6PqxoSUlJ9MECQERE9JBrVy9j0YK5mo8PCS/ORwBERET2JDs7Gx+//ybS07W/AlipRmOJifTBAkBERPSAqRPHYdvWDUJjVKnVVFIa/bAAEBER/b85M6Zg+tQvhMbw8PRGjfqtJSXSD1cCJCIiw0tJTsZH772O5Ut/Fh6rbtPOcHVzl5BKXywARERkWFmZmVi6+EdMnfgpbgqs+nefyWRCm25DJCTTHwsAEREZQk5ODm7FxSI2JhpXr1zC9q0b8dvmdbhz+5a0c1Sr2xIlylSRNp6eWACIiMhu9e3WSnWE/zGZTOgxeKTqGAXGSYBEREQSNGvfD6XK11Ado8BYAIiIiAT5+AWi79OjVcewCAsAERGRAJPJhGGvfQYfv0DVUSzCOQBEVrBj+1YsXrgA+/ftRkx0NNLSUlVHIioQV1c3hIaFoW7dBujTbxBatGqjOpLN6dTnedRq2E51DIuxABDp6G58PF5+4Wls3rRedRQiTdLT03D1ymVcvXIZy5YuQotWbfDNtLkIDApSHc0m1GrYFr2felN1DE34CIBIJwkJCYjs0poXf3Io27ZuRrfOrRF/547qKMpVqNYAL737LZyc7POzNAsAkU7eGvUyzpw+pToGkXQXzp/F6yNfUB1Dqco1m+D1sXPg4uqmOopmLABEOjh29DBWLl+qOgaRbtatWYkD+/eqjqFE8w798cbH8+Hu4a06ihAWACIdLPtlEXJyclTHINLV8mWLVUewKhdXNwx6/kMMe+0zODnb523/B9n/n4DIBh05fFB1BCLdGen7vEK1BnjqlXEoHFFGdRRpWACIdBAff1t1BCLd3YqLUx1Bd8EhRdD7qTfRsFUPmEwm1XGkYgEg0oG/v30tCEKkRVBwsOoIuikcUQad+jyPxq16OsTt/kdxzD8VkWLVa9TC7l07Vccg0lX1GrVUR5AqOLQoatZvg8ZtetrVmv5asQAQ6aB7zz6Y/u1k1TGIdBXZvbfqCBYxmUzw9PKFh6c33Dy8UCisGMKLlkaREuVQoWoDhIRHqI5oVSwARDqoXqMWunTrgdUrf1UdhUgX7dp3Qt36DVXHwIdTVhri07oe+BogkU6+mPgNypQtrzoGkXQlS5bGV1NmqI5BglgAiHTi5++PlWu2oHlLbp5CjqNJ0xZYuW4r9wJwAHwEQKSjgMBALFyyEls3b8SihT9g397duBkbg6ysLNXRiArEbDYjJCQUderl7gbYrn0n1ZFIEhYAIito1aYdWrWxv+1Cichx8REAERGRAbEAEBERGRALABERkQGxABARERkQCwAREZEBsQAQEREZEAsAERGRAbEAEBERGRALABERkQGxABARERkQCwAREZEBsQAQEREZEAsAERGRAbEAEBERGRALABERkQGxABARERmQs+oAImbtX4vVp/eojkFWdis5QXUEi6WmpmDb1s3Yt3c3YmKikZGRrjoSUYG4uLgiJCQUderWR6s27eDh4ak6Ekli1wXg4I1zqiMQPdbCn+bj04/HIDY2RnUUIiHBwYXw9rtjMPjJp1VHIQn4CIBIR/95ZxRee/V5XvzJIcTF3cSbr7+MN19/GTk5OarjkCAWACKdfDf9a8z+bprqGETS/Th/Dr79+ivVMUgQCwCRDuLibuKz8f9VHYNIN19+Ng7R0VGqY5AAFgAiHSxd/DPu3UtUHYNINykpyViyaIHqGCSABYBIB7/v3KY6ApHuft+xTXUEEsACQKSDqKgbqiMQ6e769WuqI5AA5QXAz89fdQQyEP+AAKucx83NzSrnIVLJ3d1ddQQSoLwAlCxVWnUEMpBSpcpY5TwlrXQeIpVKleb3uT1TXgDate+kOgIZSLsOna1ynvZWOg+RSvw+t2/KC0C58hXRoVNX1THIABo2aoo6detb5VydukSiXPmKVjkXkQoRxUugW2Qv1TFIgPICAADjP5+MsPDCqmOQA/Pz98cXk76x2vmcnJww9dtZXDedHJKLiwsmTZ0BF1dX1VFIgE0UgNDQMPy8eCUiipdQHYUcUFhYOBYuWWW15//3VateE3PnL4Svn59Vz0ukJx8fX8yZvwgNGzVVHYUE2UQBAIAKFSth02978OrINxEYFKQ6DjkAP39/PPv8y9i6Yz9q1KytJEPzlm2wbecBDBz8FLy8vJVkIJLBw8MT/QY8ga079qFN2w6q45AEJgCad3SIikuWGOVvWVlZOHniGG7cuI70tDRdzkGOy8XVFeHhhVG5SjU4O9vOhpdpaak4fuwobsbGICMjQ3UcogJxdnZGoZBQVKlaDe7uHrqco1O7Zjh08ICmYz+cshKlyteQnMh+PNk+QvOxtvPb8QFOTk6oWq0GqlYz7l8qOR43N3fUrlNPdQwiIgA29AiAiIiIrIcFgIiIyIBYAIiIiAyIBYCIiMiAWACIiIgMiAWAiIjIgFgAiIiIDIgFgIiIyIBYAIiIiAyIBYCIiMiAWACIiIgMiAWAiIjIgFgAiIiIDIgFgIiIyIBYAIiIiAzIWXWAR8nKysLJE8cQFXUDaampquMQERmWs7MzgguFoGq16nB391AdhySyqQKQcPcuvp7yJRb8OBe3b91SHYeIiP6fh4cnunTrgTff/g+KRRRXHYcksJlHAKdPnUSblg0wdfIXvPgTEdmYlJRkLFm0AK2a1cOmjetUxyEJzABytB6ck6P50H+Ijo7CgL7dcPXKZSnjERGRPu7dS8SwIf2xe9dOaWOaTCbNx8q6DtkjwT97jhlAstajU1I0H/oPo994FdFRN6SMRURE+srIyMDIV55DenqalPFE5hakp6VIyWCP0lKTRA6/ZwaQoPnoe/dETg4AOHvmFDasXyM8DhERWc+Vy5ewcvlSKWN5e3trPjYlWegiaNdSkoSuwQlCBSAx4a7IyQEAGzesFR6DiIisT9bvby8vkQKQKCWDPUpJFioAiWYAmv/rXbr0l8jJAQAXL5wXHoOIiKzv4vlzUsbxErgDEBtl3Lljgn/2BDOAm1qPPnf2tMjJAQDp6enCYxARkfWlpsmZAxAWFq752BtXjPsh8sYVoQJ20wxA81X87BnxAhAeXlh4DCIisr4iRYpKGadUmbKajxW8CNq162J/9tNmAGe0Hr139x8iJwcANGnWQngMIiKyvqbNW0oZp1SpMpqPvXbpLBLv3paSw96cObZX5PDTZgCntB598eJ5XLl8SSQAGjdpjtJlygmNQURE1uXh4YnefQdKGaukQAHIycnGqSO7peSwJ7FRlxEbdUVkiFNCBQAAdmzfKnI4nJ2d8cn4L+Hk5CQ0DhERWc8bb78n9Oz+Qb6+vogoXkLz8cf+3C4lhz05dkD4z3z6/iRAzQ/zlyz+STQEmrdojXETvmIJICKyA08MGYYXXhopdcwGDZtoPnb/zjWGWxDojy3LRA4/gf9r796DorzOOI5/NSCggKICUZqo3LyOBe94v9Zp02q9NaltGpvYTDp1ppPWjn+kbeLYzmhbYxybtE0mRgdNGpISbzgxQR1Rifc4RrRV1KgIiqgILOzq6vaPF1oGubnn3WXH/X1mdkZ23/c5z/jPe855zzkP3KirBZDrbZRDB/Jt2Q3wkwULeT9rMymp/YxjiYiI/WJj4/jLqrf408o1Rsf3NiZjtPcdgGpHJUf2BU99gpKicxSePmYSIhf+Xw0wF1jkbaQNme+xdNkKk2QAGD9hMrv3HuaL/L3s27uH4itFOJ3B1asTEQkkoSGhxMU/zoiRGUycPJWIiI4+aSdjzDij+3fmbGD0lNk2ZRPYdm3LNA2xE6CuC9cZKMPL8sARER05cLSAuLh406RERCRIjRkxmPPnvd/Xv2T5BwxMH2NjRoGn/GYpixeM5Y7L6W0IN9CN2oOAAG4Du72NVlNTzZtrXvf2dhEREWbNfdro/uzMlTZlEri2/vNNk4c/WKP/CrDKAddZZxJx/dp3OFd4xiSEiIgEsdlzfmB0/9mCIxzKe3SLyxVfKmT39o2mYdbV/aN+ByAbKPc2osvlZPHLi4K6NrOIiHgvMSmFb6YNMYqR+dbvcVSZF6oLNB7PfdauXoL7rtHx+beBzXV/1N935wb6AMO8jVxUdInYuHjS0od6n56IiAQtj8fD5595v6Lf5aymoryMoaOn25hV28vdso7dOcaj//eo1wFouI8jDTjWyPetFhYWzuacXONenIiIBB+Xy8nwtH5cv15qFGfhr/7M+OlmawoCxbl/f8kfF88zHf17sJ7xJ+q+aN/gguPAFpMWXC4nC386n5s3bpiEERGRIBQWFs4LP/u5cZz1f/0tX5/9yoaM2lZFeRlrlr1k+vAH2ES9hz80PtJPB4428VurpQ8ZRlZ2DpGRUSZhREQkyJTfusWwtL44HFVGcTrHxPLKyo95PKGPTZn5V7WjkuVLnrGjI+MBhmAN8v+nsbN3r9Ze2NektaslxRzI38fMWXMJDe1gEkpERIJIeEQEbvdd8vfnGcVxOas5un8Hw8Z+m46R0TZl5x93XDWs/N0Czpmd+FdnE7C64ZdNjfIHYa0FCDVtdeSoMazLzKJLTIxpKBERCRJOZw3jMtIpumxU8Q6A7vHf4Nd/WE/Ckyk2ZOZ7VRW3eGPpQs6cPGxHuDtYg/qChj80VX2nFOgIeH84c60rRZfJ2bqJyVOmEdO1m2k4EREJAiEhofTo0ZOtW4yK3gBQ7ahgf242vZIHEt+zt3lyPlRaconlS37IxcKTdoVcDnzY2A/Nld/LB54Bupq2Xl5+i0+ys+jTJ0nFfkREpFX69uvP4YNfcPHiBeNYbvcdDuZtJSQklJSBQ20vZmSHQ3k5rHr1eW6WldgVshCYj7XN/wEt/Q98C9hhVyYAP3p2Aa8tW6HFgSIi0qKS4itMGj+c2+Ven1P3gP6DM3jxN6/TLS7Btpgmaqqr2Pi318j7LMvOsB6sZ3iT1X6bmwEAOAfEAKPsyuirE8fJ+mADkVFRDBw0mPbtG+5EFBERsURFRZOYmMyWTf+yLWbZtSJ2b9+Is7qKpP5DCGmjheoej4f9O7N549UXOFNgy/v++lYBf2/ugpY6AGAVDpgCPGFHRgAORxWf79jOztwddO8eS2JSSkBOx4iISNtLSe1H0eVLFJw80fLFrXTvnpszBUfI37WJDmHhJPRK5bEQrwriPjSP5z5H8z/lHyt+yc5tmbic1XY3sQ94Frjf3EWtfeomYO0KiDNMqlFJyam8+NIiZsyco90CIiLyAKezhtkzpvPlsSM+iR/dpRtTZzzH2Gnz6O6jVwOOynIO7NnKjk/e5WrReZ+0AVzDWvVf3NKFDzPsngh8CoR5l1PLQjt0YNKkqXx3xizGjptIj56B8X5GRETaXmnpNZ6aPsGWrYFNadeuHckDhjJqwvcYkD7WeOvgzevFnDqez6G9OZw8mofbfdemTBvlBKYDrTpA4WHn3b8PfAT4ZZ6kd+9Eho/MIDkllcTEZBKTUoiKiiI6ujOdIiMJ8dN0jYiIBIbTpwqY+dQUKisr/NJedJdu9B00koReqfR4IpH4hD5ERsXQKTKasPCOtGvfHmeNgxpHJdWOCq5d+ZqrVy5QfOksZ08dobTEd52VBtzAXOoV+2mJNy/efwys58E6AiIiIuJ/HmAhsPZhbmrNIsCGTgBlwHcwrBcgIiIiRjzAL4B3HvZGkwf4HGADEG4QQ0RERLzjAp4H3vfmZtMR/Gis8sE641dERMR/bgGzgD3eBrBjCn8gVicg0YZYIiIi0rxCYAZw2iSIHQv5CoA0INOGWCIiItK0j4DhGD78wf5FfPOAt4EuNscVEREJZpVYi/1sG2x7swugOaeAj4EkINXm2CIiIsFoG9Y5PF6/72+ML7fxTQVWAwN82IaIiMijqhB4GasDYDu7ZwDqOw+8C1QAg4FIH7YlIiLyqLgGLAWew4Z3/U3x10E+YcDTwCvo1YCIiEhjLmDNnL8N1Pi6MX+f5PcY1lnFC4Bp+HYGQkREJNC5gVxgHdYaunv+argtj/KNx5oVmA+MaONcRERE/MUDHMQ6we9DoLQtkgiUh24sMAoYg7V4cAiBk5uIiIip81gj/f3ALqCobdMJ3IdsV6Af0BdIqf08CXSq/XQGovBTWWIREZEmuLH26N8GHEAVcBk4C5wB/lP7udlWCTblv9hWkDLGZZfsAAAAAElFTkSuQmCC;fontFamily=Verdana;" parent="1" vertex="1">
          <mxGeometry x="50" y="350" width="62" height="62" as="geometry" />
        </mxCell>
        <mxCell id="Nmos6C9Gwye4AmpU9b0R-18" style="edgeStyle=orthogonalEdgeStyle;rounded=0;orthogonalLoop=1;jettySize=auto;html=1;exitX=0;exitY=0.5;exitDx=0;exitDy=0;entryX=0;entryY=0.5;entryDx=0;entryDy=0;strokeWidth=3;endArrow=block;endFill=1;curved=1;strokeColor=#A1A1A1;opacity=50;" parent="1" source="Nmos6C9Gwye4AmpU9b0R-4" target="Nmos6C9Gwye4AmpU9b0R-2" edge="1">
          <mxGeometry relative="1" as="geometry">
            <Array as="points">
              <mxPoint x="340" y="224" />
              <mxPoint x="340" y="381" />
            </Array>
          </mxGeometry>
        </mxCell>
        <mxCell id="Nmos6C9Gwye4AmpU9b0R-4" value="Logistic Growth Model" style="shape=image;verticalLabelPosition=bottom;labelBackgroundColor=none;verticalAlign=top;aspect=fixed;imageAspect=0;image=data:image/png,iVBORw0KGgoAAAANSUhEUgAAAgAAAAIACAYAAAD0eNT6AAAACXBIWXMAAA7DAAAOwwHHb6hkAAAAGXRFWHRTb2Z0d2FyZQB3d3cuaW5rc2NhcGUub3Jnm+48GgAAIABJREFUeJzs3XecVNX9//HXbF/YhS30XhZYekeKWBB7jTWa2KKmaBILWBI1JkZjbz+jUWMSNdbE+LVrVFRQkd7L0qvAUraxsH3m98dhDSKwM3dumTvzfj4e9xGjc8/5TNl7PveeBiIiIiIiIiIiIiIiIiIiIiIiIiIiIiIiIiIiIiIiIiIiIiIiIiIJqBXwB2AuUAmEdLh67AEWAfcCHZv4rkRERGzxA6Ac7xtBHf9LBi473BcmIiISrSuBBrxv9HR8//jJYb43ERERy9T4x/ZRBXQ95LcnEkeSvQ5AJIFcCTwNJHkdiBxSCua6+IHXgYiISHzQnb9/jnWH+A5FREQi8hPU+PvpaADSDvpNisQRPYoUcdZPgL+ivzU/SQKaex2EiNN0URJxjhp/EYlZujCJOEONv4jENF2cROynxl9EYp4uUCL2UuMvIr6gi5SIfdT4i4hv6EIlYg81/iLiKyleByASBxxv/EvLd5OamupU8XGrU4f2lJWVeh2GSEzS3YpIdHTnLyK+pIuWiHVq/EXEt3ThErFGjb+I+JouXiKRU+MvIr6nC5hIZNT4i0hc0EVMJHxq/EUkbuhCJhIeNf4iEld0MRNpmhp/EYk7uqCJHJ5tjX8gECA5OTn6iEREbKAEQOTQbG3877zrTyQlKQEQkdigBEDk4Gxv/C+/4srooxIRsYkSAJHvU+MvInFPCYDId6nxF5GEoARA5H/U+ItIwlACIGKo8ReRhKIEQESNv4gkICUAkujU+ItIQlICIIlMjb+IJCwlAJKo1PiLSEILeB2AiAdsXds/MzOTtLT0sF5bXl5mqY7S8t2kpqZaOjeRderQnrKyUiun5gGWThTxixSvAxBxme0b+1RVVVFVVWVXcSIirlAXgCSSc9CufiIigC6EkjjaA8+h37yICKCLoSSOSUCW10GIiMQKJQCSKM7yOgARkViiBEASQSrQ3esgRERiiRIASQTZ+Pi3np6eTkqKJuyIiL18e1EUSRRdu3UjENCSHSJiLyUAIjHuhBNO9DoEEYlDSgBEYlhGRgZXX/NLr8MQkTikBEAkht17/wN06dLF6zBEJA4pARCJQampqTz08CNceeVVXociInFKQ4tFYki7du045ZRTufa66+lZUOB1OCISx5QAiBxCTk4uS5Ytc62+9PQMMjMzXatPRBKbEgCRQwgEAuTk5HodhoiIIzQGQEREJAEpARAREUlASgBEREQSkBIAERGRBKQEQEREJAEpARAREUlASgBEREQSkBIAERGRBKQEQEREJAEpARAREUlASgBEREQSkBIAERGRBKQEQEREJAEpARAREUlA2g5YxGGVu3fz6adTWLZsGXv37vU6nJjWrFkz+vXvz3ETjqN5VpbX4YjENSUAIg6pr6/noQcf4OGHH2JPZaXX4fhKVnY2kyZN5oZJk0lOTvY6HJG4FPA6ABEX5AG7Ij0pNzePTd9ssVRhbW0tPzz/PD766L+WzhfjpJNO5uVXXyMtLc3S+Z06tKesrNTKqXmApRNF/EJjAEQccPNNN6rxt8GHH37Ab39zi9dhiMQlJQAiNlu+fBl//9uzXocRN/76zNOsXLHC6zBE4o4SABGbvfrKKzQ0NHgdRtxoaGjgtdde9ToMkbijBEDEZnPnzvE6hLgze/Ysr0MQiTtKAERsVlqisWN202cqYj8lACI2a9W6ldchxJ3WrVt7HYJI3FECIGKz0aPHeB1C3BkzdqzXIYjEHSUAIja78KIfWZ63Lt+Xnp7OBT+80OswROKOEgARm3Xr1o0bJk32Ooy4MWnyjXTp0sXrMETijhIAEQf89tbb+PHFF3sdhu9dcuml3PKb33odhkhcUgIg4oCkpCSeevqv/OWpZ+jUqZPX4fhO586deeavf+PJvzxNUpIuUyJO0F4Akghc3wtgf8FgkDlz5rBq5UqKi7dFXV48a9u2Hb379GH48OG2NPzaC0Dk0JQAeCMDaAtomzN35ABzIz3JrgRAvBNFAjAMKLc5HDm4BqAYqPY6kESj7YDdkwxcCvwMGImSL5FYNs/rABJMEJgFPAO8gEkKxGFKANzRGngDONLrQEREYlASMHrfcTlwNrDT04gSgEbXOC8TeB81/iIi4RgPvIfpKhUHKQFw3i3ACK+DEBHxkVHAjV4HEe+UADgrFfiV10GIiPjQdaib2lFKAJx1BJDrdRAiIj6UhxkwLQ5RAuAsrV8qImJdN68DiGdKAJzVzOsARER8TNdQBykBEBERSUBKAERERBKQEgAREZEEpARAREQkASkBEBERSUBaZCE27QZ2eB1EHElC04kkMusxG9SIPVoD2V4HId+lBCA2vQZc5XUQcSQP2OV1EOIrwwBL+wjLQf0VuNLrIOS71AUgIiKSgJQAiIiIJCB1AYg4LBQKMX/+PFYUraCqusrrcGJaZkYmhX0LGTJkKIFAwOtwROKaEgARB7380kvcfdedbNiwwetQfKVbt27cdvsd/PDCC70ORSRuqQtAxAHBYJBrrv45P73qCjX+Fqxfv54rr7icX11zNaFQyOtwROKSEgARB9x7z594/rnnvA7D9/7xj79z3733eB2GSFxSAiBisw0bNvDQgw94HUbcePCB+9m0aZPXYYjEHSUAIjZ7+aUXqamp8TqMuFFdXc2rr7zsdRgicUcJgIjNZs6Y4XUIcefr6dO9DkEk7igBELHZjh1axdlu+kxF7KcEQMRmuXm5XocQd/Ly87wOQSTuKAEQsdnw4SO8DiHujBgx0usQROKOEgARm/3wwgtJStKfll2Sk5M5//wLvA5DJO7oKiVis759+/GTn1zhdRhx48qrfkqfwkKvwxCJO0oARBxw3wMPctzEiV6H4XvHH38C99x7n9dhiMQlJQAiDkhPT+c/b7zJb2+9jebNm3sdju80z8ri9t/dwb//8wZpaWlehyMSl7QZkIhDUlJS+O2tt/HLX/2KTz7+mKKiIrYXFxMMBr0OLSYlJSXRpm1b+vbty8SJx5PdooXXIYnENSUAIg5r0aIlZ59zrtdhiIh8h7oAREREEpASABERkQSkBEBERCQBKQEQERFJQEoAREREEpASABERkQSkBEBERCQBKQEQERFJQEoAREREEpASABERkQSkBEBERCQBKQEQERFJQEoAREREEpASABERkQSkBEBERCQBKQEQERFJQEoAREREElCK1wGIJIKtW7eyetUqdu7c4XUoMa116zYU9OpFu3btvA5FJO4pARBx0OeffcYf//gHZs2cSSgU8jocXwgEAoweM4bbb7+Do44+2utwROKWugBEHPKnu+/i9NNOYeaMGWr8IxAKhfh6+nROPeUk7vnT3V6HIxK3lACIOOCZp5/iT3ffpYY/CqFQiLvv+iPPPvtXr0MRiUtKAERstn37dm6//Tavw4gbt992Kzt37vQ6DJG4owRAxGYvv/QieyorvQ4jbuyuqODVV172OgyRuKMEQMRmX37xhdchxJ1pU6d6HYJI3FECIGKzbdu2eR1C3Nm6davXIYjEHSUAIjbLbpHtdQhxp2VOS69DEIk7SgBEbDZo0GCvQ4g7+kxF7KcEQMRm5553vtchxJVAIMC5553ndRgicUcJgIjNRo4cyQ/OPsfrMOLGueedz7Bhw70OQyTuKAEQccCTT/6FwYOHeB2G7w0dOozHH/+z12GIxCUlACIOyG7Rgo8+mcJll11OcnKy1+H4TnJyMldccSUffvQxWdkaVCniBG0GJOKQ5s2b8+cn/8KkG2/i3XfepqhoORUVu70OK6a1aJFN3779OO30M+jWrZvX4YjENSUAIg7r3r07v/r1tV6HISLyHeoCEBERSUBKAERERBKQEgAREZEEpARAREQkASkBEBERSUBKAERERBKQEgAREZEEpARAREQkASkBEBERSUBKAERERBKQEgAREZEEpARAREQkASkBEBERSUDaDdBZAYvnpdoahVhSV1/HZ59+6nUYEoW6+jqvQxDDalujm1TxpZHAaiBk4agELsF6AiHflYe170FH4h65iF1OByqw9j2sB450PWIRizoALwBBor8IzQLGuBt+XFICoCPSQwlA9IYB07Dn+3gH6Opu+CLhywRuxnqme6gjiEko2rn3VuKOEgAdkR5KAKzLBx4D6rH3O9kD3AtkufdWRJp2OrAWZy9IlcDvgQx33lJcUQKgI9JDCUDkUoFrgTKc/W42oS5SiQFDgam4e2FaBZznxpuLI0oAdER6KAGIzERgKe5+RzOAI9x4cyL7c+oRVyTHFGCg0280TigB0BHpoQQgPH2A9/Due2rAdJG2dfqNirj1iCvcow54Gmjt5JuOA7l4/13p8NeRgxxOLqY/vgbvv6sQsBvTRZru4HuWBDYRWIL3P/SDHSWYxETrOhxcEiZZ8vp70uGPowb1Lx9KEqb/fTvef08HO1aiLlKxUW/MFBSvf9jhHEXAyc58DL43H++/Hx3+OOYgB3MssBDvv59wjk+AAc58DJIIcjCPuKrx/scc6fEO0NP+j8TXbsH770WHP47JyP66YPrZvf5eIj0au0hb2f+RSLxqfMRVjPc/4GiOWsxAxRb2fjy+lQVsxPvvRUdsH+uAZghAc0y/ehXefy/RHLswXaTJtn46EneOARbg/Q/WzmMH+vE3Gk7sDODUEXtHKTAECWBugrbi/Xdi57EMONHGz0niRHfgdVz6IXbr0Dz0+M3DQqMH5rv5458FjLXxM/Orvpj5w15fjHTE1vEVZrxPohuLuVa48rmPHpgfevzmYaFuHZq7+V2/jrnmJ7xEH+naDLgJs4Sv4yvsNctIZvIlhdx0WSGZ6cmEQvCfKZu46dGFbNi61+nqG70L/BLY4FaFMSgAHA2cAvQAWnobjnikHLOC53uYBb0SWQfMmKcf40K70KF1Jr/7aX+uOKs7SUkBauuCPPX6Gn735GJ27613unowXaRPAbdjlm9PSImaAASAc4EHMQNcnK0sAOcc15n7rxtM1/bf717cW93AA88X8cDzRVTVNDgdDsBe4HHgLswSwyKSmDKBXwO3AtlOV5aWmsTPzunJH68ZSHaz789a3rKjijufWcrf3lxHMBhyOhyALcAfgGcx+64klERMAIZjBseNc6Wyvrk8PHkoRw5peiDq5uIqbn1iES+9v4GQK799NmP+8P+JeTQmIonjdMy10JXH4aeO78BjNw6le8fmTb52zrISrn9wAdMX7nQhMlMlZqzUdLcqjAWJlAC0x4xovRIz0t/ZylplcMfPBnz7iCsSU+fu4IaH5rNgRZlD0X3PTOA6TN+4iMS3ocCjwFFuVNa3ewsenjSEE8ZEtqFpYxfpjY8sZOM2V7pIG8cHTMbMGIp7iZAApAG/AO7EhSlxqSlJ/Pzcntx59QBaNE+1XE4wGOKl9zdw82OLKC6ptjHCQ1cJvATciJkCKSLxJR/4HXANLswKymuRxu0/7c81FxSQHOFN0P72VNXz4AsruP+5IqprXesifYD/rQMTt+I9ATgdk+n2cKOyU8d34JHJQ+jZyb7tqst213Hfc8t57OWV1NS60kVVCTwE3INZElVE/C0VuBrT1+34gNfUlCQuO6Mbd10zkFY59i3Nv6l4L7c9sZgX33Nt/PIm4DbMIkhxKV4TgELgEeAkVyrrls1DNwzhpHHtHatj1cZKbntiMa9/ssmxOg6sEjM+4N9uVSgitpuIuQnq70Zlxx3RlkcmDaF/T+fyjM/nbOf6BxewaJVrXaSfY7pIF7pVoVviLQHIA+7AZLuOb4zT+Ijr6vMLSEl256OcMrOY6x+az9I1rs1cmYL58S9xq0IRiVpv4GHgVDcq69Uli4duGMKp4zu4Ud23XaQ3PbaQ7SWuPKhs7CKdjNkIKS7ESwKQAvwEuBsX1n1OSQ5w+Znd+ePVA2md6/7uk3X1QZ57ez23PbGYnWWu/Pjrgb9jngi4NixXRCKWg9n34nrM+CdnK8tO5ebL+nLtRb1JT3N8bPX3lFbUcv/zRTz60kpq61zpIi3DjA14BLOWgK/FQwJwHOYRlys7P00Y1ZaHJw1hYIH3a8eUVNRy59NLefJfq2lwZ85sCWYw5ROYpEBEYkMSZhGfB4A2jleWFOCik7tw/3WDaZvn+BpqTVqxYTeTHlrAB19tdavKlcANmEWkfMvPCUAvzB2/K3s/F3TO4u5fDuTciZ3dqC4iy9dVcMNDC/jo621uVVmEucP40K0KReSQjsHcBA12o7Kjh7fm4UlDGdInx43qIjJlZjHXPTifZWtd6yL9BNNFutStCu3kxwQggHnE9XtceMTVonkqt17Zj19f2Iu0VPcfcUXiP59s5qbHFrJ+yx63qvwnZryFVhMUcV8W8CRwsRuVdevQnPuvHcw5Ezu5UZ1ltXVB/t8rq7j72WVU7KlzpUpMe3QvPltQzW8JQAB4BbjA6YqSkgLfTmWJhUdc4aqqaeDhf67gvueK2FPlylP6xcB4zLrqIuKOHOALXOj6bJ6Zws2XFXLDxX3ITPfPpqLFJdXc9sRinnt7vVvLCr8KXISPkgC/JQCTMX1cjjpySCseuXEowwpzna7KMd9sr+I3jy/i5Q9cWVb4DeAcx2sRkUZvAD9wsoJAAC46uSv3/GoQHdtkOlmVo+YuL+WGB+fz5QJXxi9Pxqyj4gt+SgCaYdaud6xV7tgmk7uvGciPT+1GwE+fzGG4uKb2SMx62iLirFGY5bsdM7xvLo/cOJRxgx2fVOWad6dt4doH5jvdRVoOdARc64eNhn+e55jH/hc5UXCzjGR+e0U/Xr5nDCP65cVN4w9m283Lz+hO947NmbVkF5XObbVZC3zgVOEi8q3fYhJu27VvlcHjNw/j8ZuH06Xd93cu9bPeXbO56uyepKYkMXtpCXX1jjwazQCWYbpGY56fEoAfYvqabXXq+A6889h4zjymI6kpsT3Iz6pAAAb3zuHn5xWQmpLEzMUl1DfY/uOvJI6XzBSJITcC3ewsMC01iavPL+D1B8cxakB+XN0E7S81JYljRrTh0tO7s6OshsWrHRm6tBz41ImC7eanr/kfwGV2FRaPj7jCtfabPdz06EL+79PNdha7ArMEs4g4qwjoY1dhP5jQifuvG0yPMLbpjTdfLtjJ9Q/MZ15RqZ3FPgdcbmeBTvFTAvAccGm0heS3TOO2q6LfoSoefD53Ozc8uICFK21ZU3slNl6UROSQVmCW+o1KYbdsHp40lBPHRrZNb7wJheDF99Zzy/9bxLZdtmz+9zw23qw6yU8t4HNEkQA0btP7h18MoGWW9W16442Na2orARBxR1QJgBd7mPhB47bD9z23PNqdV5UAOOA5LCYAxx3RlkcnD6Vfjxb2RhRHGrcdjmJNbSUAIu6wlAA07mFi9za98Wb1pkpu/XNUO6/6JgGIz1Fv+/nTrwbx0ZNHq/FvQk52Kvf8ahAfPHGU16GIiAP++5ejeerWEWr8m1DQOYvX7hvDXdcM9DoUx8V9AtChlX9W8YsFHVr5d8EPETk0/W1HpkPr+P+84j4BEBERke9TAiAiIpKAlACIiIgkICUAIiIiCUgJgIiISAJSAiAiIpKAlACIiIgkICUAIiIiCUgJgIiISAJK8ToAEXFEa6A90CbKcrYDW4EdUUckIjFFCYBI/OgJXAWcCRTaXPZy4C3gr8Bam8sWEQ+oC0DE/3KAxzGN9M3Y3/gD9AVu2VfHY0BLB+oQERcpARDxtwJgOvBLINWF+tKAXwOzcSbREBGXKAEQ8a8+wEzM3bnbegFf7vtfEfEhJQAi/pQLvA3keRhDPmZcgLoDRHxICYCIP90N9PY6CMzThzu9DkJEIqcEQMR/egFXeh3Efn6OmYEgIj6iBEDEf36GOwP+wpWGmX4oIj6iBEDEf073OoCDONvrAEQkMkoARPylPbHR93+gXkBbr4MQkfApARDxl45eB3AYsRybiBxACYCIv7TzOoDD6OB1ACISPiUAIv4Sy3fZ7b0OQETCp82ARPylk5WTmme1oGVueGsGlZfuYk/lbivVWIpNRLyhBEDEHtmYu/NUzBa624GQA/VMtHJS3wFDGDxiTFivXTB7OnNnfmGlmonAHVZObEIAM8CwDVADbAEsZSgi8j/qAhCxbjzwJLARqMDslLcI2AZUAm8ClwPpNtXXCxhl5cRw7/4jfe0BRmPfgkDpwE8wSw1XAluBhUAR5rPeiPnsj7SpPpGEowRAJHIDgQ+BacAvgM4HeU0z4Ezg78AK4BIb6r0bi3+zLXPzHXntAZIwMUbrEsxn9jfgDMxneaDOmM/+C+ADYIAN9YokFCUAIpG5ALMD34kRnNMVeB54DutPA64AzrNyYkZGJjkRNOo5ufmkZ2RYqQrM53O5xXPTMZ/R85jPLFwnYb6T8y3WK5KQlACIhO9G4BUg0+L5lwKfEflUvkuBpyzWSaduPQkEAmG/PikpiU5de1itDuBp4McRntMO+BTzXq1oBryK+Y5EJAxKAETCczNwP2ZAWjTGALOACWG8ti3mMfhzRDFgt0u3yLvlu3QrsFodmIGQ/wSewQzca8pEYDYwNppKMd/N/cBNUZYjkhCUAIg07SbgXhvL6wxMAT7G3PF2AZL3/bfWwCmYO/7VmIFwlmVmNrPUmHfpXkBGhtUHHd+6ClgD/AXzmL7Vvn+fhHnPlwKfYD4HO6cQ3oeSAJEmaRqgyOHdhGlQnDCR/03rCxH904Xv6TtoGMkpkf+Zp6Sk0nfgUObPnh5tCFmY7YJ/vt+/a+B/CY9TGr+z+x2uR8S39ARA5NCcbPwPZHvjn5KaSt+Bwyyf33fQcEvJQxicbvwb6UmAyGEoARA5uEm41/g7YujIcVE9xs/MbMbQEdF2y3vuPuBWr4MQiUVKAES+bxLwoNdBRCMvvzUDhoyMupyBw44gv1U44/hi2l0oCRD5HiUAIt91Ez5v/JOTUxh/3CkkJUX/552UlMS4CSeRnOzWU3vH3IW6A0S+QwmAyP/4/rE/wPgJJ9OqjX27Brdu056jjz/NtvI8pO4Akf0oARAxfH/nDzD8iPH07NPP9nK7FxQydNQ428v1gJ4EiOyjBEAEJhMHd/4jxhzNkJHODdobNupIhh8x3rHyXXQf5jsXSWhKACTRnY9Nc8UDgQC5+a3tKCoiSUlJHDXxVAYPH+14XUNGjmX8hJNtGV8Qqbz81hEtadyE+9HeAZLgtBCQJLIBwD+wYQ5+IBDg6ONPo3tBIfNmfcmiuTMIhULRR9iEnNx8jjr+VFq3ae94XY169xtEbn4rpn3yPmWluxyvLxAIMHj4aIaOOpJ1q4uY+vG7dny2Acx3v3TfIZJwlABIInuAg281G5HGxr9nb9P3PmL0UXTo1JXpUz+ivLQk2uIPKik5mf6DRzD8iCNJTnb/z7h12w6cdcFlzJ35BUsXziEYDDpST05uPmOPPoH2nboAfPsZ25QENMM8CTg12oJE/CjuE4C5y0u58OSupCTbvtBaXJq1xJkGKwaNw6xPH5UDG/9GHTp15ewLr2DlsoXMm/UVVXv3RFsVYBr+3n0HMXj4aLKyW9hSplXJKSmMGncs/QYOY+G8GaxcvphgQ4MtZTdrnsXQUePo3XfQ97obbE4CTsFsQhT1msexbtaSEnp3zfY6DF+obwgxr6jU6zAc56dW8TksbhXap2s2D00awsnj3HtM6jcrN+xm0sMLeP/LrZaLAPrYGJLT/gxcE00Bh2r8D9RQX8/6tStZXbSEbzatt9Ro5bduS/eCQgr69Kd5VmxexPdU7mb1iqWsW13Erh3FEZ8fCATo2Lk7vfoOoGuPXk0+2VizcpldScDjwK+jLcRFK4DeVk6cMKotj0wewoCeLW0OKX58Nns71z84n8Wry60W8TxwmX0ROSchEoBGxx3RlkcnD6VfD2/vnGJJ2e467ntuOY++tJLauqge4/otAVgHdLN6criN/4Gq9u5h25ZNFG/9hh3FW9lTWUF1VRUNDfWAGdCXmpZGi5a55LduR37rNnTo1JUWLXOthuqJirJStnyzgV07itm1vZiKilLqamu/7SpITk4hIzOTrOwWtGrTnrbtO9KuQ2cymzWPqB6bkoD1QPdoCnCZ5QQAICU5wOVndueuawbSKifdxrD8bfWmSm7982Je/2RTtEUpAXDAc0SZAACkpiTx83N78odfDKBlVmr0UflUMBjipfc3cNNjC9leUmNHkX5KALKBCqsnW238D6eutpakpCSnNt+JGQ319QRDQVJT02wr06YkIAuwp5/GeVElAI3yWqRx+0/7c/X5BQndRbqnqp4HX1jBfc8tp6bWlrEsvkkA/DQN0JbOxbr6II+/uop+Z3/AP95aRzDo/EjtWPP5nO0Mv+hjLrtjll2NP0C9XQW5wHJfUCAQ4KiJp9ra+AOkpqXFfeMPZtyAnY0/mDEBx554RrRTE/3UP2jLtbCkopbrH5zPyB99zOdztttRpK8EgyH+/uY6ep3xPnc+s9Suxh9s+n7c4KcrzmY7C9u2q5or75zNk/9azcOThzB+qPvzt922qXgvtz2xmBff2+BI8U4U6hDLLVBOXit69OprZyyuqampprammtqaGurr66irqwMgNTWVlJRU0tLTSUvPID09w+NII9e1R29a5uZTumuH1SL89KY3A7b9CBetKuO4n33OqeM78OiNQ+nRMbJuGD+atbSE6x+Yz4zFjkxj3ehEoU7w03Ofs4D/c6LgQAAuOLEL9/56EJ3bRj0rLOZU7q3nnr+bfv7qWseS03uB3zhVuM1aAZZbisHDRzNizNE2hmOvYDDIjuItFG/dTHlpCWWlJZSXlVBTXRXW+ekZmeTk5tEyN5+WOXm0bd+R1m07eLL4T7hmT5/KonkzoimiFeD8ogb2uA+HljPOSEvmuh/15jc/6UtWMz/dH4ZnU/Febn5sEf/6aCMOLtNxJvC2Y6XbyE8JQApmsE5HpypolpHML3/Yi1uv6BcXP/5QCP4zZRM3PrKQjdt/cfufAAAgAElEQVT2OloVpv9/lZOV2CgAlGPGAkR+ciDASWecT4fO3WwNKhoV5WWsX7OCrZs3sm3rJur33d3bJTU1jbYdOtGhYxe6FfQhu0WOreVH45uN6/jvO/+OZgzAbqAl5nfsBz0xY24cy8jat8rgjp8N4IqzupOU5Kdm4uCqahp4/JVV3P23ZVTudbS3cgtmcLG9f4AO8ds3ewHwqtOVdGnXjPuuHcx5x3fGvpVH3TVj8S6uf2A+s5a6Mq//YcxOen7yOnCO1ZNb5uRx9kVXeHpXXFtbw8a1q1i1YilbNq13te5WbdpR0Kc/Pfv0JyMj09W69xcMBvnPS89SUR7VnO1/479lgR8FrnW6klH983jkxqGMHpjvdFWOCIXg3x9v4ubHHL8JanQ+5vfkC37b5HspJmk5GgeTl/LKOv4zZTOfzd7OoN45tG/l3QUuUt9sr+JX983j+gfn88328B75Ruld4CrAmaXgnJMO/MDqyTXVVTRrnuXqEryNdleUM/fraXz+0busW7OC3RVlrsewd08lmzeuY9miuezdU0lufmvS0t2fUrZ88XzWrIx6Jd97gUU2hOOmKcAwbJgNcDjf7KjiH2+tY83mSkb1z6dFc//MnJpXVMqFt3zNIy+tpLzS8RvyEPAH4EmnK7KTT+9vORv4C9DG6YqSkgJcfkZ3/njNANrmxe44oeraBh7+50ru/cdy9lS5MiC/GrO16j34r/EHSAWKgB5WC8hs1pwLLvm5a6P3y0p3sXDuDNauXObY0rtWJSUl0bNPfwYPH03LnDxX6qyvr+Nfzz9FVVVUd3ZrMAPqfPHI9gBJmHE3t+HCIMbmmSnccnlfbri4NxlpsXvvWFxSzW1PLOa5t9e7NctrO/AL4A03KrNT7H6Lh7cceArzRzsGB2czhEIwv6iUp15fQ21dkDGDWsXcnNl3p23hzOu+5I1PN1NX70rD8C5wOmagi1/6TQ8UxAwEtNwNUF9XR05eK/Ic3gGwrraWOV9P5Ysp77NrR7ErmwxFKhQKUbJzO0VLFlBXW0ub9h1JTnb28rJ2VRGrV0R99381/rv7bxQCvgBewAxiHOxkZXX1QT6bvZ0X3l1Pq5bpDOqVE1NdpHX1QZ54bTXn3TidGYt2OTnI79sqgScwN6QLHK/NAX5NAABqgc+B14B2QH8nK6urDzJ17g5e+2gj7Vtl0K+H90tpLl9XwSW3z+TuZ5dRutuVG5gi4GLgj0A8LJS9BDP/e4TVAurr6ijo49xPb+O61Xz83uts3rguJhv+A4VCIbZv+4ZVRUvIzGxGXivnHtLN/PJTdldYXq4VzG6Af7IpHC9VYGZITQWGYq6HzlW2p543P/+GqXO3M7h3Lu1aef9kdMrMYn4w6StefG+DnfP5D+cTTBfiC4Bti6m4LYbyt6gdhxkYM8CNyiaMasvDk4YwsMD9RKCkopY7n17Kk/9aTYM7j7hKgDsx2a6fFvwJRxrmj3m8lZMDgQAXXn5NxEvYNqWmppovprzPhrV+mVhxcN169mH8hJNtHx+wp3I3rz3/l2iSoi+AiZgbiXiSBPwYs9OlK12kF53chfuvG+xJF+mKDbuZ9NACPvjK8h4mkVoJ3AC851aFTvLzE4ADrQP+CnyD6RZwdEL/um/28Oz/reWb7VUcMTCf5pnO9wPX1Qf5+5vrOGfSV3w+Z7sbj7jqgWcxme5n+LOvvykNmK6McwFLC+63btue3LxWtgW0c/s2PnzrNbZv22JbmV4pK93F2lXLaNOuA82z7NuDY9O6Naxfs8Lq6RuA44liOegYFgIWYv5uA8BIHO4iXbSqnL+9uZYAAUb0y3Oli7S0opY7n1nKZb+bxYr1ux2vDygDfg9cgnkSGhfiKQEA00DNBf4GZALDcXCubDAE85aX8vc315GRnszwfnmOzZmdMrOYsyd/xT/eWsfealdWmpyCafj/Drgyf8ZDVZiL5mVWTm7WPJtOXS2PJfyOZYvm8umHb4W9aI8f1NbWsHrFUjIyMmnd1p5ZEyuWLWBHseW7vjMw44jiWTXmyda/MBsdOTpboLo2yJRZxfzr441079jcsW2Hg8EQL763gbNu+JKPvi524wloEHgR85v5CB8t8xuOeEsAGlUBH2LmYxbsO5yrrKaB/07fxusfb6JnpywKutj341+1sZKr/zSX3zy+iB2lrnQ1rcKMaL0FM7o1UWzAPDmK+LcSCATo029Q1AHMmv45c2d84Yu+/kiFQiE2bVhDsKHBlgWU5s/6ir17Kq2c+j5m5kqi2AW8AnyFuSFytFugpLyWVz7cyFcLdzKsMJc2NnYLfD5nO2dPms7T/1nDnipX2uHPMAP8nsI/G0VFJF4TgEY7gZeAecARWHzEG3ZlZbW8/MFG5i4vZdSAPPJaWN/0pGx3HX94ZimX3TGTxauiGugUrkrMhfEi/Dsq2g5nWzlpwJCRlisMhUJ89dl/WbZoruUy/KJ462Z2V5TTpVsBgSiGkM+d+YXV1Q5/hxn8mWjWYrpId2ESXUc77E0X6To2b9/L6EH5NMuw3guxqXgvv75/HpMfXkhxSbWNUR66SuDXmL7+Yjcq9Eq8JwCNVmKyuF3AWMwiMI5ZtXE3T72+hp1lNYwd0or0CObMNj7i+sENX/HR19toaHDtEdfpmIEtcfWIK0IlmD/6iAQbggwZOdZShcFgkE8/fIs1K5dZOt+PSnZup6xkJ9169rGcBMz5eqrVJyW/xiS7iSgIzMQkAhmY2S/OdZEGQ9/pIh3RP4+kCL7vPVVmD5MLb5nBvCJXJh3twdwEXYDpSo57iZIAgGnYZmL2as7GTJdxbLRKMBhi1pISXnhnPdnNUxnaJ6fJi93UuTs498aveOr1NW4t5jMTOA/4M3H6iCtClcBvifDvIhQKMnDIKEvz3r/49APWrnK1O3oHZj/51Zh+8NXAVkxynAK4shVcWeku9u6ppGv3XhGfW1tTw8K5X1upthbTtZXoGrtI38YsgtTN0coau0g/2UxB5yx6ds467Osb9zD5wQ1f8fbULdQ7fxMUwiwNfibwFvE30+mQ4mkaYKSGA48B41yprG8uD08eypFDvj9afHNxFbc+sYiX3t/gxsh+MNuJ3gr8E/8u5OOUeiwkxpf9fFLEKwLOnv45i+bNjLSqSJQB04BPMcneCppevyEXs7HTEZiptUdhNspxhJWdFevqannh6UesVFeLw0//fOp0zLWwuxuVnTq+A4/dOJTuB9l2eM6yEq5/cAHTF+50IxSAOZg9Faa7VWEsSeQEAMz7PxczZ7ar45UF4JzjOnP/dYPp2r4Ze6sbeOD5Ih54voiqGleevO/FvNf7MHcB8l2WtglOSkri8qtvjOicZYvm8vW0TyKtKhzVmDu7F4D/Ev3dTCpwImb60+k40Hc89pgT6DtgaETn/P2J+612AeQRH4tY2S0NM/j3j1jcJTOiylKT+Nk5PfnjNQPJbpbClh1V3PnMUv725jq3lu/dglm7/1nic3pzWBI9AWjUHLOm9iRcWlP78jO783+fbnZrw54Q8DLm8edmNyr0qZOADyI9KT0jkx9f+euwX7+jeCvvvvESwQZbk75yzEJNj2IhiQlTG+A64BrAtkn9ycnJnHbOj2nVJvwF7P7510eprbE0K+ZEzHQuObhOmM2RLsKF9qFjm0x+MKET/3hrnZt7mDyE6etP+G7PRBoDcDh1mMekzwOtgUE4+OOvqw8ya0kJu/e48oOfixnU8ijxufCJnSZhYVngvPzW9Okf3jLstTU1fPDWq3bO868HHsGs2fA+zq7ZsAezPsRT2DiILBQKsXXzBnr1HUhycnjdKOvXrLA6DbCSOFnFzSEVmE1t3scsr97Zycp276ln1pISN/cwOQ3z/vy4+ZPtvNvMPDZtxjzqPBafbu6wn63Az4BRwJcex+IHbTBLqEYsv3XbsF87bcr7VEa3fv3+ZmC2hJ2MeQLgljLgekwCMMuOAivKy/jy0w/Dfn1+q/A/8wNcjEny5fBmA0di9rff6HEs0VqOebp3OmbFWNlHCcDBTcUMErwU/80DrQP+H1AIPEMC929F6G7g8MOTDyHcBGDd6iI2rF1ppYoDhYD7MfsXLLajQIsWYhqJB7FhMGkkn08kSdcBsjD93NK0EGYxtX6Y/nJXJuHbqATTZTUQMx5GDqAE4NCCmIFUBZgfvx92fHoXM63nWvS4PxKXAFdaPblDx6bHj9bV1jLji0+tVrG/PZjpSjcTG9OV6oAbMV0QUXc/zPhiSlgL/LTv1CWaan4K/CiaAhLMHsw6+L0xM4diXeNNUE/M7IZEXtvksJQANK0S8+MfiMmGY1ERcDLmEdcaj2PxmyswI4EtyW/dlhY5TS8wOW/Wl+zdE/WmJbswO9i9E21BDngLE1tJNIVU7q5g/uymZ2Tl5OaTm2/5SX4AsxXw5VYLSFCbMMnyBGJ3tdBPMGu8XIvpqpLDUAIQvlWY/rDjiZ2lRPd/xBV+B6oA9MIkdM9iprpZ0r2gsMnXlJeW2LHM7y7gaEy/f6z6GhNjVEnAkgWzqChveqZej159o6kmFbPR1Ws4vFdIHPoM08heSuzsF7IScwN0PLDU41h8Q7MAIrcW02hsxoVthw8hEbbptUt7zHiI4ZjBnWdhpgDdgxnlbFlScjLjJ5xEWtrh15aZ9dWn7NoR1VCSPZhBTPOjKcQl2zGDTi/EYmIVCoVoqK+nS/fDt8tZ2S1ZvmR+tJsn9Qd+iXmC1g3zmLsDZppjiMRdNrgpB247PApv2pPGbXovJf53eLSd1gGITh5wB2ZetFs//imYu/5YeQoRi3oBV2ESJMfu7goHDGHcMSce9jWVFeX8+8VnCAYt52ghTNLyttUCPHIWZrqVpWtMUnIy51/8U5pnHX65gS8/+5AVSxdaqSJcq4A3MQNqVztZkc/1Bh4GTnWpviBmo7fJxM5TCN9RF0B0SjB9TW6MMm3sgpiIGv9DycEshrMUMzDNscY/KTmZwcPHNPm6RfNmRtP4gxlh77fGH0yjaWm9XoBgQwOL5jU9w3Dw8DEkJTl6GeuF+S0tAx7HwWWRfW4lZo69G4/gP8dMf70ENf5RUQJgj8Z5pmdgugjstAczCyGWByHGgt6Y/vGriaJPP1z9Bw0nK/vwd6e1NTWsLIpqlt5MzJ4NfnULZj65JSuXLaKu9vCTb7JbtKTfoOFWq4hEKqarYAYmKZCDaxyEdx32r02xCfOofwKm+0GipATAXu9gpuFdR/TT8IKYKTc9MX1cfpiG6JXemM08+rhRWU5uPsNHj2/ydetWF9FQb3mmXj1mISc/r1hWh3kPlqZh1dfXsW71iiZfN2L0UeTk5lupwopCzGBHDRw8tDrM9LuemOl40U7D24u5CeqNmZqtDcxsogTAfrWYH39fzE5sVmzH7FJ4Cf5biMhtOZhH5K60AElJSRw18dSwlqxdVRRVT83jxMddznxMt4wlq1c0/TQ5OSWFoyae4nRXwP7yMb85dQcc3i5MF+lIYJvFMuZgrqW/x38LEcU8JQDO2YL1RTPeJrane8WSO3Hpzh9g3LEn0bpt+yZfV1lRTvFWy/suVRBfq9X9AbC0CMLWbzayO4ylk1u37cD4406xUoVVjY2SNG0+ZpEyK57C/0sRxywlAOJnPTCPmF0xYszR9O47MKzXrltdFE1VTxJfW9aWAH+xenK4ywMX9OnP8COa7pqx0dWY36CILykBED+7ErOPueOGHzGewcNHh/36LZst37TUEMXo+Rj2MBbHsWzdvCHs1w4ZOZaho8ZZqcaKNMxKkiK+pARA/OwspytITk7m6ONPY8jIsWGfEwwGKd5m+fH/O8Tn1KZiLG7Du3XLpoimUg4bdSQTTjqT5JTwthaO0pluVCLiBCUA4letMP2wjslr1YbTzvkxBX0iWzBwR/EW6mprrVbrh81WrLL03upqa9m1I7IxZN0LCjnt7B+RZ32/gHD1x6UBqCJ2UwIgftXBqYJTUlIZOfZozjz/Ulq1aRfx+du3fmO16grgA6sn+8D7WBwMWGzhM23Vph1nXnAZI8YcTUqKo0tDdHSycBGnuPKMTMQBljeEP5SMzGb0GzSMvgOHkZGRabmcsjLLe+FMw9/z/ptSC3wBRDxcv6x0l6UKk5KSGDx8NH36DWLZ4nksXzyf6qqody0+kO2/RRE3KAEQv7Llt5uRkUmnbj3p0q0nXboV2NJvXF5qOQH4LOrKY99nWEgAovhMAZPcDRt1JIOHjWbj+tVsXLeazRvWUl1dFVW5+zi+8qSIE5QASELJym5BYf8htMzNo2VuPjm5+QQC9u6JVW7xbhWz9G+8s/Qey60/VfmO5JQUuhcU0r2gkFAoRFnJTsrLSigvLaFo6QIqd0e7gKeIfygBkISSk9eKwSOa3sTHqpqa6mjuKpte99b/LL3Hqr17qKutIbWJrZcjEQgEyM1vTe6+gYLFW79RAiAJRYMARWxUW2N5tdISYKeNocSq7Zj3GrGaGm2HIWInJQAiNopi+p/lqQM+tNXKSXV1lj9bETkIJQAiNoqikbI0Pc6nLL3XKJIrETkIJQAiNlICEBZLHe11teoCELGTEgAREZEEpARAxEapqZb3Jsq2M44Y18LKSXbOABARJQAitoqikUqkBMDSe01Nc2XjR5GEoQRAxEapqZYXhUuk9eQt7eMQxdMVETkIJQAiNkpPt7yHQB5mh8N41wbItXJienqGzaGIJDatBCgJpXTXThbMnm6WAs7JIyevFUlJ9uXBaenpZGRkWl0NsBD40rZgYlOhlZMymzW3vQsgGAxSWrKTin1LAZeW7LC1fJFYpwRAEsqeygrmzvzi2/+fnp5Bp6496NytJ1279yLF+iP8b7XMzad662Yrpx5B/CcAR1g5qWVOni2V19fVsWHdKjatX8PmDWupsb5yo4jvKQEQv7Jl29yammrWrFzGmpXLSM/IpO/AofQbOIzMZs0tl9kyN49iawnABOAhyxX7wwQrJ7XMjS4BqNq7h6WL5lK0ZD411bY3+vG8hbPEMSUA4lfFdhdYU13FgtnTWTx/FkNGjGXQsCMsdQ/k5OZbDWE8kAbE65J36cCRVk60+pkGGxpYOG8GC+fMoKGh3lIZYdjmVMEiTlICIH61xamCG+rrmTtjGmtXLWf8hJNp3bZ9ROe3aWd5QH82cArwptUCYtwpQJaVE9u27xTxOTuKt/DFlA8oLXF8j6VE2sdB4ohmAYhf7QKWOFlB6a4dvPfGS6wuiqya1m3bR7MewI+tnugDl1g5KS0tnVZt2kV0ztpVy3nvjVfcaPwXYXF3QxGvKQEQP3vL6QoaGhqY+sl7zNtv4GBTkpKSaGfhjnWf04DIWjt/aId5AhD5iR07EwgEwn79nBnT+Oy/bzv5yH9/b7tRiYgTlACInz0LuLJDzPzZ05k/+6uwX9++UxerVaUDN1g9OYZNxoxviFiHTl3Dfu28mV+ycM7XVqqxohrzGxTxJSUA4mfrgSfdqmzezC9ZsXRhWK/t1rNPNFX9HLMwULxoBfzMyomBQICuPXqH9dqiJQsiStJs8Gdgg5sVithJCYD43e+BZW5VNn3qR2zf1vSYr+wWLWnXobPVarIx7yte/AGLg//ad+xCVnbTewcVb93M9KkfWanCqiXAnW5WKGI3JQDidxXAGYAry7gFg0GmTXmfhvqm+5d7FQ6IpqqrgWHRFBAjRmDx7h+goE//Jl9TX1/HtCnvEwqFrFYTqR3AmcButyoUcYISAIkHa4AxwFI3KisvLWHOjGlNvq5bQR+SUyzPtE0GnsZiv3mMSMO8h2QrJ6ekpobVlTLn66lUlJVaqcKKJcBoYK1bFYo4RQmAxIs1wFjgEVxYSGfZornsrig/7GvS0tLp03dQNNWMAO6LpgCPPUAUTzH69Bvc5Pr/FeVlLF8832oVkagBHsb8xtT4S1xQAiDxpAIzgr4QuAcHxwYEg0EWzm16tPlAi6sJ7uda4OxoCvDIecCvrJ6cnJzMwKGjmnzdwrlfEwwGrVYTjmWY31IhMAk99pc4opUAJR6tA36772iN2X++E2Yr2q6Y9ejHYvHRdKNVRUsYMmLsYQepZWW3oKBwACuXLbJaTQB4ETgecHWIexTGA89jYrekV+FAmmdlH/Y1lbsrIl6k6RAagOnAFGAjsB3YjFltUlsEStxSAiDxbse+Y//5e78HugN3AxdaLTjY0MCaFUsZPGLMYV83eNhoVhctieZONRN4BzgGs/JcLBuMWaAp02oBScnJDBo+usnXRfmZNnoJuA0zpVQkoagLQBLVOuAi4FKi2M1t7eqiJl/TIieX/kNGWq2iUS7wORY303HJeOAzTKyWDRw6iuwWLZt8XTif/WHUAhdjll5eH01BIn6lBEAS3QvAZYClOWQlO7dTXtr0UvBDR46leVbT89mbkAt8BJwTbUEOOA/4L1E2/lktWjKkiScqAKUlOyndZfnpfAjT+L9otQCReODHBGAQZmrRasxSnKEYPv5q8T1eGQOxH+6ox/SR/gs40eJ7jCUvA89YPXnrNxubfE1qahqjxx9ntYr9ZQL/xsx2iIUpgunAY5jfguXH/o3GjJ9ISkpqk68L5zM/jL9g4vW7kzG/hW8wf5NeXxcOd1xp8T0+GwOxH+6oxrRFTwFRLfzhBT8lAEmY0bjzgZ8CPTEXH3FfMtARc9f3IWb72sOP2Ip9t2NxhPeuHcVhva5bz950Lyi0UsWBAsB1mIFrXi4WNGJfDL+2o7CevfvRpXtBWK8N9zM/iN3AHVZPjhEtMJsQvQ+cixnkGtWAVrEsHdMW/QxYANyFj9pV3wSKucu4BX/FnCjOxFyMYuGO1KodWHwkHEljdOSEk2jRMsdKNQczHJgFPA7k21VoGFph9mCYiU0JSIucXMYdE/7DpCgSgBcAx/cIdlA68AFwuteByPckA7cCD3kdSLj80pieDPzS6yDksI7EJGh+Zml74YqKsrBfm5aWzrEnnklysm03bMmYv431mIV3nNxKuD3w4L66foFN14/k5BQmnHRWk4v+7G93BJ/5Ad60emKM+C1mCqvEruuAiV4HEQ6/JAC/8ToACcskIMPrIKIwx8pJdbWR7Ujcqk07u8YD7C8Ls+XuBuAN4CzseSKTjlmI6P8wDf8koLkN5X5rzFETyW/VJqJz6motL/Y42+qJMSATuN7rICQsv/U6gHD4YR2APGCc10FIWFpgpoJ97HUgFu3CLAoT0e15MBikob4+onX/CwcMpbJytxN716cBP9h3VAJfAJ9iHtcX0fTCNm0wq94dgVkwaTw2N/j7GzpyHH36D47onLraWqsb/9QAh1+/ObYdjf/H2iSKo4CWxPjvzQ8JQHf886RCoAD/JgBJmJG9EQuGghGPwhox+iiq9+5lxbKFTb/YmixM99nJ+/27Usyo8cp9R+PrsjADO6OaxheJwgFDGHZE5MsaRLHrX2DfYbkAj4U3QlJiQTLQje8uQBZz/JAAWNpHXDwT9WR3D3XEwt9EcnIKqanWnraPO/ZEamurWbd6haXzLcjFxUb+ULoXFDL26BMsnZuWnk5SUpKVVQDTMGMktlqq2Hu6FvpLzF8LdWct8j8TrJyU2ayZ5QoDgQDHnngmhQOGWC7Db3r1HcgxJ5xOIGB5qwAyMi1/5pa+Y5F4pARA5H9+bOWkpjataUogEGDcMSeGtQKe3w0dOY6jjjsl2h0So/nML4mqYpE4ogRAxDgOi1N3WrftYEsAw0cfxbhjTrBzimDMSE5O4chjT7LU538wUXzmJ2A2VRJJeEoARKAt8A+rJ7dp19G2QAoHDOX0cy+mRUvPu+ltk9WiJaeefVHEo/0Pp027qJKulzCr54kkNCUAkujSMfPmO1s5ORAI0K5DJ1sDym/dljMvuNSuZYM91aNXX87+4eW0btve1nLbd+wczRiCDpg19LWUuCQ0JQCS6P5MFCurdezSncxm9k+TT0tLZ8JJZ3L8qeeQlR3zg4m/p1nzbI6eeCrHnngGqWn2t7PNmmfTvlPXaIoYSxQbQInEg3hOAKbyv3m/OiI/7o38I/edi7G+SxkAvQqd3QCsS/cCzrnoSgYNOyLqgXNuSEpOZvCIMZx38VUUOPzZ9C4cGG0RlwAX2RBKrLsX768nfj6+iPwj9wc/rAMg4oQ04M5oCmjWPIuuPXrZFM6hpaSmMnLsMfTpP4RFc2ewasUSgg0NjtcbiaTkZHoXDmTQ8CPIbmHbZkeH1a1nbzK/ak7V3j3RFHMX8DpgeW1hEb9SAiCJ6kKgWzQFDB01juRk9/6EWrTM4cgJJzF01FgWzZvFymWLqK+vc63+g0lJTaVPv0EMHHpE1NMhI5WcksLQUeOY/vlH0RTTHfghZpdAkYSiBEAS1VnRnNwyN4/efQfZFUtEmme1YMxRExkxejwb1q5i1YqlbN28IZolciMSCARo064jBYX96dmrryN9/OHq028wyxbOpax0VzTFnIkSAElASgAkESURxXadjQv3eN0nn5qWTkHhAAoKB1C5u4L1a1awdfMGtm7ZHPEOhU1JS0unXcfOdOjUla49esfMwMSkpCTGHH08H771WjQJ0PGYvl6/7hEgYokSAElE+USxrvrgEWNo37GLjeFELyu7BQOGjGTAkJEEg0F2bt/G9m3fUFa6i/LSEspLd1FVtTessjKbNadlbh4tc/LIyc2nbfuOtGrTPqqle53UoVNXBg0fHc3OitmY38RO+6ISiX1KACQRtbV6Ym5+a4aOjO3dqZOSkmjTrsP3Fsupq6uluqqK+rpa6urqqK8z495SUtNITU0lJTWNjMxMyxsbeWnYqCPZuG41pbua2u34kNqhBEASjBIASUTVVk8sK9nJmpXLHJ/+54TU1DRfNu7hWL9mBWUlUbXf4T0eEYkjSgAkEW2zemIoFOKLKe8TAFvnudfUVBMgQFp6fC9OV1NTTSgUIiMj07YyVxctYdqU96MdBGn5NyHiV20x06QAACAASURBVEoAJBFVAmuBHlZODoVCTJvyPgQCFPTpH1nFuyvYtmUTO7ZtYXvxFvZU7qa6au93Gq+0tHSyW+aQ37ot+a3b0qFjF3LyWlkJ1TMlu3awdfMGdu0oZteOYnZXlFNX97+p9oFAgIzMZjTPyqZN2w60bteB9h070zwrssGFq1cstaPxX4ueAEgCUgIgieo94FdWTw6FQkz75D2AJpOA+ro61q1Zwarli9n6zcYmy66trfm24WyUm9+aHgWFFBQOiJkR+AfaXVHO6qIlrF21vMlpeaFQiKq9e6jau4ed27fB4nlmX4WOneldOJBuBX1ISUk9bBmrVyxl2ifv2TH98d1oCxDxIyUAkqheJooEAJpOAoINDSxfsoAFc6ZTHeYI/EMp3bWDubt2MH/2V/QqHMjgEWPIbtEyqjLtUlFWyoK5X7NmxVKCwaDlckKhEFs3b2Tr5o3M+uozhowcR+GAIQedbmlj4w/wih2FiPiNEgBJVDMwd36nRVPIoZKAzRvXMv3zj9ldURZN8d8TDAZZsWwhq4oW02/QcEaMPorkFG/+jOvr6pg9/XOWL5lv+yJEVVV7+XraxyxdOIexRx9Pxy7dv/1vNjf+72B+CyIJRwmAJLKbgWOIYk0A+G4S0KNXX+bMmMbieTOjj+4wgsEgSxbMZtOGNRx13Cm0adfR0foOtG3LZr6Y8h4V5fYmOAeqKC/lw7f/xaBhRzB89FGsXbXczsa/ErjJjoJE/EgJgCSyZcClmM1golrlpjEJWDh3RrTT0SJSXlrCe2+8zNhjTqBPv8Gu1Ll88Xy+nvaxa0sPAyyaN5ON69dQXrrLrnpDmO++yI7CRPwo9vcXFXHWG8BkOwoKhUKuNv6NgsEgX376IfNnf+V4XXNnTGP61I9cbfwblZXstLPeyZjvXiRhKQEQgYexKQnw0ryZXzJv5peOlT97+lQWWF9uN5ZMwnznIglNCYCI8RBwg9dBRGv+7K9YvWKp7eWuKlrConlxMVbuN6jxFwGUAIjs7xHgRq+DiNaXn37Aju1bbStv+7YtfPnZh7aV56FJwL1eByESK5QAiHzXg/j8SUBDQwNfTPkgqjn5jYINDXz56QcEGxpsiMxTuvMXOYASAJHvewSfJwGlu3aweP6sqMtZOHcGpR4MbLTZb9Cdv8j3KAEQObhH8Pkc8fmzv4pqBcKqvXtYONf3/f43oMZf5KCUAIgc2gO4lwRUE8U2xQfTUF/PskXzLJ+/dNFcGhrqbYwIMIvv2Po+D+MGTCInIgehBEDk8JxMAt4HLgTaA5n7jhxgIvBnYHe0FSxfPI/6+rqIz6uvq6NoyfxoqwcoBx4DjgVaANmY99kOuAhwanShGn+RJigBEGma3UnAemA8cCrwKt/di74cmILZqKgH8BRm1TpLqqur2LR+TcTnbVi3iprqqG7UQ8D/w7yH64DP+W5CU4zZhOdkzHLMTW+TGL7rUeMv0iQlACLheQAzRTDapei+AEYB4azYsxP4BfAjoNZqhRvXrY74HCtJw35qgPOBa4GSMF4/FRgJRLuUYQiTbDwaZTkiCUEJgEj4HgQuAKyOrHsG83h/R4TnvQJcZbFONm1YG9ESusFgkM0b1lqtDuAnmP0VIrEdOA74u8U6K4GzMd0NIhIGJQAikfk35m71vQjOWYNJHH6G9Tv5F7C4b31NdVVEexSUleykpsby4/8XgZctnlsDXIEZG7AugvPeAkYAb1qsVyQhKQEQidwy4DRgDOaO82C3y7sxd8EXA32Bf9lQ722ApdV9ysvCeRIf+WsP0ADcbvXk/bwCFAKXYD7Dgw2GXIN51D8aOAtYYUO9IglF2wGLWDdj33EdZmR742j+rYTX9x2ptfvqGxvpiWWlESQAEbz2AF9jBjjaoRb4574DIA/z+e7FfL5uTSUUiVtKAETsUcXBnwTYbQoWEoCiJQvY+k14A+2jSACmWD0xDCU4k1SJJCwlACL+ssnKSXsqK9hTWWF3LAfa7HQFImIfjQEQ8Rf7tvmz37amXyIisUIJgIi/xHIC8I3XAYhI+JQAiPhLLDeysRybiBxACYCIv2wjNqe8LcMs5iMiPqEEQMR/3vI6gIPQIjwiPqMEQMR/nsKsmhcrarG+hK+IeEQJgIj/rMPsKxArHseszCciPqIEQMSfbgWWeh0EsBz4o9dBiEjklACI+NNuzBr44e/yY78dwOlAuYcxiIhFSgBE/Gs1ZjMcL54ELNlXtx79i/iUEgARf1uD2RvgYdwZGFgNPLivTjf2PhARhygBEPG/CmASZgvdu4BFDtSxENPXXwjcyMG36BURH9FmQCLxYz1w+74jB+gItMV6oh8EijEr/JXZEJ+IxBAlACLxqWzfEQszBUQkBqkLQEREJAEpARAREUlASgBEREQSkBIAERGRBKQEQEREJAEpARAREUlASgBEREQSUKyuA9AemAAcCxxlsYzRwH+BacBnwCyg3pboREQkXqUCozBt0Ph9/2zF34CpwKeYNmibLdHFqZ7A74FlQMiBYzfwBmYHtTR33pKv3YO1z/lmL4IVSQC3YO1v8h4vgvWZdOAc4E1MW+FEG7QE+B3Q3aX3FPNSgUuBLzHLjjrxoR/s2An8Gejt/Fv0LSUAIrFFCYD9+gBPALtwr/0JYp5MX0zsPoV3VBpwCbAK9z70gx0NwDvAcGffri8pARCJLUoA7DMQeAHTLexlG7QeuBbIdPTdHoIXgwB/BKwDngcKPKh/f0nAacBs4BWgg7fhiIiIgzoCr2F2t7wYSPY2HLoCjwIrgQvcrtzNBKAXZlDei8ReQxsAfoj5En6PxgiIiMSTFMyd9jLgfMw1P5Z0Al7FDBbs51albiQAAeAGzACIE1yoLxrNgTswYxJ6eByLiIhErycwA3On3cLjWJpyDDAP+DUuJClOJwAtgX8BD+Gvu+qRwHw8eCQjIiK2+QEwB3+N80oHHsPMSMhzsiInE4ABwCLgXAfrcFILzCOZB4i9x0Xy/9u77/gqq/uB4597k9zsAQQCCTMkDJkyZAgIYkQcKFAVxa201N1qXa2/6q/6a63V2rpa694VRXEDisqQgiibAAk7bEISsuf9/XFCqxbl3vOcZ1z4vl+v5/XiD86539zkPM95zvgeIYT4YX7gYdTW7zSXY9E1AdV56WnXB9jVARiCmsvoaFP9TroVeAm1ZVEIIYS3BVBrzX7hdiAGdAEWASfbUbkdHYCzUJmP0m2o2y1TgXdRawSEEEJ4UyJqa/dFbgdiUAtgDnCm6YpNdwDGAG8BCYbr9YIzgFmo+RkhhBDeEgO8ifcXm+tIAN4G8kxWarID0Bc133IsPyDHAs8hhygJIYSX+ICnUS9qx6oAqoMzwFSFptIQZgNzsXGxhd/no0NyKrlp6XRISiU1No7EmAA1DQ1UNdRRXFNFQWkxhaXFlNfV2hUGqKGlIuA2Oz9ECCFEyB5CZZe1TXIglty0dHLTWtEyLp6E6ABx0dFU1tdRVlvD9vJSCkqL2VFeRpCgXWGkAB8Aw1BZBC0x0QGIRWVWamOgru9ok5DE5JxejOnQlZGZnUiLPXq2xKZgkDXFe5m/cwvvb1nPgp1baQoa/2XcitpXOtN0xUIIIcJyATYs+PP7fIxun834zt0Y3T6bXq3a4AthQ1hJTTULd21l3o7NvFW4hv3VlaZDa4vaoTYKqLNSkYntbX9BJS0w5tQOXbm+3zDyOuYQ7bc22r6jvIwX8r/hyVVLOFhTZShCAEpRQzFbTFbqIb9H5R4P1x3AA4ZjEUKotqWT1/8PwJ2GY/GKrsDXqJwzRrSKS+DafkO5vOcAspKs5Q2qb2pk7vZCHl2xmM+LNhuK8N8eBm6xUoHVDsAEVLICI/vkR2V14f7heQzKaG+iuu+oqK/j76uX8MCy+SanCJYCw1GHCh1rpAMghLdIB+C7olEjsUaS/KQEYrlz8Gim9R5MYoz5vHVL9+zg11/OZeGuraaqDALnoKYEtFg5CCEJ+BADPa9WcQk8PmYCfxgxjqwkYx257whERTG8XSem9ujPtvJSNpTsN1FtFuoYySUmKvOY04ARGuU+Qe1bFUKYNQLVLsO1EPjUcCxe8AvgChMVTcrpxcyzLyGvYw6BKHvOB8pKSuXSnv3pktKShbu2Ud1Qb7VKHyo/wD8ArcqsjK//FnWAgSWDM9qz6ILpXNS9X0jzK1ZlJqbw+vgpPH3aJBKijeT2+R3eO9xICCGOZe2Au61WEhcVzYMjx/PKGRfSLjHZQFg/zoePqT36s3TKtQxrZyRPXifg17qFdTsAvVAnK1lyVa+BzJt8DZ1SnM/UOLVHf+ZMuorW8ZZz+6QAfzQQkhBCiNA8gsXR5zYJSXz2k2lc32+YoZBCl5WUwuyJV3JZzxNNVHcL0EOnoG4H4B4spsa9bdAoHhszwfIiPysGtsli3uRr6JhsuQNyMersAyGEEPbqD5xvpYJOKWnMm3wN/Vu3MxRS+GL8Ufxt7Hn8coDOTOt3BFAj8mHTefr2ACbpfNhh0/sM4d6hpzky5H80OWmt+Oi8K2iTkGSlGh/H5iIbIYTwmruwsPA8PT6Rd8+5jK6pth60FxIfPu4ffrqJUYjzge7hFtLpANylWQ6AyTm9efgU4ymNLclObcnbZ08lLspSWoQLgW6GQhJCCPHfugOTdQvHR8fw3oTL6NbCW0fVPDDiDCZkWzr0LwqNXVvhPsjbYuGQhdy0Vjx56rmeePP/vgFtsnhw5HgrVUQBNxgKRwghxH+7CQsvoA+NOtPVYf8f4vf5eOq0iWRbG5WYSpgJ+cL9Ii9CM3tgtN/PS+MuIDng3aMCruk92GovbApqPkYIIYRZsaiRVi0Tc3px5QlGUgbYIjUQx4vjzifKp92/iSHMF/RwP+nyMP//v13bdyj9PNjz+r6HR51Fkn4SiHTA0jCCEEKIIzoH0HpFTg7E8idrI7yOGNgmi5/2GWylikvC+c/hdAD6AP3Ci0VpHZ/Ib04ao1PUcVlJKdw+6BQrVVxqKhYhhBD/FtbD7dvuHHQKmYnW0vo65X+GjKVlXIJu8UFAyMPY4XQAtFfu3dh/uKeH/r/v532H0Er/F3A65k5ZFEIIoe6pp+oUbBmXwLQ+JxkOxz5psXFc12+olSpCHuoIpwMwOvw4VH7ln0bQlw+QGBNget8husWTUb0wIYQQZgxB3VvDdl2/oVamdV1xbd8hVmIOuaMUagcgBr288EzO6U1KBL39H3ZZzxPx+7R3K2j1VIUQQhyR1j3V7/OZyrbnqLTYeM7teoJu8VGEmKgv1A7AANThP2G7uIfWsgHXdUxOY0RmZ93iIw2GIoQQxzutF9DR7bNpb9MBc3a7uLv2szMZlS3xqELtAGh1RVJj40wdeOCKMztr5/XR7roJIYT4L710Co3Xv4e7blRWFyuj5yEtBAy1AxB2ikFQP4CFPY2uG90+W7doB8DyKUNCCCFIRPPEVQv3cNdF+/2cnNlJt3hIz2xbOwBD23bQKeYZfdLb6i7E8AG5hsMRQojjUXc0cv8nB2Lp1SqsxHieM7St9gh6SKcDhtoB6KwTgdfyLYfL7/ORk9ZKt3gXk7EIIcRxqrNOody0dE+mnQ9Hd/1naOdQ/lOoHQCtDAq5aZHdAQBLP0NkZJ0QQghv07qX5qS5f9qfVTk2P39C7QBo7b9Mj9dOpuMZFhICWTpfWAghBKD7/ImL/GVYreLidYuG9J2F2gHQepglRljyhSNJCmj/DFp/tEIIIb5D615q4d7tGRYy6BrtAISUVOC/CvkjdwfAYQF/lHZRk3EIIcRxSu8E2gjegXZYIMre50+o31ClTgSV9fU6xTylvL5Ou6jJOIQQ4jil9/xpiPznT0Wdvc+fUHtWh4Cw0ymV19VGZBrgbyuvq9EtWmEyDgf4UMk2TgVOAXSPb7wFOBH4HPgM2GAiOCGOUz1QbXE0+m3yZ6htyV8A84C1RiJzjtbLlIV7t2ccqqvVLWq0A6DVA9teXkpWUmQvht92qFS36CGTcdjEh0qxeTnqrG0Tm2ZbAxc2XwA7gbeBl4ClBuoX4lg3FHWs+HloJsD5nhbA5OYLYC/wLvAisAgIGvgMO2m9TG0vLzMdh+O2lZfoFg2pAxDqFMA+nQg2lBzQKeYpBaXFukX3m4zDsHTgt8AmYD5wNWYe/keSBVwPLAHygdvQGE0S4hiXBtwBrAcWA9di5uF/JBnANGABUAjcDWgnPHGA1vNn4zHw/LHwM4T0/Am1A6A1jLv6wB6dYp5RXFPFzgrtF3kvDn1nAPegHvz34Hyyoh7AA8AO4C9AW4c/XwivSUe1xS3A79HMumpBNvC/wDZUm8xy+PNDoXUvLaooo6Sm2nQsjlp9YK9u0ZC+M1s7APN3btEp5hnzi7YQ1BsdqwB2GQ7HikTUzWUb6s3f7XmZZOBG1NvHXciOCXH8iUW9eR9uk2nuhkMi/2mT9wNeSuJShMY0QFMwyMJdW81H46DPd27WLbo+lP9kawdgbfE+9lZF2lq4/5hXpP3lb8A782rnAGtQw4teW5GZiLrZrAXGuRyLEE4ZAyxHvXl76UELEIfqlG8Aznc5lsOCQIFOwXk7tO/hriuqKLMyBbAxlP8UagfgazQeaEGCzChYHW4xT6hrbOTtQu3Fsl+bjEVTCvA6arFPZ3dDOaoc4GPg74B26ishPC4BeBq1Ej+k41pd1B54A3gFbyQ107qnvlW4hvqmRtOxOGLGRu1nZ5AQv69QOwC7CXFI4fteXr9Cp5jrZm8voLimSrf4pyZj0XAi6g/gwqP9R4/5KSru3m4HIoRh3VGL+652O5AwXYxqk/1djmOeTqH91ZXM2VZoOhZHvLphpW7RtaidHkcVTqokrV/Ayv27I3Ie5tEVX+oWDaL227rlMtSNJsfFGKzoiYp/gtuBCGHIRNRDtK/bgWjKRbXJqS7GMA/NadXHVy42HIr95u3YxJpi7QWAIb+A2t4BAPjDV24+D8P35e5tLNi5Vbf4KkLsfdngJuA5vDfXH64kYCZqRECISHYFaig90k+miUPl8rjNpc/fC6zTKfhZ0WaW7tlhOBx7PbBsvpXiIT+rw+kAfARoZVb4dMcmZm/TWsPhuCBBfrvY0gj+G6ZiCYMPeBB4hPB+p14WBfwNuNPtQITQ9GvgWTRz2XuQD7WN94Hmfztthm7BOxfN0d3R5bi52wut7KArA+aG+p/DeVhUA2+FHU6zW+Z/QE1jg25xx7y4brmVKYsg8Jq5aEL2f8CtLnyu3Xyon+0WtwMRIky3AffhzoPSbrehdjA47QU0pwG+3L2NV9drz6k7praxgVvmf2Clin+intUhCfeooTLUkFbYSmqrqWls4LSO3p2a3l5eykUfv05Ng3ZHZT7qLdxJ16L2+B/L8oDtQGSuKBXHm0uAxzk2H/6HjUI9D/7l4GeWAmOBTjqFF+7axoXd+pASiDMblUF3LPqYj62Nlv8Cda8MSbh/oD5UOletbFU+fMw462LO6uJ0squjq29qZOxbz/DV3iIr1VyC2jbjlAuBV7Fx2D8qEEtKx2zSOucQ37I1geQUomLjaKytoba8jOoD+yjdvJFDRVtpsvf0rXrgbGCOnR8ihEXjUVtvbRv290fHkNKhC2nZ3Yhv1ZrY5NR/t8m68kNUH9xP6ZYCyrZvpkn/NNNQNKHuQW/a+SHfcynqDAMtQ9t1ZM7EK4nRP+bdNrM2reOij/5pZaoiH3WgW8gV6PRQr0TNa2lJCcQye+JV9G/dTrcK44IEmf7pO7yYv9xKNZtRHSOn5jl6AF+hFswZ1bJbL7LzziVzyCja9BmIP+boifoaaqvZt+Irdi75gi1zZlG61ZY1HwdQWxwt9dKEsElHVIKflqYrTsvuTnbeBDKHnEJGv8FExR79Lbapvo59q5axc8l8tsx9l4MFthwCWA4MIsTEMwbEoJIUaacxv6h7P57Jm4TPQwM0y/ftYtw7z1Guf/ofqB1gL4VTQOcbiEFlZdIahgHISEji08nX0DXVeDvRcuei2TyyfJHVaqahknw4IR51uE4fUxVGBWLpdt7FnHDB1bTqYb3afauWse71pyn8YAZNZtd+LEAdWez9BSXieBKDOgJ7uKkK/dEx5Jx1PidMuYY2fQZaru9A/iry33iGjbNeo9Hag+b7VgDDAKfO350OPGmlgl8OGMH9w083FI41BaXFjH3rafZXax26e5jWC6jOOEgT6hd9tkZZACrr63ircA2nduhKRoLxF9iQNQab+MUXH/D4KsvTWNuAawCnUk49BpxpoiKfP4peU64h788vknPm+SSkZ5iolsSMTDqPPZvcCVOoKy+jeOMaI/WiOp5+4DNTFQphwP3ARUZq8vnoPvES8v78Et3Pm0pihplDARNaZ9Bp9Hi6T5xKY3U1B/JXQtDIyvi2qCOHPzRRWQhWo9aiaZ9psnj3dg7WVJHXMRefz72RgOX7djH+neetPvwBfoVGtkTdnzwaWAb00ywPqOmAZ/Imc3aXHlaq0VJaW8O0T2by/hatBIffNxm1b90JJ6Pegi3/1bbudSIjf/sX0k+w9GsMyZ5vFrPg3psp2WTk+65HZSbT2hcshGF9gG8wMO/fIqcno+75Cxn9h1iP6ij2r13Ogntu5ED+KhPVNaFGP5aYqCwEF6JSnVsyIbsnT502kVQXFgbO2rSOaZ++bXXYH9SDfwgaL6C6KyGaUAlvrsLCg6i2sZE3C9ZQVlfLyKzORPud2cL+1d4izp71AkutLfg77GPgNyYqCkE08A5gbQGFz0fvqdM57U/PkdjWmdM/k9p1oMekS6mvrGDf6mVWq4tCZVV73nJgQljjQz2Isq1WlHvOFMY9+hopHZw5pTuxTTu6T7qUpvo69qyw/Nz2AQOAZ3DmILS1wAgsfu8bSg4ws3AtQ9t1IDPRmUNSqxvquXPRbO5YOJta69OjTcAkNNdFWVkKuQPogPqlW7J0zw7eLFhNTotWdE1tZbW6H1RaW80di2Zz4+fvUVJr5JzoGtRpewdNVBaCG9HchnmYPybAmN8/Rb+rbsIX5exKWH90NB1G5hHXIp2iRZ9YHX7shFqLEpmnTYljxRXAzVYq8PmjGHn3nxl80934Y2LMRBXGZ2cNG0Ny+05s/2I2waYmK9W1A/YDS81Ed1RLUWuvLI28lNRW88K65RTXVDG0XQfiouzL2/TR1o1Mfv8V5mw3dj7BU6hD1LRYHUZORq1EN7avb1i7jtwyYKTRrYKH6mr5x5qlPPTNQkpqjDz4D7sOeMJkhT8iEdgCtNatIDountP/+irth59qLipNm2e/w7zbr7G6dXATajeELAgUbohBrX7vrFuBPybA2D8+Q5c894++2LFgLnNvvpQGay9He1Er9I3eaH/ETRjMvdIyLoGf9x3CdX2H0iLO3MGkX+7exkNfL+TDrRuM1QkUAgOBQ7oVmFj9MBBYhOH8831aZTC1R39+ktuHrKTwh2Yampr4vGgzr21YyazN+VSa3w87A7jAdKU/4hfAw7qF/dExnP7XV+k4yhsrXwEKP3yTz+6YZvWt41LgZUMhCRGOK1Bnb+jx+Rh9/5N0m2Bm7aAJ27/4mDk3TrW6c+dG4FFDIR2ND5WhdqLJSpNiApzb9QSm9ujPyEy96emiijJmbFzNKxtWsLZ4n8nwQI0+D8NicjRTyx+vx8ZfeI8WrRndPpve6RnkprWiY3IaabFxJAdiqW5ooLK+jv3VlRSWFrOx5ACLd29n4a6tVNiXBGMTquOjdTaChtjmz9SesB993xN0O8/Nw7yObOWzj7Dk4d9aqSIfdXywpV6EEGHyoxahag9VDv3V/fS9/HpzERmSP+N5Ftx7k5UqdqBOI7U1C9G3tEAthLNl8URyIJYRmZ0Y1q4j3dLSyUlLJz0+gaSYALFR0VTU11JSW8OO8lI2lhxg9YG9fLFzMxtKDtgRzmE/R52VYonJ/Q9/xuJcWIQ4AIwEjCxnD5Gl7Fc9Jl3GqP91qkMepmCQOTdNZes8S/mvz8K5LUhCgNoG/Z5u4S6nnUPeI94duPr8rulsfNfSsSZOZ0XNBRYCbRz8TLc8gZp+tszksvtbUAcRHMuqgHNx9uEPKsOTltTOOQy/648mYzHL5+OU+54goXVbK7VcaiocIUKk3SYT22Ryyu8eNxmLcSPuftjqbgSn22QBakF2hcOf67TXgRtMVWayA9CEahSzDdbpJTWo/f5fOvy5WcAY3cLDb/8D0QYXs9ghNiWNobfeZ6WK84A0Q+EIcTSpWEiENuz23xNITjUYjnnR8QmM+M1DVqrIw8KUpaalqHVZRtMcesjHwOUYnO40vfG+DpiAgQQNHlOB+rk+duGzL0Fzu2aXvAl0GJlnOBx75Jx1Pm0HamdRjUPthRXCCRei0nGHLfOkkWSPO89wOPZof/JYOo0er1vcD0wxGE6oPgLOwLn1WU6ZiVroaHRdhR2Zd+qAi7GwYt1j9qDm/Oe69PnaLfDEabeajMN2A6ffbqX4GabiEOIotNvkgJ/fYTIO2w287i7QT5XrVpv8HJUkaKdLn2/ao8D52HDWgl2p94KoNQE3ENnDMYtRKRbdOoc+HhiqU7DDyDxHUvyalDVsNK17a+eVGoONxyIL0cwPnKJTsE3fQWQOHmE4HHul9+xL+6GjdYufjBqdc8Oa5s93KjWxHWpQq/1vxKZdTnbfMB9D5Yc2lvbIIUHgr8BoYLuLcZyMZn6FHpO11yi5qvsk7bVD6aj0wELY6UTUtrOwHYdtMh61V90t21AjAfcSeduEC1DfneWtfj/GiTemb1DnRT+NMzmirdqKOmnvJpzbx/pDRuoUik1tQcdR40zH4oiuZ0wiKqCdU2qUyViEOAKtNhkdG0/2OKO5ahzT6dQzCWgkY2vmdptsAO5BreHa5m4oIWlCpfYdiAMjz04NmZahcjYPRqUO9qJ61Ft/H9xZ7HckJ+gU6nDyWCsPUVfFpqTRdoDWrAdAhwVeRgAAC0dJREFUT5OxCHEEWm2y7aDhVh6iroqOjSdr2Gjd4l5pkx+gYrkX705Lr0CNWEwHyp34QKfnTL9GDWv8DPWm7QWNwKuobHI34a19pFpZxjJPcrvTbY2F+M0dICHEkUmbDI+X2mQ1ajSgP2qnWtjH59pkM3ANaqR8sZMf7MaiqUbUCUbdULm0jZ6OEIY64FnUYTJTUYd6eIkflU4zbG36DTYcirMyTtQeAehhMg4hjkDrgZYR4W2yrX6b7Ib3FueuBy5CjeY8jxr9dUM+KndOd9Qxyo53SNz8xdQDL6Bu2oNQw+/FDnzuOuAOoCNwNd5doNgWjb3GPn8UqZ262hCOc9K65OoWbYfhQ6mE+JZ4IEOnYFp2N8OhOCu1cw4+jQNxgAS8m553I3Al6l77M9ShdnYrA15CJUrq1fxv104zte/g4/B83XzdAYwDTm2+ehmo+xAwH5iHyhfv1ohDuJK1CmV2iNj5/8MS0jMIJCVTV6E1DZaCOpNcCNO02mQgOZX4ltqneHtCdFw8iRmZVOwu0imegsqn4lUHUaPST6HWCYxHPX9Gofk7/5YgsBb1/PkUmIMN+/l1eaUDcFg18E7zBapnNgA1StAdNZzUGkhC/VGlor7MiuarGLVtb0PztQ61sCISz4vX+sOLTWtpOg5XxKa21O0AJCEdAGEPrTYZd4y0ybi0lrodgCTTsdgov/l6GPV8PBE1VdC9+eoItET9TEmoPAdlqBfNCtS9ZwNqdCEftQtur6M/QRi81gH4vj2ot/bj8aQ3rZtNTGIktbUfZuHnsNpjF+KHHOdtUrtpRWqbbEDtWvPqzjXLvLY4Q/xHjE4hf7RWMc+JignoFo3s+Q/hZcd1m/THaP8c2o1Z2Es6AN6ltR2xoarSdByuqK/U3o15yGQcQnyL1h9lvbRJR/a0i/BJB8C7tBqN5ry559RVad9svJTHQRxbtBpX/THSJi10AKRNepR0ALxLq9FU7Hbz6AIzGmtrqD6wT7e4jAAIu2i1yaoDe2ms9czCbz3BIBW7d+iWljbpUdIB8K79aJydUFdRTtV+L++4Obqy7ZsINmnlxKhG3jaEfQ6hsYUr2NTIoR1bbAjHORV7d+lOZQSBA4bDEYZIB8C7KoBdOgWLN6wxHIqzLMRfQGQcOCUiUxOaicMivU0e3LBat2gRUGUwFGGQdAC8TStp0e6vFpiOw1G7lszXLbreZBxCHIFWm9wV4W1yp7TJY5J0ALxNq/EULf7ccBgOCgbZ+a/PdUtHSpZHEbm02uTOSG6TWIpf2qSHSQfA277WKXRg3QpKtxaYjsURe1Ys0c02BprflxBh0PobK9+5jX0rIzOfTElhPgcL1uoWlzbpYdIB8LZ5ugULZr1mMg7HFLyrHXcj8IXBUIQ4ki9QawHCtlH/b9tVG9993Upx7XuYsJ90ALxtK6C1fDh/xnMRl4CkpvQghR/M0C3+NVBqMBwhjuQg6nyRsG189zVqSpw48NSchuoqNrz9km7xAtTZLMKjpAPgfZ/qFKopPcj6t14wHYutVr3wqJVOi7xpCKdotcmG6irWvPI307HYau1rT1nptEib9DjpAHif9ivx8r8/SE3pQZOx2KZy7y7WvvJ3K1X801QsQhyFdptc/dITVO7T2t3ruNqyElY+91crVUib9DjpAHjfJ6i9tGGrKT3IskfvMxyOPb78w+1W3v7XojksK4SGrwCtjf31lRX864+/NhyOPZY89D9W3v53Atp7B4UzpAPgfU3Aq7qF82c85/ktSJs+nsmWue9aqeJFU7EIEaJXdAtu+ngmm+fMMhmLcTsWzGXDOy9bqeIl1MJc4WE+twMQIekOrEOzwxbfqg2T31xAQuu2ZqMyoGzbJmZeMMrKQSM1QDaw21xUQhxVJrAZzeOnA0kpTJoxn5QOXcxGZUDl3l289ZMRVt7+G4GeqEWAwsNkBCAybABm6hauLt7H7OunWHnI2qKm9KCJuJ5FHv7CebuwMPJUV3GIj6ZPpvrgfoMhWVdfWcHsG6ZY3a3wBvLwjwgyAhA5+gPfYOF31n7YGMY99jpRsXHmotJUX1nBB9POZd+qZZaqAXKBbWaiEiIs2ajOebRuBW36Deasf8wiJiHRXFSaGmtr+Oja862k4gZ1Fkc/QPvwAOEcGQGIHCuA961UULT4Mz6aPpm6CndP56w+uJ/3rjzL6sMf1BuYPPyFWzZjYX0OwL6VX/H+VWdTU+LugXm1h0r54KcTrT78Ad5GHv4RQ0YAIks3YBWa846HtezWi9MfeZmUjtlmogpD8YY1zL35EhPHo5YBPYDIPvtYRLosIB9ItlJJaqeu5D3yMi1zTzATVRhKtxYw9+ZLKSnMt1pVNdAb1TESESDK7QBEWIqBAHCKlUqqi/ezcdarJGV2dO6GEwySP+N5Pvnl5abmPW9DEo0I95WjFqKOs1JJbVkJG995lfhWrUnv2Q98zrybFbz/T+bccBGVe43kJrgPeMdERcIZMgIQeeJRe5CNvL53GJnHyXc9aOtq5IMF61h0/63sXrbIVJXLgcHINiPhDdGoVNR9TVTWbtAIRtz9EC269jBR3RGVbdvEov/7FUWLtJIaHkkB6uevMVWhsJ90ACLTEFSSjYCJyvwxAbqeMYkBP/sVqZ1zTFQJwKEdW1j57CNsmPkyTY0NpqqtAYYCK01VKIQBvYElQIKJynx+P13yJjDourtIy+5uokoAynduZ/WLj5P/5vM01hp7VtcDo4EvTVUonCEdgMh1G/CAyQp9/ijan3wquedMofOYM4mOD/9eVldxiK2fvMfG915n91cLCTZpHZz2Y64CnjNdqRAGTAOeMlmhz+8n86SRqk2OPZtAUkrYddRXVbLtsw8peO91ir78jGCT8YGzW4CHTVcq7CcdgMjlQ+0KONOOyv3RMbTpO4h2A4fTIqcnqZ1zSEjPICYxiUBSCrWHSqmvqqRq/x5Kt2ykpHA9u5ctZP+a5XbcYA57EbjcrsqFMOAV4GI7KvZHRZPe+0QyB53c3CZzSWjdlkBiEoHkVOoqDlFfWUHVgb2UbSng4KZ89iz7kn2rv6apod6OkADeBc5Dbf8TQjgoBTX3GDwOrs8B9xMYCPHj4lHTc263FyeulUCqma9NCKGjNSoZids3Azuv1UALU1+YEDZLRS1Udbvd2HkVAhmmvjAhhL4c1Olbbt8U7LrRZJr7qoRwRBawCffbjx1XEYZ2IQkhzOgErMf9m4PJaxXqRipEJGqLSt/tdjsyeRUCXU1+SUIIM1qituK4fZMwcX2GzC+KyJcEzMH99mTiWoqachRCeFQS6ixut28WVq7HsJjuWAgPiQWexP12ZeV6HnD/xCIhREguAypw/8YRzlUGXGjHlyGEB0wESnC/nYVzVQE32fFlCCHs1RtYjPs3kVCuucjCInHsy0GdYeF2ewvlWgg4fzqREMIYH2o0YB/u31COdO1qjk+SUonjyTnAdtxvf0e6ilFv/XJcvBDHiFbAn1Cnl7l9gwkCB4F7sXiMqhARLBX4HVCK++0xCBxCpRdvaecPLYRwTzrqpuPWXOQ+4E5UFkMhhOoI/BrYj7udcXnwC3GciAPOB94D6rD3BtOAmuO/DEOnpQlxDIpFTQ28AdRib5ts5D9tUlb3C3EcawdcjTrIZDdmbjDbUVuHLkNNPwghQpeOOvjqBWAHZtrkLuBl1ImaksZXyMIrcUQ9gT5At+Z/Z6OGB5OarxTUlr2K5qsYlSFsPbARdUhIoeNRC3HsygX6At2br1y+2yZTUXP4h9vkQVQq4vWos0LWAPmORy2EEEIIIYQQQgghhBBCCCGEEEIIIYQQQgghhBBCCCGEEEIIIYQQQgghhBBCCCGO7P8Bk/pzFlhkiqMAAAAASUVORK5CYII=;fontFamily=Verdana;" parent="1" vertex="1">
          <mxGeometry x="387" y="181" width="86" height="86" as="geometry" />
        </mxCell>
        <mxCell id="Nmos6C9Gwye4AmpU9b0R-11" value="" style="shape=image;verticalLabelPosition=bottom;labelBackgroundColor=default;verticalAlign=top;aspect=fixed;imageAspect=0;image=data:image/png,iVBORw0KGgoAAAANSUhEUgAAAgAAAAIACAYAAAD0eNT6AAAABHNCSVQICAgIfAhkiAAAAAlwSFlzAAALEwAACxMBAJqcGAAAABl0RVh0U29mdHdhcmUAd3d3Lmlua3NjYXBlLm9yZ5vuPBoAACAASURBVHic7d13mFXlvfbx7wAWUHpRmhXEioCK2HtFjV2siaImxpZiTjQ5icbECCKJUY9HTTTl5MS8tpOEovTBBhEp0gTpMAy9DzBM2+8fS6IZ2jDsZ6+99/p+rmuuXDGw7oeJsH6s597PAkmSJEmSJEmSJEmSJEmSJEmSJEmSJEmSJEmSJEmSJEmSJEmSJEmSJEmSJEmSJEmSJEmSJEmSJEmSJEmS8lNBLX9eHaA7cC5wAtAJaAPsD+yVnqVJkqSvKAdKgGJgBjAeGAmMA6p292K7OwC0A+4FbgXa7m6YJElKuyLgf4D/AhbX9CfVdABoDvwCuAPYe7eXJkmSQtsCvAL8BFi9qx9ckwGgF/A80RAgSZKy20qip/Wv7+wH1d3J/1aP6HFCH6BB+tYlSZICagBcB7QEhrKDfsCOngDUJ5ocLguyNEmSlAkDgBuAzdX/h+0NAHWBN4CrAi9KkiSFN5Donl7x1X+4vS2AF4ha/pIkKfcdATQD3vnqP6z+BKAX8FqmViRJkjLmOuDNrf/lqwNAM2Am0CLTK5IkScGtIjq4bxX8+xbAr4Az41iRJEkKrsEXX+/Al08A2gFz8JAfSZLy2RbgcGBxnS/+wb1485ckKd/tA3wboicAdYD5QPsYFyRJkjJjMXDw1rf6efOXJCkZ2gIn1AHOi3slkiQpo86pA5wQ9yokSVJGnViH6IQgSZKUHJ3qAK3jXoUkScqo1gVEnwn0I4CSJCXHlgIglc4rzttUsesfJEmSdsuhDeql9Xp1dv1DJElSvnEAkCQpgRwAJElKIAcASZISyAFAkqQEcgCQJCmBHAAkSUogBwBJkhLIAUCSpARyAJAkKYEcACRJSiAHAEmSEsgBQJKkBHIAkCQpgRwAJElKIAcASZISyAFAkqQEcgCQJCmBHAAkSUogBwBJkhLIAUCSpARyAJAkKYEcACRJSiAHAEmSEsgBQJKkBHIAkCQpgRwAJElKIAcASZISyAFAkqQEcgCQJCmBHAAkSUogBwBJkhLIAUCSpARyAJAkKYEcACRJSqACYAuwd9wLkfLRvvXrc0DrNnQ65ljO73k5Pa++lgb77x/LWirKyxk64O8MGzSAKRPGs6RoEQCt27Wn8wknckHPy7ngsiuot9desayvqqqKwqHvMvQff2P82DEsKy5mw/p1saxFSoCyAmA10DTulUhJ0KLVAXzvp4/R6/Y7KSgoyFjukH/8jSd//DAL5sze6Y87pENHHnmiDxde/rUMrSwy9r3R/Pw/vsf0yZ9mNFdKsFV1gVuAVnGvREqCTRs3MmLwIObPmc05F19KvXr1guZVVVXR9yc/4mff/w7r1qze5Y9fu3o1A998ndLNmzn17HMzMqS88twzfK/311m+dEnwLEn/MrsucAFwVNwrkZJk5rSpzJs9i0uuuiboTbbPfz7Cy79+erd/3vgxH7GltJTTzz0/wKq+9KeXXuDxh75LKpUKmiNpGx/UBQ4Fwv4ul7SNWZ9Np2HjxnQ7uUeQ6w/5x9/42UPfqfXPHz/mI47ufDyHdzoyjav60qefjOPeW3qRqqoKcn1JO/XHAqAHMCbulUhJ1KhxEwqnzaRps+ZpvW5FeTnndztul3v+u3JIh44MGz85SDHw+gvOZtyHH6T9upJq5OQ6wMdAUdwrkZJo/bq1vP6HV9N+3WED/7HHN3+A+bNnMWzQgDSs6N99+sk4b/5SfBYC4+oAVcD/xLwYKbGGDfxH2q85dMDf03atEOsLcU1JNfZnILX1IKDngbIYFyMl1uQJ49Negvt0/Cfpu9Yn49J2ra0mT0jf+iTtli1E9/x/nQRYDLwc23KkBCsvK2Pt6lVpveayJcVpu9bS4sVpu9ZWy4rTtz5Ju+W/gSUAX/0Q8s+AG4H0tpEk7dLU9ZU0qleRtuulSONHCwvq8Om69K0NoMxTyKU4rAB+vvW/fPV34UrgzowvR0q4vffZl4ZNm6X1ms0OaJ22azVtdWDarhXympJ26dtEp/8C274M6G98sTcgKTMO79w17YcBdex6Ytqu1emE7mm71laHH98t7deUtFPPAm9+9R9s7zncd4GBGVmOJLpffHn6r3nRZWm71kkX9kzbtbY6OcCvWdIODQS+X/0fbm8AqACuBQaFXpGUdPs1asIFN30j7dc9+eIraNeh0x5fp81hHel+Ufpv1h27nMgxPU5P+3UlbWMA0T19myLPjpo4W4ArcTtACqrXQz9m/ybp3f8HqFuvHrf++Oe7/oE7UVBQwDd++iR1A72w6BuP9qFuTK8elhLiOeAqonv6Nuru5CdWAe8AU4FzgQZpX5qUYKddcS3f+GmfYC8DatehE1tKNzNjXO1O+r7m/h9w6e3fSvOqvtT8wDY0atqc8SPeDZYhJdRK4FbgV8AODxnZ2QCw1WfAK0QDQNca/hxJO3HWNTdy/zMvU69e2L8BH3/6OZRtKd2tIaCgoICr73uIWx95PPjrgDt2OZH9Gjdh8vsjfSmQtOfKgBeIHvlP2NUPrunNfDPR04BXiR4lHAw0ruUCpcRqesCB3Pn409z8w8eCPVr/qoKCArqceR6HHns8c6dMZMOa1Tv98W0O68j9v36JS2//VvCb/1adTujOcaedxfxpU1izfGlGMqU8s5Boy/5m4A2ie/Yu1fZ3eAFwEnD2F//ZCTiulteS8tbe+9anRZu2HHzksXS/+HJO6Xkl+zbYL5a1VJaX888hA/h4yEBmTxrPyiXRCX8tWrelY9cT6X7RZXS/6PKMDCbbk6qqYmLhMMYO/jszPhnLqiXFbFy/Npa1SFluKjCT6GV+hcA4dvKof0fSOeI/AzyYxutto0nLVvQfMobmrduGjJEkabcsX7SAhy4+lfVpPtZ7O/oDD6XjQuk8j/MhokkkmLUrlvPUXTdSXrbdQqMkSRlXVrqZvr17ZeLmPxJ4OF0XS2ehr4rosIHrgKZpvO6/WbVkMauKizj5kitCRUiSVCOpVIpn7r+DT98bETpqAXARUJKuC6a70b8ZeA+4DQhWb543bTLNDmzN4Z09TlSSFJ+3n3+agb8LfmROKXAxMDudFw3xkb6lRI3EqwJc+18mFA7juFPPomW7g0LGSJK0XZ++N5LnvvdNUqnd7t/trruIPomXViE/5/M8cG/A69O01QE8PWQMzQ9sEzJGkqR/k4ulv+pCDgB7AcOAswJm0OnEk3ni7WHU22vvkDGSJAFQumkjP7zsLBZ8NjV01AiiR//bnOOfDiFP9dt6lHAvoFGokFXFi9mwZjUnnn9JqAhJkoCo9PebB3oz5YPC0FFpL/1VF/pY343AR0RnEgc7XWT2pPE0b92Wwzt3DRUhSVJOl/6qy8S5/ovJQClwUuFwup59vocESZKCyPXSX3WZOew78iLwzZABTQ84kP7vjqHZga1DxkiSEiYfSn/VZXIA2Iuo0HBGyJAjT+rBL94aailQkpQW+VL6qy6Tr/bdWgq8kYClwJXFRWzasJ5u514UKkKSlBD5VPqrLpMDAES/sDHALQQsBX4+YRwt2rbnsOO6hIqQJCVAhkp/m8lA6a+6TA8AAEXAKqBnyJBJhcPpcvb5HhIkSaqVSaNH8Hwelf6qy2QHoLrfAneGDGjZtj39h4yhUfMWIWMkSXkmH0t/1aXzdcC76z7g45ABKxYvot83b6ayIiN9CklSHijdtJEnvn5NJm7+I0jj6313VxxbAFtVAoOISoENQ4UsX7SALZs20vXsC0JFSJLyRD6X/qqLcwCA6Bc+luikwGBrmTn+n7RqfzCHHnt8qAhJUh7I59JfdXEPAACLgHVA0MP8J44aRrdzL6TZAR4SJEnaVr6X/qqLswRY3SvAHSEDWrY7KCoFNmseMkaSlGMyWPp7GvhB6JCaiLMEWN29wLiQASuKFvL0t26hqrIyZIwkKYdkuPT3SOiQmsqGLYCtKoB3gZuB/UKFLFs4n/KyMo4/89xQEZKkHJGk0l912TQAAKwnA6XAGePG0K5DJw468phQEZKkHJCk0l912TYAQPTq4BKiSSmYCSOHctKFPWnSslXIGElSlkpa6a+6bCoBVvd74BshA1q1P5j+Q8bQsGmzkDGSpCyTxNJfddlUAqzuHmB8yIDlixbQ/55bLQVKUoKUbixJZOmvumzcAtiqAhhC4FLg0gXzqKqsovPpZ4eKkCRliVQqxTP392bKh4WhoxYAF5JFpb/qsnkAgOiAoAnATQR8WvHZxx/S/oijOKjT0aEiJElZICr9/VfomK2lvzmhg/ZEtg8AAPOAUiDoYf4TRg6l+0WX0bhFy5AxkqSYJL30V102lwCrew3oFTKgzWEd6PfOB+zXqEnIGElShln621Y2lwCru4NoOyCY4rmzefqblgIlKZ9Y+tu+XNgC2KoCGArcAjQIFbJ0/lwKCupw7KlnhoqQJGWIpb8dy6UBAGAtMJHokwHBnl5MG/s+Bx95DO2POCpUhCQpA956rh+DXrH0tz25NgAAzAXKgfNChkwYOZSTL76cxs0tBUpSLpo0egTPf/9bmSj93QYMCx2SbrlUAvyqAuCvwPUhQ9oefgT9Br9Pg0aNQ8ZIktLM0t+u5eITgK3eBa4Agh3mv2HNKhbNmsHpV1xLQUGuzkqSlCylG0v46fWXsnzRgtBRI4DbgarQQSHk8gBQBgwnenPgvqFCFs/5nLr16nLMKWeEipAkpYmlv5rL5QEAYDVRKTDoSYFTx7xPh85daXN4x1ARkqQ0sPRXc7k+AMCX/wecEywhlWLcsMH0uOQKGjVvESxGklR7lv52T75sbBcArwPXhgxp16ETTw1+nwYNG4WMkSTtpgyW/voB/xE6JBPy4QnAVu8CXwOCfW5v/epVFM2ayelfsxQoSdnC0l/t5NMAsLUUeBshS4GzZ7LX3vtw9MmnhYqQJNWQpb/ay6cBAGAVMB24gYDbG1M+Gk3HLifQ5rAOoSIkSTVg6a/28m0AAJhJ9Os6K1hCKsWEEUM4pedVNGzaLFiMJGnHLP3tmXzdyC4A3gSuDhly8FHH0nfgaPZtsF/IGElSNcsXLeD7F53ChjWrQ0flTemvunx8ArDVO8CVBCwFrlu5nMWzP+e0K66xFChJGWLpLz3yeQD4ailwn1AhRbNmsG+D/TjqpFNCRUiSvmDpL33yeQCAqBT4GYFLgZM/GMUR3U6i9aGHh4qQJGHpL53yfQCAqBS4NxDuMP9UivEjhnDa5Vezf5OmwWIkKcks/aVXUjau6wADgEtDhhxyTGf6Dihkn/oNQsZIUuJY+ku/JDwBAEgRlQKvAYJ9bm/timUsX7SAU3peGSpCkhKndGMJP7nuElYULQwdldelv+qSMgAAlPLl64ODlQIXfDaVBo0a0emEk0NFSFJibC39Tf1wdOiovC/9VZekAQBgJVEn4HoClwKPPvk0DjjokFARkpQIGSz9XUSel/6qS9oAADADaAAEO8w/VVXFJ8MGc9rl17B/4yahYiQpr1n6CyspJcDq6gADgUtChhx6zPH0GTDKUqAk7SZLf+El8QkAfFkKvJbApcAVRQs55VJLgZJUU5b+MiOpAwBEez6FRI9+9g4VsuCzqTRs2owjup0UKkKS8oalv8xJ8gAAsAyYR/TxwGA+fW8Ex55yBq3aHxwyRpJynqW/zEn6AAAwFWgEBDvMP1VVxYSRQzjjyutp0LBRqBhJymmW/jIrqSXA6uoCg4gmwmAOO7YLfQaMYu9964eMkaScY+kv83wCEEkBg4nOBwh2mP+a5UtZsXgRPS79WqgISco5lv7i4QDwpc3AaKJHQ3uFCpk/fQpNWh1Ah+NPCBUhSTnD0l98HAD+3VKif0muDhkycfRwjjv1LFq2OyhkjCRlvbeefYpBr7wQOsbS33Y4AGxrCtHZAMEO8/9XKfCqG2iwf8NQMZKU1TJU+kth6W+76sS9gCz1faIzAoJZs3wZT93Zi/KyLSFjJCkrLV+0gP733EpVZWXoqH7AX0OH5CKfAGxfFdFJgb2AxqFCVi1ZzIbVqzjxgktDRUhS1omh9Bf8c4W5yAFgxzby5UmBwUqBsz+dQLPWbTi8c9dQEZKUNWIo/W0MHZSrHAB2bimwELgqZMiEUUPpfNrZtGzbPmSMJMXO0l/2cADYtclAKyDYYf6pqiomjBrCmVfeQH1LgZLylKW/7GIJsGa+A7wXMmDNsqU8dfeNVJSXhYyRpFhY+ss+PgGoma+WAoMd5r+yuIiN69ZywnkXh4qQpIzLYOlvOJb+aswBoOY2AmOAW4F6oUJmTfyEFm3acdhxXUJFSFLGZLj0dxGW/mrMAWD3FAGLgCtDhkwaPZwuZ59P8wPbhIyRpOAs/WUv3wZYOy8Bd4cMaNGmHf2HjKFxi5YhYyQpmEmjR/D4zVeE3vdPATfhvv9uswRYO/cBH4QMWFlcRJ87rrcUKCknWfrLfm4B1M7WUuBNQLDP7a0sLmJzSQndzrkwVIQkpZ2lv9zgAFB7JXxZCgz2ffx8wse0bHcQhx17fKgISUqbDJb+5mPpb484AOyZImANEPQw/0mFw+h6zgU0sxQoKctlsPR3MZb+9oglwPT4HdA7ZEDLtu3pP2QMjZq3CBkjSbVm6S+3WAJMj/uAj0MGrFi8iKe/dQuVFRUhYySpVpYtnG/pL8e4BZAeFcAgApcCly2cT1npZrqcdX6oCEnabaUbS/jp9Zb+co0DQPqUAGOBWwj4fZ3xyVhaHXQIhx7TOVSEJNWYpb/c5QCQXouADUTllGAmFg6j23kX0eyA1iFjJGmXLP3lLkuAYbxK9JgqmJbtDopKgc2ah4yRpB3KYOnvRuD/hQxJIkuAYXwb+CRkwIqihZkq3EjSNjJY+nsKb/5BuAUQRgUwhKgPsF+okGUL5lFRXs7xZ5wbKkKStpHh0t8dWPoLwgEgnHXAeOBmAj5pmTFuDO07HslBnY4OFSFJ/2LpL384AIQ1D9gEBD3Mf8KooXS/sCeNW7QKGSNJlv7yiCXAzPgD8PWQAa3aH0z/IWNo2LRZyBhJCWbpL79YAsyMe4i2A4LJ4Ks3JSWQpb/84xZAZny1FNggVMjSBfNIVaU47vSzQ0VISiBLf/nJASBz1gETCFwKnP7PD2l/xFGWAiWlhaW//OUAkFnzgC1A0MP8J4wcSveLLqNxi5YhYyQlwJvP9rX0l6csAWZeAfAacEPIkDaHdaTfO++zX6MmIWMk5TFLf/nNEmDmpYDewJSQIcVzZ/HM/b1JVVWFjJGUpyz95T+3AOJRDrwD3ErAUmDxnFkUFBRw7KlnhoqQlIcs/SWDA0B81gITgZsI+CRm2tj3OfjIY2h/xFGhIiTlEUt/yeEAEK+5QCUQ9DD/CSOHcvLFl9O4uaVASTtn6S85LAHGr4Bo/+u6kCFtDz+CfoPfp0GjxiFjJOUwS3/JYgkwfimiPbBpIUMWz/mc3zx4J6mUW22StmXpL3ncAsgOZcAwolLgvqFCFs/+nLr16nFMjzNCRUjKQZb+kskBIHusBiYRPRoL9mRm6pj36XB8N9oc1jFUhKQcYukvudwCyC5DgJ+HDEhVVfHMfXewZJ7dG0lR6e/Df7wZOmYzcA2wMnSQas4SYPYpAN4g+s0STLsOnXhq8Ps0aNgoZIykLDZp9HAev/lrlv4SyicA2ScF3A5MDxlSNHsmzz54l6VAKaGi0t9tlv4SzA5AdioDRhC4FFg0eyb77Fufo7qfGipCUhay9CdwAMhmq4ieAtxAwK2ayR8WckTXE2l9aIdQEZKyiKU/beUWQHb7B/BEyIBUVRW/+vY3WDp/bsgYSVkiQ6W/jcAVWPrLapYAs18d4O/AZSFDDjn6OPoMKGTfBvuFjJEUI0t/+iqfAGS/KqIXBn0WMmT+9Cn85v7elgKlPFU8dzb97r4lE6W/vnjzzwl2AHLD1lLgbcA+oUKKZs2gwf4NOfLEHqEiJMWgdGMJj/bqycrFi0JHWfrLIQ4AuWMlMIPQpcAPRnFEt+60PuTwUBGSMsjSn3bELYDc8jeix2vBVFVW0v+er7NswbyQMZIyxNKfdsQSYO6pAwwELgkZcsgxnek7oJB96jcIGSMpIEt/2hm3AHJPChgMXAs0CxWydsUyVixawCk9rwwVISmg4rmzeazXZZSVbg4d1Rf4TegQpZ8DQG4qBQqJSoF7hwpZ8NlU9mvchE4ndA8VISmADJb+hgG9sfSXkxwActcyolLg9YQsBb4/kmN6nE6r9geHipCURqlUimfuu4OpH2Wk9Hcxlv5yliXA3PY20D9kQGVFBX3v7MWyhfNDxkhKkzef7cuHA94KHWPpLw9YAsx9dYlKgReHDDns2C70GTCKvfetHzJG0h6w9Kfd4RZA7ksB7wDXAU1DhaxZvpQVixfR49KvhYqQtAcs/Wl3OQDkh83AaKJS4F6hQuZPn0Kj5i3o2PXEUBGSasHSn2rDASB/LCMq5VwTMmTSeyM4tscZlgKlLGHpT7VlCTC//AV4JmRAZXk5/b55M6uWLA4ZI6mG3vhNH0t/qhUHgPzzA2BUyIC1K5bT985elJdtCRkjaRcmjR7OX5/+ReiYFNFj/ymhg5RZbgHknyqiTwUELQWuWlLMysWL6HGJpUApDpb+tKccAPJTxkqBTQ84kA7HdwsVIWk7LP0pHRwA8tdSYCFwdciQiYXDOO7Us2jZ7qCQMZK+YOlP6WIHIL/9GXg+ZEBleTn97r6JVUuLQ8ZI+kKGSn8lWPrLew4A+e97RNsBwaxZvoyn7rrRUqAUmKU/pZNbAPmviuikwF5Ao1Ahq4oXs2HNak48/5JQEVKiZbD01wd4NnSI4ucAkAwbyUApcPan42neui2Hd+4aKkJKJEt/CsEBIDmWAIuAq0KGTCocTtezz6d567YhY6TEsPSnUOwAJMufgBdDBpSXbeGXt1/H6qVLQsZIiWHpT6E4ACTPA8D7IQPWLFvKU3ffSEV5WcgYKe9Z+lNIbgEkz9ZS4I0ELAWuLC5i4/p1nHDuRaEipLxm6U+hOQAkUwnwEXArUC9UyKyJ42jRtj2HHdclVISUlyz9KRMcAJKriGi/77KQIZMKh9Pl7PNpfmCbkDFS3rD0p0yxA5BsLwK/DRlQtqWUvr17sW7lipAxUt6w9KdMcQDQvcAHIQNWFhfRp/cNVJaXh4yRcp6lP2WSWwCqAt4lKgU2DBWycvEiSjdupOs5F4SKkHKapT9lmgOAIHocOJaoFBjs34mZ4/9Jq/YHc+ixx4eKkHJS6cYSHr3hUlYWW/pT5jgAaKtFwFrg0pAhE0cNo9u5F9LsgNYhY6Sc8WXp773QUfOBi7D0py/YAdBXPQ+8EjKgbEspfXr3Yv3qVSFjpJyRwdLf5YC/8fQvDgCq7j5gXMiAFUULefpbt1BZUREyRsp6GS79TQ0dpNziFoCqqyAqBd4M7BcqZNnC+ZSXbaHLmeeFipCymqU/xc0BQNuzHhgD3ELIUuAnY2nXoRMHHXlMqAgpK1n6UzZwANCOLCLaN7w4ZMgnw9+l23kXWQpUYlj6U7awA6CdeQb4fciAstLN9LUUqASx9Kds4QCgXfk2MD5kwPJFC/jVt2+jqrIyZIwUO0t/yiZuAWhXKoAhBC4FLl0wj8rKSjqffk6oCClWlv6UbRwAVBPrgAnATQR8avTZxx/RvuORHNTp6FARUiws/SkbOQCopuYBpUDQw/wnjBpK9wt70rhFq5AxUsZY+lO2sgOg3dEP+GvIgNKNJfTpfQMb168NGSNlzBvPPGnpT1nJAUC76w6i7YBgiufOpt/dt1gKVM6bNHo4f+3/ROgYS3+qFbcAtLsqgKFEhwQ1CBWydMFcoIDjTjsrVIQUVAZLf08Cz4UOUf5xAFBtrAUmEn0yINhTpOljP+CgTkfT/oijQkVIQWS49Hcnlv5UCw4Aqq25QDkQ9DD/CaOG0v2iy2jcomXIGCltLP0pV9gB0J7oA7weMmBzyQb63HEDm9avCxkjpY2lP+UKBwDtiYyUj4rnzuKZB3qTqqoKGSPtMUt/yiVuAWhPlRG9PjhoKXDxnM+pU7cOx55yZqgIaY9Y+lOucQBQOqwFJhH4pMBpYz+gQ+eutDm8Y6gIqVYs/SkXOQAoXeYQ/aEU7jD/VIpxwwbT45IraNS8RbAYaXdY+lOusgOgdPoF8GbIgM0lG3jy9uvZtGF9yBipxiz9KVc5ACidUsDtwLSQIYvnfM5vHuhNKuVTUMVrYuEwS3/KWW4BKN3KgOHAbcC+oUIWz/6cvfbam6N7nB4qQtqp4rmz+Vmvyy39KWc5ACiEVURPAW4ACkKFTPnoPTp2OYE2h3UIFSFtl6U/5QMHAIXyOdEW09nBElIpJowYwik9r6Jh02bBYqSvymDpbx6W/hSQHQCF9DPg7ZABJevW8MTXr7EUqIzJYOnvCiz9KSAHAIWUAr4BTA8ZUjRrBs8+eJelQAVn6U/5xC0AhVYGjABuJWApsGj2TPat34Cjup8aKkIJVzx3lqU/5RUHAGXCKuAzApcCJ39QyBFdT6T1oZYClV5R6a+npT/lFQcAZcpMYC8g3GH+qRTjRw7l1MuuYv8mTYPFKFks/Slf2QFQJv0UGBQyoGTtavr0voHSTf4ZqvSw9Kd85RMAZVIKeAe4Bgj2ub21K5azbNECTu15VagIJcTEwmG88IN7QxdMU0QHZ40KGSJV5wCgTCsl2ue8DdgnVMjCGdOo37AhR57YI1SE8lwGS3+/xNKfYuAAoDisJOoEXE/IUuD7oziiW3daH3J4qAjlKUt/SgIHAMVlBlAfCHaYfyqVYvyIIZx2xTXs37hJqBjlmVQqxa/vvZ2pYyz9Kb9ZAlScfkTUCQimZO1q+txxA1s2bwoZozzyxjNP8tHAoAdYgqU/ZQGfAChOKWAwcC1BS4HLWLFoAaf0vDJUhPKEpT8liQOA4lYKFBL9gbh3qJAFn01l/yZNOaJb91ARynGW/pQ0DgDKBsuI9kOvCRny6fsjOabHu53SYAAADzhJREFU6bRqf3DIGOUgS39KIjsAyhavAf1DBlRWVNDvmzezsrgoZIxyTCqV4tnv3M3CmUHfWQXRkHsjUBk6SKoJBwBlkx8CQ0IGrFu5gl9+/dpMPOZVjnj917+09KdEcgtA2WRrKfA6INhh/muWL2XF4kX0uPRroSKUIyz9KckcAJRtNgOjif7A3CtUyPzpU2jSshUdupwQKkJZztKfks4BQNloGbAAuDpkyMTRwzn2lDNp1e6gkDHKQhks/Q0F7sLSn7KQHQBlq/8Fng0ZUFleTr+7b2LV0uKQMcoyGSz9zQJuwNKfspQDgLLZ94nOCAhm7YrlPHVnL8rLtoSMURbJYOnvamBt6CCpttwCUDarAgYSvTQo2GH+q5YsZv2qlZx0waWhIpQlLP1JX3IAULbbDLxH4FLgnMkTaNa6DYd37hoqQjGz9Cf9OwcA5YKlwELgqpAhE0YNpfNpZ9OybfuQMYqBpT9pW3YAlCv+B3ghZEBleTlP3XUjq5cuCRmjDLP0J22fA4ByyXeItgOCWbN8GX3v6kVFeVnIGGWQpT9p+9wCUC6pAt4BegGNQoWsKl5Mydo1nHDexaEilCEZLP3dSuBPrEjp5gCgXLMRGEP0B269UCGzJn1CizbtOOy4LqEiFFiGS3/Phw6R0s0BQLmoCFgEXBkyZNLo4XQ56zyat24bMkYBWPqTds0OgHLVH4GXQwaUbSnll7dfx5plS0PGKM0s/Uk14wCgXHYf8H7IgDXLlvLUXTdaCswhlv6kmnELQLlsaynwRgKWAlcWF7G5ZAPdzrkwVITSxNKfVHMOAMp1JXxZCgz27/PnEz6mZbuDOOzY40NFaA9lsPT3BJb+lAccAJQPioDVQM+QIZMKh9H1nAtodmCbkDGqBUt/0u6zA6B88QLwu5ABZVtK6du7F+tXrQwZo91k6U+qHQcA5ZP7gXEhA1YsXsTT37qFqkrvAdnijWeezETpbwPRuygs/SlvuAWgfFJB9Prgm4CGoUKWLZxP/f0bcuRJp4SKUA1Z+pNqryDuBUgBnAkMJ+Drg/ep34DfjvucRs1bhIrQLhTPncVDl5zOpvXrQkc9Afxn6BAp03wCoHy0AFgHXBIqoLKinPoNG3JMjzNCRWgnNpds4KfXXcKqJYtDRw0G7sbSn/KQHQDlq2eBP4UMGDd0cMjLayee/c7dFM2aETpmFnAz0XkTUt5xAFA++xYwPtTF50yeQGV5eajLawdGv/0aYwb9X+gYS3/Kew4AymebiY5rXRHi4lWVlazzI4EZVVVZyV/6/ix0TAroDUwLHSTFyQFA+W4h0IvoEwJpV7ppY4jLagc+Gf4OyxbODx3zS+CN0CFS3BwAlAQjgR/GvQjtuUmjh4eOGAo8GjpEygYOAEqKXwF/iHsR2jPzp08JeXlP+lOiOAAoSe4Flse9CNXehjWrg10aS39KGAcAJckmovMBlKMqK4J86sLSnxLJAUBS0j2BpT8lkAOApCQbCjwW9yKkODgASEqy72LpTwnlACApyTzKUYnlACBJUgI5AEiSlEAOAJIkJZADgCRJCeQAIElSAjkASJKUQA4AkiQlkAOAJEkJ5AAgSVICOQBIkpRADgCSJCWQA4AkSQnkACBJUgI5AEiSlEAOAJIkJZADgCRJCeQAIElSAjkASJKUQA4AkiQlkAOAJEkJ5AAgSVICOQBIkpRADgCSJCWQA4AkSQnkACBJUgI5AEiSlEAOAJIkJZADgCRJCeQAIElSAjkASJKUQA4AkiQlkAOAJEkJ5AAgSVICOQBIkpRADgCSJCWQA4AkSQnkACBJUgI5AEiSlEAOAJIkJZADgCRJCeQAIElSAjkASJKUQA4AkiQlkAOAJEkJ5AAgSVICOQBIkpRADgCSJCWQA4AkSQnkACBJUgI5AEiSlEAOAJIkJZADgCRJCeQAIElSAjkASJKUQA4AkiQlkAOAJEkJ5AAgSVICOQBIkpRADgCSJCWQA4AkSQnkACBJUgI5AEiSlEAOAJIkJZADgCRJCeQAIElSAjkASJKUQA4AkiQlkAOAJEkJ5AAgSVICOQBIkpRADgCSJCWQA4AkSQnkACBJUgI5AEiSlEAOAJIkJZADgCRJCeQAIElSAjkASJKUQA4AkiQlkAOAJEkJ5AAgSVICOQBIkpRADgCSJCWQA4AkSQnkACBJUgI5AEiSlEAOAJIkJZADgCRJCeQAIElSAjkASJKUQA4AkiQlkAOAJEkJ5AAgSVICOQBIkpRADgCSJCWQA4AkSQnkACBJUgI5AEiSlEAOAJIkJZADgCRJCeQAIElSAjkASJKUQA4AknLGls2b033J8nRfUMoVDgCSckLZllJWL1uS7suuTfcFpVzhACApJ0wYOYRUVVU6L1kJrE/nBaVc4gAgKeulqqr4+4u/Sfdl1wBpnSikXOIAICnrvf7Mk3z28Ufpvuy0dF9QyiX14l6AJO1IRXkZf3j8EQb+7r9CXH5CiItKucIBQFJWmjb2A156+AEWzpweKuKTUBeWcoEDgKSssmb5Mv7480cY/dZrpFKpUDFVQGGoi0u5wAFAUlZIVVVR+NZrvProD9iwZnXouPeA4tAhUjZzAJAUuzlTJvLSww/w+YRxmYp8I1NBUrZyAJAUm5J1a/jzL3/KkD+/ku7P+O/MRuD1TIVJ2coBQFLGpVIpCt/8C394/GHWrVyR6fiXgZWZDpWyjQOApIwqnjuLlx55kE/fGxlH/BagfxzBUrZxAJCUEaWbNvL/+j/BP377HJXlsb2D5zlgcVzhUjZxAJAU3Lihg3j5x99lRdHCOJcxD3gszgVI2cQBQFIwyxbM4+Uff5fxI96Neykp4G6iAqAkHAAkBVBetoX/+6/+vPlsP8pKN8e9HIAngOFxL0LKJg4AktJqyoejeemRBymaNSPupWz1NvBo3IuQso0DgKS0WL10Ca8+9h988PesOmNnLHArvvZX2oYDgKQ9UllRweDfv8hr/R5n04b1cS/nq0YBVwKb4l6IlI0cACTV2oxxY3nxkQeYP21y3Eup7nWiv/mXxb0QKVs5AEjabSXr1vDXp3/BoFf/O5NH+NZEKdFH/frhY39ppxwAJNVYKpVixGt/5I+/+FEm3ti3uyYDNwNT416IlAscACTVyPzpU3jx4fuZMW5s3EupbhPR3/ifJDrqV1INOABI2qnSTRv52wu/5s1nn6KiPOu21AcC9wEL4l6IlGscACTt0Lihg3jpkQdZWVwU91Kqmws8AAyKeyFSrnIAkLSNJfPm8Nsff5cJo4bGvZTqyoH/Bn4MlMS8FimnOQBI+pey0s28/Xx/3n7+acq2lMa9nOoKgXuB6TGvQ8oLDgCSAJj8QSEvPfwAi+d8HvdSqlsCPAz8D9FLfSSlgQOAlHCrly7hT0/8mMI3/xL3UqqrAn4H/ADIqiMGpXzgACAl1NYjfP/y1M/YXLIh7uVUNx64BxgX90KkfOUAICXQ9H9+yIsPP8DCGdPiXkp1a4CfAc/hSX5SUA4AUoKUrF3Nn574CcP+91VSqazaTk8Bfwa+D6yIeS1SIjgASAmQSqUofPMv/P6x/2D96lVxL6e6ycC3gQ/jXoiUJA4AUp6bN+1TXvzh/cwc/3HcS6lu6xG+v8S39kkZ5wAg5alN69fxl36PM/j3L1JVWRn3cqobSPSZ/oVxL0RKKgcAKQ+NGzqIFx9+gFVLFse9lOrmAPcD78S9ECnpHACkPFI8dzYv/+g7TBo9PO6lVFcG/Bp4DMi6IwalJHIAkPLA1iN833quH+VlWfdG3JFEj/tnxL0QSV9yAJBy3Lihg/jtf36P5Yuy7o24xcAjwJ/iXoikbTkASDlq1dJiXvnJQ3w08O24l1JdBfAC8J9A1h0xKCniACDlmMrycgb/4SX+t+9jlG7MujfifkD0mf4pcS9E0s45AEg5ZNqY93npkQdZODPr3oi7Gngcj/CVcoYDgJQD1ixfxh9//gij33otW4/w/R6wMua1SNoNDgBSFktVVVH41mu8+ugP2LBmddzLqW4S0eP+MXEvRNLucwCQstScKRN58YcPMGti1r0Rdx3wKPA8kHVHDEqqGQcAKctsXL+W1/r9PJuP8L0HKIp7IZL2jAOAlCW2vrHvD48/zLqVWfdG3FnAfcDQuBciKT0cAJQ0aW2oV1Wl52/oC2dM48WHH2D6P7PujbibgCeAp/GNfVJecQBQ0qxP58U2rF61Rz+/dGMJf+3/BAN+9zyV5eVpWlXaDAAeAObHvA5JAdSJewFShq1J58VmjKt9AX7MoP/j3jOO52///etsu/kvAK4ErsCbv5S3HACUNGvTebGh//sqFeW792R86fy5PH7z1+h7543Z9rreMqAPcDTw95jXIimwunEvQMqwk4DT0nWxkrVr2FxSQrdzLtzljy3bUsqbz/blV/d8naLZM9O1hHQpBC4H/gpk1eMISWE4AChpmgPXpvOCn0/4mE0b1tP59LOpU3f7v6UmjR7OE7ddzZhBf6OysiKd8XtqKdHH+h4Csu6jB5LCKYh7AVKGdSD6SFvatet4JD3vuIfjTjuLAw85jJK1a5nxyRje/eNvmTR6eIjIPVEJvEj0xr60botIkpSNCoj+pptK8NfHwAl7+o2UJCnXvEz8N+E4vtYAD+LWnyQpoc4j/ptxpr9eB1ql45snSVKuqgssIf6bcia+pgJnpufbJklS7nuE+G/OIb82Ao8Be6fp+yVJUl7YD1hO/DfqEF8DgIPT962SJCm/PEz8N+t0fs0BLk3rd0iSpDy0DzCZ+G/ce/pVBvyG6KmGJEmqga5EN9C4b+K1/RoFHJX274okSQnwKPHfyHf3azFwQ4hvhiRJSVEA/In4b+o1+SonetzfKMh3QpKkhNkLGEr8N/idfX1C9DZDSZKURo2B0cR/o6/+tRK4E1/eJUlSMHsDfyT+m34KqCLammgZ9FcsSZKA6G/aPyLeTwdMAk4N/QuVJEnb6gyMI7M3/hI8wleSpNjVA34IrCbsjX8L8BzQOjO/LEmSVBMNiQaBpaT3xl8KvIJn90uSlNX2Ba4GXgM2ULubfiVQSNTsb5LR1UvSF/xYkVR79YEeQLcvvo4CmgNNiZ4YbCbaOlgDLAI+JuoUfAysiGG9kiRJkiRJkiRJkiRJkiRJkiRJkiRJkiRJkiRJkiRJkiRJkiRJkiRJkiRJkiRJkiRJkiRJkiRJkiRJkiRJUt77/0dp9c/tjabpAAAAAElFTkSuQmCC;rotation=-90;" parent="1" vertex="1">
          <mxGeometry x="230" y="345" width="72" height="72" as="geometry" />
        </mxCell>
        <mxCell id="Nmos6C9Gwye4AmpU9b0R-14" value="Batch Ingestor" style="text;html=1;align=center;verticalAlign=middle;whiteSpace=wrap;rounded=0;fontFamily=Verdana;" parent="1" vertex="1">
          <mxGeometry x="210" y="422" width="100" height="30" as="geometry" />
        </mxCell>
        <mxCell id="Nmos6C9Gwye4AmpU9b0R-16" style="edgeStyle=orthogonalEdgeStyle;rounded=0;orthogonalLoop=1;jettySize=auto;html=1;exitX=0;exitY=0.5;exitDx=0;exitDy=0;entryX=0;entryY=0.5;entryDx=0;entryDy=0;strokeWidth=3;endArrow=block;endFill=1;curved=1;strokeColor=#A1A1A1;opacity=50;" parent="1" source="Nmos6C9Gwye4AmpU9b0R-15" target="Nmos6C9Gwye4AmpU9b0R-2" edge="1">
          <mxGeometry relative="1" as="geometry">
            <Array as="points">
              <mxPoint x="340" y="533" />
              <mxPoint x="340" y="381" />
            </Array>
          </mxGeometry>
        </mxCell>
        <mxCell id="Nmos6C9Gwye4AmpU9b0R-15" value="Transformer" style="shape=image;verticalLabelPosition=bottom;labelBackgroundColor=none;verticalAlign=top;aspect=fixed;imageAspect=0;image=data:image/png,iVBORw0KGgoAAAANSUhEUgAAAgAAAAIACAYAAAD0eNT6AAAACXBIWXMAAA7DAAAOwwHHb6hkAAAAGXRFWHRTb2Z0d2FyZQB3d3cuaW5rc2NhcGUub3Jnm+48GgAAFHhJREFUeJzt3XuspHV9x/HP4nJTue3CbkVsom0QrAkQtZc0XmIabVE0KFZbWkvUuqSmTfuHNbXEpE29NW1KvdSAYG/SIlUKtmioWoqk1FTAu4jWCogVwRYXFLm4e/rH7CbkuHuYmed55jfzfF+v5Ekk7nme7zk7M9/3mZlzNgEAAAAAAAAAAAAAAAAAAAAAAJrZ1HoABnFEktckeWGSJ+75b4BZ7ExyU5LLkrwzyd1tx6FvAmB8np3k4iTHtB4EGI07krwsyVWtB6E/AmBcnpnkX5Ic1HoQYHQeSPJzSa5pPQj9EADj8cgkX0lybOtBgNG6LcnxSb7fehC6O6D1APTm12L5A8M6LsnLWw9BPwTAeJzWegCgBI81IyEAxuPHWw8AlOCxZiQEwHg8qvUAQAmHtR6AfggAAChIAABAQQIAAAoSAABQkAAAgIIEAAAUtLn1ALR125UvyGOOPqT1GMCCffPb9+W4536w9Rg05BkAAChIAABAQQIAAAoSAABQkAAAgIIEAAAUJAAAoCABAAAFCQAAKEgAAEBBAgAAChIAAFCQAACAggQAABQkAACgIAEAAAUJAAAoSAAAQEECAAAKEgAAUJAAAICCBAAAFCQAAKAgAQAABQkAAChIAABAQQIAAAoSAABQkAAAgIIEAAAUJAAAoCABAAAFCQAAKEgAAEBBAgAAChIAAFCQAACAggQAABQkAACgIAEAAAUJAAAoSAAAQEECAAAKEgAAUJAAAICCBAAAFCQAAKAgAQAABQkAAChIAABAQQIAAAoSAABQkAAAgIIEAAAUJAAAoCABAAAFCQAAKEgAAEBBAgAAChIAAFCQAACAggQAABS0ufUAAzgyyQuT/EySLY1nWaSjWg8AlHBUkktaD7FA/5fk2iSXJ9nZeJZejS0Azk7ypliGAEM5NMlLWg+xYDsyCYHfS3J+41l6M6aXAP44ybti+QPQvy1JzkvyltaD9GUsAfDSJK9tPQQAo/e6JC9uPUQfxhAAByR5c+shACjjrUk2tR6iqzEEwE8leXzrIQAo48eSPK31EF2NIQBOaj0AAOWs/O4ZQwBU+lE/AJbD0a0H6GoMATCGzwGA1bLyu2flPwEAYHYCAAAKEgAAUJAAAICCBAAAFDS2fwxoFpcmubj1ED06L/4dBGB4d2Xyj+OMxS8lOb31EC1UDoAbk/xD6yF6dG4EADC872dcj50np2gAeAkAAAoSAABQkAAAgIIEAAAUJAAAoCABAAAFCQAAKEgAAEBBAgAAChIAAFCQAACAggQAABQkAACgIAEAAAUJAAAoSAAAQEECAAAKEgAAUJAAAICCBAAAFCQAAKAgAQAABQkAAChIAABAQQIAAAoSAABQkAAAgIIEAAAUJAAAoCABAAAFCQAAKEgAAEBBAgAAChIAAFCQAACAggQAABQkAACgIAEAAAUJAAAoSAAAQEECAAAKEgAAUJAAAICCBAAAFCQAAKAgAQAABQkAAChIAABAQQIAAAoSAABQkAAAgIIEAAAUJAAAoCABAAAFCQAAKEgAAEBBAgAAChIAAFCQAACAggQAABQkAACgoM2tB6Ctiz50S4549IGtxwAWbOd3H2w9Ao0JgOJe9+efaT0CAA14CQAAChIAAFCQAACAggQAABQkAACgIAEwHrtbDwCU4LFmJATAeNzZegCghG+1HoB+CIDxuL71AEAJ17UegH4IgPF4b+sBgBIuaj0A/RAA43F1kstaDwGM2geSXNN6CPohAMblrHgpABjGdUle0XoI+iMAxmVnkmckeUcS/9IH0IcHk7wtyTOT3N14FnrkHwMan3uT/GaSNyU5NcmJSQ5rOhGtvXrOjzu/1ylYNfckuTHJFUlubzwLAxAA4/XNJBe2HoKlME8ArCXZ0fcgwPLwEgAAFCQAAKAgAQAABQkAAChIAABAQQIAAAoSAABQkAAAgIIEAAAUJAAAoCABAAAFCQAAKEgAAEBBAgAAChIAAFCQAACAggQAABQkAACgIAEAAAUJAAAoSAAAQEECAAAKEgAAUJAAAICCBAAAFCQAAKAgAQAABQkAAChIAABAQQIAAAoSAABQkAAAgIIEAAAUJAAAoCABAAAFCQAAKEgAAEBBAgAAChIAAFCQAACAggQAABQkAACgIAEAAAUJAAAoSAAAQEECAAAKEgAAUJAAAICCBAAAFCQAAKAgAQAABQkAAChIAABAQQIAAAoSAABQkAAAgIIEAAAUJAAAoCABAAAFCQAAKEgAAEBBAgAAChIAAFCQAACAggQAABQkAACgIAEAAAUJAAAoSAAAQEECAAAKEgAAUJAAAICCBAAAFCQAAKAgAQAABQkAAChIAABAQQIAAAoSAABQkAAAgIIEAAAUJAAAoCABAAAFCQAAKEgAAEBBAgAAChIAAFCQAACAggQAABQkAACgIAEAAAUJAAAoSAAAQEECAAAKEgAAUJAAAICCBAAAFCQAAKAgAQAABQkAAChIAABAQQIAAAoSAABQkAAAgIIEAAAUJAAAoCABAAAFCQAAKEgAAEBBAgAAChIAAFCQAACAgjYv6DpPSPKqJM9Msj3J3UmuS/LeJB9f0AxD+NkkL0/ytCRHJPlWkmuSXJjkyw3nYrVsTvLSJC9Ocvye//56kg8nuSCT+8sqOiKT+/0vJDkuyQ+S3JTk0iQXJ9nVbjRWzPFJXpnk6ZnskO8k+c8kf5vk2oZzdfWsJGcmeUqSw5PcnuTqTO73X2s3Vj82JXlDkgeSrO3nuDSTT3xe52xw7o2OP+pwzUcnuWSDcz+45/yeYeHhPCnJF7L/29KdSU7reI157h+7O17zBUm+vcH5P5/khI7XYPwOyOSx9MHs/7b095k8Js/rjRuce6Pj9ztc88gkl29w7vv3nH9Th2s0945M94X8bJJj5rzGogNgS5Lrp7zGhXNegxpOTHJXHv52tCvJjg7XWXQA7Mhk5oe7xl0RAWzsgkx3e70+k8fmeSw6ALZnEsDTXONtc16juZdkti/m5zJfBCwyALYkuWHG65w5x3UYv83Z+Dv/fS3keSNgkQGwY8/HTnudzyZ5xJzXYtx+NbPdZm/IfBGwyADYntnu92tJTp/jOs19MbN/QT+XZNuM11lUAMyz/NeS/FdW/GkcBnFm5lvK80TAogJg1uW/93jZHNdi3DYl+Wpmvy3NEwGLCoBZvvNfvxdXygmZ7ws6TwQsIgDmXf57j5NnuBY1vD/zL+ZZI2ARATDv8l9L8r4Zr8X4nZz5H29njYBFBMC8y3/vcfwM15raUG9S6/K63pMzeRfkj/Q0S1dHJrkyySkdzuF1Ttab9zaxKcm7krymx1m6elWSv8j8z3S5f7Bel9vEKUk+lmRrT7N0tS3JR5P8RIdzDHIfGSoAuv544QlJPpLZXw7o25Yk/5rkqR3Pc2APszAuXe4jm5K8Pd3eGNiXHUnOT7fHEvcP1uu6Q07OZIfM+8bAvmzPZIc8ueN5BrmPDBUAt/RwjidnUnGtImBrJtXW5Tv/vW7u4RyMS9f7yN5nAlpGwNl7Zuj6Hpebu4/CyPSxQ07J5DG8VQRsz2SHdfnOf6+bezjHDxkqAG5IckcP52kVAVszqcc+lv9dST7Rw3kYlw/3cI6WEXB2uj3t/1B9fC0Yl09k8st+umoVAX0u/9uTfKqH8/yQoQJgV5I/7elci46APpd/kvxZJr/EAh7qPUn+t4fztIiAPpf/HUn+qofzMC4PZvLY2YdTstiXA/pc/knyJ+n+i7kW7sAkV2X+dz2uP25M8ph9XKfPnwI4Mskne5z5P5IcPO0XjHJ+PpNfj9vHbW139v/GwHnPty+vynS/5GeaY1eS50/xdaKmQzJ5DO3r8fhT2fcbA/v8KYBtmfwkW18zX5PkoGm/YMtmayZf9L6+GPv6EcG+AmBruv2o3/rjC/uYFdY7O/P/+Nz6Y38/IjjvuVrMCg+1Ld1+fG79sa/fGNhXAPQ967y/2Gip9P1d9fpnAvoIgKFnhI30+V31vp4JmPc8D/XrPc/4G3N8najpmEx+Y2Rfj8/rnwnoIwD6/s5/f89WrKQhF2zXALD8WQZDRsC859jL8qe1ISOgawBY/lMYatF2CQDLn2UyVATM+/GJ5c/yGCoCugSA5T+DIRbutP/i4PrjnQPMYvnT1RARMO/HWv4smyEi4Lw5P/bcWP4z6/uNgfO+KamvNzOtZfLGj+19fpEore8327X42PXn8YY/+tL3m+2WYYeM4g1/0+r7mYCWh+/8GUKfzwS0PHznzxD6fiag5VHiO//1xhABlj9DWvUIsPwZ0hgioOTy32uVI8DyZxFWNQIsfxZhlSOg9PLfaxUjwPJnkVYtAix/FmkVI8Dyf4hVigDLnxZWJQIsf1pYpQiw/PdhFSLA8qelZY8Ay5+WViECLP8NLHMEWP4sg2WNAMufZbDMEWD5T2EZI8DyZ5ksWwRY/iyTZYwAy38GyxQBlj/L6JVZjgiw/FlGyxQBlv8cliECLH+WWesIsPxZZssQAZZ/By0jwPJnFbSKAMufVdAyAiz/HrSIAMufVbLoCLD8WSUtIsDy79EiI8DyZxUtKgIsf1bRIiPA8h/AIiLA8meVDR0Blj+rbBERYPkPaMgIsPwZg6EiwPJnDIaMAMt/AYaIAMufMek7Aix/xmSICLD8F6jPCLD8GaO+IsDyZ4z6jADLv4E+IsDyZ8y6RoDlz5j1EQGWf0NdIsDyp4J5I8Dyp4IuEWD5L4F5IsDyp5JZI8Dyp5J5IsDyXyJbM/kLmeYv7vNJtrUZE5rZkclin2b572g0I7SyLZPdMM0OuSHJljZjsj+HJ7k8G//FXZHkqFYDQmMvSrIz+79/fCfJ6c2mg7aOSvLhbLxDLs1k17CknpvkkiS3JbkvyTeSvD/J81oOBUvi6CR/mOT6JPfsOa5L8gd7/j+o7vmZ7Iz/SXJ/JrvkfUme03IoAAAAAAAAAAAAAAAAAAAAAAAAAAAAAAAAAAAAAAAAAAAAAAAAAAAAAAAAAAAAKG7THB+zOckZSU5L8vgkB/U6EWOyK8k3knwkyXuT3NNojpOS/HKSpyY5otEMrIadST6Z5O+SfLbRDIcnOTPJc5Icm+QRjeZg+d2f5GtJPpjk0iQ/GPJiT0lyU5I1h2PG444kL8piHZrkPUl2d5zdUe/YleSCJIdksc5IcmfH2R01jxuTnJKB/HSS7y3BJ+lY3WN3krOyGAcluXrgz8cx/uOqLO5ZzldErDq6Hd9N8pOZ0rQvATwqk+/8HzvtiWE/7s/kKfmbBr7OW5P87sDXoIY3J3n9wNc4Mcmn4yVVuvt6khOS3Ptwf/CAKU94dix/+nFwknMGvsYxSX5r4GtQx28nOXrga5wTy59+PC7Jq6f5g9MGwKJfu2XcXpDkwAHP/7ws/rVbxuvQJKcOeP6DMnlTNfTljGn+0LQB8KQOg8B6hyc5bsDznzjgualpyNvU45IcNuD5qWeq2+u0AXBkh0FgX44a8Nxur/Rty4Dn9qOp9G2q2+u0AQB9m+d3UMAYuS/QhAAAgIIEAAAUJAAAoCABAAAFCQAAKGjzUCfelE3591/cMdTpWRKv+MgH8qW77mw9Ri/O+p3n5hmnntR6DAZ09RWfyV+fe2XrMXpx5BOemGe/5fzWYzCgtbW1/ONLnzXY+QcLgCQ5ZduxQ56eJXDogUP+Qr/F2v7YLTnhpB9tPQYD+tKnb209Qm8OPPSROfpJJ7cegyGtrQ16ei8BAEBBAgAAChIAAFCQAACAggQAABQkAACgIAEAAAUJAAAoSAAAQEECAAAKEgAAUJAAAICCBAAAFCQAAKAgAQAABQkAAChIAABAQQIAAAoSAABQkAAAgIIEAAAUJAAAoCABAAAFCQAAKEgAAEBBAgAAChIAAFCQAACAggQAABQkAACgIAEAAAUJAAAoSAAAQEECAAAKEgAAUJAAAICCBAAAFCQAAKAgAQAABQkAAChIAABAQQIAAAoSAABQkAAAgIIEAAAUJAAAoCABAAAFCQAAKEgAAEBBAgAAChIAAFCQAACAggQAABQkAACgIAEAAAUJAAAoSAAAQEECAAAKEgAAUJAAAICCBAAAFCQAAKAgAQAABQkAAChIAABAQQIAAAoSAABQkAAAgIIEAAAUJAAAoCABAAAFCQAAKEgAAEBBAgAAChIAAFCQAACAggQAABQkAACgIAEAAAUJAAAoSAAAQEECAAAKEgAAUJAAAICCBAAAFCQAAKAgAQAABQkAAChIAABAQQIAAAoSAABQkAAAgIIEAAAUJAAAoCABAAAFCQAAKEgAAEBBAgAAChIAAFCQAACAggQAABQkAACgIAEAAAUJAAAoSAAAQEECAAAKEgAAUJAAAICCBAAAFCQAAKAgAQAABQkAAChIAABAQQIAAAoSAABQkAAAgIIEAAAUJAAAoKBNU/65tUGnoKKnJrl+oHOfl+TVA52bms5PsmOgcz8lyXUDnZu6Hna/ewYAAAoSAABQkAAAgIIEAAAUJAAAoCABAAAFTRsA9ww6BRXtHPDcbq/07e4Bz+32St+mur1OGwBf7TAIrHd/km8MeP7/HvDc1DTkY+BtSR4Y8PzUM9XtddoA+OcOg8B6H03y/QHPf0WS3QOen1p2JfnQgOe/N8nHBjw/9fzTNH9o2gB4ezxNRT/Wkrxx4GvckuSiga9BHX+T5NaBr/Gm+I2r9GNnJjv7YT1iyhN+L8lXkrwk0//6YNiXN2bygDq0q5O8KMnWBVyL8fpyJo979w18nVuTHJzk6QNfh3HbneTMJDcMcfIzMqmLNYdjxuOBJK/PYgPy2CTX9vx5OOoc1yR5TBZnU5JzkjzY8+fhqHF8J8npmcG0zwDs9cUkF2ZSw4ftOQ6a8RzUcV8mb0a5OMlZSS5b8PXvSfKXSW5Mckgmt9dHx7NY7NtaktuT/FuSNyR5bRb/0ufHk1yy538fkcntdfOCZ2B13JPkC0neneRXMtB3/gAAAAAAAAAAAAAAAAAAAAAAwAD+H+IebDXwJ7rhAAAAAElFTkSuQmCC;fontFamily=Verdana;" parent="1" vertex="1">
          <mxGeometry x="390" y="490" width="86" height="86" as="geometry" />
        </mxCell>
        <mxCell id="Nmos6C9Gwye4AmpU9b0R-12" style="edgeStyle=orthogonalEdgeStyle;rounded=0;orthogonalLoop=1;jettySize=auto;html=1;exitX=0.5;exitY=1;exitDx=0;exitDy=0;entryX=0;entryY=0.5;entryDx=0;entryDy=0;strokeWidth=3;endArrow=block;endFill=1;" parent="1" source="Nmos6C9Gwye4AmpU9b0R-11" target="Nmos6C9Gwye4AmpU9b0R-2" edge="1">
          <mxGeometry relative="1" as="geometry" />
        </mxCell>
        <mxCell id="Nmos6C9Gwye4AmpU9b0R-24" style="edgeStyle=orthogonalEdgeStyle;rounded=0;orthogonalLoop=1;jettySize=auto;html=1;exitX=1;exitY=0.5;exitDx=0;exitDy=0;entryX=0;entryY=0.5;entryDx=0;entryDy=0;strokeWidth=3;endArrow=block;endFill=1;" parent="1" source="Nmos6C9Gwye4AmpU9b0R-22" target="Nmos6C9Gwye4AmpU9b0R-1" edge="1">
          <mxGeometry relative="1" as="geometry" />
        </mxCell>
        <mxCell id="Nmos6C9Gwye4AmpU9b0R-22" value="Interface" style="shape=image;verticalLabelPosition=bottom;labelBackgroundColor=none;verticalAlign=top;aspect=fixed;imageAspect=0;image=data:image/png,iVBORw0KGgoAAAANSUhEUgAAAgAAAAIACAYAAAD0eNT6AAAABHNCSVQICAgIfAhkiAAAAAlwSFlzAAAOxAAADsQBlSsOGwAAABl0RVh0U29mdHdhcmUAd3d3Lmlua3NjYXBlLm9yZ5vuPBoAABJtSURBVHic7d1rjKV3XcDx3/85Z247l73MbruwpVyUFqq0UWMiJKVRIZDIRd+Q+MIIidUgiWmjhiKJbDAqwVIiUWPRAJqYGN8ZQKVtFAwCErlrtpQmhV5ot91rd3d25pzzPI8vymx3urM7O5czszu/zydpcuac8zzP/0Wz/+95rhEAAAAAAAAAAAAAAAAAAAAAAAAAAAAAAAAAAAAAAAAAAAAAAAAAAAAAAAAAAAAAAAAAAAAAAAAAAAAAAAAAAAAAAAAAAAAAAAAAAAAAAAAAAAAAAAAAAAAAAAAAAAAAAAAAAAAAAAAAAAAAAAAAAAAAAAAAAABXnLKehd97z8d/omrbX2yj3BIRN0bEbEQ7ujFDAwDOKaWOphyJqn24tPHNUrWfHz355DcPHjzYrGl1q13gznv+ds9Y2/xWRLwzIm5Yy0YBgA3xg4jy91Un/vJP7rj98GoWvOwAuPOeeybG2un3RbR3RMT0qocIAAzL2WjbvxifGHzw4Hvec/pyFrisAHjfR//6tU1T/UOJePn6xgcADE2Jx6Muv/ah37/98yt9tVrpC3fd8/HfbpvqP03+AHCFa+O6qNoH7rr73jtX+mrnUh/e9ZG/+UBE/FlcRigAAFeEKkp5061vfsvoFz/3mX+/2JcuGgB33X3vnVHiT4czNgBguMqtt77prWe+eN+nv7Tsp8u9+Qcfuffnmyj3xwp7CACAK1rTtOXNH/692+9/4QcXBMDBj35y13wzOBTR7t+csQEAw1OeGq+6rz5457tOnP/uBcf25+v+H5v8AWC7aPfPN/0/euG7S/YAvPfP772+DMr3IsLd/ABg++hHVd/woTvf/f3FN5bsASiD6nfD5A8A281ItJ07zn/j3B6Agwf/aXR++sQTEbF304cFAAxXW46On9754oMH39GLOG8PwNzUydvC5A8A21NpZ3vTx25d/PNcAHSq+IWtGREAsBnaUs7N9c+fA9C2P7UlowEANkUb5dxcfy4AGo/2BYBtrbTPz/XnAqA4/g8A21p73lx//mWAk1swFgBg80wvvjg/ADzxDwC2t+qCFwBAHgIAABISAACQkAAAgIQEAAAkJAAAICEBAAAJCQAASEgAAEBCAgAAEhIAAJCQAACAhLpbPQAArj5tKXF272icmR2L3lQ3mpEqqqaNznwdE8d6MXV4Pjq9Zijb7nbauOXAQty0fz72zwxicqyJuV4Vx+c6ceipsfj6oxMx1y9D2fZoW8fN88fjhoWTMVsvxEQ7iLOlG0c7Y/HQ2M741vie6Jer47e1AABgVXrT3Tj6yunoT3SWvF9XJeqpbvSmuvHsdRMx89jZ2Pn43IZu+5X7evG2m0/Frol6yfvTY01MjzVx/e5+3Pbjc3H/g5Px1R9MbOi2b5o/EW8480RMNoMl70+1/Zhq+vHS/ul43dzhuH/yQBwa37Wh2x4GAQDAZTu7ZzSO3DgT7Qo/ctuqxMmX7oj+VCf2PnhqQ7b90y85G2+/+VRUK/y4Hx9p4q2vORX7pur47P9Nbci2Xzd3OF4/dzhK217ye5PNIN5++tHY1fTiyzuu2ZBtD8vVsZ8CgC3Xn+zGkRunV5z8zzc3OxYnXja57m2/Ym/vsib/8/3cy+fitS9f/x6Im+ZPXNbkv6i0bdw291S8ev7Eurc9TAIAgMty7Memol3NDPwjzx6YiP6OzspfvIiqRLzlJ0+vavJf9MZXnY6dLzhcsBojbRNvOPPEZU/+i0rbxhvPPBGj7dq3PWwCAIAVLUx3Y2F67UeNTx3YseZlX71/PvZNDVb+4jJGOhE/e/38mrd9y/yxC475X67JZhCvmT++5m0PmwAAYEVnZ8fWtfzc7pGINZ6Y/6r9vXVt+6b9aw+AGxZOrmvbN/TWt/wwCQAAVvTCM/5Xqxmpoh5Z25Rz7Rp//S+anarXdPggImK2Xns8RETMDhbWtfwwCQAAVtSMrP+6+rWuY3x0ffcTqErEeHd1x/AXTTTrO4Y/0a4vXoZJAACwoqq/tgl0yTp6a1vH2d469z60EfODtcXH2Wp9V8ufLVfu1fYCAIAVjcyt75ds1W+iM1jbL/mnT60vAI6c7kazxn452lnfuQ9HuuPrWn6YBAAAK5o41l/n8r2INU7CDx5e3yR86Km1L//Q2M51bft7ozPrWn6YBAAAKxo71Y/xk2uPgJkfnl3zsoeeGotn1rgXoFeX+O/vr/2WwN8a3xOn13gY4EzVje+M717ztodNAABwWXY9cjpKvfqf8TOPz8XI3NpPpmvaiE//7/SaduPf/+BknFpY+1TXL1U8MHkg2rK6cwjaUuJz0weiV9Z3+GKYBAAAl2X0TB17HzoVZRWH8nccWYhdj67/dryPHB2Nf/72zKoi4CuPTMRXHln7DYgWHRrfFV/Ysf+yI6AtJb6wY398d/TKfiDQlXt6IgBXnIljvbj2Oyfi6Cunor/j4lNIqdvY+fjZmNnApwF+/bHxeHa+irfd/Gzsnrh4hZztl7jvwan4nw18GuCXd1wTJ6rReMOZJ2LqEncGPF11477pA1f85B8hAABYpdHTg3jRN07E3N6xmNs7GgtTI9GMVFHqJrrzTUwc68XU0/PR6a3v+v3lPPzMaHzsP/bGzQfm46b9C7F/ZhBTY03M9UscPd2JBw+PxzceG4u5/sbv4D40viseHpuJm+ePxQ29kzE7WIgdzSDmqm4c6Y7H90Zn4tvje6Jfro6d6wIAgDXZcWQhdhzZ/DvdDZrn9gZ8/bHNv8SuX6r42sTe+NrE3k3f9ka7OjIFANhQAgAAEhIAAJCQAACAhAQAACQkAAAgIQEAAAkJAABISAAAQEICAAASEgAAkJAAAICEBAAAJCQAACAhAQAACQkAAEhIAABAQgIAABISAACQkAAAgIQEAAAkJAAAICEBAAAJCQAASEgAAEBCAgAAEhIAAJCQAACAhAQAACRUFl8cP3Wm3cqBAADDN6jiwL7JyR/aAwAACQkAAEhIAABAQgIAABISAACQkAAAgIQEAAAkJAAAICEBAAAJCQAASEgAAEBCAgAAEhIAAJCQAACAhAQAACQkAAAgIQEAAAkJAABISAAAQEICAAASEgAAkJAAAICEBAAAJCQAACAhAQAACQkAAEhIAABAQgIAABLqbvUALmb8xANbPQQ2SFtGY2Hn64e2/q+eeDIenjs2tPWzuW7bc30cGJ8eyrrn6jb+7uEzQ1k3XMy7b5za6iEs64oNgO7cd7Z6CGyQpjMZMcQAeHjuWPzX8ceHtn4212umrxlaACwM2rj/yYWhrBsu5koNAIcAACAhAQAACQkAAEhIAABAQgIAABISAACQkAAAgIQEAAAkJAAAICEBAAAJCQAASEgAAEBCAgAAEhIAAJCQAACAhAQAACQkAAAgIQEAAAkJAABISAAAQEICAAASEgAAkJAAAICEBAAAJCQAACAhAQAACQkAAEhIAABAQgIAABISAACQkAAAgIQEAAAkJAAAICEBAAAJCQAASEgAAEBCAgAAEhIAAJCQAACAhAQAACQkAAAgIQEAAAkJAABISAAAQEICAAASEgAAkJAAAICEBAAAJCQAACAhAQAACQkAAEhIAABAQgIAABISAACQkAAAgIQEAAAkJAAAICEBAAAJCQAASEgAAEBCAgAAEhIAAJCQAACAhAQAACQkAAAgIQEAAAkJAABISAAAQEICAAASEgAAkJAAAICEBAAAJCQAACAhAQAACQkAAEhIAABAQgIAABISAACQkAAAgIQEAAAkJAAAICEBAAAJCQAASEgAAEBCAgAAEhIAAJBQd6sHALBZOlWJV0z7Zw8iBACQyMxIibt/ZudWDwOuCA4BAEBCAgAAEhIAAJCQAACAhAQAACQkAAAgIQEAAAkJAABISAAAQEICAAASEgAAkJAAAICEBAAAJCQAACAhAQAACQkAAEhIAABAQgIAABISAACQkAAAgIQEAAAk1N3qAQBsmrqOePrJrR4F2bzouq0ewbIEAJBGmTsT5RMf2+phkEzz/g9v9RCW5RAAACQkAAAgIQEAAAkJAABISAAAQEICAAASEgAAkJAAAICEBAAAJCQAACAhAQAACQkAAEhIAABAQgIAABISAACQkAAAgIQEAAAkJAAAICEBAAAJCQAASEgAAEBCAgAAEhIAAJCQAACAhAQAACQkAAAgIQEAAAkJAABISAAAQEICAAASEgAAkJAAAICEBAAAJCQAACAhAQAACQkAAEhIAABAQgIAABISAACQkAAAgIQEAAAkJAAAICEBAAAJCQAASEgAAEBCAgAAEhIAAJCQAACAhAQAACQkAAAgIQEAAAkJAABISAAAQEICAAASEgAAkJAAAICEBAAAJCQAACAhAQAACQkAAEhIAABAQgIAABISAACQkAAAgIQEAAAkJAAAICEBAAAJCQAASEgAAEBCAgAAEhIAAJCQAACAhAQAACQkAAAgIQEAAAkJAABISAAAQEICAAASEgAAkJAAAICEBAAAJCQAACAhAQAACQkAAEhIAABAQgIAABISAACQkAAAgIQEAAAkJAAAICEBAAAJCQAASEgAAEBCAgAAEhIAAJCQAACAhAQAACQkAAAgIQEAAAkJAABISAAAQEICAAASEgAAkJAAAICEBAAAJCQAACAhAQAACQkAAEhIAABAQgIAABISAACQkAAAgIQEAAAkJAAAICEBAAAJCQAASEgAAEBCAgAAEhIAAJCQAACAhAQAACQkAAAgIQEAAAkJAABISAAAQEICAAASEgAAkJAAAICEBAAAJCQAACAhAQAACQkAAEhIAABAQgIAABLqbvUALqYZuWarh8AGaTsTQ13/npGJeMnEzFC3webZ0RneP0ttVUVM+X8FIiLK4ovjp860WzkQAGD4BlUc2Dc5+UOHAAAgIQEAAAkJAABIpJRSIs4LgLZ1CgAAbHeDXm80YskegHKx7wIA28SgqkYizguApq23bjQAwNA1TXPudbXcmwDA9tM2zx/ufz4AagEAANtZ3Ty/t/+8PQC1EwEBYBur62UCoG3bJR8AANtHXdfRtsucAxARMRgMNn1AAMDw9Qf9JX8vCYCmqe0FAIBtpm7qaF4wv19wJ8B+r7dpAwIAhqtt22Xn9gsCoGkbEQAA28RgMFj2Uv9lnwXQH/SjHjgUAABXs7quo9/vL/vZRR8G1OsvOB8AAK5STVPHwsJCRCx/if9FA6Bt2+j1FlwZAABXmbquY37+4pN/RET3Uit4LgJ60TZNjIyObvT4AIAN1LZtDAaDH+32v/TN/c4LgNJGtMs8ErB97pyAuo6RsdHoVJ2NHS0AsG51U0e/11vx2T7N2bN1xNI9AL2IGLvoAm0TC/PzUXU6MTIyIgQA4ApQN3UMev0l9/m/lP7IyJGI8wKglHK6bduLBsCipq5joa4jooput4pOpxullHP/AQDD07RttE0TdVNHPVh6e9+VlCj9V+ze/WzE+QEQ5Yk2YnYVQ4jBoFlykmAp1XOHHIqHCgHAhmlLRGnX/9C+Up4q5blJ+vkAqMp3oo6b1zW+xQox/wPABmo3Zm4t5buLL89dBlii+bcNWDUAcIUqpTxw7vXii7Ztx5585sjRtm0nt2ZYAMCwlFLqkbLjJfv2TT4Zcf4egFIWqqju27qhAQDDU31lcfKPeOHjgKv2/aUU9/8FgG2m04kPnv/3kgB48d69h6pS/mVzhwQADFOn0/3StbOzS/byX/AsgNLUt1elOrV5wwIAhqWUstAZ7b7rhe9fEADXXnvt4YjyGxHl8u8sAABcgUqUqvzhvpmZhy785CKeeuboR+umucNF/QBwdapK9x9fdM2eX13us0veu/fwkaOfGtTNr4sAALi6VFXnX/fv3fNLi3f+u+DzSy187d7Zd1bdzt0OBwDA1aGU0nY7nU9davKPWGEPwKIjx5/95V6/94m2bXZv3BABgI1USjndHRn7nWt2z3xyxe9e7kqPHm1n+u3xv2qa5h1t24ysb4gAwMYpdafqfGZyfOQ3p6enn76sJVa7ibm5uetOL/Q+MOjXv9K29SqeHggAbKSqqk6WqD5bjXY+cM3OnQ+vZtlVB8Citm3L8VOnXlcPmrfXg+aWtjQva9uYiWi7Ky8NAKxKibpEnKqq7qNVE98upXxmdnbn593BFwAAAAAAAAAAAAAAAAAAAAAAAAAAAAAAAAAAAAAAAAAAAAAAAAAAAAAAAAAAAAAAAAAAAAAAAAAAAAAAAAAAAAAAAAAAAAAAAAAAAAAAAAAAAAAAAAAAAAAAAAAAAAAAAAAAAAAAAAAAAAAAAAAAAAAAAAAA2Eb+HzA2uLLyHeBfAAAAAElFTkSuQmCC;fontFamily=Verdana;" parent="1" vertex="1">
          <mxGeometry x="570" y="330" width="102" height="102" as="geometry" />
        </mxCell>
        <mxCell id="Nmos6C9Gwye4AmpU9b0R-23" style="edgeStyle=orthogonalEdgeStyle;rounded=0;orthogonalLoop=1;jettySize=auto;html=1;exitX=1;exitY=0.5;exitDx=0;exitDy=0;entryX=0;entryY=0.5;entryDx=0;entryDy=0;strokeWidth=3;endArrow=block;endFill=1;" parent="1" source="Nmos6C9Gwye4AmpU9b0R-2" target="Nmos6C9Gwye4AmpU9b0R-22" edge="1">
          <mxGeometry relative="1" as="geometry">
            <mxPoint x="312" y="391" as="sourcePoint" />
            <mxPoint x="402" y="391" as="targetPoint" />
          </mxGeometry>
        </mxCell>
        <mxCell id="Nmos6C9Gwye4AmpU9b0R-26" value="" style="shape=image;verticalLabelPosition=bottom;labelBackgroundColor=default;verticalAlign=top;aspect=fixed;imageAspect=0;image=https://upload.wikimedia.org/wikipedia/commons/thumb/2/29/Postgresql_elephant.svg/1200px-Postgresql_elephant.svg.png;" parent="1" vertex="1">
          <mxGeometry x="413" y="301" width="34" height="35.05" as="geometry" />
        </mxCell>
        <mxCell id="Nmos6C9Gwye4AmpU9b0R-28" value="" style="shape=image;verticalLabelPosition=bottom;labelBackgroundColor=default;verticalAlign=top;aspect=fixed;imageAspect=0;image=https://upload.wikimedia.org/wikipedia/commons/thumb/c/c3/Python-logo-notext.svg/1200px-Python-logo-notext.svg.png;" parent="1" vertex="1">
          <mxGeometry x="415" y="140" width="30" height="32.94" as="geometry" />
        </mxCell>
        <mxCell id="Nmos6C9Gwye4AmpU9b0R-29" value="" style="shape=image;verticalLabelPosition=bottom;labelBackgroundColor=default;verticalAlign=top;aspect=fixed;imageAspect=0;image=https://upload.wikimedia.org/wikipedia/commons/thumb/c/c3/Python-logo-notext.svg/1200px-Python-logo-notext.svg.png;" parent="1" vertex="1">
          <mxGeometry x="245" y="302.06" width="30" height="32.94" as="geometry" />
        </mxCell>
        <mxCell id="Nmos6C9Gwye4AmpU9b0R-30" value="" style="shape=image;verticalLabelPosition=bottom;labelBackgroundColor=default;verticalAlign=top;aspect=fixed;imageAspect=0;image=https://miro.medium.com/v2/resize:fit:1400/1*woN9mIEMiYSkxNcna5pDLQ.png;" parent="1" vertex="1">
          <mxGeometry x="399.5" y="460" width="61" height="24.15" as="geometry" />
        </mxCell>
        <mxCell id="Nmos6C9Gwye4AmpU9b0R-31" value="" style="shape=image;verticalLabelPosition=bottom;labelBackgroundColor=default;verticalAlign=top;aspect=fixed;imageAspect=0;image=https://upload.wikimedia.org/wikipedia/commons/thumb/c/c3/Python-logo-notext.svg/1200px-Python-logo-notext.svg.png;" parent="1" vertex="1">
          <mxGeometry x="606" y="297.06" width="30" height="32.94" as="geometry" />
        </mxCell>
        <mxCell id="ByU9qiZ3OBVU3urzjESb-1" value="" style="shape=image;verticalLabelPosition=bottom;labelBackgroundColor=default;verticalAlign=top;aspect=fixed;imageAspect=0;image=https://miro.medium.com/v2/resize:fit:700/1*Mq0CqXzlHOJVysq1v_a5dA.png;" vertex="1" parent="1">
          <mxGeometry x="179" y="480.00000000000006" width="160" height="54.17" as="geometry" />
        </mxCell>
        <mxCell id="ByU9qiZ3OBVU3urzjESb-2" value="Orchestrator" style="shape=image;html=1;verticalAlign=top;verticalLabelPosition=bottom;labelBackgroundColor=none;imageAspect=0;aspect=fixed;image=https://cdn0.iconfinder.com/data/icons/business-startup-10/50/35-128.png;fontFamily=Verdana;" vertex="1" parent="1">
          <mxGeometry x="230" y="518" width="58" height="58" as="geometry" />
        </mxCell>
      </root>
    </mxGraphModel>
  </diagram>
</mxfile>
